<svg xmlns="http://www.w3.org/2000/svg" width="52.669" height="80" viewBox="0 0 52.669 80">
  <g id="ic_chemical" transform="translate(-29.426 -5.73)">
    <path id="Path_44533" data-name="Path 44533" d="M81.321,82.111,64.881,51.336V40.559a4.772,4.772,0,0,0,4.731-4.2,4.66,4.66,0,0,0-4.637-5.111H46.692a4.773,4.773,0,0,0-4.78,4.2,4.66,4.66,0,0,0,4.637,5.111h.094V51.336L30.2,82.111a6.591,6.591,0,0,0,5.811,9.7h39.49a6.591,6.591,0,0,0,5.811-9.7ZM46.552,37.894A1.994,1.994,0,0,1,44.571,35.7,2.086,2.086,0,0,1,46.7,33.91H64.979A1.994,1.994,0,0,1,66.959,36.1a2.087,2.087,0,0,1-2.125,1.792H56.4a1.333,1.333,0,1,0,0,2.666h5.817V51.67a1.338,1.338,0,0,0,.148.6,57.33,57.33,0,0,1-14.743,2.9L49.155,52.3a1.338,1.338,0,0,0,.157-.628V40.56h.662a1.333,1.333,0,0,0,0-2.666ZM78.873,87.237a3.893,3.893,0,0,1-3.364,1.9H36.019a3.925,3.925,0,0,1-3.459-5.775L46.171,57.886a59.074,59.074,0,0,0,17.464-3.222l15.334,28.7a3.9,3.9,0,0,1-.1,3.869Z" transform="translate(0 -6.078)" fill="#6ec1b6"/>
    <path id="Path_44534" data-name="Path 44534" d="M53.485,26.383A3.885,3.885,0,1,0,49.6,22.5a3.885,3.885,0,0,0,3.885,3.885Zm0-5.109a1.219,1.219,0,1,1-1.219,1.219A1.219,1.219,0,0,1,53.485,21.274Z" transform="translate(-4.806 -3.069)" fill="#6ec1b6"/>
    <path id="Path_44535" data-name="Path 44535" d="M48.635,90.413A3.984,3.984,0,1,0,52.618,94.4,3.984,3.984,0,0,0,48.635,90.413Zm0,5.682a1.7,1.7,0,1,1,1.7-1.7,1.7,1.7,0,0,1-1.7,1.7Z" transform="translate(-3.627 -20.175)" fill="#6ec1b6"/>
    <path id="Path_44536" data-name="Path 44536" d="M69.1,70.015a3.415,3.415,0,1,0,3.414,3.416A3.415,3.415,0,0,0,69.1,70.015Zm0,4.544a1.13,1.13,0,1,1,1.129-1.127A1.13,1.13,0,0,1,69.1,74.559Z" transform="translate(-8.638 -15.315)" fill="#6ec1b6"/>
    <path id="Path_44537" data-name="Path 44537" d="M77.523,95.628a3.123,3.123,0,1,0,3.123,3.123A3.123,3.123,0,0,0,77.523,95.628Zm0,3.956a.838.838,0,1,1,.838-.838.838.838,0,0,1-.838.838Z" transform="translate(-10.715 -21.417)" fill="#6ec1b6"/>
    <path id="Path_44538" data-name="Path 44538" d="M63.023,54.846A3.123,3.123,0,1,0,59.9,51.723,3.123,3.123,0,0,0,63.023,54.846Zm0-3.961a.838.838,0,1,1-.838.838A.838.838,0,0,1,63.023,50.885Z" transform="translate(-7.26 -10.213)" fill="#6ec1b6"/>
    <circle id="Ellipse_58" data-name="Ellipse 58" cx="1.566" cy="1.566" r="1.566" transform="translate(48.09 60.901)" fill="#6ec1b6"/>
    <circle id="Ellipse_59" data-name="Ellipse 59" cx="1.399" cy="1.399" r="1.399" transform="translate(57.664 69.352)" fill="#6ec1b6"/>
    <path id="Path_44539" data-name="Path 44539" d="M69.32,18.2a6.237,6.237,0,1,0-6.237-6.237A6.237,6.237,0,0,0,69.32,18.2Zm0-9.808a3.571,3.571,0,1,1-3.571,3.571A3.571,3.571,0,0,1,69.32,8.4Z" transform="translate(-8.019 0)" fill="#6ec1b6"/>
  </g>
</svg>
