<svg xmlns="http://www.w3.org/2000/svg" width="71.191" height="80" viewBox="0 0 71.191 80">
  <g id="ic_Health" transform="translate(-28.191)">
    <g id="Group_57647" data-name="Group 57647" transform="translate(31.473 0)">
      <path id="Path_44829" data-name="Path 44829" d="M78.795,22.485V18.374a4.621,4.621,0,0,0-4.615-4.615H73.26V9.483h13.59a1.567,1.567,0,0,0,1.567-1.567V1.567A1.567,1.567,0,0,0,86.851,0H61.981a4.742,4.742,0,0,0,0,9.483h2.57v4.275h-.919a4.621,4.621,0,0,0-4.615,4.615v4.117a16.7,16.7,0,0,0-9.822,15.2V70.858A9.152,9.152,0,0,0,58.336,80H79.489a9.152,9.152,0,0,0,9.142-9.142V37.7a16.7,16.7,0,0,0-9.836-15.211ZM60.372,4.742a1.611,1.611,0,0,1,1.609-1.609h23.3V6.35h-23.3a1.611,1.611,0,0,1-1.609-1.609Zm7.312,4.742h2.444v4.275H67.684Zm-5.535,8.891a1.484,1.484,0,0,1,1.482-1.483H74.179a1.484,1.484,0,0,1,1.482,1.483v3.058a16.675,16.675,0,0,0-3.712-.417H65.875a16.679,16.679,0,0,0-3.726.42V18.374ZM85.5,66.828H52.327V42.634H85.5ZM79.489,76.867H58.336a6.016,6.016,0,0,1-6.009-6.009V68.708H85.5v2.151A6.016,6.016,0,0,1,79.489,76.867ZM85.5,40.754H52.327V37.7A13.563,13.563,0,0,1,65.875,24.148H71.95A13.563,13.563,0,0,1,85.5,37.7v3.058Z" transform="translate(-49.194 0)" fill="#6ec1b6"/>
      <path id="Path_44830" data-name="Path 44830" d="M320.4,69.876c-4.905,0-7.6,9.878-7.6,13.153a7.6,7.6,0,0,0,15.2,0C328,79.754,325.3,69.876,320.4,69.876Zm0,17.621a4.473,4.473,0,0,1-4.468-4.468,19,19,0,0,1,1.635-6.412c1.257-2.854,2.4-3.608,2.834-3.608s1.577.754,2.834,3.608a19,19,0,0,1,1.635,6.412A4.473,4.473,0,0,1,320.4,87.5Z" transform="translate(-271.606 -58.958)" fill="#6ec1b6"/>
      <path id="Path_44831" data-name="Path 44831" d="M114.913,302.95h3.761v3.761a2.114,2.114,0,0,0,2.111,2.111h3.5a2.113,2.113,0,0,0,2.111-2.111V302.95h3.761a2.114,2.114,0,0,0,2.111-2.111v-3.5a2.114,2.114,0,0,0-2.111-2.111h-3.761V291.47a2.113,2.113,0,0,0-2.111-2.111h-3.5a2.114,2.114,0,0,0-2.111,2.111v3.761h-3.761a2.113,2.113,0,0,0-2.111,2.111v3.5A2.113,2.113,0,0,0,114.913,302.95Zm-.231-5.608a.231.231,0,0,1,.231-.231h4.7a.94.94,0,0,0,.94-.94v-4.7a.232.232,0,0,1,.231-.231h3.5a.232.232,0,0,1,.231.231v4.7a.94.94,0,0,0,.94.94h4.7a.232.232,0,0,1,.231.231v3.5a.231.231,0,0,1-.231.231h-4.7a.94.94,0,0,0-.94.94v4.7a.232.232,0,0,1-.231.231h-3.5a.232.232,0,0,1-.231-.231v-4.7a.94.94,0,0,0-.94-.94h-4.7a.232.232,0,0,1-.231-.231Z" transform="translate(-102.863 -244.147)" fill="#6ec1b6"/>
      <path id="Path_44832" data-name="Path 44832" d="M218.769,211.962a2.865,2.865,0,1,0,2.865,2.865A2.868,2.868,0,0,0,218.769,211.962Zm0,3.851a.985.985,0,1,1,.985-.985A.986.986,0,0,1,218.769,215.813Z" transform="translate(-189.856 -178.843)" fill="#6ec1b6"/>
      <path id="Path_44833" data-name="Path 44833" d="M194.461,191a1.11,1.11,0,1,0,1.11,1.11A1.11,1.11,0,0,0,194.461,191Z" transform="translate(-170.826 -161.158)" fill="#6ec1b6"/>
      <path id="Path_44834" data-name="Path 44834" d="M161.522,222.534a1.569,1.569,0,1,0,1.569,1.569A1.569,1.569,0,0,0,161.522,222.534Z" transform="translate(-142.647 -187.763)" fill="#6ec1b6"/>
      <path id="Path_44835" data-name="Path 44835" d="M138.592,185.9a1.567,1.567,0,0,1-.272-3.109,9.027,9.027,0,0,1,1.38-.137h.034a1.567,1.567,0,0,1,.033,3.133,5.869,5.869,0,0,0-.9.089A1.59,1.59,0,0,1,138.592,185.9Z" transform="translate(-123.303 -154.11)" fill="#6ec1b6"/>
      <path id="Path_44836" data-name="Path 44836" d="M96.957,204.328a1.567,1.567,0,0,1-1.449-2.161,10.672,10.672,0,0,1,2.461-3.606,1.567,1.567,0,1,1,2.174,2.256,7.515,7.515,0,0,0-1.735,2.537,1.567,1.567,0,0,1-1.45.973Z" transform="translate(-88.172 -167.166)" fill="#6ec1b6"/>
    </g>
    <g id="Group_57648" data-name="Group 57648" transform="translate(28.191 1.366)">
      <path id="Path_44837" data-name="Path 44837" d="M417.676,209.876l1.287,3.618a.581.581,0,0,0,.3.34l3.215,1.448a.641.641,0,0,1,0,1.133l-3.215,1.448a.581.581,0,0,0-.3.34l-1.287,3.618a.522.522,0,0,1-1.007,0l-1.287-3.618a.581.581,0,0,0-.3-.34l-3.215-1.448a.641.641,0,0,1,0-1.133l3.215-1.448a.581.581,0,0,0,.3-.34l1.287-3.618A.522.522,0,0,1,417.676,209.876Z" transform="translate(-351.63 -178.125)" fill="#6ec1b6"/>
      <path id="Path_44838" data-name="Path 44838" d="M335.491,307.835l.955,2.684a.431.431,0,0,0,.224.252l2.385,1.074a.476.476,0,0,1,0,.84l-2.385,1.074a.431.431,0,0,0-.224.252l-.955,2.684a.387.387,0,0,1-.747,0l-.955-2.684a.431.431,0,0,0-.224-.252l-2.385-1.074a.476.476,0,0,1,0-.84l2.385-1.074a.43.43,0,0,0,.224-.252l.955-2.684A.387.387,0,0,1,335.491,307.835Z" transform="translate(-283.626 -260.862)" fill="#6ec1b6"/>
      <circle id="Ellipse_70" data-name="Ellipse 70" cx="2.81" cy="2.81" r="2.81" transform="translate(59.038 1.281) rotate(-13.175)" fill="#6ec1b6"/>
      <path id="Path_44839" data-name="Path 44839" d="M30.615,121.985a1.212,1.212,0,1,1-1.212-1.212A1.212,1.212,0,0,1,30.615,121.985Z" transform="translate(-28.191 -103.268)" fill="#6ec1b6"/>
    </g>
  </g>
</svg>
