<svg xmlns="http://www.w3.org/2000/svg" width="80" height="80" viewBox="0 0 80 80">
  <g id="ic_consumer" transform="translate(-37.031 -38)">
    <path id="Path_44505" data-name="Path 44505" d="M240.385,201.714a1.423,1.423,0,0,0,1.416-1.429v-2.857a1.416,1.416,0,1,0-2.833,0v2.857A1.423,1.423,0,0,0,240.385,201.714Z" transform="translate(-130.436 -101.571)" fill="#6ec1b6"/>
    <path id="Path_44506" data-name="Path 44506" d="M240.385,220a1.423,1.423,0,0,0-1.416,1.429v2.857a1.416,1.416,0,1,0,2.833,0v-2.857A1.423,1.423,0,0,0,240.385,220Z" transform="translate(-130.436 -117)" fill="#6ec1b6"/>
    <path id="Path_44507" data-name="Path 44507" d="M224.385,212a1.429,1.429,0,0,0,0,2.857h2.833a1.429,1.429,0,0,0,0-2.857Z" transform="translate(-120.101 -111.857)" fill="#6ec1b6"/>
    <path id="Path_44508" data-name="Path 44508" d="M251.218,212h-2.833a1.429,1.429,0,0,0,0,2.857h2.833a1.429,1.429,0,0,0,0-2.857Z" transform="translate(-135.603 -111.857)" fill="#6ec1b6"/>
    <path id="Path_44509" data-name="Path 44509" d="M82.284,163.144C81.236,164.675,76,172.5,76,176.118a7.446,7.446,0,1,0,14.89,0c0-3.621-5.232-11.443-6.28-12.974A1.461,1.461,0,0,0,82.284,163.144Zm1.165,17.625a4.638,4.638,0,0,1-4.613-4.652c0-1.777,2.491-6.258,4.613-9.583,2.2,3.447,4.613,7.884,4.613,9.583A4.637,4.637,0,0,1,83.449,180.77Z" transform="translate(-25.173 -80.077)" fill="#6ec1b6"/>
    <ellipse id="Ellipse_56" data-name="Ellipse 56" cx="1.416" cy="1.429" rx="1.416" ry="1.429" transform="translate(37.031 38)" fill="#6ec1b6"/>
    <path id="Path_44510" data-name="Path 44510" d="M173.988,64a5,5,0,1,0-4.957-5A4.985,4.985,0,0,0,173.988,64Zm0-7.143A2.143,2.143,0,1,1,171.864,59,2.136,2.136,0,0,1,173.988,56.857Z" transform="translate(-85.262 -10.286)" fill="#6ec1b6"/>
    <path id="Path_44511" data-name="Path 44511" d="M118.346,117.714h-25.3c.027-.051.061-.1.086-.148a4.309,4.309,0,0,0-1.929-5.74l-5.715-2.847a.716.716,0,0,1-.321-.955h0a.705.705,0,0,1,.948-.324l5.714,2.846a4.234,4.234,0,0,0,5.691-1.945,4.3,4.3,0,0,0-1.929-5.739l-5.715-2.847a.713.713,0,0,1,.627-1.28l5.715,2.847a4.231,4.231,0,0,0,5.69-1.946,4.307,4.307,0,0,0-1.928-5.74l-5.715-2.846a.718.718,0,0,1-.321-.957.7.7,0,0,1,.947-.324l5.715,2.846a4.175,4.175,0,0,0,3.245.216,4.229,4.229,0,0,0,2.446-2.161,4.287,4.287,0,0,0,.214-3.273,4.242,4.242,0,0,0-2.143-2.467l-5.715-2.846a.719.719,0,0,1-.322-.957.708.708,0,0,1,.948-.324l5.716,2.846a4.233,4.233,0,0,0,5.69-1.946,4.307,4.307,0,0,0-1.928-5.739l-5.715-2.846a.715.715,0,0,1-.321-.957.7.7,0,0,1,.947-.324l5.715,2.846a4.187,4.187,0,0,0,3.245.216,4.231,4.231,0,0,0,2.446-2.162A4.3,4.3,0,0,0,113.143,67l-10.566-5.262A5.2,5.2,0,0,0,95.6,64.119L82.937,89.982V61.155a7.7,7.7,0,0,0-7.66-7.726H72.906v-10A1.423,1.423,0,0,0,71.49,42H60.347a1.423,1.423,0,0,0-1.416,1.429v10H56.56a7.7,7.7,0,0,0-7.66,7.726V114.93a5.624,5.624,0,0,0,5.593,5.642h63.853a1.429,1.429,0,0,0,0-2.857Zm-34.518,0H82.18a5.59,5.59,0,0,0,.337-.653ZM98.137,65.383a2.365,2.365,0,0,1,3.187-1.09l10.566,5.263a1.417,1.417,0,0,1,.715.822,1.434,1.434,0,0,1-.071,1.091,1.416,1.416,0,0,1-1.9.649l-5.715-2.846a3.527,3.527,0,0,0-4.742,1.62A3.576,3.576,0,0,0,100,73.62a3.537,3.537,0,0,0,1.786,2.056l5.715,2.846a1.437,1.437,0,0,1,.643,1.913,1.413,1.413,0,0,1-1.9.649l-5.715-2.846a3.53,3.53,0,0,0-4.742,1.62A3.59,3.59,0,0,0,97.4,84.642l5.716,2.846a1.415,1.415,0,0,1,.714.823,1.432,1.432,0,0,1-.071,1.092,1.41,1.41,0,0,1-.815.72,1.393,1.393,0,0,1-1.082-.072L96.143,87.2A3.527,3.527,0,0,0,91.4,88.826a3.589,3.589,0,0,0,1.606,4.783l5.715,2.846a1.434,1.434,0,0,1-.172,2.635,1.4,1.4,0,0,1-1.082-.072l-5.715-2.847a3.531,3.531,0,0,0-4.743,1.622,3.577,3.577,0,0,0-.178,2.728,3.537,3.537,0,0,0,1.786,2.056l5.715,2.847a1.417,1.417,0,0,1,.715.822,1.434,1.434,0,0,1-.071,1.091,1.414,1.414,0,0,1-1.9.649l-5.714-2.846a3.526,3.526,0,0,0-4.743,1.621,3.574,3.574,0,0,0-.178,2.728,3.536,3.536,0,0,0,1.786,2.056l5.714,2.846a1.437,1.437,0,0,1,.644,1.914,1.417,1.417,0,0,1-1.9.649L82.3,113.768a1.361,1.361,0,0,0-.365-.182l-3.809-1.9a2.414,2.414,0,0,1-1.08-3.215Zm-46.4.9H80.105V77.714H51.733ZM61.763,44.857h8.312v8.571H61.763Zm-5.2,11.429H75.278a4.853,4.853,0,0,1,4.827,4.869v2.274H51.733V61.155A4.854,4.854,0,0,1,56.56,56.286Zm-2.066,61.429a2.776,2.776,0,0,1-2.761-2.785V80.571H80.105v15a1.33,1.33,0,0,0,.028.139l-5.628,11.5a5.276,5.276,0,0,0,2.366,7.041l3.087,1.537a2.758,2.758,0,0,1-2.613,1.927Z" transform="translate(-7.666 -2.571)" fill="#6ec1b6"/>
  </g>
</svg>
