<svg xmlns="http://www.w3.org/2000/svg" width="77.419" height="80" viewBox="0 0 77.419 80">
  <g id="ic_Furniture" transform="translate(-16 -8)">
    <path id="Path_44816" data-name="Path 44816" d="M51.871,328a3.871,3.871,0,1,0,3.871,3.871A3.871,3.871,0,0,0,51.871,328Zm0,5.161a1.29,1.29,0,1,1,1.29-1.29,1.29,1.29,0,0,1-1.29,1.29Z" transform="translate(-26.839 -268.387)" fill="#6ec1b6"/>
    <path id="Path_44817" data-name="Path 44817" d="M355.871,328a3.871,3.871,0,1,0,3.871,3.871A3.871,3.871,0,0,0,355.871,328Zm0,5.161a1.29,1.29,0,1,1,1.29-1.29A1.29,1.29,0,0,1,355.871,333.161Z" transform="translate(-281.807 -268.387)" fill="#6ec1b6"/>
    <path id="Path_44818" data-name="Path 44818" d="M83.1,305.032A9.032,9.032,0,0,0,73.91,296a9.138,9.138,0,0,0-8.878,9.158v4.335a59.062,59.062,0,0,0-15.484-1.881,59.062,59.062,0,0,0-15.484,1.881v-4.462a9.032,9.032,0,1,0-10.323,8.942v5.252a5.167,5.167,0,0,0,5.161,5.161v3.871a1.29,1.29,0,0,0,1.29,1.29h3.871a1.29,1.29,0,0,0,1.154-.713l2.224-4.448H61.654l2.224,4.448a1.29,1.29,0,0,0,1.154.713H68.9a1.29,1.29,0,0,0,1.29-1.29v-3.871a5.167,5.167,0,0,0,5.161-5.161v-5.253a9.046,9.046,0,0,0,7.742-8.94Zm-49.83,21.935H31.484v-2.581h3.074Zm34.346,0H65.829l-1.29-2.581h3.074Zm6.452-15.484a1.29,1.29,0,0,0-1.29,1.29v6.452a2.584,2.584,0,0,1-2.581,2.581H28.9a2.584,2.584,0,0,1-2.581-2.581v-6.452a1.29,1.29,0,0,0-1.29-1.29,6.451,6.451,0,1,1,6.452-6.452v5.258a21.534,21.534,0,0,0-3.213,1.359l1.262,2.251c.067-.037,6.821-3.707,20.015-3.707s19.949,3.67,20.013,3.705l1.265-2.249a21.461,21.461,0,0,0-3.213-1.359v-5.131a6.546,6.546,0,0,1,6.341-6.578,6.452,6.452,0,1,1,.111,12.9Z" transform="translate(0 -241.548)" fill="#6ec1b6"/>
    <path id="Path_44819" data-name="Path 44819" d="M66.581,213.161a2.584,2.584,0,0,1,2.581-2.581h41.29a2.584,2.584,0,0,1,2.581,2.581v6.452h2.581v-6.452A5.167,5.167,0,0,0,110.452,208H69.161A5.167,5.167,0,0,0,64,213.161v6.452h2.581Z" transform="translate(-40.258 -167.742)" fill="#6ec1b6"/>
    <path id="Path_44820" data-name="Path 44820" d="M176,256h2.581v2.581H176Z" transform="translate(-134.194 -208)" fill="#6ec1b6"/>
    <path id="Path_44821" data-name="Path 44821" d="M216,296h2.581v2.581H216Z" transform="translate(-167.742 -241.548)" fill="#6ec1b6"/>
    <path id="Path_44822" data-name="Path 44822" d="M136,296h2.581v2.581H136Z" transform="translate(-100.645 -241.548)" fill="#6ec1b6"/>
    <path id="Path_44823" data-name="Path 44823" d="M176,336h2.581v2.581H176Z" transform="translate(-134.194 -275.097)" fill="#6ec1b6"/>
    <path id="Path_44824" data-name="Path 44824" d="M256,256h2.581v2.581H256Z" transform="translate(-201.291 -208)" fill="#6ec1b6"/>
    <path id="Path_44825" data-name="Path 44825" d="M296,296h2.581v2.581H296Z" transform="translate(-234.839 -241.548)" fill="#6ec1b6"/>
    <path id="Path_44826" data-name="Path 44826" d="M256,336h2.581v2.581H256Z" transform="translate(-201.291 -275.097)" fill="#6ec1b6"/>
    <path id="Path_44827" data-name="Path 44827" d="M249.29,8H213.161A5.167,5.167,0,0,0,208,13.161v1.29h2.581v-1.29a2.584,2.584,0,0,1,2.581-2.581h16.774v27.1h2.581v-27.1H249.29a2.584,2.584,0,0,1,2.581,2.581V77.677a2.584,2.584,0,0,1-2.581,2.581H237.677v2.581h3.074l2.224,4.448a1.29,1.29,0,0,0,1.154.713H248a1.29,1.29,0,0,0,1.29-1.29V82.839a5.167,5.167,0,0,0,5.161-5.161V13.161A5.167,5.167,0,0,0,249.29,8ZM246.71,85.419h-1.783l-1.29-2.581h3.074Z" transform="translate(-161.033)" fill="#6ec1b6"/>
    <path id="Path_44828" data-name="Path 44828" d="M65.291,68.645H76.9v2.581h2.581V68.645H91.1a1.29,1.29,0,0,0,1.286-1.4l-1.29-15.484a1.29,1.29,0,0,0-1.286-1.183H79.484V48H76.9v2.581H66.581A1.29,1.29,0,0,0,65.3,51.764L64,67.248a1.29,1.29,0,0,0,1.286,1.4Zm2.478-15.484H88.619l1.075,12.9h-23Z" transform="translate(-40.259 -33.548)" fill="#6ec1b6"/>
  </g>
</svg>
