<svg xmlns="http://www.w3.org/2000/svg" width="80" height="66.204" viewBox="0 0 80 66.204">
  <g id="ic_automative" transform="translate(0 -40.525)">
    <path id="Path_44512" data-name="Path 44512" d="M57.6,196.14H115.87a1.277,1.277,0,1,0,0-2.553H57.6a1.277,1.277,0,1,0,0,2.553Z" transform="translate(-46.733 -127.009)" fill="#6ec1b6"/>
    <path id="Path_44513" data-name="Path 44513" d="M78.889,72.542l-3.3-5.2-1.236-4.966h2.669a1.277,1.277,0,0,0,0-2.553H73.716l-3.33-13.378a8.106,8.106,0,0,0-7.579-5.923H17.193a8.106,8.106,0,0,0-7.579,5.923L6.284,59.826H2.979a1.277,1.277,0,0,0,0,2.553H5.648L4.412,67.345l-3.3,5.2A8.134,8.134,0,0,0,0,76.365V94.857a1.277,1.277,0,0,0,1.277,1.277H1.7v9.319a1.277,1.277,0,0,0,1.277,1.277H16.41a1.277,1.277,0,0,0,1.277-1.277V99.963a1.277,1.277,0,1,0-2.553,0v4.213H4.255V96.134H75.745v8.043H64.866V99.963a1.277,1.277,0,0,0-2.553,0v5.489a1.277,1.277,0,0,0,1.277,1.277H77.021a1.277,1.277,0,0,0,1.277-1.277V96.134h.426A1.277,1.277,0,0,0,80,94.857V76.365A8.133,8.133,0,0,0,78.889,72.542ZM2.553,76.365a5.673,5.673,0,0,1,.714-2.454l3.411-5.372a1.281,1.281,0,0,0,.161-.376l5.252-21.1a5.608,5.608,0,0,1,5.1-3.987H62.807a5.608,5.608,0,0,1,5.1,3.987l5.252,21.1a1.28,1.28,0,0,0,.161.376l3.411,5.372a5.674,5.674,0,0,1,.714,2.455V93.58H58.428l-3.083-7.715a1.276,1.276,0,0,0-1.185-.8H25.841a1.276,1.276,0,0,0-1.185.8L21.572,93.58H2.553V76.365ZM55.679,93.58H24.321l2.384-5.965H53.295l2.384,5.965Z" fill="#6ec1b6"/>
    <path id="Path_44514" data-name="Path 44514" d="M31.277,247.39h4.8a6.9,6.9,0,1,0,0-13.8H32.219a1.277,1.277,0,1,0,0,2.553H36.08a4.348,4.348,0,1,1,0,8.7h-4.8a1.277,1.277,0,1,0,0,2.553Z" transform="translate(-24.894 -160.2)" fill="#6ec1b6"/>
    <path id="Path_44515" data-name="Path 44515" d="M363.733,240.489a6.909,6.909,0,0,0,6.9,6.9h4.8a1.277,1.277,0,1,0,0-2.553h-4.8a4.348,4.348,0,1,1,0-8.7H374.5a1.277,1.277,0,1,0,0-2.553h-3.861A6.909,6.909,0,0,0,363.733,240.489Z" transform="translate(-301.821 -160.2)" fill="#6ec1b6"/>
  </g>
</svg>
