<svg xmlns="http://www.w3.org/2000/svg" width="80" height="64.637" viewBox="0 0 80 64.637">
  <g id="ic_jewelry" transform="translate(0 -49.162)">
    <path id="Path_44516" data-name="Path 44516" d="M20.852,113.8a20.854,20.854,0,0,0,7.591-40.276V70.481a1.756,1.756,0,0,0-.648-1.363l1.562-1.632a1.172,1.172,0,0,0-1.693-1.62l-2.734,2.856h-.363l3.492-8.495h5l-1.539,1.608a1.172,1.172,0,1,0,1.693,1.621l2.762-2.886a2.388,2.388,0,0,0,.274-2.972l-4.813-7.352a2.391,2.391,0,0,0-2.007-1.085H12.274a2.392,2.392,0,0,0-2.007,1.085L5.454,57.6a2.388,2.388,0,0,0,.274,2.972l8.18,8.548a1.756,1.756,0,0,0-.648,1.363v3.043A20.805,20.805,0,0,0,8.635,76.05a1.172,1.172,0,1,0,1.375,1.9,18.449,18.449,0,0,1,4.554-2.411,1.577,1.577,0,0,0,1.04-1.478V71.067H26.1v2.992a1.578,1.578,0,0,0,1.04,1.479A18.509,18.509,0,1,1,2.345,93.118a18.31,18.31,0,0,1,3.943-11.59A1.172,1.172,0,1,0,4.444,80.08,20.63,20.63,0,0,0,0,93.139a20.877,20.877,0,0,0,20.85,20.66Zm1.18-45.077H19.67l-3.492-8.495h9.345Zm-5.258,0-8.13-8.495h5l3.492,8.495Zm8.7-12.17L22.8,51.505h5.347Zm-1.947,1.332H18.178l2.673-5.047Zm-7.293-1.332-2.673-5.047H18.9Zm17.4,1.332H27.418l2.78-5.248ZM11.5,52.636l2.78,5.248H8.068Z" fill="#6ec1b6"/>
    <path id="Path_44517" data-name="Path 44517" d="M32.52,244.241a15.769,15.769,0,1,0,15.769-15.769A15.787,15.787,0,0,0,32.52,244.241Zm15.769-13.426a13.426,13.426,0,1,1-13.426,13.426A13.441,13.441,0,0,1,48.289,230.816Z" transform="translate(-27.438 -151.293)" fill="#6ec1b6"/>
    <path id="Path_44518" data-name="Path 44518" d="M116.594,203.8a1.172,1.172,0,1,0,0-2.344h-4.783a1.172,1.172,0,0,0,0,2.344Z" transform="translate(-93.351 -128.502)" fill="#6ec1b6"/>
    <path id="Path_44519" data-name="Path 44519" d="M277.668,77.719v30.386a1.44,1.44,0,0,0,.719,1.245l7.3,4.217a1.442,1.442,0,0,0,1.436,0l7.3-4.216a1.44,1.44,0,0,0,.718-1.244V77.719a1.441,1.441,0,0,0-.719-1.245l-3.538-2.043a1.55,1.55,0,0,0,.3-.922V68.4a2.911,2.911,0,0,0-2.907-2.908h-.706V60.028a2.243,2.243,0,0,0-1.794-2.2A3.19,3.19,0,1,1,289.6,54.7a1.172,1.172,0,0,0,2,.829l2.055-2.055A1.172,1.172,0,0,0,292,51.811l-.565.566a5.532,5.532,0,1,0-6.194,7.726V65.5h-.706a2.911,2.911,0,0,0-2.907,2.908V73.51a1.55,1.55,0,0,0,.3.922l-3.539,2.043A1.441,1.441,0,0,0,277.668,77.719ZM292.8,106.212l-5.224-3.016V82.628l5.224-3.016Zm-7.568,4.386-4.067-2.348,4.067-2.348Zm2.344-4.7,4.067,2.348-4.067,2.348Zm0-25.98v-4.7l4.067,2.348Zm-2.344-4.7v4.7l-4.067-2.348Zm0,7.4V103.2l-5.224,3.016v-26.6ZM283.966,68.4a.564.564,0,0,1,.564-.564h3.756a.564.564,0,0,1,.564.564v4.32h-4.884V68.4Z" transform="translate(-234.282 0)" fill="#6ec1b6"/>
    <path id="Path_44520" data-name="Path 44520" d="M416.893,76.474l-3.538-2.043a1.55,1.55,0,0,0,.3-.922V68.4A2.911,2.911,0,0,0,410.75,65.5h-.706V60.028a2.243,2.243,0,0,0-1.794-2.2,3.19,3.19,0,1,1,3.811-3.129,1.172,1.172,0,0,0,2,.829l2.055-2.055a1.172,1.172,0,0,0-1.657-1.657l-.565.566A5.532,5.532,0,1,0,407.7,60.1V65.5h-.706a2.911,2.911,0,0,0-2.908,2.908V73.51a1.55,1.55,0,0,0,.3.922l-3.539,2.043a1.441,1.441,0,0,0-.718,1.244v4.907a1.172,1.172,0,0,0,2.344,0V79.612l5.224,3.016V103.2l-5.224,3.016V88.095a1.172,1.172,0,1,0-2.344,0V108.1a1.44,1.44,0,0,0,.719,1.245l7.3,4.216a1.442,1.442,0,0,0,1.437,0l7.3-4.216a1.44,1.44,0,0,0,.718-1.244V77.719A1.441,1.441,0,0,0,416.893,76.474Zm-2.782,1.1-4.067,2.348v-4.7ZM410.044,105.9l4.067,2.348-4.067,2.348Zm0-2.706V82.628l5.224-3.016v26.6ZM406.43,68.4a.565.565,0,0,1,.564-.564h3.756a.564.564,0,0,1,.564.564v4.32h-4.884V68.4Zm-2.8,9.17,4.067-2.348v4.7ZM407.7,110.6l-4.067-2.348L407.7,105.9Z" transform="translate(-337.611 0)" fill="#6ec1b6"/>
  </g>
</svg>
