<svg xmlns="http://www.w3.org/2000/svg" width="80.001" height="80" viewBox="0 0 80.001 80">
  <g id="ic_apparel" transform="translate(-0.001 -0.004)">
    <path id="Path_44502" data-name="Path 44502" d="M281,72.535,270.254,38.209a3.849,3.849,0,0,0-.306-6.9L273.2,18.318a11.539,11.539,0,0,0,.346-2.8V14.422a6.676,6.676,0,0,0-5.161-6.487V0H265.8v7.83a6.636,6.636,0,0,0-5.133,4.109l-.028.072-.028-.072a6.637,6.637,0,0,0-5.133-4.109V0H252.9v7.93a6.677,6.677,0,0,0-5.161,6.487,20.416,20.416,0,0,0,.611,4.955l2.983,11.934a3.849,3.849,0,0,0-.306,6.9L240.278,72.535a6.253,6.253,0,0,0,1.679,6.413.468.468,0,0,0,.037.033,3.851,3.851,0,0,0,5.248-.031l.513-.49a1.263,1.263,0,0,1,1.712,0l.512.491a3.857,3.857,0,0,0,5.284,0l.511-.49a1.264,1.264,0,0,1,1.712,0l.512.491a3.854,3.854,0,0,0,5.282,0l.512-.491a1.265,1.265,0,0,1,1.711,0l.512.491a3.852,3.852,0,0,0,5.282,0l.512-.49a1.264,1.264,0,0,1,1.712,0l.512.491a3.856,3.856,0,0,0,5.246.033l.039-.036A6.251,6.251,0,0,0,281,72.535Zm-28.1-36.4a1.29,1.29,0,0,1,0-2.581H268.38a1.29,1.29,0,0,1,0,2.581Zm-2.581-21.71a4.1,4.1,0,0,1,7.9-1.522l1.227,3.066a1.289,1.289,0,0,0,2.395,0l1.227-3.066a4.1,4.1,0,0,1,7.9,1.522v1.092a8.991,8.991,0,0,1-.268,2.178l-3.32,13.279H253.9l-3.055-12.22a17.857,17.857,0,0,1-.533-4.329ZM245.968,76.6l-.514.492a1.262,1.262,0,0,1-1.71,0c-.009-.009-.019-.018-.028-.027a3.687,3.687,0,0,1-.977-3.755l10.827-34.592h1.626L247.807,75.64a3.77,3.77,0,0,0-1.839.956Zm8.018,0-.511.492a1.266,1.266,0,0,1-1.711,0l-.513-.493a3.693,3.693,0,0,0-.881-.606l7.455-37.275h1.523V76.671l-.079-.075a3.856,3.856,0,0,0-5.283,0Zm15.525.492a1.262,1.262,0,0,1-1.71,0l-.513-.493a3.857,3.857,0,0,0-5.281,0l-.079.075V38.714h1.522l7.456,37.276a3.647,3.647,0,0,0-.881.608Zm8.049-.027-.03.027a1.267,1.267,0,0,1-1.709,0l-.513-.493a3.755,3.755,0,0,0-1.839-.955l-7.386-36.927h1.626l10.827,34.594a3.691,3.691,0,0,1-.976,3.754Zm0,0" transform="translate(-201.283 0)" fill="#6ec1b6"/>
    <path id="Path_44503" data-name="Path 44503" d="M43.6,31.766a1.288,1.288,0,0,0,.234-1.106L38.671,10.015a1.288,1.288,0,0,0-.743-.874l-8.25-3.535V1.294A1.29,1.29,0,0,0,28.388,0h-12.9a1.29,1.29,0,0,0-1.29,1.29V5.606L5.944,9.141a1.29,1.29,0,0,0-.743.874L.039,30.66a1.291,1.291,0,0,0,1.252,1.6H7.743a1.292,1.292,0,0,0,1.236-.92L10.8,25.27l.817,12.239A1.289,1.289,0,0,0,12.9,38.714H30.968a1.291,1.291,0,0,0,1.288-1.205l.817-12.239,1.822,6.072a1.289,1.289,0,0,0,1.235.92h6.452a1.289,1.289,0,0,0,1.017-.5ZM21.936,20.683,17.315,7.746h9.241Zm-5.161-18.1H27.1V5.165H16.775Zm-9.992,27.1H2.943l4.606-18.42.692-.3,2.027,7.1Zm6.119-11.7a1.261,1.261,0,0,0-.047-.268L10.632,9.939l4.1-1.757,5.915,16.562V36.133H14.112ZM29.76,36.133H23.226V24.744L29.141,8.182l4.1,1.757-2.222,7.775.018.005a1.2,1.2,0,0,0-.064.263Zm7.329-6.452L33.6,18.06l2.027-7.1.693.3,4.6,18.42Zm0,0" transform="translate(0 0)" fill="#6ec1b6"/>
    <path id="Path_44504" data-name="Path 44504" d="M91.355,256H73.29a1.29,1.29,0,0,0-1.29,1.29v36.129a1.29,1.29,0,0,0,1.29,1.29h5.161a1.291,1.291,0,0,0,1.275-1.089l2.6-16.444,2.6,16.444a1.291,1.291,0,0,0,1.275,1.089h5.161a1.29,1.29,0,0,0,1.29-1.29V257.294a1.29,1.29,0,0,0-1.29-1.29Zm-1.29,36.129H87.3l-3.7-23.427a1.29,1.29,0,0,0-2.549,0l-3.7,23.427H74.581V258.585H90.064Zm0,0" transform="translate(-60.387 -214.71)" fill="#6ec1b6"/>
  </g>
</svg>
