<svg id="ic_enterprise" xmlns="http://www.w3.org/2000/svg" width="36" height="36" viewBox="0 0 36 36">
  <path id="Path_44994" data-name="Path 44994" d="M34.028,20.661l-2.669-.885V18.52a3.666,3.666,0,0,0,1.417-2.032h.147a1.524,1.524,0,0,0,.756-2.851V12.445A3.643,3.643,0,0,0,32.625,9.88V1.687A1.69,1.69,0,0,0,30.938,0H15.188A1.69,1.69,0,0,0,13.5,1.687V2.812H5.625A1.69,1.69,0,0,0,3.938,4.5V9.511a3.745,3.745,0,0,0-1.547,3.028v1.238a1.553,1.553,0,0,0,.762,2.91h.165a3.757,3.757,0,0,0,1.464,2.1V20.1l-2.766.919A2.951,2.951,0,0,0,0,23.822v8.241a.563.563,0,0,0,.563.563h10.4v2.813a.563.563,0,0,0,.563.563H25.313a.563.563,0,0,0,.563-.562V31.956h9.563A.563.563,0,0,0,36,31.393V23.4a2.89,2.89,0,0,0-1.972-2.739Zm-6.555.19.9,1.345-.849.849-.78-1.952ZM29.82,29.7l-.57.761-.57-.761.57-3.993Zm-.145-5.825h-.851l-.179-.359.491-.491a.585.585,0,0,0,.226,0l.491.491Zm1.3-.826-.849-.849.9-1.345.731.242Zm-.744-3.034-.984,1.475-.984-1.475v-.953a3.592,3.592,0,0,0,1.969,0ZM29.25,18.07a2.527,2.527,0,0,1-2.531-2.531V14.6a4.452,4.452,0,0,0,3.343-.947,4.562,4.562,0,0,0,1.72.795v1.091A2.534,2.534,0,0,1,29.25,18.07Zm-3.674-2.707a.4.4,0,1,1,0-.809h.017v.809Zm6.978-2.918v.984h-.163a3.041,3.041,0,0,1-1.905-.917.564.564,0,0,0-.493-.237.573.573,0,0,0-.468.294c-.027.048-.7,1.189-3.3.865a.581.581,0,0,0-.07,0h-.211v-.984a2.534,2.534,0,0,1,2.531-2.531h1.547a2.534,2.534,0,0,1,2.531,2.531Zm.369,2.918h-.017v-.809h.017a.4.4,0,1,1,0,.809ZM14.625,1.687a.563.563,0,0,1,.563-.563h15.75a.563.563,0,0,1,.563.563V9.1a3.629,3.629,0,0,0-1.477-.314H28.477a3.66,3.66,0,0,0-3.656,3.656v1.193a1.524,1.524,0,0,0,.756,2.851h.146a3.658,3.658,0,0,0,.943,1.639,3.772,3.772,0,0,0,.476.4v1.254l-2.672.886a2.883,2.883,0,0,0-1.948,2.481l-1.815-.6V21.064a4.016,4.016,0,0,0,1.594-2.3h.213a1.634,1.634,0,0,0,.778-3.073V14.329a4.013,4.013,0,0,0-4.009-4.009H17.558c-.04,0-.08.005-.12.006V4.5A1.69,1.69,0,0,0,15.75,2.812H14.625Zm-.3,15.955a.515.515,0,0,1,0-1.029h.084v1.029Zm3.231-6.2h1.723a2.887,2.887,0,0,1,2.884,2.884v1.161h-.251a3.435,3.435,0,0,1-2.17-1.049.568.568,0,0,0-.961.058c-.03.056-.786,1.365-3.74,1a.581.581,0,0,0-.07,0h-.3V14.327a2.887,2.887,0,0,1,2.884-2.884Zm4.871,5.17h.083a.515.515,0,1,1,0,1.029h-.083Zm-6.893.045a4.891,4.891,0,0,0,3.785-1.069,4.987,4.987,0,0,0,1.983.92v1.265a2.884,2.884,0,1,1-5.767,0V16.658Zm2.884,5.124a3.992,3.992,0,0,0,1.16-.173v1.163l-1.16,1.741-1.16-1.741V21.612a4,4,0,0,0,1.16.17Zm-1.954,1.83L17.523,25.2l-1.052,1.052-.932-2.329Zm2.656,9.95-.7.937-.7-.937.7-4.92Zm-.19-6.443H17.906l-.237-.476.6-.6a.592.592,0,0,0,.3,0l.6.6Zm.383-1.922,1.057-1.586.926.308-.931,2.329ZM5.063,4.5a.563.563,0,0,1,.563-.562H15.75a.563.563,0,0,1,.563.562v6.019a4.014,4.014,0,0,0-2.764,3.809v1.366a1.634,1.634,0,0,0,.778,3.074h.213a4.007,4.007,0,0,0,1.046,1.844,4.069,4.069,0,0,0,.549.454v1.473l-2.306.767a2.948,2.948,0,0,0-1.973-2.284L9.093,20.1V18.791a3.844,3.844,0,0,0,.5-.413,3.748,3.748,0,0,0,.967-1.691h.163a1.553,1.553,0,0,0,.762-2.91V12.539a3.755,3.755,0,0,0-3.75-3.75H6.14a3.735,3.735,0,0,0-1.078.16V4.5Zm.991,18.089-.9.9L4.33,21.438l.783-.26Zm1.49,7.729-.606.808-.606-.808.606-4.238Zm-.157-5.99h-.9l-.194-.39.5-.5a.564.564,0,0,0,.145.02h0a.562.562,0,0,0,.147-.021l.5.5Zm1.338-.837-.9-.9.942-1.41.782.26Zm2.432-8.362a.434.434,0,0,1-.434.434h-.035V14.7h.035A.434.434,0,0,1,11.156,15.129ZM6.141,9.914H7.734a2.628,2.628,0,0,1,2.625,2.625V13.57h-.235a.479.479,0,0,0-.07,0c-2.7.336-3.389-.849-3.412-.889a.564.564,0,0,0-.457-.3.57.57,0,0,0-.5.23,3.133,3.133,0,0,1-1.981.96H3.516V12.54A2.628,2.628,0,0,1,6.141,9.914ZM2.719,15.129a.434.434,0,0,1,.434-.434h.035v.867H3.152A.434.434,0,0,1,2.719,15.129Zm1.594-.54A4.677,4.677,0,0,0,6.1,13.762a4.575,4.575,0,0,0,3.461.979v.986a2.625,2.625,0,1,1-5.25,0Zm2.625,4.888a3.758,3.758,0,0,0,1.031-.146v1.01L6.936,21.886l-1.03-1.547v-1.01a3.745,3.745,0,0,0,1.032.147ZM1.125,23.822a1.826,1.826,0,0,1,1.246-1.733l.889-.3L4.422,24.7a.562.562,0,0,0,.41.342.551.551,0,0,0,.113.012.563.563,0,0,0,.4-.165l.112-.112.182.364a.558.558,0,0,0,.262.252l-.714,5a.563.563,0,0,0,.107.417l.521.692h-2.3V25.688a.563.563,0,0,0-1.125,0V31.5H1.125Zm9.839,2.706V31.5h-2.9l.52-.694a.562.562,0,0,0,.107-.417l-.714-5a.558.558,0,0,0,.262-.252l.182-.365.112.113a.563.563,0,0,0,.4.165.551.551,0,0,0,.113-.012.563.563,0,0,0,.41-.342l1.162-2.907.885.295A1.823,1.823,0,0,1,12.743,23.7a3.142,3.142,0,0,0-1.779,2.828Zm1.125,0A2.022,2.022,0,0,1,13.47,24.61l1-.333,1.272,3.183a.562.562,0,0,0,.41.342.551.551,0,0,0,.113.012.563.563,0,0,0,.4-.165l.167-.167.224.451a.556.556,0,0,0,.292.265l-.776,5.436a.563.563,0,0,0,.107.417l.617.824H14.674v-6.33a.563.563,0,0,0-1.125,0v6.33h-1.46V26.528ZM24.75,34.875H23.29v-6.33a.563.563,0,0,0-1.125,0v6.33H19.545l.618-.823a.562.562,0,0,0,.107-.417L19.493,28.2a.556.556,0,0,0,.293-.265l.224-.451.167.167a.563.563,0,0,0,.4.165.551.551,0,0,0,.113-.012.563.563,0,0,0,.41-.342l1.272-3.183,1,.332a2.021,2.021,0,0,1,1.383,1.918v8.346ZM23.724,23.543l-.1-.033V23.4a1.764,1.764,0,0,1,1.2-1.671l.847-.281,1.122,2.807a.562.562,0,0,0,.41.342.551.551,0,0,0,.113.012.563.563,0,0,0,.4-.165l.093-.093.166.333a.561.561,0,0,0,.251.247l-.691,4.837a.563.563,0,0,0,.107.417l.484.645h-2.25v-4.3a3.145,3.145,0,0,0-2.151-2.985Zm11.151,7.288h-1.2V25.207a.563.563,0,1,0-1.125,0v5.624H30.376l.484-.645a.562.562,0,0,0,.107-.417l-.691-4.837a.555.555,0,0,0,.251-.247l.166-.333.093.093a.563.563,0,0,0,.4.165A.551.551,0,0,0,31.3,24.6a.563.563,0,0,0,.41-.342l1.122-2.807.844.28a1.765,1.765,0,0,1,1.2,1.672Z" fill="#3d3d3d"/>
  <path id="Path_44995" data-name="Path 44995" d="M52,4h1.125V5.125H52Z" transform="translate(-22.75 -1.75)" fill="#3d3d3d"/>
  <path id="Path_44996" data-name="Path 44996" d="M52,8h1.125V9.125H52Z" transform="translate(-22.75 -3.5)" fill="#3d3d3d"/>
  <path id="Path_44997" data-name="Path 44997" d="M52,12h1.125v1.125H52Z" transform="translate(-22.75 -5.25)" fill="#3d3d3d"/>
  <path id="Path_44998" data-name="Path 44998" d="M48,4h1.125V5.125H48Z" transform="translate(-21 -1.75)" fill="#3d3d3d"/>
  <path id="Path_44999" data-name="Path 44999" d="M48,8h1.125V9.125H48Z" transform="translate(-21 -3.5)" fill="#3d3d3d"/>
  <path id="Path_45000" data-name="Path 45000" d="M48,12h1.125v1.125H48Z" transform="translate(-21 -5.25)" fill="#3d3d3d"/>
  <path id="Path_45001" data-name="Path 45001" d="M44,4h1.125V5.125H44Z" transform="translate(-19.25 -1.75)" fill="#3d3d3d"/>
  <path id="Path_45002" data-name="Path 45002" d="M44,8h1.125V9.125H44Z" transform="translate(-19.25 -3.5)" fill="#3d3d3d"/>
  <path id="Path_45003" data-name="Path 45003" d="M44,12h1.125v1.125H44Z" transform="translate(-19.25 -5.25)" fill="#3d3d3d"/>
  <path id="Path_45004" data-name="Path 45004" d="M40,4h1.125V5.125H40Z" transform="translate(-17.5 -1.75)" fill="#3d3d3d"/>
  <path id="Path_45005" data-name="Path 45005" d="M40,8h1.125V9.125H40Z" transform="translate(-17.5 -3.5)" fill="#3d3d3d"/>
  <path id="Path_45006" data-name="Path 45006" d="M40,12h1.125v1.125H40Z" transform="translate(-17.5 -5.25)" fill="#3d3d3d"/>
  <path id="Path_45007" data-name="Path 45007" d="M36,4h1.125V5.125H36Z" transform="translate(-15.75 -1.75)" fill="#3d3d3d"/>
  <path id="Path_45008" data-name="Path 45008" d="M36,8h1.125V9.125H36Z" transform="translate(-15.75 -3.5)" fill="#3d3d3d"/>
  <path id="Path_45009" data-name="Path 45009" d="M36,12h1.125v1.125H36Z" transform="translate(-15.75 -5.25)" fill="#3d3d3d"/>
  <path id="Path_45010" data-name="Path 45010" d="M32,4h1.125V5.125H32Z" transform="translate(-14 -1.75)" fill="#3d3d3d"/>
  <path id="Path_45011" data-name="Path 45011" d="M32,8h1.125V9.125H32Z" transform="translate(-14 -3.5)" fill="#3d3d3d"/>
  <path id="Path_45012" data-name="Path 45012" d="M32,12h1.125v1.125H32Z" transform="translate(-14 -5.25)" fill="#3d3d3d"/>
  <path id="Path_45013" data-name="Path 45013" d="M24,8h1.125V9.125H24Z" transform="translate(-10.5 -3.5)" fill="#3d3d3d"/>
  <path id="Path_45014" data-name="Path 45014" d="M24,12h1.125v1.125H24Z" transform="translate(-10.5 -5.25)" fill="#3d3d3d"/>
  <path id="Path_45015" data-name="Path 45015" d="M24,16h1.125v1.125H24Z" transform="translate(-10.5 -7)" fill="#3d3d3d"/>
  <path id="Path_45016" data-name="Path 45016" d="M20,8h1.125V9.125H20Z" transform="translate(-8.75 -3.5)" fill="#3d3d3d"/>
  <path id="Path_45017" data-name="Path 45017" d="M20,12h1.125v1.125H20Z" transform="translate(-8.75 -5.25)" fill="#3d3d3d"/>
  <path id="Path_45018" data-name="Path 45018" d="M20,16h1.125v1.125H20Z" transform="translate(-8.75 -7)" fill="#3d3d3d"/>
  <path id="Path_45019" data-name="Path 45019" d="M16,8h1.125V9.125H16Z" transform="translate(-7 -3.5)" fill="#3d3d3d"/>
  <path id="Path_45020" data-name="Path 45020" d="M16,12h1.125v1.125H16Z" transform="translate(-7 -5.25)" fill="#3d3d3d"/>
  <path id="Path_45021" data-name="Path 45021" d="M12,8h1.125V9.125H12Z" transform="translate(-5.25 -3.5)" fill="#3d3d3d"/>
  <path id="Path_45022" data-name="Path 45022" d="M12,12h1.125v1.125H12Z" transform="translate(-5.25 -5.25)" fill="#3d3d3d"/>
  <path id="Path_45023" data-name="Path 45023" d="M40,16h1.125v1.125H40Z" transform="translate(-17.5 -7)" fill="#3d3d3d"/>
  <path id="Path_45024" data-name="Path 45024" d="M36,16h1.125v1.125H36Z" transform="translate(-15.75 -7)" fill="#3d3d3d"/>
  <path id="Path_45025" data-name="Path 45025" d="M32,16h1.125v1.125H32Z" transform="translate(-14 -7)" fill="#3d3d3d"/>
</svg>
