<svg xmlns="http://www.w3.org/2000/svg" width="38.511" height="36" viewBox="0 0 38.511 36">
  <g id="ic_flexible" transform="translate(-1 -3.02)">
    <path id="Path_45041" data-name="Path 45041" d="M37.646,31a.621.621,0,0,0-.621.621A16.766,16.766,0,0,1,4.063,35.958L6.3,37.139a.622.622,0,1,0,.58-1.1L3.515,34.264a.656.656,0,0,0-.941.271L1.047,38.216a.621.621,0,0,0,1.148.476L3,36.762a18.012,18.012,0,0,0,35.272-5.141A.621.621,0,0,0,37.646,31Z" transform="translate(0 -10.601)" fill="#3d3d3d"/>
    <path id="Path_45042" data-name="Path 45042" d="M39.884,13.614a.621.621,0,0,0-.812.336l-.8,1.929A18.012,18.012,0,0,0,3,21.02a.621.621,0,0,0,1.242,0A16.766,16.766,0,0,1,37.2,16.683L34.968,15.5a.622.622,0,1,0-.58,1.1l3.366,1.777a.643.643,0,0,0,.94-.271l1.527-3.681a.621.621,0,0,0-.337-.813Z" transform="translate(-0.758)" fill="#3d3d3d"/>
    <path id="Path_45043" data-name="Path 45043" d="M27.075,35.149A8.075,8.075,0,1,0,19,27.075a8.075,8.075,0,0,0,8.075,8.075Zm0-14.907a6.832,6.832,0,1,1-6.832,6.832,6.832,6.832,0,0,1,6.832-6.832Z" transform="translate(-6.82 -6.054)" fill="#3d3d3d"/>
    <path id="Path_45049" data-name="Path 45049" d="M23.8,28.606A4.8,4.8,0,1,0,19,23.8,4.8,4.8,0,0,0,23.8,28.606Zm0-8.867A4.064,4.064,0,1,1,19.739,23.8,4.064,4.064,0,0,1,23.8,19.739Z" transform="translate(-3.549 -2.783)" fill="#3d3d3d"/>
    <path id="Path_45048" data-name="Path 45048" d="M10.5,21.193a.621.621,0,0,0-.5.609v3.727a.621.621,0,0,0,.5.609l2.379.476a10.9,10.9,0,0,0,1.076,2.593l-1.343,2.022a.621.621,0,0,0,.078.784l2.634,2.633a.621.621,0,0,0,.784.078l2.021-1.347a10.9,10.9,0,0,0,2.593,1.076l.476,2.379a.621.621,0,0,0,.607.5h3.727a.621.621,0,0,0,.609-.5l.476-2.379a10.905,10.905,0,0,0,2.593-1.076l2.021,1.343a.621.621,0,0,0,.784-.078l2.634-2.633a.621.621,0,0,0,.078-.784L33.375,29.2a10.9,10.9,0,0,0,1.076-2.593l2.379-.476a.621.621,0,0,0,.5-.607V21.8a.621.621,0,0,0-.5-.609l-2.379-.476a10.9,10.9,0,0,0-1.076-2.593L34.721,16.1a.621.621,0,0,0-.078-.784l-2.634-2.633a.621.621,0,0,0-.784-.078L29.2,13.955a10.9,10.9,0,0,0-2.593-1.076L26.137,10.5a.621.621,0,0,0-.609-.5H21.8a.621.621,0,0,0-.609.5l-.476,2.379a10.905,10.905,0,0,0-2.593,1.076L16.1,12.609a.621.621,0,0,0-.784.078l-2.634,2.633a.621.621,0,0,0-.078.784l1.353,2.03a10.939,10.939,0,0,0-1.072,2.583Zm5.337-7.267,1.925,1.283a.621.621,0,0,0,.673.01,9.693,9.693,0,0,1,2.953-1.225.621.621,0,0,0,.47-.484l.455-2.266h2.708l.453,2.265a.621.621,0,0,0,.47.484A9.693,9.693,0,0,1,28.9,15.217a.621.621,0,0,0,.673-.01l1.925-1.283,1.914,1.913-1.283,1.925a.621.621,0,0,0-.01.673,9.7,9.7,0,0,1,1.225,2.954.621.621,0,0,0,.484.47l2.263.45v2.708l-2.265.453a.621.621,0,0,0-.484.47A9.7,9.7,0,0,1,32.112,28.9a.621.621,0,0,0,.01.673l1.283,1.925-1.914,1.912-1.925-1.283a.621.621,0,0,0-.673-.01,9.693,9.693,0,0,1-2.953,1.225.621.621,0,0,0-.47.484l-.45,2.265H22.311l-.453-2.265a.621.621,0,0,0-.47-.484,9.693,9.693,0,0,1-2.953-1.227.621.621,0,0,0-.673.01L15.835,33.4l-1.912-1.914,1.283-1.925a.621.621,0,0,0,.01-.673,9.7,9.7,0,0,1-1.225-2.954.621.621,0,0,0-.484-.47l-2.265-.45V22.311l2.265-.453a.639.639,0,0,0,.484-.47,9.7,9.7,0,0,1,1.227-2.954.66.66,0,0,0-.01-.673l-1.283-1.925Z" transform="translate(-3.41 -2.645)" fill="#3d3d3d"/>
  </g>
</svg>
