<svg xmlns="http://www.w3.org/2000/svg" width="32.47" height="36" viewBox="0 0 32.47 36">
  <g id="ic_Feature" transform="translate(-25.162 -0.064)">
    <path id="Path_45026" data-name="Path 45026" d="M35.462,3.219l-2.056-.3a.33.33,0,0,1-.247-.18L32.239.875a1.452,1.452,0,0,0-2.6,0l-.924,1.869a.327.327,0,0,1-.246.178l-2.057.3A1.452,1.452,0,0,0,25.6,5.695l1.491,1.453a.327.327,0,0,1,.094.289l-.352,2.047a1.453,1.453,0,0,0,2.108,1.53l1.842-.969a.326.326,0,0,1,.3,0l1.834.967a1.452,1.452,0,0,0,2.108-1.53l-.351-2.045a.327.327,0,0,1,.094-.289l1.491-1.453a1.452,1.452,0,0,0-.805-2.476Zm.02,1.671L33.991,6.343a1.452,1.452,0,0,0-.418,1.285h0l.351,2.045a.327.327,0,0,1-.475.344L31.615,9.05a1.453,1.453,0,0,0-1.354,0l-1.842.969a.327.327,0,0,1-.475-.345L28.3,7.628a1.452,1.452,0,0,0-.418-1.285L26.388,4.89a.327.327,0,0,1,.182-.558l2.057-.3A1.452,1.452,0,0,0,29.72,3.24l.924-1.869a.327.327,0,0,1,.586,0l.919,1.867a1.452,1.452,0,0,0,1.095.8l2.057.3a.327.327,0,0,1,.181.558Z" transform="translate(-0.001)" fill="#3d3d3d"/>
    <path id="Path_45027" data-name="Path 45027" d="M84.281,64.5,82.9,65.88l-.3-.3a.562.562,0,1,0-.8.8l.7.7a.562.562,0,0,0,.8,0l1.779-1.779a.562.562,0,1,0-.8-.8Z" transform="translate(-52.507 -59.75)" fill="#3d3d3d"/>
    <path id="Path_45028" data-name="Path 45028" d="M221.462,19.847H239.04a.563.563,0,0,0,0-1.125H221.462a.562.562,0,0,0,0,1.125Z" transform="translate(-181.971 -17.346)" fill="#3d3d3d"/>
    <path id="Path_45029" data-name="Path 45029" d="M239.04,71.122H221.461a.563.563,0,0,0,0,1.125H239.04a.563.563,0,1,0,0-1.125Z" transform="translate(-181.971 -66.061)" fill="#3d3d3d"/>
    <path id="Path_45030" data-name="Path 45030" d="M221.462,124.646h12.507a.562.562,0,1,0,0-1.125H221.462a.562.562,0,1,0,0,1.125Z" transform="translate(-181.971 -114.774)" fill="#3d3d3d"/>
    <path id="Path_45031" data-name="Path 45031" d="M35.461,180.092l-2.056-.3a.33.33,0,0,1-.247-.18l-.919-1.867a1.452,1.452,0,0,0-2.6,0l-.924,1.869a.327.327,0,0,1-.246.178l-2.057.3a1.452,1.452,0,0,0-.805,2.476l1.491,1.453a.327.327,0,0,1,.094.289l-.352,2.047a1.453,1.453,0,0,0,2.108,1.53l1.842-.969a.326.326,0,0,1,.3,0l1.834.967a1.452,1.452,0,0,0,2.108-1.53l-.351-2.045a.327.327,0,0,1,.094-.289l1.491-1.453A1.452,1.452,0,0,0,35.461,180.092Zm.02,1.671-1.491,1.453a1.452,1.452,0,0,0-.418,1.285h0l.351,2.045a.327.327,0,0,1-.475.344l-1.834-.967a1.453,1.453,0,0,0-1.354,0l-1.842.969a.327.327,0,0,1-.475-.345L28.3,184.5a1.452,1.452,0,0,0-.418-1.285l-1.491-1.453a.327.327,0,0,1,.182-.558l2.057-.3a1.452,1.452,0,0,0,1.094-.794l.924-1.869a.327.327,0,0,1,.586,0l.919,1.867a1.452,1.452,0,0,0,1.095.8l2.057.3A.327.327,0,0,1,35.482,181.763Z" transform="translate(-0.001 -164.434)" fill="#3d3d3d"/>
    <path id="Path_45032" data-name="Path 45032" d="M84.28,241.38,82.9,242.761l-.3-.3a.563.563,0,0,0-.8.8l.7.7a.563.563,0,0,0,.8,0l1.779-1.779a.562.562,0,1,0-.8-.8Z" transform="translate(-52.507 -224.191)" fill="#3d3d3d"/>
    <path id="Path_45033" data-name="Path 45033" d="M239.04,195.6H221.461a.562.562,0,0,0,0,1.125H239.04a.563.563,0,1,0,0-1.125Z" transform="translate(-181.971 -181.779)" fill="#3d3d3d"/>
    <path id="Path_45034" data-name="Path 45034" d="M239.04,247.995H221.461a.563.563,0,0,0,0,1.125H239.04a.563.563,0,1,0,0-1.125Z" transform="translate(-181.971 -230.494)" fill="#3d3d3d"/>
    <path id="Path_45035" data-name="Path 45035" d="M221.462,301.519h12.507a.563.563,0,0,0,0-1.125H221.462a.563.563,0,1,0,0,1.125Z" transform="translate(-181.971 -279.208)" fill="#3d3d3d"/>
    <path id="Path_45036" data-name="Path 45036" d="M35.461,356.966l-2.056-.3a.33.33,0,0,1-.247-.179l-.919-1.867a1.452,1.452,0,0,0-2.6,0l-.924,1.869a.33.33,0,0,1-.246.179l-2.057.3a1.452,1.452,0,0,0-.806,2.476l1.491,1.453a.327.327,0,0,1,.094.289l-.352,2.047a1.452,1.452,0,0,0,2.108,1.53l1.842-.969a.325.325,0,0,1,.3,0l1.834.967a1.453,1.453,0,0,0,2.108-1.53l-.351-2.046h0a.327.327,0,0,1,.094-.289l1.491-1.453a1.452,1.452,0,0,0-.805-2.476Zm.02,1.671-1.491,1.453a1.452,1.452,0,0,0-.418,1.285l.351,2.046a.327.327,0,0,1-.475.344l-1.834-.967a1.45,1.45,0,0,0-1.354,0l-1.842.969a.327.327,0,0,1-.475-.345l.352-2.047a1.452,1.452,0,0,0-.418-1.285l-1.491-1.453a.327.327,0,0,1,.181-.558l2.058-.3a1.452,1.452,0,0,0,1.093-.794l.924-1.869a.327.327,0,0,1,.586,0l.92,1.868a1.452,1.452,0,0,0,1.094.795l2.057.3A.327.327,0,0,1,35.481,358.637Z" transform="translate(0 -328.868)" fill="#3d3d3d"/>
    <path id="Path_45037" data-name="Path 45037" d="M84.28,418.253,82.9,419.634l-.3-.3a.563.563,0,0,0-.8.8l.7.7a.563.563,0,0,0,.8,0l1.779-1.779a.562.562,0,0,0-.8-.8Z" transform="translate(-52.507 -388.625)" fill="#3d3d3d"/>
    <path id="Path_45038" data-name="Path 45038" d="M239.04,372.468H221.461a.563.563,0,0,0,0,1.125H239.04a.563.563,0,1,0,0-1.125Z" transform="translate(-181.971 -346.213)" fill="#3d3d3d"/>
    <path id="Path_45039" data-name="Path 45039" d="M239.04,424.868H221.461a.563.563,0,0,0,0,1.125H239.04a.563.563,0,1,0,0-1.125Z" transform="translate(-181.971 -394.928)" fill="#3d3d3d"/>
    <path id="Path_45040" data-name="Path 45040" d="M233.968,477.267H221.461a.562.562,0,1,0,0,1.125h12.507a.562.562,0,1,0,0-1.125Z" transform="translate(-181.971 -443.641)" fill="#3d3d3d"/>
  </g>
</svg>
