<svg id="ic_scalable" xmlns="http://www.w3.org/2000/svg" width="36" height="36" viewBox="0 0 36 36">
  <path id="Path_45050" data-name="Path 45050" d="M404.731,1.055h1.793a.527.527,0,0,0,0-1.055h-1.793A.527.527,0,0,0,404.731,1.055Z" transform="translate(-375.787)" fill="#3d3d3d"/>
  <path id="Path_45051" data-name="Path 45051" d="M337.374,1.055h1.793a.527.527,0,0,0,0-1.055h-1.793A.527.527,0,0,0,337.374,1.055Z" transform="translate(-313.167)" fill="#3d3d3d"/>
  <path id="Path_45052" data-name="Path 45052" d="M270.017,1.055h1.793a.527.527,0,0,0,0-1.055h-1.793A.527.527,0,0,0,270.017,1.055Z" transform="translate(-250.545)" fill="#3d3d3d"/>
  <path id="Path_45053" data-name="Path 45053" d="M202.659,1.055h1.793a.527.527,0,0,0,0-1.055h-1.793A.527.527,0,0,0,202.659,1.055Z" transform="translate(-187.924)" fill="#3d3d3d"/>
  <path id="Path_45054" data-name="Path 45054" d="M135.3,1.055H137.1A.527.527,0,0,0,137.1,0H135.3A.527.527,0,0,0,135.3,1.055Z" transform="translate(-125.303)" fill="#3d3d3d"/>
  <path id="Path_45055" data-name="Path 45055" d="M67.945,1.055h1.793a.527.527,0,0,0,0-1.055H67.945A.527.527,0,0,0,67.945,1.055Z" transform="translate(-62.682)" fill="#3d3d3d"/>
  <path id="Path_45056" data-name="Path 45056" d="M.527,272.338a.527.527,0,0,0,.527-.527v-1.793a.527.527,0,0,0-1.055,0v1.793A.527.527,0,0,0,.527,272.338Z" transform="translate(0 -250.546)" fill="#3d3d3d"/>
  <path id="Path_45057" data-name="Path 45057" d="M.527,204.98a.527.527,0,0,0,.527-.527v-1.793a.527.527,0,0,0-1.055,0v1.793A.527.527,0,0,0,.527,204.98Z" transform="translate(0 -187.924)" fill="#3d3d3d"/>
  <path id="Path_45058" data-name="Path 45058" d="M.527,137.623a.527.527,0,0,0,.527-.527V135.3A.527.527,0,0,0,0,135.3V137.1A.527.527,0,0,0,.527,137.623Z" transform="translate(0 -125.303)" fill="#3d3d3d"/>
  <path id="Path_45059" data-name="Path 45059" d="M.527,70.266a.527.527,0,0,0,.527-.527V67.945a.527.527,0,0,0-1.055,0v1.793A.527.527,0,0,0,.527,70.266Z" transform="translate(0 -62.682)" fill="#3d3d3d"/>
  <path id="Path_45060" data-name="Path 45060" d="M.527,2.848a.527.527,0,0,0,.527-.527V1.055H2.32A.527.527,0,0,0,2.32,0H.527A.527.527,0,0,0,0,.527V2.32A.527.527,0,0,0,.527,2.848Z" fill="#3d3d3d"/>
  <path id="Path_45061" data-name="Path 45061" d="M204.452,497h-1.793a.527.527,0,0,0,0,1.055h1.793A.527.527,0,0,0,204.452,497Z" transform="translate(-187.924 -462.055)" fill="#3d3d3d"/>
  <path id="Path_45062" data-name="Path 45062" d="M271.81,497h-1.793a.527.527,0,0,0,0,1.055h1.793A.527.527,0,0,0,271.81,497Z" transform="translate(-250.546 -462.055)" fill="#3d3d3d"/>
  <path id="Path_45063" data-name="Path 45063" d="M339.167,497h-1.793a.527.527,0,0,0,0,1.055h1.793A.527.527,0,0,0,339.167,497Z" transform="translate(-313.167 -462.055)" fill="#3d3d3d"/>
  <path id="Path_45064" data-name="Path 45064" d="M406.524,497h-1.793a.527.527,0,0,0,0,1.055h1.793A.527.527,0,0,0,406.524,497Z" transform="translate(-375.788 -462.055)" fill="#3d3d3d"/>
  <path id="Path_45065" data-name="Path 45065" d="M473.881,471.5a.527.527,0,0,0-.527.527v1.266h-1.266a.527.527,0,0,0,0,1.055h1.793a.527.527,0,0,0,.527-.527v-1.793A.527.527,0,0,0,473.881,471.5Z" transform="translate(-438.409 -438.348)" fill="#3d3d3d"/>
  <path id="Path_45066" data-name="Path 45066" d="M12.445,327.5H.527a.527.527,0,0,0-.527.527v11.918a.527.527,0,0,0,.527.527H2.816a.527.527,0,0,0,0-1.055H1.055V328.555H11.918v10.863H5.625a.527.527,0,0,0,0,1.055h6.82a.527.527,0,0,0,.527-.527V328.027A.527.527,0,0,0,12.445,327.5Z" transform="translate(0 -304.473)" fill="#3d3d3d"/>
  <path id="Path_45067" data-name="Path 45067" d="M497.527,404.143a.527.527,0,0,0-.527.527v1.793a.527.527,0,0,0,1.055,0V404.67A.527.527,0,0,0,497.527,404.143Z" transform="translate(-462.055 -375.727)" fill="#3d3d3d"/>
  <path id="Path_45068" data-name="Path 45068" d="M497.527,336.786a.527.527,0,0,0-.527.527v1.793a.527.527,0,0,0,1.055,0v-1.793A.527.527,0,0,0,497.527,336.786Z" transform="translate(-462.055 -313.106)" fill="#3d3d3d"/>
  <path id="Path_45069" data-name="Path 45069" d="M497.527,269.429a.527.527,0,0,0-.527.527v1.793a.527.527,0,0,0,1.055,0v-1.793A.527.527,0,0,0,497.527,269.429Z" transform="translate(-462.055 -250.485)" fill="#3d3d3d"/>
  <path id="Path_45070" data-name="Path 45070" d="M497.527,202.071a.527.527,0,0,0-.527.527v1.793a.527.527,0,0,0,1.055,0V202.6A.527.527,0,0,0,497.527,202.071Z" transform="translate(-462.055 -187.863)" fill="#3d3d3d"/>
  <path id="Path_45071" data-name="Path 45071" d="M497.527,134.714a.527.527,0,0,0-.527.527v1.793a.527.527,0,0,0,1.055,0v-1.793A.527.527,0,0,0,497.527,134.714Z" transform="translate(-462.055 -125.242)" fill="#3d3d3d"/>
  <path id="Path_45072" data-name="Path 45072" d="M497.527,67.357a.527.527,0,0,0-.527.527v1.793a.527.527,0,0,0,1.055,0V67.884A.527.527,0,0,0,497.527,67.357Z" transform="translate(-462.055 -62.621)" fill="#3d3d3d"/>
  <path id="Path_45073" data-name="Path 45073" d="M473.881,0h-1.793a.527.527,0,0,0,0,1.055h1.266V2.32a.527.527,0,0,0,1.055,0V.527A.527.527,0,0,0,473.881,0Z" transform="translate(-438.409)" fill="#3d3d3d"/>
  <path id="Path_45074" data-name="Path 45074" d="M225.737,65.168a.534.534,0,0,0-.527-.5H221.95a.527.527,0,0,0,0,1.055h1.988l-14.8,14.8a.528.528,0,0,0,.746.746l14.8-14.8v1.988a.527.527,0,0,0,1.055,0V65.2C225.738,65.186,225.738,65.177,225.737,65.168Z" transform="translate(-194.285 -60.12)" fill="#3d3d3d"/>
  <path id="Path_45075" data-name="Path 45075" d="M195.838,130.7v.624a.527.527,0,1,0,1.055,0v-1.9a.533.533,0,0,0-.527-.529h-1.9a.527.527,0,0,0,0,1.055h.624l-5.6,5.6a.528.528,0,0,0,.746.746Z" transform="translate(-176.023 -119.836)" fill="#3d3d3d"/>
  <path id="Path_45076" data-name="Path 45076" d="M129.6,251.878a.526.526,0,0,0,.373-.154l2.342-2.342a.528.528,0,0,0-.746-.746l-2.342,2.342A.54.54,0,0,0,129.6,251.878Z" transform="translate(-120.009 -231.008)" fill="#3d3d3d"/>
  <path id="Path_45077" data-name="Path 45077" d="M226.143,214.858a.535.535,0,0,0-.527-.5h-1.9a.527.527,0,0,0,0,1.055h.624l-9.852,9.852a.528.528,0,0,0,.746.746l9.852-9.852v.624a.527.527,0,0,0,1.055,0v-1.9Q226.144,214.872,226.143,214.858Z" transform="translate(-199.265 -199.285)" fill="#3d3d3d"/>
</svg>
