<svg xmlns="http://www.w3.org/2000/svg" width="121.333" height="26" viewBox="0 0 121.333 26">
  <path id="Acquia" d="M115.669,20.157a6.265,6.265,0,0,1-4.94,2,5.76,5.76,0,0,1-4.642-2.128,8.054,8.054,0,0,1-1.746-5.3A7.368,7.368,0,0,1,106.214,9.6a6.129,6.129,0,0,1,4.642-2.128A5.867,5.867,0,0,1,115.669,9.6a8.13,8.13,0,0,1,1.874,5.3,7.348,7.348,0,0,1-1.874,5.259Zm1.618-12.437-.894-.876a9.006,9.006,0,0,0-13.543.125,11.054,11.054,0,0,0-2.768,7.721,11.773,11.773,0,0,0,2.768,7.846,9.319,9.319,0,0,0,13.543.417l.724-.71v2.88h4.217V4.424h-4.216v3.3ZM84.622,14.857c0,4.3-2.172,7.011-5.835,7.011s-5.835-2.713-5.835-7.011V4.424H68.737V14.857c0,6.26,4.216,10.851,10.051,10.851s10.051-4.549,10.051-10.851V4.424H84.622V14.857ZM92.8,25.124h4.216V4.424H92.8Zm-27.086-10.1A11.067,11.067,0,0,0,54.939,4.048c-.128,0-.3.125-.128.292A11.366,11.366,0,0,0,58,8.472c2.342,1.711,3.663,3.84,3.663,6.427a6.984,6.984,0,1,1-13.969,0c0-2.587,1.448-4.716,3.663-6.427a10.925,10.925,0,0,0,3.194-4.123.172.172,0,0,0-.128-.292,10.9,10.9,0,0,0-10.945,10.8A10.976,10.976,0,0,0,54.555,25.416,11.9,11.9,0,0,0,62.136,23l2.172,2h6.133l-5.749-5.3a10.87,10.87,0,0,0,1.022-4.674ZM7.879,17.862l4.94-10.726L17.8,17.862ZM12.691,0a1.809,1.809,0,0,0-1.618,1L0,25.124H4.387L6,21.7H19.42l1.618,3.422h4.387L14.437,1.168A1.935,1.935,0,0,0,12.691,0ZM35.859,8.013a6.983,6.983,0,0,1,4.812,1.836A12.2,12.2,0,0,1,42.716,6.26a11.281,11.281,0,0,0-18.1,8.764A11.076,11.076,0,0,0,35.817,26a11.351,11.351,0,0,0,6.857-2.3,16.71,16.71,0,0,1-2.044-3.589,7.222,7.222,0,0,1-4.812,1.836,7.1,7.1,0,0,1-7.155-7.011A7.122,7.122,0,0,1,35.859,8.013Z" fill-rule="evenodd"/>
</svg>
