<svg id="Adobe_Logo" xmlns="http://www.w3.org/2000/svg" width="146.599" height="40" viewBox="0 0 146.599 40">
  <path id="Path_35030" data-name="Path 35030" d="M38.617,25.147l-1.867,5.6a.284.284,0,0,1-.284.284H33.017c-.267,0-.267,0-.267-.284l6.987-19.556a6.169,6.169,0,0,0,.284-1.778.284.284,0,0,1,.284-.213h4.747c.284,0,.284,0,.284.284l7.822,21.547c0,.267,0,.267-.267.267h-3.7c-.284,0-.284,0-.284-.267l-1.956-5.6H38.617Zm7-3.556a88.69,88.69,0,0,1-2.809-9.227h0c-.551,2.222-1.956,6.151-2.791,9.227Z" transform="translate(23.197 0.311)"/>
  <path id="Path_35031" data-name="Path 35031" d="M44.71,23.762c0-4.747,3.556-8.658,9.511-8.658h1.387V8.384c0-.284,0-.284.284-.284h3.556c.284,0,.284,0,.284.284V30.767c0,.284,0,.284-.284.284a17.778,17.778,0,0,1-6.418,1.387C48.337,32.153,44.71,29.362,44.71,23.762Zm10.9-5.333a3.129,3.129,0,0,0-1.671-.267A4.924,4.924,0,0,0,48.6,23.193a4.48,4.48,0,0,0,4.747,5.031,4.64,4.64,0,0,0,1.956-.284V18.447Z" transform="translate(32.499 -0.544)"/>
  <path id="Path_35032" data-name="Path 35032" d="M70.993,20.556a8.089,8.089,0,0,1-8.107,8.658c-5.6,0-8.107-4.2-8.107-8.658,0-4.764,3.076-8.676,8.107-8.676a8.231,8.231,0,0,1,8.107,8.676Zm-12.018,0c0,3.076,1.387,5.333,3.911,5.333,1.956,0,3.911-1.689,3.911-5.049,0-2.791-1.12-5.333-3.911-5.333C60.647,15.507,58.976,17.427,58.976,20.556Z" transform="translate(40.331 2.396)"/>
  <path id="Path_35033" data-name="Path 35033" d="M69.541,8.217c.284,0,.284,0,.284.284v7.271A9.884,9.884,0,0,1,72.9,15.15a7.484,7.484,0,0,1,7.84,7.822c0,6.151-4.764,9.227-9.8,9.227a15.558,15.558,0,0,1-5.033-.836l-.283-.213V8.217c0-.267,0-.267.284-.267H69.47Zm2.524,10.347c-1.12,0-1.671.284-2.24.284v9.8c.569,0,.836.284,1.4.284a5,5,0,0,0,5.333-5.333C76.546,20.252,74.857,18.563,72.066,18.563Z" transform="translate(48.77 -0.661)"/>
  <path id="Path_35034" data-name="Path 35034" d="M79.469,21.518c0,2.24,1.671,4.2,5.031,4.2a11.378,11.378,0,0,0,4.2-.836h.284v2.791c0,.284,0,.284-.284.284a12.729,12.729,0,0,1-5.031.836c-6.151,0-8.124-4.2-8.124-8.391,0-4.764,2.809-8.676,7.84-8.676a6.489,6.489,0,0,1,6.72,7v1.956a.267.267,0,0,1-.284.267H79.469ZM84.5,18.727h1.956v-.284a3.022,3.022,0,0,0-2.987-3.076,3.662,3.662,0,0,0-3.556,3.36Z" transform="translate(56.478 2.269)"/>
  <g id="Adobe_Corporate_Horizontal_Red_HEX">
    <path id="Path_41934" data-name="Path 41934" d="M84.13,0h16.706V40Z" transform="translate(-55.638)"/>
    <path id="Path_41935" data-name="Path 41935" d="M16.72,0H0V40Z"/>
    <path id="Path_41936" data-name="Path 41936" d="M52.485,43.53,63.129,68.788H56.153l-3.183-8.043H45.18Z" transform="translate(-29.879 -28.788)"/>
  </g>
</svg>
