<svg xmlns="http://www.w3.org/2000/svg" width="138.255" height="30" viewBox="0 0 138.255 30">
  <g id="akeneo-logo-vector" transform="translate(-20.7 -256.8)">
    <path id="Path_43978" data-name="Path 43978" d="M183.308,305.06a3.146,3.146,0,0,0-.968-2.65,4.491,4.491,0,0,0-2.811-.737,10.827,10.827,0,0,0-2.12.184,19.634,19.634,0,0,0-1.935.461,4.951,4.951,0,0,1-.622-2.558,14.44,14.44,0,0,1,2.442-.553,19.135,19.135,0,0,1,2.558-.207,7.247,7.247,0,0,1,4.931,1.475c1.129.991,1.682,2.558,1.682,4.724V315.59c-.76.184-1.682.346-2.765.53a19.737,19.737,0,0,1-3.318.277,13.223,13.223,0,0,1-2.857-.3,5.7,5.7,0,0,1-2.166-.945,4.316,4.316,0,0,1-1.382-1.636,5.516,5.516,0,0,1-.484-2.442,4.943,4.943,0,0,1,2.1-4.194,6.607,6.607,0,0,1,2.235-1.037,10.327,10.327,0,0,1,2.65-.346c.691,0,1.267.023,1.705.046a10.984,10.984,0,0,1,1.106.115l.023-.6Zm0,3.134c-.323-.046-.737-.092-1.221-.138s-.922-.069-1.267-.069a5.421,5.421,0,0,0-3.065.737,2.64,2.64,0,0,0-1.06,2.258,2.9,2.9,0,0,0,.346,1.521,2.628,2.628,0,0,0,2.074,1.2,11.83,11.83,0,0,0,1.221.069,11.567,11.567,0,0,0,1.544-.092,9.413,9.413,0,0,0,1.406-.23l.023-5.253Z" transform="translate(-117.585 -32.476)"/>
    <path id="Path_43979" data-name="Path 43979" d="M250.1,269.315c.253-.046.53-.069.783-.092.3-.023.553-.023.783-.023s.507,0,.806.023c.277.023.553.046.806.092v23.756c-.277.046-.553.069-.806.092-.3.023-.576.023-.806.023-.253,0-.507,0-.783-.023s-.53-.046-.783-.092Zm3.272,15.138,6.106-8c.277-.046.553-.069.853-.092s.576-.023.876-.023c.323,0,.622,0,.922.023s.6.046.9.092l-6.106,7.765,7,8.848c-.3.046-.6.069-.876.092s-.576.023-.876.023-.6,0-.9-.023l-.9-.069Z" transform="translate(-176.543 -9.543)"/>
    <path id="Path_43980" data-name="Path 43980" d="M319.2,308.552a5.44,5.44,0,0,0,1.406,3.986,5.536,5.536,0,0,0,3.963,1.267,12.382,12.382,0,0,0,4.378-.806,5.081,5.081,0,0,1,.415,1.175,9.543,9.543,0,0,1,.207,1.382,10.573,10.573,0,0,1-2.35.691,16.8,16.8,0,0,1-2.834.23,11.212,11.212,0,0,1-3.894-.622,6.889,6.889,0,0,1-4.217-4.493,11,11,0,0,1-.484-3.456,12.5,12.5,0,0,1,.461-3.456,7.7,7.7,0,0,1,1.452-2.788,6.984,6.984,0,0,1,2.442-1.889,7.9,7.9,0,0,1,3.479-.691,7.568,7.568,0,0,1,3.018.576,6.207,6.207,0,0,1,2.166,1.613,7.025,7.025,0,0,1,1.336,2.442,10.62,10.62,0,0,1,.461,3.065c0,.3,0,.622-.023.968s-.046.622-.069.853l-11.313-.046Zm8.226-2.4a6.249,6.249,0,0,0-.23-1.728,4.271,4.271,0,0,0-.714-1.452,3.544,3.544,0,0,0-1.2-.991,3.707,3.707,0,0,0-1.728-.369,3.761,3.761,0,0,0-3.018,1.2,5.883,5.883,0,0,0-1.29,3.341Z" transform="translate(-227.097 -32.536)"/>
    <path id="Path_43981" data-name="Path 43981" d="M398.3,299.392c.23-.046.461-.069.691-.092s.461-.023.691-.023a6.475,6.475,0,0,1,.668.023c.207.023.415.046.668.092q.1.484.207,1.313a9.291,9.291,0,0,1,.092,1.382,7.538,7.538,0,0,1,.806-1.106,6.716,6.716,0,0,1,1.152-.991,6.1,6.1,0,0,1,3.341-.991,5.175,5.175,0,0,1,4.217,1.636,7.434,7.434,0,0,1,1.359,4.839v10.553c-.277.046-.553.069-.806.092-.3.023-.576.023-.806.023-.253,0-.507,0-.783-.023s-.53-.046-.783-.092v-9.654a6.175,6.175,0,0,0-.714-3.387,2.524,2.524,0,0,0-2.258-1.083,4.892,4.892,0,0,0-1.728.323,3.946,3.946,0,0,0-1.429,1.014,4.971,4.971,0,0,0-.991,1.774,7.744,7.744,0,0,0-.369,2.6v8.41c-.253.046-.53.069-.783.092-.3.023-.553.023-.783.023s-.507,0-.806-.023c-.276-.023-.553-.046-.806-.092V299.392Z" transform="translate(-290.595 -32.477)"/>
    <path id="Path_43982" data-name="Path 43982" d="M478.526,308.564a5.44,5.44,0,0,0,1.406,3.986,5.536,5.536,0,0,0,3.963,1.267,12.381,12.381,0,0,0,4.378-.806,5.081,5.081,0,0,1,.415,1.175,7.11,7.11,0,0,1,.184,1.383,10.04,10.04,0,0,1-2.327.691,16.791,16.791,0,0,1-2.834.23,11.211,11.211,0,0,1-3.894-.622,6.87,6.87,0,0,1-4.24-4.493,11,11,0,0,1-.484-3.456,12.5,12.5,0,0,1,.461-3.456,7.7,7.7,0,0,1,1.452-2.788,6.984,6.984,0,0,1,2.442-1.889,8.169,8.169,0,0,1,3.479-.691,7.566,7.566,0,0,1,3.018.576,6.207,6.207,0,0,1,2.166,1.613,7.025,7.025,0,0,1,1.336,2.442,10.619,10.619,0,0,1,.461,3.065c0,.3,0,.622-.023.968s-.046.622-.069.853l-11.29-.046Zm8.249-2.4a6.249,6.249,0,0,0-.23-1.728,4.271,4.271,0,0,0-.714-1.452,3.544,3.544,0,0,0-1.2-.991,3.707,3.707,0,0,0-1.728-.369,3.761,3.761,0,0,0-3.018,1.2,5.883,5.883,0,0,0-1.29,3.341Z" transform="translate(-349.692 -32.548)"/>
    <path id="Path_43983" data-name="Path 43983" d="M561.146,316.377a8.265,8.265,0,0,1-3.41-.668,6.8,6.8,0,0,1-2.442-1.82,7.767,7.767,0,0,1-1.452-2.765,12.864,12.864,0,0,1,0-6.866,7.6,7.6,0,0,1,1.452-2.765,6.86,6.86,0,0,1,2.442-1.843,8.906,8.906,0,0,1,6.8,0,7.138,7.138,0,0,1,2.442,1.843,7.768,7.768,0,0,1,1.452,2.765,12.865,12.865,0,0,1,0,6.866,7.6,7.6,0,0,1-1.452,2.765,6.8,6.8,0,0,1-2.442,1.82A8.087,8.087,0,0,1,561.146,316.377Zm0-2.558a3.7,3.7,0,0,0,3.318-1.636,10.054,10.054,0,0,0,0-8.986,3.687,3.687,0,0,0-3.318-1.613,3.582,3.582,0,0,0-3.272,1.613,8.457,8.457,0,0,0-1.06,4.493,8.051,8.051,0,0,0,1.06,4.493,3.7,3.7,0,0,0,3.272,1.636Z" transform="translate(-409.939 -32.457)"/>
    <path id="Path_43984" data-name="Path 43984" d="M43.465,286.186c.115.369.207.6.23.691h0c-.553-7.834,3.986-10.945,5.576-16.083.023-.092.023-.161.046-.253.023-.115.069-.23.092-.346a7.514,7.514,0,0,0-1.336-4.908v-.023c-.092-.138-.184-.3-.276-.438h0c-.184-.276-.369-.553-.553-.806l-.069-.092-.161-.23-.161-.23-.184-.23-.184-.23-.138-.161a38.8,38.8,0,0,0-6.2-5.945h0a37.761,37.761,0,0,1-.207,8.226,31.239,31.239,0,0,1-3.065,9.032,31.884,31.884,0,0,1-9.217-2.442,39.816,39.816,0,0,1-6.959-4.4c0,.253.046.484.069.737a.638.638,0,0,0,.023.207,4.113,4.113,0,0,0,.046.53.71.71,0,0,0,.023.23,4.172,4.172,0,0,0,.069.53.638.638,0,0,0,.023.207,6.648,6.648,0,0,0,.092.668v.069c.046.253.069.507.115.76v.046c.046.23.069.461.115.668l.023.138c.046.207.069.415.115.6a.208.208,0,0,0,.023.115c.046.23.092.461.161.691h0c.161.737.369,1.452.576,2.143v.023a21.531,21.531,0,0,0,1.221,3.134l.207.415h0c.069.115.115.23.184.346h0l.207.346h0l.023.046h0c.092.138.207.3.3.415l.046.069v.023c.115.161.23.3.346.438h0c.092.092.161.184.253.276l.115.115.161.161.115.115.161.138.138.092.161.115.138.092.184.115.115.069.277.069.092.046a1.8,1.8,0,0,0,.323.115l.184.069c5.161,1.544,10.3-.461,16.521,4.309" transform="translate(0 -0.077)" fill="#3d3d3d"/>
    <path id="Path_43985" data-name="Path 43985" d="M93.965,265.026a31.239,31.239,0,0,1-3.065,9.032c5.829.668,11.475-.207,12.442-3.594,1.06-3.71-3.756-9.4-9.194-13.664A36.368,36.368,0,0,1,93.965,265.026Z" transform="translate(-54.025)" fill="#cecece"/>
    <path id="Path_43986" data-name="Path 43986" d="M27.759,306.3a39.816,39.816,0,0,1-6.959-4.4c.507,6.889,2.581,14.055,6.267,15.23,3.364,1.083,7.235-3.134,9.908-8.364A31.2,31.2,0,0,1,27.759,306.3Z" transform="translate(-0.076 -34.708)" fill="#cecece"/>
    <path id="Path_43987" data-name="Path 43987" d="M32.39,312.822A20.894,20.894,0,0,1,20.8,301.9h0a32.827,32.827,0,0,0,2.719,11.521c.069.115.138.253.207.369v.023l.207.346.023.046c.069.115.138.23.207.323l.023.046.207.3.138.184.023.046.092.115c.069.092.161.207.23.3a4.705,4.705,0,0,0,2.166,1.544l.184.069c5.161,1.544,10.3-.461,16.521,4.309C43.288,320.863,38.888,315.241,32.39,312.822Z" transform="translate(-0.076 -34.708)"/>
    <path id="Path_43988" data-name="Path 43988" d="M114.294,270.464c1.06-3.71-3.756-9.4-9.194-13.664h0a21.035,21.035,0,0,1,2.627,15.714c-1.636,6.866.737,13.756.922,14.263h0c-.553-7.834,3.986-10.945,5.576-16.083C114.247,270.625,114.271,270.533,114.294,270.464Z" transform="translate(-64.953)"/>
  </g>
</svg>
