<svg xmlns="http://www.w3.org/2000/svg" width="54" height="43.505" viewBox="0 0 54 43.505">
  <g id="ic_balance" transform="translate(0 -49.753)">
    <g id="Group_57033" data-name="Group 57033" transform="translate(0 49.753)">
      <path id="Path_43285" data-name="Path 43285" d="M50.836,69.258H45.543L51.9,62.9a7.179,7.179,0,0,0-9.406-10.8,7.179,7.179,0,0,0-9.406,10.8l6.354,6.354H23.048A3.057,3.057,0,0,0,23.2,68.3V57.042a3.073,3.073,0,0,0-3.07-3.07H16.207V51.54a1.789,1.789,0,0,0-1.787-1.787H8.784A1.789,1.789,0,0,0,7,51.54v2.431H3.07A3.073,3.073,0,0,0,0,57.042V68.3a3.057,3.057,0,0,0,.783,2.045,3.162,3.162,0,0,0,2.381,5.244H6.855a1.055,1.055,0,0,0,0-2.109H3.164a1.055,1.055,0,0,1,0-2.109H50.836a1.055,1.055,0,0,1,0,2.109H16.348a1.055,1.055,0,1,0,0,2.109h7.678L16.457,88.695a3.042,3.042,0,0,0,2.635,4.564H34.908a3.042,3.042,0,0,0,2.635-4.564L29.974,75.586H50.836a3.164,3.164,0,1,0,0-6.328ZM33.092,57.827a5.071,5.071,0,0,1,8.654-3.584,1.055,1.055,0,0,0,1.492,0,5.069,5.069,0,1,1,7.169,7.169l-7.8,7.8a.166.166,0,0,1-.235,0l-7.8-7.8A5.036,5.036,0,0,1,33.092,57.827ZM9.106,51.862H14.1v2.109H9.106ZM3.07,56.081H20.133a.962.962,0,0,1,.961.961V59.69l-6.328,1.4v-.571a1.055,1.055,0,0,0-1.055-1.055H9.492a1.055,1.055,0,0,0-1.055,1.055v.571l-6.328-1.4V57.042a.962.962,0,0,1,.961-.961Zm7.477,6.335V61.57h2.109v1.586a1.055,1.055,0,0,1-2.109,0ZM3.164,69.258H3.07a.962.962,0,0,1-.961-.961V61.85l6.33,1.4a3.163,3.163,0,0,0,6.323,0l6.33-1.4V68.3a.962.962,0,0,1-.961.961H3.164Zm24.644,6.795,7.908,13.7a.933.933,0,0,1-.808,1.4H19.092a.933.933,0,0,1-.808-1.4l7.908-13.7a.933.933,0,0,1,1.616,0Z" transform="translate(0 -49.753)" fill="#3d3d3d"/>
      <circle id="Ellipse_54" data-name="Ellipse 54" cx="1.055" cy="1.055" r="1.055" transform="translate(10.547 23.724)" fill="#3d3d3d"/>
    </g>
  </g>
</svg>
