<svg xmlns="http://www.w3.org/2000/svg" width="54" height="52.651" viewBox="0 0 54 52.651">
  <g id="ic_Benefits" transform="translate(-11.004 -17.241)">
    <path id="Path_43266" data-name="Path 43266" d="M108.474,374.024a.643.643,0,0,0,.077-.6l-1.487-4a.658.658,0,0,0-.62-.427H69.066a.662.662,0,0,0-.62.431l-1.486,3.994a.637.637,0,0,0,.62.865h40.352A.645.645,0,0,0,108.474,374.024ZM68.53,372.967l1-2.645h36.46l1,2.645Z" transform="translate(-49.752 -312.993)" fill="#3d3d3d"/>
    <path id="Path_43267" data-name="Path 43267" d="M102.661,157.112a.661.661,0,0,0-.661.661v7.341a.661.661,0,1,0,1.322,0v-7.341A.661.661,0,0,0,102.661,157.112Z" transform="translate(-80.968 -124.457)" fill="#3d3d3d"/>
    <path id="Path_43268" data-name="Path 43268" d="M102.661,136.156a.661.661,0,0,0-.661.661v.353a.661.661,0,1,0,1.322,0v-.353A.661.661,0,0,0,102.661,136.156Z" transform="translate(-80.968 -105.81)" fill="#3d3d3d"/>
    <path id="Path_43269" data-name="Path 43269" d="M250.661,21.352a.661.661,0,0,0,.661-.661V17.9a.661.661,0,0,0-1.323,0V20.69A.661.661,0,0,0,250.661,21.352Z" transform="translate(-212.658)" fill="#3d3d3d"/>
    <path id="Path_43270" data-name="Path 43270" d="M345.961,139.322h2.79a.661.661,0,0,0,0-1.322h-2.79a.661.661,0,0,0,0,1.322Z" transform="translate(-297.455 -107.451)" fill="#3d3d3d"/>
    <path id="Path_43271" data-name="Path 43271" d="M132.836,138h-2.79a.661.661,0,0,0,0,1.322h2.79a.661.661,0,0,0,0-1.322Z" transform="translate(-105.335 -107.451)" fill="#3d3d3d"/>
    <path id="Path_43272" data-name="Path 43272" d="M319.9,52.342a.659.659,0,0,0,.467-.194l2.177-2.175a.661.661,0,1,0-.935-.935l-2.177,2.175a.661.661,0,0,0,.467,1.129Z" transform="translate(-274.268 -28.12)" fill="#3d3d3d"/>
    <path id="Path_43273" data-name="Path 43273" d="M163.376,52.148a.661.661,0,1,0,.935-.935l-2.177-2.175a.661.661,0,0,0-.935.935Z" transform="translate(-133.471 -28.12)" fill="#3d3d3d"/>
    <path id="Path_43274" data-name="Path 43274" d="M202.661,99.387a.661.661,0,0,0,.661-.661,4.946,4.946,0,0,1,1.477-3.538,5.027,5.027,0,0,1,.993-.765.661.661,0,0,0-.669-1.141,6.353,6.353,0,0,0-1.254.966A6.259,6.259,0,0,0,202,98.726.661.661,0,0,0,202.661,99.387Z" transform="translate(-169.947 -67.58)" fill="#3d3d3d"/>
    <path id="Path_43275" data-name="Path 43275" d="M243.358,87.813a.667.667,0,0,0,.135-.014,5.03,5.03,0,0,1,.6-.087.661.661,0,1,0-.109-1.318,6.349,6.349,0,0,0-.764.11.661.661,0,0,0,.134,1.309Z" transform="translate(-206.159 -61.529)" fill="#3d3d3d"/>
    <path id="Path_43276" data-name="Path 43276" d="M64.948,110.639h0L60.055,99.5a2.5,2.5,0,0,0-.339-.585,2.6,2.6,0,0,0,.989-2.017V71.876a2.929,2.929,0,0,0-2.915-2.895H42.808a7.977,7.977,0,0,0-9.618,0H18.216A2.929,2.929,0,0,0,15.3,71.876V96.9a2.61,2.61,0,0,0,1.051,2.069,2.548,2.548,0,0,0-.3.522l-4.991,11.159h0a.656.656,0,0,0-.055.27v.956a2.622,2.622,0,0,0,2.6,2.622H62.407a2.622,2.622,0,0,0,2.6-2.622v-.956a.848.848,0,0,0-.056-.279ZM33.31,70.623a6.665,6.665,0,1,1,9.242,9.605,5.939,5.939,0,0,0-1.9,4.329v.074H38.665v-5.49a1.132,1.132,0,0,0,.424.079,1.318,1.318,0,0,0,1.109-.709c.026-.039.062-.093.09-.129a.661.661,0,0,0-.079-1.318,1.318,1.318,0,0,0-1.108.709l-.011.016-.011-.016a1.221,1.221,0,0,0-2.217,0l-.011.016-.011-.016a1.318,1.318,0,0,0-1.108-.709.661.661,0,0,0-.079,1.318c.028.036.064.089.09.128a1.318,1.318,0,0,0,1.108.709,1.116,1.116,0,0,0,.492-.11v5.52H35.359v-.074a5.834,5.834,0,0,0-1.868-4.3,6.658,6.658,0,0,1-.181-9.637Zm1.178,17.424a.222.222,0,0,1,0-.441h7.031a.219.219,0,0,1,.2.22.233.233,0,0,1-.216.22Zm6.877,1.488c0,.11-.089.165-.2.165H34.841c-.11,0-.2-.055-.2-.165s.089-.165.2-.165h6.326C41.276,89.37,41.365,89.425,41.365,89.535Zm-7.223-3.251c-.11,0-.2-.055-.2-.165s.087-.165.2-.165h7.736c.11,0,.2.055.2.165s-.089.165-.2.165ZM16.624,71.876A1.577,1.577,0,0,1,18.2,70.3H31.815a7.976,7.976,0,0,0-.821,1.212H20.179a1.9,1.9,0,0,0-1.9,1.9v3.057a.661.661,0,0,0,.661.661h0a.661.661,0,0,0,.661-.661V73.5a.664.664,0,0,1,.662-.662H30.418a7.99,7.99,0,0,0,2.179,8.4,4.509,4.509,0,0,1,1.439,3.323v.033a1.537,1.537,0,0,0-1.426,1.517,1.518,1.518,0,0,0,.485,1.108,1.516,1.516,0,0,0,.354,1.721,1.4,1.4,0,0,0-.129.612,1.519,1.519,0,0,0,1.53,1.473h6.293a1.534,1.534,0,0,0,1.545-1.536,1.46,1.46,0,0,0-.129-.562,1.5,1.5,0,0,0,.353-1.712,1.517,1.517,0,0,0,.487-1.107,1.536,1.536,0,0,0-1.426-1.516v-.038A4.609,4.609,0,0,1,43.452,81.2a7.985,7.985,0,0,0,2.135-8.357h10.24a.58.58,0,0,1,.58.58V94.995a.658.658,0,0,1-.657.657h-35.5a.658.658,0,0,1-.657-.657V81.1a.661.661,0,0,0-.661-.661h0a.661.661,0,0,0-.661.661v13.89a1.985,1.985,0,0,0,1.979,1.979H55.828a1.9,1.9,0,0,0,1.9-1.9V73.419a1.9,1.9,0,0,0-1.9-1.9H45.009a7.991,7.991,0,0,0-.824-1.212H57.791A1.6,1.6,0,0,1,59.383,71.9v25A1.292,1.292,0,0,1,58.1,98.186H17.937a1.317,1.317,0,0,1-1.313-1.313Zm.64,28.179a1.288,1.288,0,0,1,.468-.551l40.629-.021a1.33,1.33,0,0,1,.483.583l4.486,10.241H45.907l-.9-2.738a.665.665,0,0,0-.628-.458H31.632a.665.665,0,0,0-.628.458l-.9,2.738H12.685Zm27.25,10.253H31.493l.617-1.873H43.9Zm19.167,1.566a1.3,1.3,0,0,1-1.274,1.3H13.6a1.3,1.3,0,0,1-1.274-1.3v-.243H63.681Z" transform="translate(0 -44.604)" fill="#3d3d3d"/>
  </g>
</svg>
