<svg id="bioiq" xmlns="http://www.w3.org/2000/svg" width="93.724" height="34" viewBox="0 0 93.724 34">
  <path id="Path_9" data-name="Path 9" d="M118.947,26.7a9.818,9.818,0,1,0,9.818,9.818A9.853,9.853,0,0,0,118.947,26.7Zm5.779,9.847a5.819,5.819,0,0,1-5.807,5.807,6.291,6.291,0,0,1-5.807-5.807,5.807,5.807,0,0,1,11.614,0Z" transform="translate(-78.494 -19.21)"/>
  <path id="Path_10" data-name="Path 10" d="M9.818,7.49A9.649,9.649,0,0,0,4.264,9.229V3.983A4.024,4.024,0,0,0,3.086,1.375,3.916,3.916,0,0,0,.224,0H0V17.337A9.819,9.819,0,1,0,9.818,7.49Zm5.807,9.847a5.819,5.819,0,0,1-5.807,5.807,6.291,6.291,0,0,1-5.807-5.807,5.807,5.807,0,1,1,11.614,0Z"/>
  <path id="Path_11" data-name="Path 11" d="M86.28,45.861V29.675A4,4,0,0,0,82.324,26H82.1V42.411a4.021,4.021,0,0,0,3.927,3.7h.252Z" transform="translate(-59.069 -18.706)"/>
  <path id="Path_12" data-name="Path 12" d="M83.988,2.5h0a2.16,2.16,0,1,0-.028,4.32,2.16,2.16,0,0,0,.028-4.32Z" transform="translate(-58.853 -1.799)"/>
  <path id="Path_13" data-name="Path 13" d="M249.588,30.82c-.056-.056-5.33-5.106-5.863-5.639l-.14-.14-.14.112a20.219,20.219,0,0,1-1.767,1.15,13.136,13.136,0,0,0,4.264-9.79,13.39,13.39,0,0,0-3.815-9.2,13.083,13.083,0,0,0-9.4-4.012,13.227,13.227,0,0,0,0,26.454,13.424,13.424,0,0,0,7.378-2.188l9.033,8.668.14.14.14-.14a4.11,4.11,0,0,0,1.122-2.946A3.524,3.524,0,0,0,249.588,30.82Zm-16.832-5.134a8.766,8.766,0,0,1-6.144-2.581,9.01,9.01,0,0,1-2.693-6.48c0-4.46,3.366-9.314,8.837-9.314a9,9,0,0,1,8.837,9.061C241.621,20.945,238.311,25.686,232.757,25.686Z" transform="translate(-157.996 -2.374)"/>
  <path id="Path_14" data-name="Path 14" d="M195.552,29.6a4.021,4.021,0,0,0-3.927-3.7H191.4V42.311a4.021,4.021,0,0,0,3.927,3.7h.224V29.6Z" transform="translate(-137.707 -18.634)"/>
  <path id="Path_15" data-name="Path 15" d="M193.188,2.5h0a2.16,2.16,0,1,0-.028,4.32,2.155,2.155,0,0,0,2.16-2.188A2.168,2.168,0,0,0,193.188,2.5Z" transform="translate(-137.419 -1.799)"/>
  <g id="Group_3" data-name="Group 3" transform="translate(89.685 0.673)">
    <path id="Path_16" data-name="Path 16" d="M319.7,4.588a2.026,2.026,0,1,1,4.04,0,2.024,2.024,0,1,1-4.04,0Zm3.731,0a1.721,1.721,0,1,0-3.422,0,1.719,1.719,0,1,0,3.422,0ZM320.99,3.382h.757c.421,0,.87.168.87.729a.7.7,0,0,1-.449.645l.561.982h-.421l-.449-.87H321.3v.87h-.309Zm.645,1.15c.365,0,.617-.112.617-.421,0-.281-.14-.449-.561-.449H321.3v.87Z" transform="translate(-319.7 -2.4)"/>
  </g>
</svg>
