<svg xmlns="http://www.w3.org/2000/svg" xmlns:xlink="http://www.w3.org/1999/xlink" width="117.753" height="20" viewBox="0 0 117.753 20">
  <defs>
    <clipPath id="clip-path">
      <rect id="Rectangle_20" data-name="Rectangle 20" width="117.753" height="20"/>
    </clipPath>
  </defs>
  <g id="boddess" transform="translate(0 0)">
    <g id="Group_15" data-name="Group 15" transform="translate(0 0)" clip-path="url(#clip-path)" fill="#fff">
      <path id="Path_763" data-name="Path 763" d="M9.454,13.53A2.082,2.082,0,0,0,8.4,11.638a5.177,5.177,0,0,0-2.723-.649H3.821v5.079H5.875a4.317,4.317,0,0,0,2.7-.7,2.237,2.237,0,0,0,.875-1.841ZM5.484,8.035a4.023,4.023,0,0,0,2.358-.641,2.091,2.091,0,0,0,.914-1.812A1.855,1.855,0,0,0,7.98,3.936a3.7,3.7,0,0,0-2.105-.531H3.821v4.63ZM13.3,13.811A4.294,4.294,0,0,1,12.744,16a4.924,4.924,0,0,1-1.562,1.631,7.855,7.855,0,0,1-2.426,1.024,12.716,12.716,0,0,1-3.151.362H0V.45H6.359A9.634,9.634,0,0,1,8.938.772a6.33,6.33,0,0,1,1.967.891,4.126,4.126,0,0,1,1.254,1.381,3.642,3.642,0,0,1,.447,1.786,4,4,0,0,1-1.018,2.845A6.344,6.344,0,0,1,8.813,9.319a6.048,6.048,0,0,1,3.248,1.435A3.929,3.929,0,0,1,13.3,13.807Z" transform="translate(0 -0.002)"/>
      <path id="Path_764" data-name="Path 764" d="M23.618,16.29a5.337,5.337,0,0,0,2.384-.5,4.828,4.828,0,0,0,1.7-1.38,5.917,5.917,0,0,0,1.018-2.078,9.548,9.548,0,0,0,.336-2.594A9.551,9.551,0,0,0,28.72,7.15,5.9,5.9,0,0,0,27.7,5.073,4.81,4.81,0,0,0,26,3.685a5.923,5.923,0,0,0-4.769,0,4.841,4.841,0,0,0-1.7,1.381,5.95,5.95,0,0,0-1.016,2.077,9.628,9.628,0,0,0-.334,2.589,9.625,9.625,0,0,0,.334,2.594,5.96,5.96,0,0,0,1.016,2.081,4.831,4.831,0,0,0,1.7,1.38,5.337,5.337,0,0,0,2.384.5m9.342-6.554a10.907,10.907,0,0,1-.627,3.724,9.084,9.084,0,0,1-1.812,3.053A8.5,8.5,0,0,1,27.6,18.59a9.756,9.756,0,0,1-3.974.768,9.756,9.756,0,0,1-3.974-.768,8.64,8.64,0,0,1-2.942-2.077,8.773,8.773,0,0,1-1.812-3.053,11.123,11.123,0,0,1-.613-3.724,11.162,11.162,0,0,1,.609-3.708A8.766,8.766,0,0,1,16.7,2.959,8.656,8.656,0,0,1,19.643.881,9.791,9.791,0,0,1,23.618.114,9.791,9.791,0,0,1,27.6.882,8.52,8.52,0,0,1,30.524,2.96a9.084,9.084,0,0,1,1.812,3.068,10.967,10.967,0,0,1,.627,3.708" transform="translate(-0.06 -0.001)"/>
      <path id="Path_765" data-name="Path 765" d="M78.186.347H89.339v3.1H82.091V7.932h6.916v3.1H82.091v4.8h7.334v3.1H78.186Z" transform="translate(-0.327 -0.002)"/>
      <path id="Path_766" data-name="Path 766" d="M104.107,13.62a5.09,5.09,0,0,1-.5,2.258,5.33,5.33,0,0,1-1.408,1.785,6.59,6.59,0,0,1-2.191,1.171,9.123,9.123,0,0,1-2.845.418,14.156,14.156,0,0,1-2.968-.321A11.9,11.9,0,0,1,91.445,18l.041-3.345A24.186,24.186,0,0,0,94.5,15.821a9.736,9.736,0,0,0,2.552.336,4.1,4.1,0,0,0,2.273-.572,1.859,1.859,0,0,0,.878-1.659,1.984,1.984,0,0,0-.837-1.646A11.335,11.335,0,0,0,96.8,10.941,18.577,18.577,0,0,1,94.624,9.9,7.055,7.055,0,0,1,93.03,8.683a4.913,4.913,0,0,1-.991-1.494,4.7,4.7,0,0,1-.349-1.855,4.739,4.739,0,0,1,1.743-3.944A7.315,7.315,0,0,1,98.11.01a12.734,12.734,0,0,1,2.761.279,4.425,4.425,0,0,1,1.647.56l.054,3.316a11.865,11.865,0,0,0-2.049-.768A8.267,8.267,0,0,0,98.332,3.1a3.76,3.76,0,0,0-1.98.461A1.564,1.564,0,0,0,95.6,5a2.239,2.239,0,0,0,.124.781,1.592,1.592,0,0,0,.461.627A4.767,4.767,0,0,0,97.064,7c.362.2.823.414,1.381.654q1.114.475,2.133,1a8.78,8.78,0,0,1,1.8,1.227,5.6,5.6,0,0,1,1.256,1.619,4.583,4.583,0,0,1,.474,2.119" transform="translate(-0.382 0)"/>
      <path id="Path_767" data-name="Path 767" d="M118.195,13.658a5.09,5.09,0,0,1-.5,2.258,5.33,5.33,0,0,1-1.408,1.785,6.59,6.59,0,0,1-2.191,1.171,9.123,9.123,0,0,1-2.845.418,14.043,14.043,0,0,1-2.97-.321,11.9,11.9,0,0,1-2.747-.934l.041-3.345a24.187,24.187,0,0,0,3.016,1.17,9.736,9.736,0,0,0,2.552.336,4.1,4.1,0,0,0,2.273-.572,1.859,1.859,0,0,0,.878-1.659,1.984,1.984,0,0,0-.837-1.646,11.335,11.335,0,0,0-2.565-1.338,18.577,18.577,0,0,1-2.176-1.046,7.055,7.055,0,0,1-1.593-1.213,4.913,4.913,0,0,1-.991-1.494,4.709,4.709,0,0,1-.346-1.853,4.738,4.738,0,0,1,1.743-3.944A7.315,7.315,0,0,1,112.2.048a12.734,12.734,0,0,1,2.761.279,4.425,4.425,0,0,1,1.647.56L116.66,4.2a11.864,11.864,0,0,0-2.049-.768,8.267,8.267,0,0,0-2.191-.293,3.76,3.76,0,0,0-1.98.461,1.565,1.565,0,0,0-.757,1.438,2.239,2.239,0,0,0,.124.781,1.592,1.592,0,0,0,.461.627,4.767,4.767,0,0,0,.878.586c.362.2.823.414,1.381.654q1.119.474,2.134,1a8.78,8.78,0,0,1,1.8,1.227,5.6,5.6,0,0,1,1.256,1.619,4.583,4.583,0,0,1,.474,2.119" transform="translate(-0.441 0)"/>
      <path id="Path_768" data-name="Path 768" d="M70.213,10.307c-.487-.017-.977-.027-1.466-.026-.018.2-.047.39-.081.58a33.65,33.65,0,0,0,3.907.1c.032-.214.06-.428.077-.647-.7.029-1.494.022-2.437-.011" transform="translate(-0.287 -0.043)"/>
      <line id="Line_6" data-name="Line 6" x1="0.316" transform="translate(60.395 15.697)" fill="#fff"/>
      <line id="Line_7" data-name="Line 7" x1="0.324" transform="translate(60.751 15.697)" fill="#fff"/>
      <path id="Path_769" data-name="Path 769" d="M60.552,15.7H60.14V3.316h1.786a8.541,8.541,0,0,1,2.733.42A6.21,6.21,0,0,1,66.82,4.955,5.5,5.5,0,0,1,68.229,6.9a5.636,5.636,0,0,1,.269.8c1.222-.17,2.551-.36,3.805-.653A8.325,8.325,0,0,0,71.868,5.8a8.6,8.6,0,0,0-2.176-2.943,10.135,10.135,0,0,0-3.4-1.941,13.4,13.4,0,0,0-4.448-.7H56.235V20s8.724-1.437,10.058-1.9a10.152,10.152,0,0,0,3.4-1.938c.1-.091.194-.191.291-.285a5.028,5.028,0,0,1-1.116-.149c-.933-.227-1.933-.69-2.923-1.036a6.639,6.639,0,0,1-1.286.59,8.545,8.545,0,0,1-2.733.419h-.578" transform="translate(-0.235 -0.001)"/>
      <path id="Path_770" data-name="Path 770" d="M67.987,12.739a5.6,5.6,0,0,1-.324.5,30.614,30.614,0,0,0,3.884.748c.1-.173.188-.353.275-.533a26.883,26.883,0,0,1-3.746-.7l-.089-.016" transform="translate(-0.283 -0.054)"/>
      <path id="Path_771" data-name="Path 771" d="M61.012,15.418c-.024.151-.037.253-.046.325h.04c.053-.178.151-.511.243-.8.907-2.875,4.316-2.667,6.709-2.21a6.2,6.2,0,0,0,.29-.575,5.816,5.816,0,0,0,.385-1.295c-.2-.008-.409-.015-.607-.014-3.4.02-6.42.852-7.015,4.569" transform="translate(-0.255 -0.046)"/>
      <path id="Path_772" data-name="Path 772" d="M60.431,13.625c0,.561.032,1.05.067,1.448.024.269.05.49.07.656h.078c.407-4.68,4.162-5.453,8.066-5.459.022-.238.034-.481.034-.732a6.94,6.94,0,0,0-.232-1.81c-.928.13-1.792.249-2.51.4-3.243.661-5.571,1.884-5.571,5.5" transform="translate(-0.253 -0.033)"/>
      <path id="Path_773" data-name="Path 773" d="M61.33,15.751h.042l.031-.044c1.247-1.792,2.888-1.548,4.561-.965a5.783,5.783,0,0,0,.875-.629,5.389,5.389,0,0,0,.8-.873c-.278-.058-.552-.112-.821-.153-2.36-.365-4.757-.2-5.485,2.666" transform="translate(-0.256 -0.054)"/>
      <path id="Path_774" data-name="Path 774" d="M70.04,15.931a3.2,3.2,0,0,0,2.872-1.771c.146-.224.146-.224-.044-.2a6.035,6.035,0,0,1-1.313.027,8.545,8.545,0,0,1-1.515,1.941" transform="translate(-0.293 -0.059)"/>
      <path id="Path_775" data-name="Path 775" d="M77.128,4.206a2.867,2.867,0,0,1-.477.754,8.011,8.011,0,0,1-4.282,2.1A9.284,9.284,0,0,1,72.7,9.523c0,.262-.018.515-.037.769,3.459-.146,4.1-1.295,4.444-5.754.036-.471.079-.466.019-.332" transform="translate(-0.303 -0.018)"/>
      <path id="Path_776" data-name="Path 776" d="M71.838,13.442c1.368.071,2.6-.264,3.1-1.715a4.562,4.562,0,0,0,.2-1.263c.012-.261.012-.261-.119-.194s-.39.2-.686.32a6.005,6.005,0,0,1-1.747.374,8.538,8.538,0,0,1-.653,2.29c-.029.064-.065.121-.095.184" transform="translate(-0.3 -0.043)"/>
      <path id="Path_777" data-name="Path 777" d="M40.419,10.307c.487-.017.977-.027,1.466-.026.019.2.047.39.081.58a33.65,33.65,0,0,1-3.907.1c-.032-.214-.06-.428-.076-.647.7.029,1.494.022,2.436-.011" transform="translate(-0.159 -0.043)"/>
      <line id="Line_8" data-name="Line 8" x2="0.316" transform="translate(49.478 15.697)" fill="#fff"/>
      <line id="Line_9" data-name="Line 9" x2="0.324" transform="translate(49.114 15.697)" fill="#fff"/>
      <path id="Path_778" data-name="Path 778" d="M50.031,15.7h.412V3.316H48.658a8.541,8.541,0,0,0-2.733.42,6.21,6.21,0,0,0-2.162,1.219A5.485,5.485,0,0,0,42.356,6.9a5.6,5.6,0,0,0-.27.8c-1.222-.17-2.551-.36-3.8-.653A8.361,8.361,0,0,1,38.716,5.8a8.577,8.577,0,0,1,2.175-2.942,10.142,10.142,0,0,1,3.4-1.939,13.4,13.4,0,0,1,4.448-.7h5.606V20s-8.724-1.437-10.058-1.9a10.162,10.162,0,0,1-3.4-1.938c-.1-.091-.194-.191-.291-.285a5.037,5.037,0,0,0,1.117-.149c.932-.227,1.932-.69,2.923-1.036a6.639,6.639,0,0,0,1.286.59,8.572,8.572,0,0,0,2.733.419h.574" transform="translate(-0.16 -0.001)"/>
      <path id="Path_779" data-name="Path 779" d="M42.648,12.739a5.834,5.834,0,0,0,.324.5,30.614,30.614,0,0,1-3.884.748c-.1-.173-.188-.353-.275-.533a26.882,26.882,0,0,0,3.746-.7l.088-.016" transform="translate(-0.162 -0.054)"/>
      <path id="Path_780" data-name="Path 780" d="M49.608,15.418c.024.151.037.253.047.325h-.04c-.053-.178-.151-.511-.244-.8-.907-2.875-4.316-2.667-6.709-2.21a5.642,5.642,0,0,1-.676-1.869c.2-.008.409-.015.607-.014,3.4.02,6.42.852,7.015,4.569" transform="translate(-0.176 -0.046)"/>
      <path id="Path_781" data-name="Path 781" d="M50.183,13.625c0,.561-.032,1.05-.067,1.448-.024.269-.05.49-.07.656H49.97c-.408-4.68-4.163-5.453-8.066-5.459-.022-.238-.034-.481-.034-.732a6.941,6.941,0,0,1,.232-1.81c.928.13,1.792.249,2.51.4,3.244.661,5.571,1.884,5.571,5.5" transform="translate(-0.175 -0.033)"/>
      <path id="Path_782" data-name="Path 782" d="M49.294,15.751h-.042l-.031-.044c-1.247-1.792-2.888-1.548-4.561-.965a5.783,5.783,0,0,1-.875-.629,5.39,5.39,0,0,1-.8-.873c.278-.058.553-.112.821-.153,2.36-.365,4.757-.2,5.485,2.666" transform="translate(-0.18 -0.054)"/>
      <path id="Path_783" data-name="Path 783" d="M40.6,15.931a3.2,3.2,0,0,1-2.872-1.771c-.146-.224-.146-.224.044-.2a6.035,6.035,0,0,0,1.313.027A8.546,8.546,0,0,0,40.6,15.929" transform="translate(-0.157 -0.059)"/>
      <path id="Path_784" data-name="Path 784" d="M33.5,4.206a2.867,2.867,0,0,0,.477.754,8.011,8.011,0,0,0,4.282,2.1,9.284,9.284,0,0,0-.333,2.465c0,.262.019.515.038.769-3.459-.146-4.1-1.295-4.445-5.754-.036-.471-.079-.466-.019-.332" transform="translate(-0.14 -0.018)"/>
      <path id="Path_785" data-name="Path 785" d="M38.8,13.442c-1.368.071-2.6-.264-3.1-1.715a4.561,4.561,0,0,1-.2-1.263c-.012-.261-.012-.261.118-.194s.39.2.687.32a6.005,6.005,0,0,0,1.747.374,8.528,8.528,0,0,0,.653,2.29c.029.064.065.121.1.184" transform="translate(-0.148 -0.043)"/>
    </g>
  </g>
</svg>
