<svg xmlns="http://www.w3.org/2000/svg" width="301.214" height="10.254" viewBox="0 0 301.214 10.254">
  <g id="Group_56964" data-name="Group 56964" transform="matrix(1, 0.017, -0.017, 1, 0.198, -1.06)">
    <path id="Path_41994" data-name="Path 41994" d="M280.418,1.606a1.811,1.811,0,0,0-.74-.315A74.233,74.233,0,0,0,267.235.472a4.922,4.922,0,0,1-1.728.137c-3.7-1.052-7.578-.079-11.34-.468-2.2-.228-4.4.7-6.558.183a10.765,10.765,0,0,0-4.053-.136,46.474,46.474,0,0,1-7.574.35c-2.908-.02-5.883.077-8.816.256-.157-.111-.277-.114-.307,0-.01.038.076.087.119.131A33,33,0,0,0,221.12.41c-6.082-.055-12.16.164-18.249.01-5.593-.142-11.191.061-16.778.319-1.8-.716-3.661-.1-5.492-.123C176.946.563,173.279.4,169.639.531c-2.289.084-4.688-.64-6.883.313-2.82-.884-5.765-.061-8.646-.278-2.517-.189-5.1.169-7.582.055-3.14-.144-6.279-.087-9.415-.2-6.294-.236-12.6.136-18.9.023-4.224-.075-8.461-.485-12.7-.064A6.757,6.757,0,0,1,103.45.246,16.315,16.315,0,0,0,99.619.01C90.69.124,81.76.2,72.837.4c-6.275.146-12.576.143-18.8.854a23.524,23.524,0,0,1-5.887.265c-2.229-.316-4.293.37-6.461.216-.537-.038-.959.254-.959.616,0,.466.605.452,1.093.44a106.46,106.46,0,0,0,10.645-.352c5.751-.74,11.565-.554,17.332-.926,5.473-.355,11.029-.178,16.547-.162q18.39.054,36.778.3c20.047.3,40.112.072,60.169.08,1.056,0,1.991-.046,2.489-.78.617,1.253,2.39.894,3.549.906,3.3.037,6.6-.456,9.885.242a5.99,5.99,0,0,0,2.068.006c3.5-.557,7.074.513,10.551-.252,5.413.521,10.862.138,16.288.295a24.575,24.575,0,0,1,4.122-.009c2.793.538,5.683.107,8.476.029,1.78-.051,3.816-.292,5.49-.2,3.77.207,7.517.084,11.269.145,6.713.11,13.441-.15,20.141.394A5.976,5.976,0,0,0,281,2.195a4.03,4.03,0,0,0-.577-.589" transform="translate(20.005 0)" fill="#6ec1b6"/>
    <path id="Path_41995" data-name="Path 41995" d="M56.538,1.674a72.271,72.271,0,0,1-7.654.34c-3.938-.123-7.83.261-11.74.35-4.148.093-8.27.734-12.488.71-6.293-.035-12.521.871-18.832.7-1.593-.044-3.079.463-4.7.315A.971.971,0,0,0,0,4.872a.854.854,0,0,0,1.014.809c1.8-.45,3.494.321,5.256.059A137.236,137.236,0,0,1,25.086,4.309c3.54-.035,7.116-.114,10.6-.485,7.137-.76,14.3-1.037,21.505-1.1.837-.008,1.8.172,2.554-.579a5.418,5.418,0,0,0-3.207-.474" transform="translate(0 0.205)" fill="#6ec1b6"/>
    <path id="Path_41996" data-name="Path 41996" d="M300.428,4.411a2.558,2.558,0,0,0-.925-.306,116.013,116.013,0,0,0-15.591-.66,7.714,7.714,0,0,1-2.167.159c-4.623-1-9.5.018-14.211-.323-2.753-.2-5.518.761-8.222.267a16.836,16.836,0,0,0-5.079-.084,73.071,73.071,0,0,1-9.5.447c-3.645.017-7.374.152-11.052.368-.2-.109-.347-.11-.385,0-.013.038.095.086.148.129a51.424,51.424,0,0,0-7.34-.437c-7.624.023-15.244.32-22.874.243-7.01-.07-14.028.2-21.034.533-2.245-.693-4.588-.049-6.883-.052-4.581-.006-9.176-.125-13.739.056-2.87.114-5.871-.58-8.63.4-3.528-.847-7.226.013-10.835-.167-3.154-.157-6.4.234-9.5.152-3.935-.1-7.87-.006-11.8-.084-7.888-.156-15.789.3-23.7.264-5.295-.021-10.6-.377-15.921.1a10.549,10.549,0,0,1-2.577-.1,25.494,25.494,0,0,0-4.8-.187c-11.193.228-22.388.414-33.574.736-7.866.226-15.765.3-23.571,1.094a36.956,36.956,0,0,1-7.381.34c-2.792-.288-5.384.425-8.1.3-.673-.031-1.2.267-1.207.628,0,.466.755.445,1.367.426,4.457-.137,9.012,0,13.346-.488,7.215-.813,14.5-.7,21.732-1.148,6.862-.424,13.825-.319,20.743-.374q23.051-.181,46.1-.167c25.126.046,50.278-.441,75.42-.689,1.323-.013,2.5-.072,3.126-.812.764,1.245,2.989.863,4.441.86,4.132-.005,8.28-.54,12.388.116a9.389,9.389,0,0,0,2.592-.021c4.389-.6,8.863.423,13.228-.387,6.781.452,13.614,0,20.414.087a38.61,38.61,0,0,1,5.166-.062c3.5.5,7.122.034,10.624-.079,2.232-.073,4.785-.34,6.884-.269,4.723.159,9.422-.012,14.124,0,8.414.024,16.849-.321,25.243.136a9.318,9.318,0,0,0,4.23-.362,4.547,4.547,0,0,0-.719-.581" transform="matrix(0.999, -0.033, 0.033, 0.999, -0.182, 2.662)" fill="#6ec1b6"/>
  </g>
</svg>
