<svg xmlns="http://www.w3.org/2000/svg" width="52.917" height="54" viewBox="0 0 52.917 54">
  <path id="ic_celebrate" d="M39.412,26.126a2.891,2.891,0,0,0-1.094-2.268,2.894,2.894,0,0,0-2.208-4.767H29.676l.266-.7a9.691,9.691,0,0,0,.631-3.449v-.1a3.315,3.315,0,0,0-3.414-3.311,3.393,3.393,0,0,0-3.213,3.418c0,.86-1.208,2.835-2.187,4.152H14.5a.827.827,0,0,0-.827.827v16.55a.827.827,0,0,0,.827.827H34.815a2.894,2.894,0,0,0,2.479-4.391,2.894,2.894,0,0,0,1.023-4.513,2.892,2.892,0,0,0,1.095-2.266ZM15.33,20.747h6.011v14.9H15.33Zm21.187,6.621h-.407a.827.827,0,0,0,0,1.654,1.242,1.242,0,0,1,0,2.484H34.815a.827.827,0,0,0,0,1.654,1.242,1.242,0,0,1,0,2.484H22.994V20.2c.7-.927,2.605-3.6,2.605-5.258a1.729,1.729,0,0,1,1.606-1.765,1.661,1.661,0,0,1,1.713,1.661v.1a8.05,8.05,0,0,1-.524,2.863l-.689,1.825a.827.827,0,0,0,.773,1.12h7.631a1.242,1.242,0,0,1,0,2.484.827.827,0,0,0,0,1.654h.407a1.242,1.242,0,0,1,0,2.484Zm-18.751,3.48A2.151,2.151,0,1,0,19.917,33,2.151,2.151,0,0,0,17.766,30.848Zm0,2.649a.5.5,0,1,1,.5-.5A.5.5,0,0,1,17.766,33.5Zm34.4-8.466a5.32,5.32,0,0,0-1.683-7.377,3.681,3.681,0,0,1-1.709-3.547,5.32,5.32,0,0,0-4.717-5.916,3.679,3.679,0,0,1-3.078-2.453,5.319,5.319,0,0,0-6.818-3.283,3.682,3.682,0,0,1-3.838-.876,5.32,5.32,0,0,0-7.567,0,3.68,3.68,0,0,1-3.838.876A5.32,5.32,0,0,0,12.1,5.738,3.678,3.678,0,0,1,9.027,8.193a5.321,5.321,0,0,0-4.718,5.916A3.68,3.68,0,0,1,2.6,17.656,5.32,5.32,0,0,0,.917,25.031a3.68,3.68,0,0,1,0,3.937A5.32,5.32,0,0,0,2.6,36.345a3.68,3.68,0,0,1,1.709,3.547,5.321,5.321,0,0,0,4.718,5.916A3.678,3.678,0,0,1,12.1,48.26a5.321,5.321,0,0,0,6.818,3.283,3.679,3.679,0,0,1,3.838.876,5.32,5.32,0,0,0,7.567,0,3.68,3.68,0,0,1,3.838-.876,5.321,5.321,0,0,0,6.817-3.283,3.68,3.68,0,0,1,3.078-2.454,5.32,5.32,0,0,0,4.717-5.916,3.681,3.681,0,0,1,1.708-3.547,5.32,5.32,0,0,0,1.684-7.377,3.681,3.681,0,0,1,0-3.935Zm-1.395,4.824a3.667,3.667,0,0,1-1.16,5.085,5.34,5.34,0,0,0-2.479,5.147,3.667,3.667,0,0,1-3.251,4.077,5.339,5.339,0,0,0-4.466,3.561,3.667,3.667,0,0,1-4.7,2.263,5.338,5.338,0,0,0-5.569,1.271,3.666,3.666,0,0,1-5.215,0,5.334,5.334,0,0,0-5.569-1.271,3.666,3.666,0,0,1-4.7-2.263A5.34,5.34,0,0,0,9.2,44.164a3.666,3.666,0,0,1-3.251-4.077A5.339,5.339,0,0,0,3.473,34.94a3.666,3.666,0,0,1-1.16-5.085,5.339,5.339,0,0,0,0-5.712,3.665,3.665,0,0,1,1.16-5.084,5.342,5.342,0,0,0,2.479-5.147A3.667,3.667,0,0,1,9.2,9.835,5.339,5.339,0,0,0,13.67,6.273a3.665,3.665,0,0,1,4.7-2.262A5.339,5.339,0,0,0,23.937,2.74a3.666,3.666,0,0,1,5.215,0,5.339,5.339,0,0,0,5.569,1.271,3.666,3.666,0,0,1,4.7,2.262,5.338,5.338,0,0,0,4.466,3.561,3.668,3.668,0,0,1,3.251,4.078,5.338,5.338,0,0,0,2.479,5.147,3.667,3.667,0,0,1,1.16,5.084,5.338,5.338,0,0,0,0,5.712ZM26.544,6.886A20.113,20.113,0,1,0,46.658,27,20.113,20.113,0,0,0,26.544,6.886Zm0,38.573A18.46,18.46,0,1,1,45,27a18.46,18.46,0,0,1-18.46,18.46Zm0,0" transform="translate(-0.086 0)" fill="#3d3d3d"/>
</svg>
