<svg xmlns="http://www.w3.org/2000/svg" width="280.152" height="41.51" viewBox="0 0 280.152 41.51">
  <g id="commercetools-gmbh-vector-logo" transform="translate(133.05 -215.34)">
    <path id="Path_35036" data-name="Path 35036" d="M-28.261,257.024a17.575,17.575,0,0,0,4.377-.512l.466,3.26a18.164,18.164,0,0,1-4.843.605c-7.5,0-9.639-4.7-9.639-10.151.047-5.355,3.26-9.825,9.593-9.825a17.563,17.563,0,0,1,4.843.652l-.652,3.26a16.557,16.557,0,0,0-4.1-.466c-3.958.047-5.914,3.027-6.007,6.426.047,3.4,1.3,6.752,5.96,6.752Z" transform="translate(-50.442 -12.985)"/>
    <path id="Path_35037" data-name="Path 35037" d="M5.441,257.124c3.912-.047,5.215-3.213,5.215-6.659-.047-3.166-1.35-6.705-5.215-6.705-3.772.047-5.215,3.539-5.215,6.705C.179,254.051,1.762,257.124,5.441,257.124Zm0-16.624c6.147.047,8.894,4.61,8.894,9.965,0,5.215-2.375,9.919-8.941,9.965-6.426-.047-8.894-4.7-8.894-9.965,0-5.355,2.794-9.919,8.941-9.965Z" transform="translate(-68.823 -13.038)"/>
    <path id="Path_35038" data-name="Path 35038" d="M64.119,260.056V247.762c0-3.12-1.164-3.958-3.12-3.958a7.021,7.021,0,0,0-4.191,1.863c.047.419.093,1.211.093,1.49V260.1H53.083V247.669c0-3.12-.931-3.865-2.887-3.865a8.935,8.935,0,0,0-4.424,1.909V260.1H42V240.871h3.772v1.63a8.5,8.5,0,0,1,5.029-2c2.654-.047,4.191.885,5.076,2.328a9.181,9.181,0,0,1,5.681-2.328c6.24-.093,6.38,4.936,6.38,7.031V260.1H64.119Z" transform="translate(-93.136 -13.036)"/>
    <path id="Path_35039" data-name="Path 35039" d="M128.719,260.056V247.762c0-3.12-1.164-3.958-3.12-3.958a7.021,7.021,0,0,0-4.191,1.863c.047.419.093,1.211.093,1.49V260.1h-3.818V247.669c0-3.12-.931-3.865-2.887-3.865a8.935,8.935,0,0,0-4.424,1.909V260.1H106.6V240.871h3.772v1.63a8.5,8.5,0,0,1,5.029-2c2.654-.047,4.191.885,5.076,2.328a9.181,9.181,0,0,1,5.681-2.328c6.24-.093,6.38,4.936,6.38,7.031V260.1h-3.818Z" transform="translate(-127.654 -13.036)"/>
    <path id="Path_35040" data-name="Path 35040" d="M172.412,248.23h8.428c-.14-3.912-2.1-4.7-3.912-4.7C174.088,243.48,172.737,245.436,172.412,248.23Zm10.9,8.335.559,3.12a20.866,20.866,0,0,1-5.914.838c-7.59,0-9.453-5.076-9.453-10.2,0-5.076,2.235-9.825,8.615-9.825,3.912,0,7.218,2.421,7.264,8.615l-.047,2H172.225c.047,3.772,2.1,6.054,5.867,6.054A20.6,20.6,0,0,0,183.308,256.565Z" transform="translate(-160.73 -13.038)"/>
    <path id="Path_35041" data-name="Path 35041" d="M220.31,244.515a10.735,10.735,0,0,0-2.468-.279,5.522,5.522,0,0,0-4.47,2.049v13.97H209.6V241.023h3.772v1.723a6.346,6.346,0,0,1,4.424-1.956,8.286,8.286,0,0,1,3.166.512C220.962,241.256,220.31,244.515,220.31,244.515Z" transform="translate(-182.692 -13.188)"/>
    <path id="Path_35042" data-name="Path 35042" d="M245.339,257.024a17.575,17.575,0,0,0,4.377-.512l.466,3.26a18.164,18.164,0,0,1-4.843.605c-7.5,0-9.639-4.7-9.639-10.151.047-5.355,3.306-9.825,9.593-9.825a17.563,17.563,0,0,1,4.843.652l-.652,3.26a16.557,16.557,0,0,0-4.1-.466c-3.958.047-5.914,3.027-6.007,6.426C239.425,253.671,240.683,257.024,245.339,257.024Z" transform="translate(-196.638 -12.985)"/>
    <path id="Path_35043" data-name="Path 35043" d="M274.012,248.23h8.428c-.14-3.912-2.1-4.7-3.912-4.7C275.688,243.48,274.337,245.436,274.012,248.23Zm10.9,8.335.559,3.12a20.866,20.866,0,0,1-5.914.838c-7.59,0-9.453-5.076-9.453-10.2,0-5.076,2.235-9.825,8.615-9.825,3.912,0,7.218,2.421,7.264,8.615l-.047,2H273.825c.047,3.772,2.1,6.054,5.867,6.054A20.6,20.6,0,0,0,284.908,256.565Z" transform="translate(-215.019 -13.038)"/>
    <path id="Path_35044" data-name="Path 35044" d="M318.335,239.4h-5.215v9.313c0,1.956.233,3.306,2.235,3.586a15.6,15.6,0,0,0,3.306-.14l.233,3.26a24.882,24.882,0,0,1-3.4.233c-4.47-.186-6.147-2.468-6.147-6.054V239.357H306.6V236.7l2.747-.326V232h3.772v4.284h5.215Z" transform="translate(-234.523 -8.496)"/>
    <path id="Path_35045" data-name="Path 35045" d="M345.241,257.124c3.912-.047,5.215-3.213,5.215-6.659-.047-3.166-1.35-6.705-5.215-6.705-3.772.047-5.215,3.539-5.215,6.705-.047,3.586,1.537,6.659,5.215,6.659Zm0-16.624c6.147.047,8.894,4.61,8.894,9.965,0,5.215-2.375,9.919-8.941,9.965-6.426-.047-8.894-4.7-8.894-9.965.047-5.355,2.794-9.919,8.941-9.965Z" transform="translate(-250.393 -13.038)"/>
    <path id="Path_35046" data-name="Path 35046" d="M389.141,257.124c3.911-.047,5.215-3.213,5.215-6.659-.047-3.166-1.35-6.705-5.215-6.705-3.772.047-5.215,3.539-5.215,6.705-.047,3.586,1.537,6.659,5.215,6.659Zm0-16.624c6.147.047,8.894,4.61,8.894,9.965,0,5.215-2.375,9.919-8.941,9.965-6.426-.047-8.894-4.7-8.894-9.965.047-5.355,2.794-9.919,8.941-9.965Z" transform="translate(-273.85 -13.038)"/>
    <rect id="Rectangle_16200" data-name="Rectangle 16200" width="3.679" height="26.123" transform="translate(127.211 220.896)"/>
    <path id="Path_35047" data-name="Path 35047" d="M440.189,256.271a23.912,23.912,0,0,0,5.448.838c1.49,0,3.027-.326,3.166-2.142.093-1.909-1.863-2.515-4.144-3.446-2.561-1.071-5.355-2.515-5.262-6.054.047-1.77,1.118-5.262,6.8-5.076a26.92,26.92,0,0,1,5.448.745l-.652,3.166a21.885,21.885,0,0,0-4.983-.7c-1.63,0-2.887.512-2.98,2.049-.047,1.3.978,2,3.539,3.027,2.561,1.071,6.193,2.421,6.007,6.473-.093,2.561-1.77,5.355-6.938,5.308a22.294,22.294,0,0,1-6.24-.931Z" transform="translate(-305.481 -12.976)"/>
    <g id="Layer-1" transform="translate(-132.3 216.1)">
      <path id="Path_35069" data-name="Path 35069" d="M-131.734,273.23a.83.83,0,0,0-.466.745.83.83,0,0,0,.466.745l16.3,7.637a1.868,1.868,0,0,0,.7.14v-17a1.869,1.869,0,0,0-.7.14l-16.3,7.59Z" transform="translate(132.247 -242.497)" fill="#fff" stroke="#000" stroke-width="1.5"/>
      <path id="Path_35070" data-name="Path 35070" d="M-94.8,265.5v17a2.109,2.109,0,0,0,.745-.14l16.251-7.59a.83.83,0,0,0,.466-.745.829.829,0,0,0-.466-.745l-16.251-7.59a1.6,1.6,0,0,0-.745-.186" transform="translate(112.262 -242.497)" fill="#fff" stroke="#000" stroke-width="1.5"/>
      <path id="Path_35071" data-name="Path 35071" d="M-132.3,224.575a.83.83,0,0,0,.466.745l16.3,7.637a1.868,1.868,0,0,0,.7.14,2.725,2.725,0,0,0,.605-.093c.14-.093.14-.047.466-.233,1.676-.792.559-.279,15.925-7.451a.83.83,0,0,0,.466-.745.83.83,0,0,0-.466-.745l-16.251-7.59a1.815,1.815,0,0,0-1.4,0l-16.251,7.544a.836.836,0,0,0-.559.792" transform="translate(132.3 -216.1)" fill="#fff" stroke="#000" stroke-width="1.5"/>
      <path id="Path_35072" data-name="Path 35072" d="M-114.784,243.8v5.076a1.868,1.868,0,0,0-.7.14l-16.251,7.544a.829.829,0,0,0-.466.745v-23a.83.83,0,0,0,.466.745l16.3,7.637a1.868,1.868,0,0,0,.7.14,2.725,2.725,0,0,0,.605-.093h-.047c-.512.233-.605.466-.605,1.071" transform="translate(132.247 -225.825)" fill="#fff" stroke="#000" stroke-width="1.5"/>
    </g>
  </g>
</svg>
