<svg xmlns="http://www.w3.org/2000/svg" width="49.646" height="54" viewBox="0 0 49.646 54">
  <g id="ic_Culture" transform="translate(-20.648)">
    <path id="Path_43277" data-name="Path 43277" d="M157.214,167.382a3.993,3.993,0,0,1-.289-1.022,10.463,10.463,0,0,0-.751-2.658.791.791,0,0,0-1.452.627,8.879,8.879,0,0,1,.638,2.256,5.585,5.585,0,0,0,.4,1.426l1.717,3.958A4.931,4.931,0,0,1,153,178.863a7.059,7.059,0,0,0,.683-3.035V168.55a1.606,1.606,0,0,0-1.573-1.615l-4.474-.118a6.985,6.985,0,0,1-4.2-1.556l-.294-.24a1.319,1.319,0,0,0-1.862.2,8.239,8.239,0,0,0-1.8,5.13v5.477a7.059,7.059,0,0,0,.683,3.035,4.931,4.931,0,0,1-4.479-6.893l1.717-3.958a5.588,5.588,0,0,0,.4-1.426,8.868,8.868,0,0,1,15.129-4.927.791.791,0,0,0,1.132-1.1,10.45,10.45,0,0,0-17.827,5.806,3.992,3.992,0,0,1-.289,1.022l-1.717,3.958a6.517,6.517,0,0,0,5.939,9.108,6.752,6.752,0,0,0,.962-.07,7.153,7.153,0,0,0,2,1.656v1.526l-4.043,1.622a7.4,7.4,0,0,0-4.664,6.9v1.933a.791.791,0,1,0,1.582,0v-1.933a5.822,5.822,0,0,1,3.671-5.428l3.64-1.46a3.342,3.342,0,0,0,6.316,0l3.64,1.46c.1.038.2.083.318.14a.791.791,0,1,0,.673-1.431c-.15-.07-.278-.127-.4-.176l-4.043-1.622v-1.414a7.146,7.146,0,0,0,2.211-1.768,6.739,6.739,0,0,0,.962.07,6.517,6.517,0,0,0,5.939-9.108Zm-8.977,16.713a1.761,1.761,0,0,1-3.523,0v-1.415a7.069,7.069,0,0,0,3.523.054Zm-1.656-2.746a5.527,5.527,0,0,1-5.521-5.521v-5.477a6.654,6.654,0,0,1,1.292-3.931l.085.069a8.575,8.575,0,0,0,5.158,1.91l4.474.118a.034.034,0,0,1,.033.034v7.277A5.527,5.527,0,0,1,146.58,181.348Z" transform="translate(-101.114 -140.802)" fill="#3d3d3d"/>
    <path id="Path_43278" data-name="Path 43278" d="M343.052,442.567a.791.791,0,0,0-.188,1.1,5.819,5.819,0,0,1,1.076,3.379v1.933a.791.791,0,0,0,1.582,0v-1.933a7.39,7.39,0,0,0-1.367-4.293A.791.791,0,0,0,343.052,442.567Z" transform="translate(-288.111 -395.771)" fill="#3d3d3d"/>
    <path id="Path_43279" data-name="Path 43279" d="M30.518,103.01a6.423,6.423,0,0,0-6.046-.617,5.9,5.9,0,0,0-3.33,3.308,6.733,6.733,0,0,0-.477,2.988.791.791,0,1,0,1.578-.115,5.164,5.164,0,0,1,.37-2.291,4.309,4.309,0,0,1,2.434-2.417,4.865,4.865,0,0,1,4.579.45,4.732,4.732,0,0,1,1.2,6.632l-.019.028-2.657,4.136a.792.792,0,0,0-.125.427v.36h-.277v-3.959a1.579,1.579,0,0,0,1.435-1.57v-1.3a1.579,1.579,0,0,0-1.577-1.577h-1.3a1.579,1.579,0,0,0-1.577,1.577v1.3a1.579,1.579,0,0,0,1.435,1.57V115.9h-.277v-.36a.792.792,0,0,0-.125-.427l-2.418-3.764a.791.791,0,1,0-1.331.855l2.293,3.569v.567a1.135,1.135,0,0,0,.181.614v.819a2.31,2.31,0,0,0,2.307,2.307h.324a2.31,2.31,0,0,0,2.307-2.307v-.819a1.135,1.135,0,0,0,.181-.614v-.567l2.523-3.927a6.314,6.314,0,0,0-1.615-8.835ZM27.6,109.073l.005,1.293-.607,0-.042,0-.048,0-.6,0,0-1.293Zm.243,8.7a.727.727,0,0,1-.726.726H26.8a.727.727,0,0,1-.726-.726v-.29h1.775Z" transform="translate(0 -91.166)" fill="#3d3d3d"/>
    <path id="Path_43280" data-name="Path 43280" d="M195.459,14.041a7.021,7.021,0,1,0-7.021-7.021A7.029,7.029,0,0,0,195.459,14.041Zm0-12.46a5.439,5.439,0,1,1-5.439,5.439A5.445,5.445,0,0,1,195.459,1.582Z" transform="translate(-150.098 0)" fill="#3d3d3d"/>
    <path id="Path_43281" data-name="Path 43281" d="M230.612,48.814a.791.791,0,0,0,1.118,0l3.694-3.694A.791.791,0,1,0,234.307,44l-3.135,3.135-.532-.532a.791.791,0,0,0-1.118,1.118Z" transform="translate(-186.642 -39.155)" fill="#3d3d3d"/>
    <path id="Path_43282" data-name="Path 43282" d="M374,106.9a1.226,1.226,0,0,0-1-.84l-3.286-.478-1.47-2.978a1.234,1.234,0,0,0-2.213,0l-1.47,2.978-3.287.478a1.234,1.234,0,0,0-.684,2.1l2.378,2.318-.561,3.273a1.234,1.234,0,0,0,1.79,1.3l2.94-1.545,2.94,1.545a1.234,1.234,0,0,0,1.79-1.3l-.561-3.273,2.378-2.318A1.226,1.226,0,0,0,374,106.9Zm-3.925,2.578a1.234,1.234,0,0,0-.355,1.092l.473,2.759-2.478-1.3a1.234,1.234,0,0,0-1.148,0l-2.478,1.3.473-2.759a1.234,1.234,0,0,0-.355-1.092l-2-1.954,2.77-.4a1.233,1.233,0,0,0,.929-.675l1.239-2.51,1.239,2.51a1.233,1.233,0,0,0,.929.675l2.77.4Z" transform="translate(-303.772 -91.167)" fill="#3d3d3d"/>
    <path id="Path_43283" data-name="Path 43283" d="M330.276,83.242a23.024,23.024,0,0,1,3.49,1.717.79.79,0,0,0,.562,1.472l1.5-.446a.791.791,0,0,0,.565-.758v-1.62a.791.791,0,1,0-1.582,0v.137a24.618,24.618,0,0,0-3.959-1.975.791.791,0,1,0-.575,1.474Z" transform="translate(-276.53 -73.098)" fill="#3d3d3d"/>
    <path id="Path_43284" data-name="Path 43284" d="M129.956,80.016a.787.787,0,0,0,.413-.117,23.122,23.122,0,0,1,2.293-1.235l-.041.154a.791.791,0,1,0,1.528.408l.483-1.807a.791.791,0,0,0-.509-.953l-1.449-.493a.79.79,0,0,0-.8,1.316,24.719,24.719,0,0,0-2.327,1.262.791.791,0,0,0,.415,1.465Z" transform="translate(-97.074 -67.924)" fill="#3d3d3d"/>
  </g>
</svg>
