<svg id="damas" xmlns="http://www.w3.org/2000/svg" xmlns:xlink="http://www.w3.org/1999/xlink" width="120" height="28.759" viewBox="0 0 120 28.759">
  <defs>
    <clipPath id="clip-path">
      <rect id="Rectangle_9" data-name="Rectangle 9" width="120" height="28.759"/>
    </clipPath>
  </defs>
  <g id="Group_1" data-name="Group 1" clip-path="url(#clip-path)">
    <path id="Path_6" data-name="Path 6" d="M11.608.061s7.2-1.086,7.2,5.916V26.414A2.373,2.373,0,0,1,16.22,28.75a2.47,2.47,0,0,1-2.542-2.336V15.639s.307-3.206-2.537-3.2H7.614s-2.737-.079-2.711,3.2V25.5A2.467,2.467,0,0,0,7.466,28H9.6s1.874-.033,1.939.756H5.7S0,28.592.006,23.889V16.56s-.361-5.291,4.733-5.325h7.494a1.375,1.375,0,0,0,1.446-1.389V3.093A3.2,3.2,0,0,0,11.608.061" transform="translate(0 0)"/>
    <path id="Path_7" data-name="Path 7" d="M174.663,44.294V56.317a2.612,2.612,0,0,0,2.635,2.7,2.485,2.485,0,0,0,2.657-2.7l0-12.023s.073-3.024-2.661-3.024-2.635,3.024-2.635,3.024" transform="translate(-128.086 -30.265)"/>
    <path id="Path_8" data-name="Path 8" d="M227.291,42.5h8.315s5.067,0,5.061,6.54v8.414a2.22,2.22,0,0,1-2.4,2.47,2.42,2.42,0,0,1-2.459-2.47V46.15s.114-3.165-2.6-3.155h-4.5s-1.249.034-1.413-.493" transform="translate(-166.68 -31.168)"/>
    <path id="Path_9" data-name="Path 9" d="M296.094,41.825h9.391a5.956,5.956,0,0,1,5.743,6.483l0,9.12s-.027,2.12-2.936,2a2.136,2.136,0,0,1-2.145-2V51.783s0-2.218-2.711-2.243h-3.673s-2.645-.142-2.613,2.243v4.535s-.182,2.284,2.81,2.416H302.4s1.134,0,1.5.69l-6.606.005a5.023,5.023,0,0,1-5.029-5.329c0-5.926,4.61-5.645,4.61-5.645h7.986S306.177,48.6,306.1,47V44.61a2.083,2.083,0,0,0-2.243-1.923h-6.138s-1.468.03-1.627-.863" transform="translate(-214.334 -30.672)"/>
    <path id="Path_10" data-name="Path 10" d="M397.21,45.887h-3.845s-.382-3-3.024-3.024H386.2s-2.423-.082-2.366,3.024v1.019s-.128,2.066,2.795,2.07h6.08s5.127-.223,5.127,5.423c0,5.686-4.93,5.527-4.93,5.527h-9.082a5.162,5.162,0,0,1-4.951-5.3l4.667.033s-.723,4.6,3.024,4.569h3.779s2.627.024,2.662-3.188V52.756s.081-2.925-3.484-2.859h-9.334a1.263,1.263,0,0,1-1.314-1.446s.131-5.916,6.146-5.949h6.86s4.077,0,5.333,3.385" transform="translate(-277.835 -31.168)"/>
    <path id="Path_11" data-name="Path 11" d="M90.515,41.825h9.391a5.956,5.956,0,0,1,5.743,6.483l0,9.12s-.027,2.12-2.936,2a2.136,2.136,0,0,1-2.145-2V51.783s0-2.218-2.711-2.243H94.188s-2.645-.142-2.613,2.243v4.535s-.182,2.284,2.81,2.416h2.441s1.134,0,1.5.69l-6.606.005A5.023,5.023,0,0,1,86.694,54.1c0-5.926,4.61-5.645,4.61-5.645H99.29S100.6,48.6,100.523,47V44.61a2.083,2.083,0,0,0-2.243-1.923H92.142s-1.468.03-1.627-.863" transform="translate(-63.576 -30.672)"/>
    <path id="Path_12" data-name="Path 12" d="M195.231,42.5h5.752s5.067,0,5.061,6.54v8.414a2.221,2.221,0,0,1-2.4,2.47,2.42,2.42,0,0,1-2.459-2.47V46.151s.114-3.165-2.6-3.155h-1.939s-1.249.034-1.413-.493" transform="translate(-143.169 -31.169)"/>
  </g>
</svg>
