<svg xmlns="http://www.w3.org/2000/svg" width="100.001" height="100" viewBox="0 0 100.001 100">
  <g id="ic_Excellence" transform="translate(-10.151 -15.938)">
    <path id="Path_43249" data-name="Path 43249" d="M88.159,67.639a4.958,4.958,0,0,0-.437-9.032,4.951,4.951,0,0,0-2.975-5.893A4.948,4.948,0,0,0,80.2,46.487l10.462-8.266a1.652,1.652,0,0,0-1.018-2.949H77.321c.015-.043.035-.085.049-.129a4.944,4.944,0,0,0-6.924-5.962l-3.528,1.793L62.3,17.067a1.645,1.645,0,0,0-3.125,0L53.124,35.272h-21.3A1.652,1.652,0,0,0,30.81,38.22l8.353,6.6-3.233,2.523a8.214,8.214,0,0,0-3.177,6.518V67.844a4.947,4.947,0,0,1-1.328,3.381L10.151,94.093l2.407,2.254L33.831,73.479a8.246,8.246,0,0,0,2.213-5.634V53.862a4.928,4.928,0,0,1,1.906-3.911L48.5,41.722l.867,2.175A4.961,4.961,0,0,1,48.27,49.24l-5.16,5.177a1.655,1.655,0,0,0,0,2.335,11.121,11.121,0,0,1,1.99,2.718L41.042,71.388a1.647,1.647,0,0,0,2.507,1.883L60.734,61.089,75.3,71.416l-3.755,2.477L52.656,79.725a8.247,8.247,0,0,0-4.48,3.392l-20.1,31.02,2.76,1.8,20.1-31.02a4.949,4.949,0,0,1,2.688-2.035l19.115-5.9a1.642,1.642,0,0,0,.42-.2L83.2,70.16ZM41.839,42.732l-5.261-4.157H47.166Zm23.4-6.659a1.639,1.639,0,0,1,.82-.959l5.873-2.985a1.65,1.65,0,0,1,1.488,2.946l-5.873,2.985a1.648,1.648,0,0,1-2.308-1.987Zm10.006,31.26L61.684,57.718a1.641,1.641,0,0,0-1.9,0L45.8,67.632l5.464-16.048a1.649,1.649,0,0,0,.055-.84,8.267,8.267,0,0,0,1.1-8.073l-1.633-4.1H54.31a1.646,1.646,0,0,0,1.561-1.129l4.863-14.637,3.232,9.729A4.954,4.954,0,0,0,62.4,38.825h0a4.932,4.932,0,0,0,6.636,2.181L73.9,38.533v.042H84.89L70.744,49.753a1.651,1.651,0,0,0-.578,1.681,4.95,4.95,0,0,0,2.143,7.6,4.948,4.948,0,0,0,2.978,5.894,4.962,4.962,0,0,0-.041,2.409Zm-.4-11.44h0a1.65,1.65,0,0,1-1.487-2.947l5.873-2.985a1.65,1.65,0,0,1,1.488,2.946Zm.763,5.166h0a1.654,1.654,0,0,1,.724-2.219l5.873-2.985A1.65,1.65,0,0,1,83.7,58.8h0l-5.873,2.985a1.645,1.645,0,0,1-2.212-.727Zm2.975,5.893h0a1.654,1.654,0,0,1,.724-2.219l5.873-2.985a1.65,1.65,0,0,1,1.488,2.946L80.8,67.678a1.645,1.645,0,0,1-2.212-.727Z" transform="translate(0 0)" fill="#3d3d3d"/>
    <path id="Path_43250" data-name="Path 43250" d="M.005.015,9.332,0,9.326,3.3,0,3.312Z" transform="translate(71.07 22.555) rotate(-45)" fill="#3d3d3d"/>
    <path id="Path_43251" data-name="Path 43251" d="M0,.021,14.18,0l-.005,3.3L0,3.32Z" transform="translate(82.822 27.825) rotate(-35.518)" fill="#3d3d3d"/>
    <path id="Path_43252" data-name="Path 43252" d="M0,.01,13.578,0l0,3.3L0,3.312Z" transform="translate(94.892 34.113) rotate(-14.064)" fill="#3d3d3d"/>
    <path id="Path_43253" data-name="Path 43253" d="M.01,0l3.3,0L3.3,15.177l-3.3,0Z" transform="matrix(0.217, -0.976, 0.976, 0.217, 93.293, 48.969)" fill="#3d3d3d"/>
    <path id="Path_43254" data-name="Path 43254" d="M.023,0l3.3,0L3.3,16.959l-3.3,0Z" transform="translate(93.71 63.681) rotate(-60.923)" fill="#3d3d3d"/>
    <path id="Path_43255" data-name="Path 43255" d="M.031.005,3.329,0,3.3,19.849,0,19.854Z" transform="translate(87.541 76.671) rotate(-48.366)" fill="#3d3d3d"/>
    <path id="Path_43256" data-name="Path 43256" d="M.028,0,3.322,0l-.03,23.631L0,23.635Z" transform="translate(74.024 86.019) rotate(-24.771)" fill="#3d3d3d"/>
    <path id="Path_43257" data-name="Path 43257" d="M0,.02,20.886,0l0,3.293L0,3.313Z" transform="matrix(0.316, -0.949, 0.949, 0.316, 50.94, 106.224)" fill="#3d3d3d"/>
    <path id="Path_43258" data-name="Path 43258" d="M.021,0,3.32,0,3.3,14.175,0,14.18Z" transform="translate(35.064 18.951) rotate(-54.482)" fill="#3d3d3d"/>
    <path id="Path_43259" data-name="Path 43259" d="M.025.005,3.324,0,3.3,16.479,0,16.484Z" transform="matrix(0.6, -0.8, 0.8, 0.6, 13.64, 25.546)" fill="#3d3d3d"/>
    <path id="Path_43260" data-name="Path 43260" d="M.01,0l3.3,0L3.3,16.788l-3.3,0Z" transform="matrix(0.196, -0.981, 0.981, 0.196, 12.684, 48.949)" fill="#3d3d3d"/>
    <path id="Path_43261" data-name="Path 43261" d="M.005.025,16.484,0l-.005,3.3L0,3.324Z" transform="matrix(0.8, -0.6, 0.6, 0.8, 13.64, 70.761)" fill="#3d3d3d"/>
  </g>
</svg>
