<svg id="femi9" xmlns="http://www.w3.org/2000/svg" xmlns:xlink="http://www.w3.org/1999/xlink" width="120" height="46.304" viewBox="0 0 120 46.304">
  <defs>
    <clipPath id="clip-path">
      <rect id="Rectangle_10" data-name="Rectangle 10" width="120" height="46.304" fill="none"/>
    </clipPath>
  </defs>
  <g id="Group_2" data-name="Group 2" clip-path="url(#clip-path)">
    <path id="Path_13" data-name="Path 13" d="M.174,45.612A10.658,10.658,0,0,1,5.5,37.987a1.882,1.882,0,0,0,.2-.817,15.333,15.333,0,0,1-3.437,1.68c-.422.086-1.007-.3-.909-.462.882-.462,1.865-.871,2.724-1.372A6.789,6.789,0,0,0,5.994,35.5a12.024,12.024,0,0,0,.353-1.725c.834-4.826,1.264-6.76,2.376-11.362.161-.665,1.3-4.28,2.21-5.2.616-.622,1.3-.663,1.5.186a17.227,17.227,0,0,1,.22,5.768c-.512,4.488-2.254,9.041-5.348,12.1a6.235,6.235,0,0,0-.5,2.112c1.09-.4,6.173-2.3,7.075-2.694.008-2.541.683-3.743,1.967-4.729a3.3,3.3,0,0,1,.545-.344,2.67,2.67,0,0,1,2.887.205,2.3,2.3,0,0,1-.434,3.035,14.024,14.024,0,0,1-3.216,2.183c.971,2.389,3.027,2.562,4.5,1.221a13.329,13.329,0,0,0,2.84-4.184,7.652,7.652,0,0,1,2.515-3.253c1.7-1.286,3.082-.854,3.358,1.276a10.456,10.456,0,0,1-.162,2.948c.369-.479.74-1.086,1.046-1.434a32.931,32.931,0,0,1,2.543-2.8c1.148-1.037,2.47-.556,2.839.96.174.714.173,1.445.382,2.148.218.733.7.889,1.327.384.6-.483,1.174-1,1.808-1.435a2.18,2.18,0,0,1,3.015.441,26.858,26.858,0,0,1,1.417,3.916.282.282,0,0,1-.127.349l-.015.008a.453.453,0,0,1-.534-.094,2.68,2.68,0,0,1-.4-.789c-.274-.682-.4-1.421-.644-2.117-.367-1.046-.878-1.235-1.826-.645-.545.339-1.017.795-1.533,1.184-1.491,1.125-2.487.969-3.149-.785-.2-.542-.479-2.3-.564-2.5a.514.514,0,0,0-.584-.306,3.389,3.389,0,0,0-.709.566,20.358,20.358,0,0,0-4.626,6.356c-.12.25-.329,1.089-1.127,1.089-.42,0-.466-.438-.5-.616-.243-1.384.453-3.023.844-4.679a6.9,6.9,0,0,0,.268-1.809c-.014-.335-.108-.934-.351-1.024-1.212-.45-3.448,2.795-4.326,4.268-.77,1.293-2.313,4.154-5.018,4.223a4.641,4.641,0,0,1-3.918-2.283c-.137.028-.775.2-.942.263-1.912.768-2.915,1.128-4.856,1.824a8.265,8.265,0,0,0-1.651.681.153.153,0,0,0-.057.1c-.9,6.022-2.857,18.771-3,19.315-.3,1.445-.726,1.537-1.088,1.537H2.5C.33,58.657-.364,48.385.174,45.612m5.2-6.423A9.335,9.335,0,0,0,1.4,45.372a27.37,27.37,0,0,0-.161,5.789c.158,2.082.938,6.421,1.239,6.421.5,0,1.78-12.127,2.89-18.393M11.2,18.75C9.121,23.4,8.291,28.908,7.5,33.84a23.7,23.7,0,0,0,4.015-15.075c-.01-.094-.272-.1-.31-.015m4.056,15.3a5.826,5.826,0,0,0,3.219-2.45c.135-.357.184-.939-.077-1.164a1.419,1.419,0,0,0-1.315-.032,3.653,3.653,0,0,0-1.827,3.646" transform="translate(0 -13.046)"/>
    <path id="Path_14" data-name="Path 14" d="M529.607,0a5.522,5.522,0,0,1,1.544,1.234,1.193,1.193,0,0,1-.06,1.657,1.715,1.715,0,0,1-1.921.563,1.135,1.135,0,0,1-.455-.661c-.084-.31.314-.385.531-.464,1.246-.454,1.323-.719.46-1.65a2.058,2.058,0,0,1-.32-.339.241.241,0,0,1,.22-.34" transform="translate(-411.457)"/>
    <path id="Path_15" data-name="Path 15" d="M367.665,23.2a.477.477,0,0,1,.579-.072c.809.49.754,1.239.627,1.979a50.628,50.628,0,0,1-4.1,13.422,1.669,1.669,0,0,0-.058,1.688,37.709,37.709,0,0,0,2.218,3.259.221.221,0,0,1-.18.34c-.385.008-.781,0-.951-.2a13.548,13.548,0,0,1-2.071-3.069,15.751,15.751,0,0,1-1.128,1.2,4.057,4.057,0,0,1-2.685,1.1c-1.792-.073-2.732-1.042-3.109-2.9-.262-1.3-.3-2.309-.578-3.907a7,7,0,0,0-1.056-2.294c-.281-.4-.862-.5-1.36.063a14.109,14.109,0,0,0-1.26,2.4c.342.164.691.2.9.292a2.62,2.62,0,0,1,1.431,3.418,3.051,3.051,0,0,1-3.11,2.134,1.814,1.814,0,0,1-1.791-1.729,7.379,7.379,0,0,1,.737-2.869,5.469,5.469,0,0,0-1.477,1.3c-.612.69-1.17,1.532-1.826,2.173a4.96,4.96,0,0,1-1.54,1.126c-2.183.793-4.235.372-4.83-2.028-.318-1.281-.437-2.881-.717-4.173-.389-1.8-1.2-2.2-2.675-1.072a14.7,14.7,0,0,0-2.082,2.207,36.532,36.532,0,0,1-3.208,3.686c-2,2.135-4.381,2.956-7.167,1.977a26.38,26.38,0,0,1-3.433-1.642c-.355-.185-.987-.721-.52-1.225.4-.43.8-.705,1.4-.185a12.186,12.186,0,0,0,1.941,1.282c2.727,1.5,5.008,1.07,7.088-1.247,1.3-1.442,2.313-3.044,3.653-4.439a8.265,8.265,0,0,1,2.59-2.081,2.283,2.283,0,0,1,3.387,1.283c.6,1.838.6,5.191,1.168,5.977.862,1.2,1.666,1.508,2.973.812a7.986,7.986,0,0,0,1.929-1.748c1.184-1.24,2.046-2.832,4.064-3.193a10.846,10.846,0,0,1,2.837-3.72c1.03-.856,2.347-.52,2.821,1.029a15.722,15.722,0,0,1,.548,3.994,15.089,15.089,0,0,0,.426,2.82,1.968,1.968,0,0,0,3.211,1.139,8.988,8.988,0,0,0,1.9-2.069c.23-.328.051-.757-.023-1.214-.885-5.457.142-10.269,3.907-14.435.155-.171.408-.385.61-.581m.188,1.572c-2.723,1.477-4.72,9.637-3.78,12.816a70.582,70.582,0,0,0,3.78-12.816M353.692,38.3a2.458,2.458,0,0,0-.3-.52c-.616-.78-1.4-.515-1.789.393-.193.448-.983,2.908.555,2.908,1.781,0,1.8-2.2,1.538-2.781" transform="translate(-249.873 -17.951)"/>
    <path id="Path_16" data-name="Path 16" d="M263.424,49.719a.192.192,0,0,1-.029-.324,20.876,20.876,0,0,0,5.366-6,20.452,20.452,0,0,0,3.149-8.451,4.315,4.315,0,0,0-.031-1.139,1.976,1.976,0,0,0-2.776-1.716c-2.13.64-4.535,3.682-5.007,6.713-.082.53.242,2.621,2.287,1.305a4.884,4.884,0,0,0,1.13-.935,1.192,1.192,0,0,1,1.662-.389.279.279,0,0,1,.111.42,4.476,4.476,0,0,1-2.734,1.91,6.08,6.08,0,0,1-2.013.094,2.3,2.3,0,0,1-2.035-2.258c-.138-3.933,3.391-7.993,7.759-7.717a3.308,3.308,0,0,1,3.1,3.059c.237,3.095-.924,5.8-2.417,8.331a24.244,24.244,0,0,1-5.429,6.927,1.861,1.861,0,0,1-2.092.174" transform="translate(-204.286 -24.293)"/>
    <path id="Path_17" data-name="Path 17" d="M202.319,74.474a11.829,11.829,0,0,0-.694,3.665c-.091,2.291,1.249,3.1,3.515,1.942a6.471,6.471,0,0,1,1.058-.5c.376-.122.711.432.668.6s-.241.285-.344.362a4.9,4.9,0,0,1-4.218.921,1.946,1.946,0,0,1-1.464-1.58,10.056,10.056,0,0,1,.4-5.04.976.976,0,0,1,.994-.648c.088,0,.122.124.081.274" transform="translate(-156.187 -57.745)"/>
    <path id="Path_18" data-name="Path 18" d="M357.484,119.4a.365.365,0,0,1-.1.448,4.429,4.429,0,0,1-3.562.834.67.67,0,0,1-.487-.519.544.544,0,0,1,.392-.561c.939-.224,1.841.125,2.9-.45a.556.556,0,0,1,.866.247" transform="translate(-274.974 -92.64)"/>
    <path id="Path_19" data-name="Path 19" d="M494.689,118.093a.366.366,0,0,1-.1.448,4.429,4.429,0,0,1-3.562.834.67.67,0,0,1-.487-.519.544.544,0,0,1,.392-.561c.939-.224,1.841.125,2.9-.45a.556.556,0,0,1,.866.247" transform="translate(-381.752 -91.625)"/>
    <path id="Path_20" data-name="Path 20" d="M209.7,43.644a2.888,2.888,0,0,1-2.836-.277,1.162,1.162,0,0,1-.32-1.607c.27-.367.713-.822,1.161-.822.292,0,.84.366.607.734-.868,1.371-.487,1.721.791,1.774a1.976,1.976,0,0,0,.365-.026c.26-.037.414.084.232.225" transform="translate(-160.583 -31.859)"/>
  </g>
</svg>
