<svg id="Fluent_Commerce" data-name="Fluent Commerce" xmlns="http://www.w3.org/2000/svg" width="156.739" height="30" viewBox="0 0 156.739 30">
  <path id="Path_44052" data-name="Path 44052" d="M1.665,7.271H0v-1.9H1.665V3.324C1.665,1.477,2.183,0,4.752,0A6.452,6.452,0,0,1,6.368.238V2.043a12.967,12.967,0,0,0-1.4-.049c-.77,0-.931.385-.931,1.141V5.367h2.1v1.9h-2.1V19.342H1.665Z"/>
  <path id="Path_44053" data-name="Path 44053" d="M11.607,19.444h2.372V.34H11.6Z" transform="translate(-3.482 -0.102)"/>
  <path id="Path_44054" data-name="Path 44054" d="M18.34,18.807V7.4h2.372V17.764c0,.525,0,2.1,1.763,2.1,1.281,0,1.9-1.4,1.9-2.568V7.4H26.7V21.564H24.4V19.9h0a3.3,3.3,0,0,1-3.086,2,2.883,2.883,0,0,1-2.946-3.093" transform="translate(-5.506 -2.222)"/>
  <path id="Path_44055" data-name="Path 44055" d="M39.659,12.971v-2.1a1.859,1.859,0,0,0-1.9-2.1,1.9,1.9,0,0,0-1.945,2.134V12.9h3.849ZM33.48,17.632v-6.3c0-2.715,1.665-4.374,4.472-4.374s3.989,1.805,3.989,4.325v3.4H35.859v2.757c0,1.4.476,2.281,1.945,2.281a1.805,1.805,0,0,0,1.9-2v-.994h2.183v.756c0,2.477-1.33,4.234-4.087,4.234s-4.325-1.33-4.325-4.087Z" transform="translate(-10.051 -2.089)"/>
  <path id="Path_44056" data-name="Path 44056" d="M48.609,7.258H50.89V8.874h.077a3.331,3.331,0,0,1,3.009-1.945,2.869,2.869,0,0,1,3,3.086V21.421H54.592V11.015a1.744,1.744,0,0,0-1.756-2.043c-1.232,0-1.9,1.4-1.9,2.519v9.881H48.56Z" transform="translate(-14.578 -2.079)"/>
  <path id="Path_44057" data-name="Path 44057" d="M64.437,16.944V7.777H62.82v-1.9l1.617-.1V2.452L66.816,1.36V5.734h2.519V7.728H66.816v8.6c0,.665.091,1.4,1.281,1.4a5.36,5.36,0,0,0,1.19-.14v1.945a5.934,5.934,0,0,1-2.043.336c-2.19.042-2.757-1.141-2.8-2.953" transform="translate(-18.859 -0.408)"/>
  <path id="Path_44058" data-name="Path 44058" d="M75.381,17.817V11.309a3.824,3.824,0,0,1,4.087-4.2c2.239,0,3.8,1.05,3.8,3.758v1.064H81.7v-.861c0-1.33-.574-2.568-2.281-2.568a2.372,2.372,0,0,0-2.379,2.519v6.795a2.34,2.34,0,0,0,4.661.42V16.963h1.568v1.092a3.49,3.49,0,0,1-3.709,3.8c-2.8,0-4.2-1.183-4.2-4.038" transform="translate(-22.624 -2.134)"/>
  <path id="Path_44059" data-name="Path 44059" d="M95.5,17.753v-6.7a2.2,2.2,0,0,0-2.372-2.47c-1.568,0-2.281,1.092-2.281,2.561V17.8a2.216,2.216,0,0,0,2.281,2.519A2.274,2.274,0,0,0,95.5,17.753Zm-6.3.1v-6.7A3.8,3.8,0,0,1,93.287,7.06a3.6,3.6,0,0,1,3.947,3.807v6.606c0,2.561-1.33,4.367-4.038,4.367S89.2,20.559,89.2,17.851Z" transform="translate(-26.779 -2.119)"/>
  <path id="Path_44060" data-name="Path 44060" d="M103.279,7.391h1.665V9.008h.042a3.429,3.429,0,0,1,3.142-1.952,2.6,2.6,0,0,1,2.8,2.141c.9-1.477,1.854-2.141,3.282-2.141a2.766,2.766,0,0,1,2.9,3.044V21.506H115.4V10.953c0-.616.091-2.421-2.043-2.421-1.477,0-2.33,1.707-2.33,3.086v9.888h-1.714V10.666a1.878,1.878,0,0,0-2.043-2.134c-1.47,0-2.323,1.707-2.323,3.086v9.888H103.23Z" transform="translate(-30.991 -2.115)"/>
  <path id="Path_44061" data-name="Path 44061" d="M125.5,7.391h1.659V9.008h.084a3.422,3.422,0,0,1,3.135-1.952,2.6,2.6,0,0,1,2.8,2.141c.9-1.477,1.854-2.141,3.233-2.141a2.806,2.806,0,0,1,2.946,3.044V21.506h-1.714V10.953c0-.616.1-2.421-2.043-2.421-1.4,0-2.323,1.707-2.323,3.086v9.888h-1.714V10.666a1.878,1.878,0,0,0-2.043-2.134c-1.47,0-2.33,1.707-2.33,3.086v9.888H125.48Z" transform="translate(-37.67 -2.115)"/>
  <path id="Path_44062" data-name="Path 44062" d="M154.085,13.316V11.007A2.252,2.252,0,0,0,151.8,8.488a2.367,2.367,0,0,0-2.379,2.617v2.211Zm-6.375,4.612V11.385c0-2.757,1.526-4.325,4.283-4.325s3.751,1.854,3.751,4.325v3.282h-6.3v2.9c0,1.617.567,2.8,2.379,2.8a2.165,2.165,0,0,0,2.281-2.421v-.994h1.568v.616c0,2.519-1.141,4.325-3.849,4.325s-4.094-1.281-4.094-3.989Z" transform="translate(-44.344 -2.119)"/>
  <path id="Path_44063" data-name="Path 44063" d="M162,7.458h1.658V9.977h.1c.8-1.854,1.854-2.708,3.086-2.708a5.262,5.262,0,0,1,.812.042V9.124a2.484,2.484,0,0,0-1.05-.1c-1.994,0-2.9,3.233-2.9,4.989v7.558H162Z" transform="translate(-48.634 -2.182)"/>
  <path id="Path_44064" data-name="Path 44064" d="M171.884,17.817V11.309a3.827,3.827,0,0,1,4.087-4.2c2.232,0,3.807,1.05,3.807,3.758v1.064H178.2v-.861c0-1.33-.518-2.568-2.274-2.568a2.337,2.337,0,0,0-2.379,2.519v6.795a2.336,2.336,0,0,0,4.654.42V16.963h1.575v1.092a3.493,3.493,0,0,1-3.709,3.8c-2.8,0-4.2-1.183-4.2-4.038" transform="translate(-51.597 -2.134)"/>
  <path id="Path_44065" data-name="Path 44065" d="M191.993,13.316V11.007a2.248,2.248,0,0,0-2.281-2.519A2.358,2.358,0,0,0,187.34,11.1v2.211Zm-6.3,4.612V11.385c0-2.757,1.519-4.325,4.276-4.325s3.758,1.854,3.758,4.325v3.282h-6.3v2.9c0,1.617.525,2.8,2.379,2.8a2.162,2.162,0,0,0,2.281-2.421v-.994h1.5v.616c0,2.519-1.141,4.325-3.8,4.325s-4.136-1.281-4.136-3.989Z" transform="translate(-55.737 -2.119)"/>
  <path id="Path_44066" data-name="Path 44066" d="M201.657,25.343a1.568,1.568,0,0,1,.8-2.043,1.512,1.512,0,0,1,.616-.14,1.568,1.568,0,1,1,0,3.135,1.5,1.5,0,0,1-1.092-.427,3.085,3.085,0,0,1-.329-.525" transform="translate(-60.502 -6.953)"/>
  <path id="Path_44067" data-name="Path 44067" d="M215.664,10.655h-12.6a1.568,1.568,0,1,1,0-3.135h12.6a1.568,1.568,0,1,1,0,3.135" transform="translate(-60.492 -2.258)"/>
  <path id="Path_44068" data-name="Path 44068" d="M203.068,15.28h6.3a1.568,1.568,0,1,1,0,3.135h-6.3a1.568,1.568,0,1,1,0-3.135" transform="translate(-60.492 -4.587)"/>
  <path id="Path_44069" data-name="Path 44069" d="M2.5,32.668a2.281,2.281,0,0,1,1.029.189,1.63,1.63,0,0,1,.7.525,2.309,2.309,0,0,1,.476.854A3.562,3.562,0,0,1,4.777,36.4a2.435,2.435,0,0,1-.476.854,1.665,1.665,0,0,1-.777.546,2.442,2.442,0,0,1-1,.189A2.47,2.47,0,0,1,1.5,37.8a2.1,2.1,0,0,1-.777-.525A1.868,1.868,0,0,1,.263,36.4a3.429,3.429,0,0,1,0-2.183,3.856,3.856,0,0,1,.462-.833,1.945,1.945,0,0,1,.763-.525A2.1,2.1,0,0,1,2.5,32.668Zm0,4.6a1.253,1.253,0,0,0,1.141-.518,2.781,2.781,0,0,0,0-2.8A1.533,1.533,0,0,0,2.5,33.438a1.47,1.47,0,0,0-.665.14,2.1,2.1,0,0,0-.476.378,1.54,1.54,0,0,0-.287.623,2.414,2.414,0,0,0-.091.8,4.556,4.556,0,0,0,.091.8,1.54,1.54,0,0,0,.287.623,1.924,1.924,0,0,0,.476.378,1.47,1.47,0,0,0,.665.084Z" transform="translate(-0.026 -9.806)"/>
  <path id="Path_44070" data-name="Path 44070" d="M8.56,37.895V32.758h.518c.1,0,.147,0,.2.049s.042.14.091.189l.049.812a2.267,2.267,0,0,1,.7-.861,1.218,1.218,0,0,1,.9-.28,1.162,1.162,0,0,1,.378.042l.336.147-.1.7a.147.147,0,0,1-.14.14.476.476,0,0,1-.238-.042,1.714,1.714,0,0,0-.476-.049,1.281,1.281,0,0,0-.8.28,1.854,1.854,0,0,0-.525.812v3.282H8.56Z" transform="translate(-2.57 -9.805)"/>
  <path id="Path_44071" data-name="Path 44071" d="M17.782,36.919c-.091,0-.238-.1-.238-.189l-.1-.609a2.547,2.547,0,0,1-.763.623,2.2,2.2,0,0,1-.952.238,1.512,1.512,0,0,1-.8-.2,1.9,1.9,0,0,1-.623-.476,1.777,1.777,0,0,1-.357-.819,4.549,4.549,0,0,1-.14-1.141,3.576,3.576,0,0,1,.14-1.029,3.786,3.786,0,0,1,.427-.861,2.414,2.414,0,0,1,.7-.567,1.6,1.6,0,0,1,.952-.189,2.176,2.176,0,0,1,.812.14,1.917,1.917,0,0,1,.616.427V29.41h.9v7.46h-.525Zm-1.756-.7a1.4,1.4,0,0,0,.763-.189,2.5,2.5,0,0,0,.651-.539v-2.47a1.764,1.764,0,0,0-.525-.476,1.47,1.47,0,0,0-.665-.14,1.253,1.253,0,0,0-1.141.518,2.281,2.281,0,0,0-.378,1.477,5.052,5.052,0,0,0,.091.854,2.351,2.351,0,0,0,.238.574,1.043,1.043,0,0,0,.427.329,1.2,1.2,0,0,0,.553.1Z" transform="translate(-4.143 -8.829)"/>
  <path id="Path_44072" data-name="Path 44072" d="M24.221,32.67a2.638,2.638,0,0,1,.861.14,2.036,2.036,0,0,1,.7.427,2.253,2.253,0,0,1,.427.7,3.793,3.793,0,0,1,.14,1,.567.567,0,0,1-.049.28.231.231,0,0,1-.189.1H22.7a2.8,2.8,0,0,0,.14.854,1.686,1.686,0,0,0,.336.623,2.232,2.232,0,0,0,.525.378,1.057,1.057,0,0,0,.665.091,1.239,1.239,0,0,0,.567-.091,1.77,1.77,0,0,0,.427-.189.8.8,0,0,0,.287-.189.378.378,0,0,1,.189-.1.371.371,0,0,1,.2.1l.231.329a1.253,1.253,0,0,1-.378.336,1.6,1.6,0,0,1-.476.238l-.567.14a2.274,2.274,0,0,1-.574.049,2.505,2.505,0,0,1-.994-.189,2.211,2.211,0,0,1-.763-.525,2.036,2.036,0,0,1-.525-.854,3.366,3.366,0,0,1-.189-1.19,3.793,3.793,0,0,1,.14-1,2.841,2.841,0,0,1,.476-.8,2.89,2.89,0,0,1,.7-.574,8.3,8.3,0,0,1,1.106-.077Zm0,.665a1.4,1.4,0,0,0-1.043.378,1.77,1.77,0,0,0-.476,1.05h2.8a2.3,2.3,0,0,0-.1-.574,1.449,1.449,0,0,0-.238-.476.7.7,0,0,0-.427-.287,2.232,2.232,0,0,0-.525-.091Z" transform="translate(-6.544 -9.808)"/>
  <path id="Path_44073" data-name="Path 44073" d="M29.88,37.9V32.76h.476c.049,0,.147,0,.189.049a.35.35,0,0,1,.1.189l.021.812a2.267,2.267,0,0,1,.7-.861,1.463,1.463,0,0,1,.9-.28,1.162,1.162,0,0,1,.378.042l.336.147-.1.7a.147.147,0,0,1-.14.14.462.462,0,0,1-.238-.042,1.463,1.463,0,0,0-1.239.231,1.854,1.854,0,0,0-.525.812v3.282Z" transform="translate(-8.97 -9.807)"/>
  <path id="Path_44074" data-name="Path 44074" d="M38.37,37.9V32.761h.525c.091,0,.238.049.238.189l.049.525a2.239,2.239,0,0,1,.616-.567,1.568,1.568,0,0,1,.8-.238,1.435,1.435,0,0,1,.861.28,1.574,1.574,0,0,1,.476.812.952.952,0,0,1,.28-.476,1.4,1.4,0,0,1,.385-.336,1.47,1.47,0,0,1,.476-.189,1.532,1.532,0,0,1,.469-.049,1.861,1.861,0,0,1,.7.147,1.309,1.309,0,0,1,.525.378,1.658,1.658,0,0,1,.336.616,1.687,1.687,0,0,1,.091.812v3.282h-.889V34.664a1.4,1.4,0,0,0-.287-.9.945.945,0,0,0-.756-.336,1.309,1.309,0,0,0-.427.1.84.84,0,0,0-.336.238.994.994,0,0,0-.238.378,1.966,1.966,0,0,0-.091.525v3.282h-.861V34.664a1.183,1.183,0,0,0-.238-.9.812.812,0,0,0-.7-.287.959.959,0,0,0-.616.189,2.8,2.8,0,0,0-.525.476v3.849Z" transform="translate(-11.519 -9.808)"/>
  <path id="Path_44075" data-name="Path 44075" d="M53.849,37.9h-.385c-.091,0-.14,0-.189-.049a.252.252,0,0,1-.1-.189l-.091-.476c-.147.091-.238.238-.385.329a1.4,1.4,0,0,1-.378.238,1.7,1.7,0,0,1-.476.147,1.883,1.883,0,0,1-.525.049,2.3,2.3,0,0,1-.567-.1,1.449,1.449,0,0,1-.476-.238.7.7,0,0,1-.287-.427.917.917,0,0,1-.091-.616,1.162,1.162,0,0,1,.14-.574,2.869,2.869,0,0,1,.525-.525,5.262,5.262,0,0,1,.994-.378,7.537,7.537,0,0,1,1.477-.14v-.385a1.2,1.2,0,0,0-.238-.9,1.12,1.12,0,0,0-.735-.329,2.659,2.659,0,0,0-.567.091.882.882,0,0,0-.378.2l-.287.189a.406.406,0,0,1-.238.091.182.182,0,0,1-.147-.049l-.091-.091-.147-.287a3.723,3.723,0,0,1,.91-.616,2.68,2.68,0,0,1,1.092-.189,1.91,1.91,0,0,1,.756.14,2.4,2.4,0,0,1,.574.378,1.575,1.575,0,0,1,.329.623,2.141,2.141,0,0,1,.1.8Zm-2.323-.574a1.3,1.3,0,0,0,.427-.049c.14-.042.238-.091.378-.14a.889.889,0,0,0,.336-.238A2.351,2.351,0,0,1,53,36.609V35.566a3.765,3.765,0,0,0-1.043.1,3.366,3.366,0,0,0-.7.189,1.183,1.183,0,0,0-.378.28.539.539,0,0,0-.147.385.7.7,0,0,0,.049.329.469.469,0,0,0,.189.238l.287.147C51.288,37.323,51.365,37.323,51.526,37.323Z" transform="translate(-14.976 -9.807)"/>
  <path id="Path_44076" data-name="Path 44076" d="M57.46,37.915V32.779h.518c.1,0,.238.049.238.189l.1.574a3.086,3.086,0,0,1,.756-.574,2.225,2.225,0,0,1,.952-.238,2.1,2.1,0,0,1,.763.147,2.184,2.184,0,0,1,.525.378,2.589,2.589,0,0,1,.329.616,2.176,2.176,0,0,1,.1.812v3.282h-.9V34.682a1.463,1.463,0,0,0-.287-.9,1.043,1.043,0,0,0-.8-.336,1.4,1.4,0,0,0-.763.2,2.162,2.162,0,0,0-.616.518v3.807Z" transform="translate(-17.25 -9.826)"/>
  <path id="Path_44077" data-name="Path 44077" d="M69.139,37.9h-.385c-.091,0-.14,0-.189-.049a.252.252,0,0,1-.1-.189l-.091-.476c-.147.091-.238.238-.378.329a1.442,1.442,0,0,1-.385.238,1.7,1.7,0,0,1-.476.147,1.861,1.861,0,0,1-.518.049,2.3,2.3,0,0,1-.574-.1,1.519,1.519,0,0,1-.476-.238.7.7,0,0,1-.287-.427.917.917,0,0,1-.091-.616,1.162,1.162,0,0,1,.14-.574,3.107,3.107,0,0,1,.525-.525,6.13,6.13,0,0,1,.952-.378,7.467,7.467,0,0,1,1.47-.14v-.385a1.2,1.2,0,0,0-.238-.9,1.12,1.12,0,0,0-.756-.329,2.652,2.652,0,0,0-.574.091.924.924,0,0,0-.378.2l-.287.189a.392.392,0,0,1-.238.091.168.168,0,0,1-.14-.049l-.1-.091-.14-.287a3.688,3.688,0,0,1,.9-.616,2.7,2.7,0,0,1,1.092-.189,1.924,1.924,0,0,1,.763.14,2.5,2.5,0,0,1,.567.378,1.589,1.589,0,0,1,.336.623,2.3,2.3,0,0,1,.091.8Zm-2.379-.574a1.274,1.274,0,0,0,.427-.049c.14-.042.238-.091.378-.14A1.4,1.4,0,0,0,67.9,36.9c.1-.091.238-.189.329-.287V35.566a3.793,3.793,0,0,0-1.043.1,3.366,3.366,0,0,0-.7.189,1.183,1.183,0,0,0-.378.28.539.539,0,0,0-.147.385.7.7,0,0,0,.049.329.469.469,0,0,0,.189.238,1.8,1.8,0,0,0,.287.147.364.364,0,0,0,.273.091Z" transform="translate(-19.566 -9.807)"/>
  <path id="Path_44078" data-name="Path 44078" d="M74.258,32.669a2.673,2.673,0,0,1,.616.091A1.064,1.064,0,0,1,75.4,33h1.4v.336a.252.252,0,0,1-.189.238l-.574.091a1.952,1.952,0,0,1,.2.7,1.568,1.568,0,0,1-.525,1.19,1.609,1.609,0,0,1-.616.336,2.2,2.2,0,0,1-.763.091,3.114,3.114,0,0,1-.7-.091.539.539,0,0,0-.238.231.371.371,0,0,0-.1.238.336.336,0,0,0,.147.287.525.525,0,0,0,.378.147,2.61,2.61,0,0,0,.574.042h.616a2.617,2.617,0,0,1,.616.049,3.232,3.232,0,0,1,.609.217,1.008,1.008,0,0,1,.518.952,1.624,1.624,0,0,1-.14.665,1.47,1.47,0,0,1-.476.574,2.358,2.358,0,0,1-.763.378,3.5,3.5,0,0,1-.994.14,6.907,6.907,0,0,1-1-.091,2.351,2.351,0,0,1-.7-.287A.938.938,0,0,1,72.25,39a.994.994,0,0,1-.14-.525,1.1,1.1,0,0,1,.238-.7,2.036,2.036,0,0,1,.665-.427.63.63,0,0,1-.336-.287.812.812,0,0,1-.14-.476.427.427,0,0,1,.049-.238c.042-.091.042-.189.14-.238a.472.472,0,0,0,.189-.231,1,1,0,0,1,.287-.2,2.239,2.239,0,0,1-.616-.567,1.183,1.183,0,0,1-.224-.819,1.47,1.47,0,0,1,.14-.665,2.015,2.015,0,0,1,.378-.518,1.547,1.547,0,0,1,.623-.336A1.869,1.869,0,0,1,74.258,32.669Zm1.617,5.514a.875.875,0,0,0-.1-.336.938.938,0,0,0-.28-.189,1.4,1.4,0,0,0-.427-.1c-.2,0-.336-.049-.525-.049H74.02a1.043,1.043,0,0,1-.518-.091,1.561,1.561,0,0,0-.476.329.609.609,0,0,0-.2.476.875.875,0,0,0,.1.336.5.5,0,0,0,.287.238,1.54,1.54,0,0,0,.476.189,4.535,4.535,0,0,0,1.33,0A1.609,1.609,0,0,0,75.5,38.8a.763.763,0,0,0,.28-.287.882.882,0,0,0,.1-.329Zm-1.617-2.8a1.6,1.6,0,0,0,.476-.1.791.791,0,0,0,.336-.189.847.847,0,0,0,.189-.329,1.316,1.316,0,0,0,.049-.434,1.085,1.085,0,0,0-.287-.735,1.344,1.344,0,0,0-1.666,0,1.085,1.085,0,0,0-.287.7.7.7,0,0,0,.1.434.868.868,0,0,0,.238.329,1.232,1.232,0,0,0,.329.189,1.015,1.015,0,0,0,.525.126Z" transform="translate(-21.648 -9.806)"/>
  <path id="Path_44079" data-name="Path 44079" d="M81.893,32.67a2.638,2.638,0,0,1,.861.14,2.036,2.036,0,0,1,.665.427,2.253,2.253,0,0,1,.427.7,2.365,2.365,0,0,1,.14.952.609.609,0,0,1-.049.287.245.245,0,0,1-.189.091H80.423a2.8,2.8,0,0,0,.14.854,2.526,2.526,0,0,0,.336.623,2.015,2.015,0,0,0,.518.378,1.092,1.092,0,0,0,.7.1,1.162,1.162,0,0,0,.567-.1,1.631,1.631,0,0,0,.427-.189,1.127,1.127,0,0,0,.287-.189c.049-.049.14-.049.189-.1a.35.35,0,0,1,.189.1l.238.329a1.246,1.246,0,0,1-.378.336,1.9,1.9,0,0,1-.525.238l-.567.14a2.274,2.274,0,0,1-.574.049,2.505,2.505,0,0,1-.994-.189,1.707,1.707,0,0,1-.763-.525,2.036,2.036,0,0,1-.525-.854,3.338,3.338,0,0,1-.189-1.19,3.835,3.835,0,0,1,.14-1,2.939,2.939,0,0,1,.476-.8,2.33,2.33,0,0,1,.763-.574C81.249,32.712,81.564,32.67,81.893,32.67Zm0,.665a1.4,1.4,0,0,0-1.043.378,1.771,1.771,0,0,0-.476,1.05h2.8a2.3,2.3,0,0,0-.1-.574,1.448,1.448,0,0,0-.238-.476.7.7,0,0,0-.427-.287,1.616,1.616,0,0,0-.525-.091Z" transform="translate(-23.866 -9.808)"/>
  <path id="Path_44080" data-name="Path 44080" d="M87.54,37.9V32.761h.525c.1,0,.238.049.238.189l.049.525a2.239,2.239,0,0,1,.616-.567,1.568,1.568,0,0,1,.8-.238,1.435,1.435,0,0,1,.861.28,1.574,1.574,0,0,1,.476.812.952.952,0,0,1,.28-.476,1.4,1.4,0,0,1,.385-.336,1.47,1.47,0,0,1,.476-.189,1.532,1.532,0,0,1,.469-.049,1.861,1.861,0,0,1,.7.147,1.267,1.267,0,0,1,.525.378,1.658,1.658,0,0,1,.336.616,2.624,2.624,0,0,1,.091.812v3.282h-.91V34.664a1.4,1.4,0,0,0-.287-.9.945.945,0,0,0-.756-.336,1.309,1.309,0,0,0-.427.1.84.84,0,0,0-.336.238.994.994,0,0,0-.238.378,1.967,1.967,0,0,0-.091.525v3.282h-.91V34.664a1.183,1.183,0,0,0-.231-.9.833.833,0,0,0-.7-.287.994.994,0,0,0-.623.189,2.582,2.582,0,0,0-.518.476v3.849Z" transform="translate(-26.28 -9.808)"/>
  <path id="Path_44081" data-name="Path 44081" d="M101.214,32.67a2.6,2.6,0,0,1,.854.14,2.036,2.036,0,0,1,.7.427,2.1,2.1,0,0,1,.427.7,2.261,2.261,0,0,1,.147.952.609.609,0,0,1-.049.287.273.273,0,0,1-.189.091H99.618a2.8,2.8,0,0,0,.14.854,1.547,1.547,0,0,0,.336.623,2.016,2.016,0,0,0,.518.378,1.092,1.092,0,0,0,.7.1,1.162,1.162,0,0,0,.567-.1,1.631,1.631,0,0,0,.427-.189,1.126,1.126,0,0,0,.287-.189.231.231,0,0,1,.378,0l.238.329a1.246,1.246,0,0,1-.378.336,2.743,2.743,0,0,1-.476.238l-.574.14a2.218,2.218,0,0,1-.567.049,2.54,2.54,0,0,1-1-.189,2.218,2.218,0,0,1-.8-.525,1.945,1.945,0,0,1-.49-.84,3.338,3.338,0,0,1-.189-1.19,2.561,2.561,0,0,1,.189-1,2.939,2.939,0,0,1,.476-.8,1.707,1.707,0,0,1,.763-.525C100.549,32.761,100.878,32.67,101.214,32.67Zm0,.665a1.4,1.4,0,0,0-1.043.378,1.729,1.729,0,0,0-.476,1.05h2.8a2.281,2.281,0,0,0-.091-.574,1.6,1.6,0,0,0-.238-.476.7.7,0,0,0-.427-.287A1.953,1.953,0,0,0,101.214,33.335Z" transform="translate(-29.639 -9.808)"/>
  <path id="Path_44082" data-name="Path 44082" d="M106.9,37.915V32.779h.518c.1,0,.238.049.238.189l.049.574a2.33,2.33,0,0,1,.763-.574,2.2,2.2,0,0,1,.952-.238,2.1,2.1,0,0,1,.756.147,1.938,1.938,0,0,1,.525.378,2.89,2.89,0,0,1,.336.616,2.337,2.337,0,0,1,.091.812v3.282h-.9V34.682a1.4,1.4,0,0,0-.287-.9,1.036,1.036,0,0,0-.8-.336,1.4,1.4,0,0,0-.763.175,3.457,3.457,0,0,0-.7.518v3.807Z" transform="translate(-32.093 -9.826)"/>
  <path id="Path_44083" data-name="Path 44083" d="M116.252,37.315a1.183,1.183,0,0,1-.952-.329,1.525,1.525,0,0,1-.329-1V32.851h-.616a.182.182,0,0,1-.147-.049.168.168,0,0,1-.049-.14v-.385l.861-.091.189-1.568c0-.049.049-.1.049-.147a.175.175,0,0,1,.14-.042h.476v1.756h1.477v.7h-1.477v3.051a.812.812,0,0,0,.14.476.574.574,0,0,0,.427.147c.1,0,.2,0,.238-.049a.371.371,0,0,0,.168-.084l.14-.091c.049,0,.049-.049.1-.049s.091.049.14.1l.287.427a1.2,1.2,0,0,1-.574.329,1.4,1.4,0,0,1-.686.175Z" transform="translate(-34.272 -9.135)"/>
  <path id="Path_44084" data-name="Path 44084" d="M119.8,39.055a.357.357,0,0,1,.049-.238.944.944,0,0,1,.14-.189c.049-.049.147-.091.189-.14a.427.427,0,0,1,.238-.049c.1,0,.2,0,.238.049a.7.7,0,0,1,.2.14,1.884,1.884,0,0,0,.14.189.791.791,0,0,1,0,.476.658.658,0,0,1-.14.189c-.049.049-.147.1-.2.147a.406.406,0,0,1-.238.049.357.357,0,0,1-.238-.049.735.735,0,0,1-.189-.147c-.042-.042-.091-.14-.14-.189A1.955,1.955,0,0,1,119.8,39.055Z" transform="translate(-35.964 -11.539)"/>
  <path id="Path_44085" data-name="Path 44085" d="M129.628,37.9H129.2c-.1,0-.147,0-.2-.049a.273.273,0,0,1-.091-.189l-.1-.476c-.14.14-.28.238-.378.329a1.637,1.637,0,0,1-.427.238,1.854,1.854,0,0,1-.476.147,2.1,2.1,0,0,1-.525.049,2.3,2.3,0,0,1-.567-.1,1.148,1.148,0,0,1-.427-.238.7.7,0,0,1-.287-.427.875.875,0,0,1-.1-.616.84.84,0,0,1,.189-.574,3.107,3.107,0,0,1,.525-.525,5.157,5.157,0,0,1,1-.378,7.467,7.467,0,0,1,1.47-.14v-.385a1.2,1.2,0,0,0-.238-.9,1.12,1.12,0,0,0-.756-.329,2.652,2.652,0,0,0-.574.091.924.924,0,0,0-.378.2,1.127,1.127,0,0,1-.287.189.392.392,0,0,1-.238.091.168.168,0,0,1-.14-.049l-.1-.091-.189-.287a3.688,3.688,0,0,1,.9-.616,2.722,2.722,0,0,1,1.092-.189,1.924,1.924,0,0,1,.763.14,1.742,1.742,0,0,1,.567.378,1.589,1.589,0,0,1,.336.623,1.539,1.539,0,0,1,.1.8Zm-2.344-.574a1.274,1.274,0,0,0,.427-.049c.14-.042.238-.091.378-.14a1.4,1.4,0,0,0,.336-.238c.1-.091.238-.189.329-.287V35.566a3.793,3.793,0,0,0-1.043.1,3.365,3.365,0,0,0-.7.189,1.183,1.183,0,0,0-.378.28.539.539,0,0,0-.147.385.7.7,0,0,0,.049.329.469.469,0,0,0,.189.238,1.8,1.8,0,0,0,.287.147c.049.091.147.091.287.091Z" transform="translate(-37.71 -9.807)"/>
  <path id="Path_44086" data-name="Path 44086" d="M136.606,33.663c0,.049-.042.049-.091.1a.168.168,0,0,0-.1.049c-.049,0-.091-.049-.189-.049a.819.819,0,0,0-.238-.14c-.091-.049-.238-.1-.329-.147a1.617,1.617,0,0,0-1.141.1,1.694,1.694,0,0,0-.476.378,1.4,1.4,0,0,0-.287.616,4.592,4.592,0,0,0-.1.812,5.065,5.065,0,0,0,.1.854,1.4,1.4,0,0,0,.287.616,1.714,1.714,0,0,0,.476.385,1.511,1.511,0,0,0,.616.14.931.931,0,0,0,.525-.1,1.2,1.2,0,0,0,.378-.189.854.854,0,0,0,.238-.189.238.238,0,0,1,.189-.091.336.336,0,0,1,.189.091l.238.336a2.246,2.246,0,0,1-.854.616,2.8,2.8,0,0,1-1.043.189,2.1,2.1,0,0,1-.9-.189,1.561,1.561,0,0,1-.7-.525,2.31,2.31,0,0,1-.476-.854,3.1,3.1,0,0,1-.189-1.141,3.576,3.576,0,0,1,.14-1.043,4.057,4.057,0,0,1,.476-.861,2.218,2.218,0,0,1,.763-.567,2.47,2.47,0,0,1,1.043-.189,2.1,2.1,0,0,1,.952.189,2.547,2.547,0,0,1,.756.476Z" transform="translate(-39.847 -9.807)"/>
  <path id="Path_44087" data-name="Path 44087" d="M143.264,33.663c0,.049-.049.049-.1.1a.168.168,0,0,0-.091.049c-.049,0-.1-.049-.189-.049a.931.931,0,0,0-.238-.14l-.336-.147a1.624,1.624,0,0,0-1.141.1,1.924,1.924,0,0,0-.476.378,1.4,1.4,0,0,0-.28.616,4.592,4.592,0,0,0-.1.812,5.068,5.068,0,0,0,.1.854,1.4,1.4,0,0,0,.28.616,1.945,1.945,0,0,0,.476.385,1.512,1.512,0,0,0,.616.14.91.91,0,0,0,.525-.1,1.225,1.225,0,0,0,.385-.189.819.819,0,0,0,.231-.189.252.252,0,0,1,.2-.091.364.364,0,0,1,.189.091l.238.336a2.246,2.246,0,0,1-.854.616,2.8,2.8,0,0,1-1.05.189,2.1,2.1,0,0,1-.9-.189,1.561,1.561,0,0,1-.7-.525,2.526,2.526,0,0,1-.476-.854,3.255,3.255,0,0,1-.189-1.141,3.835,3.835,0,0,1,.14-1.043,4.058,4.058,0,0,1,.476-.861,2.288,2.288,0,0,1,.763-.567,2.491,2.491,0,0,1,1.043-.189,2.05,2.05,0,0,1,.952.189,2.491,2.491,0,0,1,.763.476Z" transform="translate(-41.843 -9.807)"/>
  <path id="Path_44088" data-name="Path 44088" d="M148.508,32.67a2.6,2.6,0,0,1,.854.14,2.036,2.036,0,0,1,.665.427,2.1,2.1,0,0,1,.427.7,3.5,3.5,0,0,1,.147.952.609.609,0,0,1-.049.287.273.273,0,0,1-.189.091h-3.373a2.569,2.569,0,0,0,.14.854,1.617,1.617,0,0,0,.329.623,2.183,2.183,0,0,0,.525.378,1.057,1.057,0,0,0,.665.1,1.19,1.19,0,0,0,.574-.1,1.735,1.735,0,0,0,.427-.189.777.777,0,0,0,.287-.189.329.329,0,0,1,.189-.1.35.35,0,0,1,.189.1l.238.329a1.329,1.329,0,0,1-.378.336,2.869,2.869,0,0,1-1.05.378,2.218,2.218,0,0,1-.567.049,2.54,2.54,0,0,1-1-.189,2.281,2.281,0,0,1-.763-.525,2.561,2.561,0,0,1-.518-.854,3.2,3.2,0,0,1-.2-1.19,2.45,2.45,0,0,1,.2-1,2.632,2.632,0,0,1,.476-.8,1.687,1.687,0,0,1,.756-.525C147.794,32.761,148.172,32.67,148.508,32.67Zm0,.665a1.4,1.4,0,0,0-1.05.378,1.764,1.764,0,0,0-.469,1.05h2.848a2.3,2.3,0,0,0-.1-.574,1.323,1.323,0,0,0-.238-.476.7.7,0,0,0-.427-.287,2.659,2.659,0,0,0-.567-.091Z" transform="translate(-43.854 -9.808)"/>
  <path id="Path_44089" data-name="Path 44089" d="M155.2,29.47v7.467h-.9V29.47Z" transform="translate(-46.323 -8.847)"/>
  <path id="Path_44090" data-name="Path 44090" d="M159.624,32.67a2.631,2.631,0,0,1,.854.14,2.036,2.036,0,0,1,.7.427,2.1,2.1,0,0,1,.427.7,3.443,3.443,0,0,1,.14.952.7.7,0,0,1-.042.287.273.273,0,0,1-.189.091h-3.422a2.568,2.568,0,0,0,.14.854,1.616,1.616,0,0,0,.329.623,2.183,2.183,0,0,0,.525.378,1.057,1.057,0,0,0,.665.1,1.19,1.19,0,0,0,.574-.1,1.736,1.736,0,0,0,.427-.189.777.777,0,0,0,.287-.189.329.329,0,0,1,.189-.1.35.35,0,0,1,.189.1l.238.329a1.05,1.05,0,0,1-.427.336,2,2,0,0,1-.525.238l-.567.14a2.3,2.3,0,0,1-.574.049,2.561,2.561,0,0,1-1-.189,2.253,2.253,0,0,1-.756-.525,2.477,2.477,0,0,1-.476-.854,3.191,3.191,0,0,1-.189-1.19,3.562,3.562,0,0,1,.14-1,2.939,2.939,0,0,1,.476-.8,1.708,1.708,0,0,1,.763-.525C158.959,32.761,159.288,32.67,159.624,32.67Zm0,.665a1.4,1.4,0,0,0-1.05.378,1.771,1.771,0,0,0-.476,1.05h2.8a2.3,2.3,0,0,0-.1-.574,1.323,1.323,0,0,0-.238-.476.7.7,0,0,0-.427-.287,1.854,1.854,0,0,0-.518-.091Z" transform="translate(-47.174 -9.808)"/>
  <path id="Path_44091" data-name="Path 44091" d="M165.3,37.895V32.758h.525c.1,0,.147,0,.189.049a.273.273,0,0,1,.049.189l.049.812a2.267,2.267,0,0,1,.665-.861,1.211,1.211,0,0,1,.9-.28,1.162,1.162,0,0,1,.378.042l.336.147-.1.7a.147.147,0,0,1-.14.14.476.476,0,0,1-.266-.1,1.274,1.274,0,0,0-.427-.049,1.3,1.3,0,0,0-.812.28,1.784,1.784,0,0,0-.518.812v3.282H165.3Z" transform="translate(-49.625 -9.805)"/>
  <path id="Path_44092" data-name="Path 44092" d="M174.47,37.9h-.378a.406.406,0,0,1-.238-.049.252.252,0,0,1-.1-.189l-.091-.476c-.147.091-.238.238-.385.329a1.533,1.533,0,0,1-.427.238,1.476,1.476,0,0,1-.427.147,2.1,2.1,0,0,1-.525.049,2.3,2.3,0,0,1-.567-.1,1.148,1.148,0,0,1-.427-.238.7.7,0,0,1-.287-.427.917.917,0,0,1-.1-.616.812.812,0,0,1,.2-.574,2.8,2.8,0,0,1,.518-.525,5.34,5.34,0,0,1,1-.378,7.515,7.515,0,0,1,1.47-.14v-.385a1.169,1.169,0,0,0-.238-.9,1.106,1.106,0,0,0-.756-.329,2.722,2.722,0,0,0-.574.091.973.973,0,0,0-.378.2l-.287.189a.392.392,0,0,1-.238.091.168.168,0,0,1-.14-.049c-.049-.042-.1-.042-.1-.091l-.14-.287a3.688,3.688,0,0,1,.9-.616,2.722,2.722,0,0,1,1.092-.189,1.924,1.924,0,0,1,.763.14,1.743,1.743,0,0,1,.567.378,1.588,1.588,0,0,1,.336.623,1.54,1.54,0,0,1,.091.8V37.9Zm-2.33-.574a1.252,1.252,0,0,0,.427-.049c.147-.042.238-.091.385-.14a.819.819,0,0,0,.329-.238l.287-.287V35.566a3.765,3.765,0,0,0-1.043.1,3.366,3.366,0,0,0-.7.189,1.211,1.211,0,0,0-.385.28.567.567,0,0,0-.14.385.7.7,0,0,0,.049.329c.049.1.091.2.189.238a1.54,1.54,0,0,0,.287.147.455.455,0,0,0,.329.091Z" transform="translate(-51.188 -9.807)"/>
  <path id="Path_44093" data-name="Path 44093" d="M179.427,37.315a1.155,1.155,0,0,1-.917-.329,1.5,1.5,0,0,1-.336-1V32.851h-.616a.163.163,0,0,1-.189-.189v-.385l.854-.091.189-1.568c0-.049.049-.1.049-.147a.182.182,0,0,1,.14-.042h.476v1.756h1.477v.7h-1.477v3.051a.812.812,0,0,0,.14.476.581.581,0,0,0,.434.147.4.4,0,0,0,.231-.049.371.371,0,0,0,.2-.1l.14-.091c.049,0,.049-.049.1-.049s.091.049.14.1l.238.427a1.162,1.162,0,0,1-.574.329,1.057,1.057,0,0,1-.693.189Z" transform="translate(-53.248 -9.135)"/>
  <path id="Path_44094" data-name="Path 44094" d="M185.315,32.67a2.6,2.6,0,0,1,.854.14,2.036,2.036,0,0,1,.665.427,2.1,2.1,0,0,1,.427.7,2.379,2.379,0,0,1,.147.952.609.609,0,0,1-.049.287.273.273,0,0,1-.189.091h-3.422a2.568,2.568,0,0,0,.14.854,2.527,2.527,0,0,0,.336.623,2.015,2.015,0,0,0,.518.378,1.057,1.057,0,0,0,.7.1,1.176,1.176,0,0,0,.574-.1,1.63,1.63,0,0,0,.427-.189c.1-.049.238-.1.287-.189s.14-.049.189-.1a.35.35,0,0,1,.189.1l.238.329a1.33,1.33,0,0,1-.378.336,2.743,2.743,0,0,1-.476.238l-.574.14a2.218,2.218,0,0,1-.567.049,2.54,2.54,0,0,1-1-.189,2.183,2.183,0,0,1-.756-.525,2.575,2.575,0,0,1-.525-.854,3.191,3.191,0,0,1-.189-1.19,2.442,2.442,0,0,1,.189-1,2.8,2.8,0,0,1,.476-.8,1.722,1.722,0,0,1,.756-.525C184.6,32.761,184.93,32.67,185.315,32.67Zm0,.665a1.4,1.4,0,0,0-1.05.378,1.812,1.812,0,0,0-.476,1.05h2.8a2.652,2.652,0,0,0-.091-.574,1.6,1.6,0,0,0-.238-.476.7.7,0,0,0-.427-.287,2.358,2.358,0,0,0-.525-.091Z" transform="translate(-54.902 -9.808)"/>
  <path id="Path_44095" data-name="Path 44095" d="M194.426,36.919c-.1,0-.238-.1-.238-.189l-.1-.623a2.519,2.519,0,0,1-.756.623,2.225,2.225,0,0,1-.952.238,1.533,1.533,0,0,1-.812-.2,1.442,1.442,0,0,1-.616-.476,1.708,1.708,0,0,1-.378-.8,4.556,4.556,0,0,1-.147-1.141,3.577,3.577,0,0,1,.147-1.043,2.8,2.8,0,0,1,.427-.861,2.036,2.036,0,0,1,.7-.567,1.575,1.575,0,0,1,.945-.189,2.176,2.176,0,0,1,.812.14,1.3,1.3,0,0,1,.567.427V29.41h.9v7.46h-.518Zm-1.756-.7a1.4,1.4,0,0,0,.756-.189,2.379,2.379,0,0,0,.616-.574V33.021a1.666,1.666,0,0,0-.518-.476,1.47,1.47,0,0,0-.665-.14,1.246,1.246,0,0,0-1.1.518,2.323,2.323,0,0,0-.378,1.477,5.065,5.065,0,0,0,.1.854,2.1,2.1,0,0,0,.238.574.994.994,0,0,0,.427.329,1.63,1.63,0,0,0,.525.1Z" transform="translate(-57.169 -8.829)"/>
  <path id="Path_44096" data-name="Path 44096" d="M198.572,39.054a.357.357,0,0,1,.049-.238.946.946,0,0,1,.14-.189c.049-.049.147-.091.2-.14a.406.406,0,0,1,.238-.049.357.357,0,0,1,.238.049.7.7,0,0,1,.189.14,1.878,1.878,0,0,0,.14.189.791.791,0,0,1,0,.476.658.658,0,0,1-.14.189c-.049.049-.147.1-.189.147a.427.427,0,0,1-.238.049c-.1,0-.2,0-.238-.049a.7.7,0,0,1-.2-.147c-.042-.042-.091-.14-.14-.189a.2.2,0,0,1-.049-.238Z" transform="translate(-59.608 -11.539)"/>
</svg>
