<svg xmlns="http://www.w3.org/2000/svg" width="54" height="54" viewBox="0 0 54 54">
  <g id="ic_fun" transform="translate(0 0.001)">
    <g id="Group_57035" data-name="Group 57035" transform="translate(0 -0.001)">
      <g id="Group_57034" data-name="Group 57034" transform="translate(0 0)">
        <path id="Path_43286" data-name="Path 43286" d="M36.478,29.726a28.243,28.243,0,0,1,6.007-2.036,1.055,1.055,0,1,0-.437-2.064,30.659,30.659,0,0,0-6.932,2.412c-1.3-1.548-2.783-3.166-4.386-4.768-1.7-1.7-3.424-3.275-5.058-4.628a23.829,23.829,0,0,0,3.443-5.983,31.263,31.263,0,0,0,2.053-11.6,1.055,1.055,0,0,0-2.109,0c0,6.6-1.692,12.061-5.034,16.276-.631-.481-1.242-.923-1.826-1.317-3.126-2.108-4.988-2.6-6.028-1.6l-.022.021,0,0,0,0a1.735,1.735,0,0,0-.493.976L.082,52.536a1.055,1.055,0,0,0,1.381,1.38h0L38.584,38.35a1.733,1.733,0,0,0,.9-.428c.018-.015.036-.032.053-.048l.021-.019,0,0,.021-.022c1-1.041.509-2.9-1.6-6.028C37.54,31.141,37.034,30.445,36.478,29.726ZM8.365,46.485a7.1,7.1,0,0,1-.945,2.646l-4.4,1.843L7.489,40.329A11.718,11.718,0,0,1,8.365,46.485Zm6.49-3.569A6.758,6.758,0,0,1,12.981,46.8L10.2,47.965c.618-2.2.78-5.691-1.607-10.274l3.161-7.537C15.035,36.372,15.281,40.491,14.855,42.917Zm3.762,1.519-2.273.953a10.648,10.648,0,0,0,.546-1.877c.844-4.309-.534-9.636-4.094-15.84l1.141-2.721a17.9,17.9,0,0,1,2.349,3.595,1.055,1.055,0,1,0,1.938-.833A20.013,20.013,0,0,0,14.838,22.8l1.744-4.158c.305.56.684,1.174,1.137,1.846q.469.695,1.023,1.437a19.836,19.836,0,0,1,2.821,14.817A21.417,21.417,0,0,1,18.617,44.435Zm8.127-3.408-5.007,2.1a26.585,26.585,0,0,0,1.9-5.992,22.933,22.933,0,0,0-.2-9.7q.749.792,1.541,1.584c1.578,1.577,3.17,3.041,4.7,4.324C29.52,38.327,27.236,40.6,26.744,41.028ZM30.38,39.5a14.247,14.247,0,0,0,1.285-4.554c.637.486,1.254.933,1.843,1.33.673.454,1.287.832,1.847,1.137Zm3.71-5.386a62.493,62.493,0,0,1-7.622-6.585,62.483,62.483,0,0,1-6.585-7.622,12.291,12.291,0,0,1-2.106-3.84,12.3,12.3,0,0,1,3.84,2.106c.329.233.667.482,1.011.743-.074.076-.147.153-.222.228A1.055,1.055,0,1,0,23.9,20.638q.2-.2.392-.4c1.6,1.322,3.291,2.867,4.95,4.525,1.426,1.426,2.766,2.876,3.955,4.272q-.286.159-.571.323a1.055,1.055,0,1,0,1.055,1.827c.293-.169.586-.331.879-.49.458.582.884,1.148,1.268,1.69a12.288,12.288,0,0,1,2.106,3.84A12.3,12.3,0,0,1,34.089,34.117Z" transform="translate(0 0.001)" fill="#3d3d3d"/>
        <path id="Path_43287" data-name="Path 43287" d="M163.779,283.256a1.059,1.059,0,1,0,.036.091C163.8,283.318,163.791,283.283,163.779,283.256Z" transform="translate(-144.701 -252.824)" fill="#3d3d3d"/>
        <path id="Path_43288" data-name="Path 43288" d="M370.813,105.776a1.055,1.055,0,0,0,1.492,0c2.357-2.356,6.174-3.436,8.962-3.661a1.055,1.055,0,1,0-.17-2.1c-3.161.255-7.523,1.511-10.284,4.272A1.055,1.055,0,0,0,370.813,105.776Z" transform="translate(-331.428 -89.461)" fill="#3d3d3d"/>
        <path id="Path_43289" data-name="Path 43289" d="M492.709,101.5l-.091-.024a1.055,1.055,0,1,0-.51,2.047l.054.014a1.055,1.055,0,1,0,.547-2.037Z" transform="translate(-439.491 -90.741)" fill="#3d3d3d"/>
        <path id="Path_43290" data-name="Path 43290" d="M64.559,47.84h1.055v1.055a1.055,1.055,0,0,0,2.109,0V47.84h1.055a1.055,1.055,0,1,0,0-2.109H67.723V44.676a1.055,1.055,0,0,0-2.109,0V45.73H64.559a1.055,1.055,0,0,0,0,2.109Z" transform="translate(-56.806 -39.02)" fill="#3d3d3d"/>
        <path id="Path_43291" data-name="Path 43291" d="M298.557,144.838h1.055v1.055a1.055,1.055,0,0,0,2.109,0v-1.055h1.055a1.055,1.055,0,0,0,0-2.109h-1.055v-1.055a1.055,1.055,0,0,0-2.109,0v1.055h-1.055a1.055,1.055,0,0,0,0,2.109Z" transform="translate(-266.125 -125.788)" fill="#3d3d3d"/>
        <path id="Path_43292" data-name="Path 43292" d="M401.774,399.727H400.72v-1.055a1.055,1.055,0,0,0-2.109,0v1.055h-1.055a1.055,1.055,0,0,0,0,2.109h1.055v1.055a1.055,1.055,0,0,0,2.109,0v-1.055h1.055a1.055,1.055,0,1,0,0-2.109Z" transform="translate(-354.683 -355.682)" fill="#3d3d3d"/>
        <path id="Path_43293" data-name="Path 43293" d="M363.133,6.329a3.164,3.164,0,1,0-3.164-3.164A3.168,3.168,0,0,0,363.133,6.329Zm0-4.219a1.055,1.055,0,1,1-1.055,1.055A1.056,1.056,0,0,1,363.133,2.11Z" transform="translate(-322.004 -0.001)" fill="#3d3d3d"/>
        <path id="Path_43294" data-name="Path 43294" d="M425.665,173.619a3.164,3.164,0,1,0,3.164,3.164A3.168,3.168,0,0,0,425.665,173.619Zm0,4.219a1.055,1.055,0,1,1,1.055-1.055A1.056,1.056,0,0,1,425.665,177.838Z" transform="translate(-377.94 -155.308)" fill="#3d3d3d"/>
        <path id="Path_43295" data-name="Path 43295" d="M171.667,41.948a3.164,3.164,0,1,0-3.164-3.164A3.168,3.168,0,0,0,171.667,41.948Zm0-4.219a1.055,1.055,0,1,1-1.055,1.055A1.056,1.056,0,0,1,171.667,37.729Z" transform="translate(-150.731 -31.863)" fill="#3d3d3d"/>
        <path id="Path_43296" data-name="Path 43296" d="M431.3,285.113a1.055,1.055,0,1,0-1.055,1.055A1.057,1.057,0,0,0,431.3,285.113Z" transform="translate(-383.924 -254.099)" fill="#3d3d3d"/>
        <path id="Path_43297" data-name="Path 43297" d="M326.244,77.169a1.055,1.055,0,1,0-1.055-1.055A1.057,1.057,0,0,0,326.244,77.169Z" transform="translate(-290.892 -67.143)" fill="#3d3d3d"/>
        <path id="Path_43298" data-name="Path 43298" d="M460.243,359.057a1.055,1.055,0,1,0,1.055,1.055A1.057,1.057,0,0,0,460.243,359.057Z" transform="translate(-410.758 -321.188)" fill="#3d3d3d"/>
        <path id="Path_43299" data-name="Path 43299" d="M130.247,12.11a1.055,1.055,0,1,0-1.055-1.055A1.057,1.057,0,0,0,130.247,12.11Z" transform="translate(-115.566 -8.946)" fill="#3d3d3d"/>
      </g>
    </g>
  </g>
</svg>
