<svg xmlns="http://www.w3.org/2000/svg" width="154.189" height="22" viewBox="0 0 154.189 22">
  <g id="goodbasket" transform="translate(-139.342 -287.277)">
    <path id="Path_5996" data-name="Path 5996" d="M204.246,294.447a4.018,4.018,0,0,0-3.417,1.781v-5.921h-3.117v15.319h3.11v-1.432a4.2,4.2,0,0,0,3.416,1.635c2.6,0,5-2.008,5-5.673v-.044C209.24,296.455,206.8,294.447,204.246,294.447Zm1.884,5.709a2.694,2.694,0,1,1-5.345,0v-.044a2.694,2.694,0,1,1,5.345,0Zm-47.76-5.709a5.761,5.761,0,0,0-5.957,5.709v.044a5.7,5.7,0,0,0,5.914,5.673,5.763,5.763,0,0,0,5.958-5.71v-.043A5.7,5.7,0,0,0,158.37,294.447Zm2.848,5.752a2.809,2.809,0,0,1-2.848,2.986,2.914,2.914,0,0,1-2.887-2.942c0-.029,0-.058,0-.088v-.043a2.809,2.809,0,0,1,2.848-2.987,2.911,2.911,0,0,1,2.884,3.031ZM219,296.081a4.2,4.2,0,0,0-3.417-1.635c-2.6,0-5,2.009-5,5.674v.043c0,3.666,2.439,5.674,5,5.674A4.021,4.021,0,0,0,219,304.055v1.577h3.11V294.651H219v1.432Zm.037,4.075a2.694,2.694,0,1,1-5.345,0v-.044a2.694,2.694,0,1,1,5.345,0Zm31.549-5.709a5.463,5.463,0,0,0-5.425,5.709v.044a5.8,5.8,0,0,0,10.215,3.63l-1.781-1.577a3.62,3.62,0,0,1-2.665,1.124,2.541,2.541,0,0,1-2.68-2.147h7.637c.022-.285.044-.577.044-.818C255.934,297.294,254.255,294.447,250.589,294.447Zm-2.373,4.833a2.45,2.45,0,0,1,2.373-2.337,2.356,2.356,0,0,1,2.315,2.337Zm-100.463-3.2a4.445,4.445,0,0,0-3.542-1.635,4.827,4.827,0,0,0-4.869,5.119v.044a4.82,4.82,0,0,0,4.87,5.12,4.285,4.285,0,0,0,3.585-1.782v.555c0,1.964-1,2.986-3.132,2.986a7.176,7.176,0,0,1-3.709-1l-1.066,2.335a10.419,10.419,0,0,0,4.855,1.147c2.132,0,3.709-.454,4.731-1.476a5.89,5.89,0,0,0,1.394-4.323v-8.52h-3.109v1.432Zm.043,3.528a2.536,2.536,0,0,1-2.68,2.541,2.511,2.511,0,0,1-2.665-2.541v-.044a2.676,2.676,0,0,1,5.345,0Zm113.833-2.3V302c0,.715.306,1.066,1,1.066a3.2,3.2,0,0,0,1.533-.388v2.5a4.6,4.6,0,0,1-2.454.635c-1.905,0-3.191-.76-3.191-3.293v-5.2h-1.306v-2.665h1.307v-2.8h3.11v2.8h2.576v2.665h-2.577Zm-71.25,4.753V290.307h-3.111v5.774a4.2,4.2,0,0,0-3.417-1.635c-2.6,0-5,2.009-5,5.674v.043c0,3.666,2.438,5.674,5,5.674a4.972,4.972,0,0,0,3.694-1.84c.475,1.249,1.577,1.84,3.25,1.84a6.544,6.544,0,0,0,1.35-.124v-2.438a3.544,3.544,0,0,1-.656.058C190.832,303.333,190.38,302.982,190.38,302.062Zm-3.065-1.905a2.694,2.694,0,1,1-5.345,0v-.044a2.694,2.694,0,1,1,5.345,0Zm53.485-1.183,4.293,6.652h-3.577l-2.8-4.5-1.1,1.169v3.337H234.5v-15.32h3.11v8.338l3.644-3.995h3.724Zm-69.207-4.527a5.763,5.763,0,0,0-5.958,5.709v.044a5.7,5.7,0,0,0,5.914,5.673,5.763,5.763,0,0,0,5.958-5.709v-.044A5.7,5.7,0,0,0,171.593,294.447Zm2.848,5.752a2.808,2.808,0,0,1-2.848,2.986,2.915,2.915,0,0,1-2.887-2.942c0-.029,0-.058,0-.088v-.043a2.809,2.809,0,0,1,2.848-2.987,2.91,2.91,0,0,1,2.884,3.031Zm58.311,2.043v.044c0,2.438-1.826,3.542-4.2,3.542a7.7,7.7,0,0,1-4.71-1.658l1.329-2.044a6.2,6.2,0,0,0,3.459,1.308c.9,0,1.307-.329,1.307-.818v-.045c0-.678-1.066-.9-2.271-1.27-1.533-.455-3.279-1.169-3.279-3.293v-.044c0-2.232,1.8-3.481,4.017-3.481a7.559,7.559,0,0,1,4.1,1.271l-1.189,2.147a6.491,6.491,0,0,0-2.973-1.022c-.759,0-1.146.328-1.146.759v.044c0,.613,1.044.9,2.234,1.307,1.543.51,3.325,1.248,3.325,3.256Z" transform="translate(0 0.307)"/>
    <path id="Path_5997" data-name="Path 5997" d="M281.365,291.672v13.194a4.4,4.4,0,0,1-4.4,4.4H263.776a4.4,4.4,0,0,1-4.4-4.394h0V291.672a4.4,4.4,0,0,1,4.4-4.4h13.2A4.4,4.4,0,0,1,281.365,291.672Z" transform="translate(12.166)"/>
    <path id="Path_5998" data-name="Path 5998" d="M268.631,298.265,265.367,295l1.731-1.731,2.964,2.965,5.93-5.93,1.73,1.73-7.66,7.659-1.431-1.432Zm1.431,4.914a5.216,5.216,0,0,1-5.213-5.214H262.4a7.659,7.659,0,0,0,15.319,0h-2.445a5.217,5.217,0,0,1-5.215,5.214Z" transform="translate(12.472 0.307)" fill="#fff"/>
  </g>
</svg>
