<svg xmlns="http://www.w3.org/2000/svg" width="54" height="54" viewBox="0 0 54 54">
  <g id="ic_health" transform="translate(0 -11)">
    <g id="Group_57032" data-name="Group 57032" transform="translate(0 11)">
      <path id="Path_43262" data-name="Path 43262" d="M39.988,329.771l-.051.015-10.189,3.286a3.64,3.64,0,0,0-3.6-2.9l-2.367-.1a1.055,1.055,0,1,0-.085,2.108l2.367.1c1.109.045,1.621.732,1.627,1.352a1.046,1.046,0,0,1-.082.428c-.018.031-.034.064-.048.1a1.65,1.65,0,0,1-1.414.672l-7.791.471a1.055,1.055,0,0,0,.127,2.106l7.791-.471a3.725,3.725,0,0,0,2.941-1.47L40.559,331.8c1.173-.311,3.19-.613,3.73.78.046.136-.054.267-.3.389l-14.085,6.771c-2.388.863-7.677,1.217-11.931,1.5-1.884.126-3.663.245-5.009.394a1.057,1.057,0,0,0-.285.073L2.109,346.058V337.2H6.4a1.055,1.055,0,0,0,1.055-1.055,4.562,4.562,0,0,1,1.4-3.272,4.063,4.063,0,0,1,2.994-1.166l2.367.1a1.055,1.055,0,1,0,.085-2.108l-2.367-.1a6.152,6.152,0,0,0-4.54,1.752,6.7,6.7,0,0,0-1.962,3.739H1.055A1.055,1.055,0,0,0,0,336.14v11.492a1.055,1.055,0,0,0,1.456.975l11.89-4.888c1.284-.137,2.98-.25,4.771-.37,4.647-.311,9.914-.664,12.567-1.645q.047-.017.091-.039l14.138-6.8.012-.006a2.394,2.394,0,0,0,1.332-3.042c-.833-2.147-3.117-2.895-6.268-2.05Z" transform="translate(0 -294.687)" fill="#3d3d3d"/>
      <path id="Path_43263" data-name="Path 43263" d="M117.914.179a1.055,1.055,0,0,0-.988-.1l-11.89,4.888c-1.284.137-2.98.25-4.771.37C95.619,5.649,90.352,6,87.7,6.982c-.031.011-.061.024-.091.039l-14.138,6.8-.012.006a2.394,2.394,0,0,0-1.332,3.041,3.839,3.839,0,0,0,3.92,2.39,9.139,9.139,0,0,0,2.349-.34l.051-.015,10.189-3.286a3.64,3.64,0,0,0,3.6,2.9l14.218.575a6.154,6.154,0,0,0,4.54-1.752,6.7,6.7,0,0,0,1.962-3.739h4.374a1.055,1.055,0,0,0,1.055-1.055V1.055a1.055,1.055,0,0,0-.468-.876Zm-1.642,11.313h-4.288a1.055,1.055,0,0,0-1.055,1.055,4.562,4.562,0,0,1-1.4,3.272,4.064,4.064,0,0,1-2.994,1.166L92.318,16.41c-1.109-.045-1.621-.732-1.627-1.352a1.048,1.048,0,0,1,.082-.427,1.065,1.065,0,0,0,.049-.1,1.651,1.651,0,0,1,1.413-.672l7.791-.471a1.055,1.055,0,0,0-.127-2.106l-7.791.471a3.725,3.725,0,0,0-2.941,1.47L77.823,16.885c-1.172.311-3.19.613-3.73-.78-.046-.136.054-.267.3-.389L88.475,8.944c2.388-.863,7.677-1.217,11.931-1.5,1.884-.126,3.663-.245,5.009-.394a1.056,1.056,0,0,0,.285-.073l10.572-4.346v8.863Z" transform="translate(-64.382 0)" fill="#3d3d3d"/>
      <path id="Path_43264" data-name="Path 43264" d="M187.211,203.207a1.055,1.055,0,0,0,.544,0c2.066-.552,6.592-4.225,7.6-8.006a4.647,4.647,0,0,0-7.689-4.716.249.249,0,0,1-.374,0,4.647,4.647,0,0,0-7.689,4.716C180.619,198.982,185.145,202.655,187.211,203.207Zm-4.945-11.228a2.512,2.512,0,0,1,3.541,0,2.35,2.35,0,0,0,3.352,0,2.54,2.54,0,0,1,4.162,2.677c-.75,2.8-4.284,5.77-5.838,6.418-1.554-.649-5.088-3.615-5.838-6.418a2.533,2.533,0,0,1,.621-2.677Z" transform="translate(-160.484 -169.192)" fill="#3d3d3d"/>
      <path id="Path_43265" data-name="Path 43265" d="M170.116,334.747a1.055,1.055,0,1,0,1.055-1.055h0A1.054,1.054,0,0,0,170.116,334.747Z" transform="translate(-152.174 -298.498)" fill="#3d3d3d"/>
    </g>
  </g>
</svg>
