<svg xmlns="http://www.w3.org/2000/svg" width="93.402" height="65.41" viewBox="0 0 93.402 65.41">
  <g id="hnak-logo" transform="translate(0.001)">
    <path id="Path_44004" data-name="Path 44004" d="M204.038,220.564l-.109,1.714a.209.209,0,0,0,.1.193.213.213,0,0,0,.1.028.208.208,0,0,0,.117-.035,21.942,21.942,0,0,1,6.194-2.875.208.208,0,0,0,.149-.169l.339-2.239a.21.21,0,0,0-.073-.193.2.2,0,0,0-.2-.035l-1.683.6a4.022,4.022,0,0,1-1.118.3c-.835,0-1.259-.18-1.259-.533,0-.111,0-.447.63-.7a3.026,3.026,0,0,1,1.185-.23,2.5,2.5,0,0,1,.567.094,2.917,2.917,0,0,0,.668.106.483.483,0,0,0,.548-.5,1.367,1.367,0,0,0-.125-.5,2.525,2.525,0,0,0-1.081-1.17,3.03,3.03,0,0,0-1.55-.454,2.659,2.659,0,0,0-2.228,1.438,4.584,4.584,0,0,0-.805,2.507,1.8,1.8,0,0,0,.423,1.132,1.61,1.61,0,0,0,.529.449,13.572,13.572,0,0,0-1.247.928.206.206,0,0,0-.071.144Z" transform="translate(-196.628 -208.004)"/>
    <path id="Path_44005" data-name="Path 44005" d="M190.493,223.845q2.238,1.236,6.793,1.237h2.192a24.494,24.494,0,0,0,3.656-.247,26.742,26.742,0,0,0,3.264-.52c2.771-.642,4.2-2.483,4.2-5.918q0-2.579.185-6.778V200.936q0-.37-.2-.37a1.522,1.522,0,0,0-.633.325l-4.493,3.165a.861.861,0,0,0-.267.644v.008c-.2.821.439,10.51.439,10.51a2.779,2.779,0,0,1-2.512,2.843l-1.871.137c-.982-.008-2.172-.046-3.724-.046q-4.616,0-6.145-1.358a3.343,3.343,0,0,1-.9-2.656q.015-1.574-.88-1.574t-1.513,1.947a11.268,11.268,0,0,0-.572,3.524Q187.513,222.192,190.493,223.845Z" transform="translate(-187.513 -200.566)"/>
    <path id="Path_44006" data-name="Path 44006" d="M344.142,216.779a2.551,2.551,0,1,0-2.551-2.552A2.551,2.551,0,0,0,344.142,216.779Z" transform="translate(-273.065 -206.735)"/>
    <path id="Path_44007" data-name="Path 44007" d="M313.486,221.691a7.365,7.365,0,0,0,1-3.443,9.161,9.161,0,0,0-3.119-6.576,30.049,30.049,0,0,0-6.283-4.415,2.719,2.719,0,0,0-.926-.4q-.4,0-.741.772l-2.069,4.678.911.586a2.714,2.714,0,0,0-1.5,2.733A2.645,2.645,0,0,0,301.1,217h-1.8v.015h-.278a2.331,2.331,0,0,1-2.192-.992,9.458,9.458,0,0,1-.51-1.813q-.216-.992-.957-.992-.772,0-1.065.992a11.248,11.248,0,0,1-.617,1.813,2.533,2.533,0,0,1-2.285.991V217H255.551c-1.189-.076-1.792-.817-1.792-2.239v-13.6q0-.37-.2-.37a1.522,1.522,0,0,0-.633.325l-4.492,3.165a1.058,1.058,0,0,0-.247,1.018q.215,1.437.417,5.866.185,4.2.185,6.777,0,6.052,5.789,6.052h.772v.031h36.57a3.957,3.957,0,0,0,3.658-2.069,3.806,3.806,0,0,0,3.443,2.069h3.057a6.287,6.287,0,0,0,4.06-2.022q2.995,2.022,4.292,2.022Q312.235,224.021,313.486,221.691Zm-7.032-5.079a1.7,1.7,0,0,1-1.011.386,2.457,2.457,0,0,1-1.2-.448q-.788-.478-.788-.91,0-.526.71-.926a2.483,2.483,0,0,1,1.2-.341,1.719,1.719,0,0,1,1.073.425,1.222,1.222,0,0,1,.533.965,1.076,1.076,0,0,1-.517.848Zm4.346,3.319a3.431,3.431,0,0,1-1.312-.494,8.048,8.048,0,0,1-1.22-.771,2.186,2.186,0,0,0,1.034-2.1v-.309q2.208,1.558,2.208,2.593,0,1.081-.71,1.08Z" transform="translate(-221.188 -200.689)"/>
    <path id="Path_44008" data-name="Path 44008" d="M203.248,304.125a1.121,1.121,0,0,0,.81.363h4.051a1.105,1.105,0,0,0,.81-.335,1.139,1.139,0,0,0,.335-.839V286.1a1.062,1.062,0,0,0-1.146-1.146h-4.051a1.138,1.138,0,0,0-.838.335,1.1,1.1,0,0,0-.335.811v5.923H195.7V286.1a1.1,1.1,0,0,0-.335-.811,1.138,1.138,0,0,0-.838-.335h-4.052a1.139,1.139,0,0,0-.838.335,1.107,1.107,0,0,0-.335.811v17.211a1.248,1.248,0,0,0,1.174,1.174h4.052a1.107,1.107,0,0,0,.824-.363,1.142,1.142,0,0,0,.35-.811v-6.482h7.181v6.482a1.121,1.121,0,0,0,.365.814Z" transform="translate(-188.508 -247.424)"/>
    <path id="Path_44009" data-name="Path 44009" d="M244.9,304.369h3.716a1.06,1.06,0,0,0,.8-.335,1.1,1.1,0,0,0,.321-.782V294.9a2.066,2.066,0,0,1,.028-.4.136.136,0,0,1,.14-.125q.111,0,.531.419,4.358,4.639,6.622,7.013t2.431,2.459a1.72,1.72,0,0,0,.434.153,4.336,4.336,0,0,0,.74.043h3.157a1.347,1.347,0,0,0,.992-.447,1.409,1.409,0,0,0,.433-1.006V286.375a1.421,1.421,0,0,0-.447-1.034,1.452,1.452,0,0,0-1.062-.447h-3.549a1.023,1.023,0,0,0-.754.35,1.117,1.117,0,0,0-.335.8v8.327q0,.447-.168.447a.759.759,0,0,1-.307-.139q-1.649-1.677-4.555-4.708l-4.191-4.373a2.629,2.629,0,0,0-.684-.573,1.779,1.779,0,0,0-.741-.126h-3.464a1.269,1.269,0,0,0-.978.475,1.6,1.6,0,0,0-.419,1.089v16.458a1.471,1.471,0,0,0,.391,1.019,1.2,1.2,0,0,0,.918.429Z" transform="translate(-218.647 -247.389)"/>
    <path id="Path_44010" data-name="Path 44010" d="M319.307,301.882l-6.258-15.731a1.8,1.8,0,0,0-.643-.866,2.06,2.06,0,0,0-1.2-.391h-4.024a2.238,2.238,0,0,0-1.16.35,1.993,1.993,0,0,0-.74.907l-6.2,15.731q-.028.056-.182.517a2.944,2.944,0,0,0-.153.936q0,.95,1.09,1.118h3.884a2.061,2.061,0,0,0,.978-.21.969.969,0,0,0,.5-.6l.866-2.794H312.3l.866,2.794a.961.961,0,0,0,.517.6,2.146,2.146,0,0,0,.992.21H318.5q1.117-.168,1.118-1.174a2.687,2.687,0,0,0-.14-.824Q319.335,302.022,319.307,301.882Zm-9.835-5.756H306.9l2.179-6.566,2.207,6.566Z" transform="translate(-249.274 -247.389)"/>
    <path id="Path_44011" data-name="Path 44011" d="M365.91,293.807l4.75-6.455a1.572,1.572,0,0,0,.335-.894.635.635,0,0,0-.615-.7h.028l-4.3-.028a1.826,1.826,0,0,0-1.676.559l-6.175,7.852v-7.4a1.1,1.1,0,0,0-1.09-1.09h-4a1.052,1.052,0,0,0-1.09,1.09v17.044a1.014,1.014,0,0,0,1.09,1.09h4a1.211,1.211,0,0,0,.573-.14.807.807,0,0,0,.377-.391l3.94-5.336,3.744,5.365a.847.847,0,0,0,.7.363l5.029-.028a.72.72,0,0,0,.545-.321,1.194,1.194,0,0,0,.209-.712,1.173,1.173,0,0,0-.168-.616Z" transform="translate(-278.889 -247.808)"/>
    <rect id="Rectangle_19732" data-name="Rectangle 19732" width="92.827" height="3.247" transform="translate(0.574 62.163)"/>
    <rect id="Rectangle_19733" data-name="Rectangle 19733" width="92.009" height="3.247" transform="translate(1.392 29.087)"/>
  </g>
</svg>
