<svg id="my_bidnging" data-name="my bidnging" xmlns="http://www.w3.org/2000/svg" xmlns:xlink="http://www.w3.org/1999/xlink" width="120" height="45.27" viewBox="0 0 120 45.27">
  <defs>
    <clipPath id="clip-path">
      <rect id="Rectangle_16226" data-name="Rectangle 16226" width="120" height="45.27" fill="none"/>
    </clipPath>
  </defs>
  <g id="Group_47868" data-name="Group 47868" clip-path="url(#clip-path)">
    <path id="Path_40702" data-name="Path 40702" d="M56.838,0c-.979.84-2.289.406-3.369.86-.28-.25-.768-.015-.984-.415L52.542,0Z" transform="translate(-38.489)"/>
    <path id="Path_40703" data-name="Path 40703" d="M114.9,122.512c.873-3.907,1.792-7.543,2.446-11.226.216-1.216.814-1.089,1.59-1.089,2.7,0,5.391-.028,8.086.012,1.237.019,2.9-.183,3.162,1.365s.055,3.311-1.683,4.289c-.2.113-1.312-.163-.354.619,1.82,1.486.357,3.066-.035,4.474-.327,1.171-1.591,1.591-2.916,1.573-3.4-.047-6.808-.016-10.295-.016" transform="translate(-84.26 -80.804)"/>
    <path id="Path_40704" data-name="Path 40704" d="M397.008,122.014a68.2,68.2,0,0,0-2.4,9.107c-.687,2.82-1.441,3.461-4.406,3.523-2.291.048-4.585.017-6.877.006-.539,0-1.186.086-1.082-.806.089-.761.363-.986,1.243-.885,1.566.18,3.165.073,4.75.1.91.014,1.634-.267,1.55-1.3-.087-1.057-.982-.382-1.49-.554-.071-.024-.161.012-.236,0-1.678-.373-4.1,1.059-4.94-1.034-.845-2.111.314-4.418,1.22-6.469.518-1.173,1.8-1.48,3.032-1.513,3.152-.085,6.3.361,9.642-.164" transform="translate(-280.3 -89.477)"/>
    <path id="Path_40705" data-name="Path 40705" d="M266.361,109.945c-.829,3.727-1.622,7.157-2.344,10.6-.258,1.231-.687,1.863-2.168,1.77-2.611-.163-5.24-.047-7.861-.053-1.875,0-2.647-.859-2.1-2.715.066-.226.123-.456.17-.687,1.09-5.3,2.45-6.349,7.756-5.514,1.086.171,1.4.131,1.431-.9.064-2.383,1.513-2.827,3.538-2.511a11.373,11.373,0,0,0,1.582.011" transform="translate(-184.59 -80.553)"/>
    <path id="Path_40706" data-name="Path 40706" d="M14.059,113.767c-1.622,2.4-3.28,4.785-4.849,7.222a2.4,2.4,0,0,1-2.484,1.353c-1.415-.145-.93-1.377-1.088-2.009-.66-2.645-1.059-5.353-1.968-8.056-.678,2.946-1.371,5.888-2.022,8.84-.141.638-.155,1.375-1.068,1.161-1.085-.254-.334-1.038-.237-1.489.7-3.277,1.6-6.517,2.2-9.812.238-1.326,1.007-.914,1.7-.97,1.2-.1,2.358-.222,2.625,1.489.427,2.736,1,5.45,1.594,8.645,1.872-2.8,3.638-5.107,5.028-7.622,1.14-2.062,2.48-3.137,4.98-2.35-.828,3.8-1.611,7.7-2.567,11.567-.279,1.126-1.488.547-2.249.53-.943-.02-.469-.737-.366-1.221q.657-3.093,1.317-6.186c.049-.475.621-1.2-.537-1.1" transform="translate(0 -80.603)"/>
    <path id="Path_40707" data-name="Path 40707" d="M7.462,65.874,6.6,65.616c-1.059-.478-.967-1.521-1.154-2.4C4.9,60.685,3.8,58.248,4.1,55.57c.69-.81,1.761-.83,2.639-1.255a5.585,5.585,0,0,1,1.43-.456c1.779-.337,3.507-.9,5.3-1.168,1.269-.193,2.108.368,2.148,1.56.09,2.642,1,5.241.432,7.914-.42,1.127-1.457,1.351-2.45,1.584-1.456.341-2.875.8-4.308,1.208-.568.386-1.456.145-1.829.917" transform="translate(-2.968 -38.613)" fill="#fefefe"/>
    <path id="Path_40708" data-name="Path 40708" d="M336.9,131.586c.5-1.907,1-3.551,1.345-5.227.129-.635.765-1.734-.5-1.885-.95-.114-2.326-.677-2.693,1.035-.28,1.3-.916,2.6-.864,3.882.089,2.2-1.023,2.41-2.735,2.213a21.747,21.747,0,0,0-2.43-.015c.665-2.772,1.639-5.365,1.754-8.115.041-.994.587-.919,1.229-.918,2.788,0,5.577-.023,8.364.014,1.856.025,2.823.905,2.452,2.847-.338,1.77-.78,3.523-1.032,5.3-.109.768-.445.878-1.064.87-1.189-.014-2.378,0-3.829,0" transform="translate(-241.288 -89.869)"/>
    <path id="Path_40709" data-name="Path 40709" d="M196.335,131.587a38.9,38.9,0,0,0,1.783-8.03c.048-.9.425-1.017,1.16-1.011,2.87.024,5.741-.018,8.611.032,1.8.031,2.578,1.046,2.285,2.79-.311,1.849-.741,3.68-1.031,5.532-.109.694-.525.676-.994.681-1.254.011-2.508,0-3.895,0,.5-1.933,1.009-3.653,1.372-5.4.13-.63.707-1.737-.689-1.748-.9-.007-2.169-.579-2.507,1a20.911,20.911,0,0,0-.894,4.118c-.005,1.871-.825,2.254-2.444,2.056a23.988,23.988,0,0,0-2.758-.018" transform="translate(-143.979 -89.867)"/>
    <path id="Path_40710" data-name="Path 40710" d="M73.894,131.415c-1.875,0-3.7-.067-5.509.019-1.743.083-2.327-.7-1.986-2.288.428-1.983,1.015-3.938,1.342-5.936.225-1.378,1.163-.756,1.8-.8,1.162-.081.682.862.592,1.323-.329,1.685-.724,3.362-1.2,5.011-.347,1.2-.169,1.813,1.244,1.694a14.278,14.278,0,0,1,2.378,0c1.274.107,1.8-.394,2.009-1.681.281-1.765,1.046-3.464,1.229-5.23.147-1.417.947-1.157,1.768-1.143,1.318.023.747.994.636,1.524-.577,2.75-1.261,5.478-1.878,8.22-.416,1.847-1.427,2.885-3.45,2.831-2.061-.055-4.126,0-6.188-.02-.5-.006-1.285.213-1.218-.655s.835-.48,1.315-.487a34.721,34.721,0,0,1,4.518.047c1.9.221,2.5-.7,2.6-2.431" transform="translate(-48.001 -89.692)"/>
    <path id="Path_40711" data-name="Path 40711" d="M57.592,11.358c.346-.7,1.753-.191,1.641-1.288-.066-.65-.717-.964-1.41-1.047-1.061-.128-2.326-.567-2.953.528-.341.6-.356,1.138-1.194.922-.411-.106-.762-.351-.786-.772-.045-.777.568-1.087,1.175-1.282a6.993,6.993,0,0,1,3.893-.5c1.868.431,2.785,1.371,2.533,3.28-.273,2.074-.59,4.142-.99,6.921a43.147,43.147,0,0,0,2.608-4.059c.6-1.236,1.175-1.02,2.124-.438,2.753,1.687,5.557,3.294,8.353,4.911.827.478,1.36.813.55,1.907-2.339,3.158-4.531,6.422-6.782,9.645-.652.2-1.139.057-1.349-.65.983-2.891,3.256-4.977,4.79-7.529,1.285-2.138,1.363-2.191-.712-3.437-1.222-.734-2.492-1.4-3.661-2.206-1.359-.938-2.209-.583-3.181.626-1.255,1.56-1.763,3.761-3.886,4.6a1.129,1.129,0,0,1-.7-.745c-.517-2.021.361-3.962.351-5.955,0-.824.4-1.678-.21-2.45-.21-.3-.4-.6-.2-.975" transform="translate(-38.784 -5.718)"/>
    <path id="Path_40712" data-name="Path 40712" d="M32.2,6.864l.587.557C31.531,9.694,29.307,9.25,27.278,9.36c-.833.045-1.937-.7-2.289.763a3.112,3.112,0,0,0,.3,2.267c3.034,3.747,2.508,8.046,1.956,12.35a.782.782,0,0,1-1.075.255c-.223-2.581-.545-5.159-.632-7.744-.054-1.593-.57-1.76-2.011-1.379-1.719.455-3.374,1.423-5.27,1-.015-.958.853-1,1.427-1.312a1.552,1.552,0,0,0,.712-2c-.329-1.341-1.158.106-1.666-.28-.338-.149-.6-.338-.395-.761l3.079-3.7c.312,2.027.548,3.531.773,5.037.074.5-.162,1.206.777,1.075.84-.117.673-.773.607-1.276-.281-2.168-.709-4.322-.9-6.5-.344-3.9.648-4.989,4.712-5.489l.984.415a3.925,3.925,0,0,0-.916.23c-1.47.776-3.769,1.116-3.266,3.362.473,2.112,2.724,1.75,4.369,1.913A8.236,8.236,0,0,0,32.2,6.864" transform="translate(-13.391 -1.224)"/>
    <path id="Path_40713" data-name="Path 40713" d="M303.812,131.168a36.721,36.721,0,0,0,1.771-7.923c.09-1.771,1.379-.943,2.1-.974,2.8-.121,2.806-.06,2.22,2.641-.166.765-.333,1.53-.493,2.3-.878,4.22-.878,4.22-5.595,3.96" transform="translate(-222.795 -89.543)"/>
    <path id="Path_40714" data-name="Path 40714" d="M171.353,131.372c.668-2.7,1.676-5.205,1.743-7.88.039-1.551,1.1-1.021,1.826-1.044,3.141-.1,3.143-.075,2.5,2.833-.152.686-.333,1.366-.473,2.054-.87,4.279-.867,4.28-5.594,4.037" transform="translate(-125.659 -89.744)"/>
    <path id="Path_40715" data-name="Path 40715" d="M29.157,85.382l.968-.147c3-1.741,10.2-1.586,12.625.272l1.2.467c1.076.718,2.435,1.062,3.533,2.726-2.691-.566-4.907-1.06-7.135-1.495-5.323-1.038-10.567-.425-15.782.779-.537.124-1.1.148-1.647.218-.491.227-.619-.006-.58-.451l6.822-2.369" transform="translate(-16.375 -61.612)"/>
    <path id="Path_40716" data-name="Path 40716" d="M8.742,40.989l1.624-1.277c.875,3.55.875,3.55-2.268,5.059l-.716.463a7.1,7.1,0,0,1-2.766.2L4.4,45.2l1.933-2.885c.879-.306,1.5-1.076,2.406-1.329" transform="translate(-3.228 -29.122)" fill="#fff"/>
    <path id="Path_40717" data-name="Path 40717" d="M1.816,61.223c-.787,1.255.172,2.312.42,3.439.485,2.2,1.046,4.376,1.575,6.563a1.456,1.456,0,0,1-.991.924c-.432-.225-.279-.694-.438-1.033-.617-2.93-1.275-5.853-1.822-8.8-.135-.726-.954-1.938.8-2.018l-.033.193c.415.075.611.3.491.728" transform="translate(-0.185 -44.221)"/>
    <path id="Path_40718" data-name="Path 40718" d="M186.083,110.247a3.158,3.158,0,0,1-4.311,2.354c-.708-.276-.382-.747-.386-1.151-.007-.724.309-1.2,1.123-1.2,1.178,0,2.357,0,3.574,0" transform="translate(-132.963 -80.847)"/>
    <path id="Path_40719" data-name="Path 40719" d="M318.593,110.237a3.148,3.148,0,0,1-4.306,2.349c-.677-.279-.4-.75-.383-1.158.022-.7.311-1.2,1.136-1.194,1.171.011,2.343,0,3.554,0" transform="translate(-230.145 -80.838)"/>
    <path id="Path_40720" data-name="Path 40720" d="M437.771,145.629c-.286.49.12,1.643-1.119,1.219-.653-.223-1.393-.462-1.256-1.418.087-.609-.015-1.274.537-1.741a1.3,1.3,0,0,1,.426.43,2.5,2.5,0,0,0,.983,1.089c.15.133.292.275.428.422" transform="translate(-319.278 -105.372)"/>
    <path id="Path_40721" data-name="Path 40721" d="M439.174,131.734c.3-.628-.594-1.968.94-1.806.508.054,1.588.153,1.471,1.134-.148,1.247-1.606-.652-1.829.662a.477.477,0,0,1-.582.01" transform="translate(-322.061 -95.271)"/>
    <path id="Path_40722" data-name="Path 40722" d="M432.568,159.355c.68.71,1.819.462,2.2,1.409.183.452-.3.744-.715.644-.926-.224-1.878-.512-1.488-2.053" transform="translate(-317.151 -116.86)"/>
    <path id="Path_40723" data-name="Path 40723" d="M443.514,124.3c-.168.43-.575.6-.834.243-.4-.562-1.611.242-1.52-.927.039-.494.334-.913.924-.593.559.3,1.432.3,1.43,1.276" transform="translate(-323.514 -90.134)"/>
    <path id="Path_40724" data-name="Path 40724" d="M437.5,142.5q-.021-.294-.041-.587c.089-.574.564-.381.907-.449.52-.248,1-.406,1,.457q-.036.966-.073,1.932l-.179-.006-.178.021A8.836,8.836,0,0,1,437.5,142.5" transform="translate(-320.801 -103.599)"/>
    <path id="Path_40725" data-name="Path 40725" d="M439.643,138.573l-1-.457c.113-.551-1.5-.559-.449-1.405l.582-.01c.421.564,2.481.378.87,1.872" transform="translate(-321.077 -100.247)"/>
    <path id="Path_40726" data-name="Path 40726" d="M14.058,42.923c-.56.874-1.193,1.619-2.406,1.329l1.842-1.9.565.573" transform="translate(-8.545 -31.057)"/>
    <path id="Path_40727" data-name="Path 40727" d="M52.724,122.078c.132-.451.682-1.021.822-.77a1.472,1.472,0,0,1-.285,1.865c-.085-.411-.1-.854-.537-1.1" transform="translate(-38.664 -88.914)"/>
    <path id="Path_40728" data-name="Path 40728" d="M6.456,100.853c.519.188.253.7.438,1.033a5.278,5.278,0,0,1-1.013.3c-.325-.625.513-.818.575-1.334" transform="translate(-4.258 -73.959)"/>
    <path id="Path_40729" data-name="Path 40729" d="M18.3,98.023l.58.451c-.548.628-1.393.361-2.047.671-.094-1.126.974-.754,1.467-1.121" transform="translate(-12.341 -71.884)"/>
    <path id="Path_40730" data-name="Path 40730" d="M136.34,139.749c-.3-.183-1.491.767-1.405-.671.084-1.414.168-2.97,2.309-2.547.619.123,1.857-.6,1.713.777-.136,1.3-.088,3.1-2.617,2.441" transform="translate(-98.949 -100.063)" fill="#fdf9f9"/>
    <path id="Path_40731" data-name="Path 40731" d="M140.273,120.234c-.153-.059-1.383.641-1.121-.8.23-1.272.4-2.726,2.4-2.315.8.164,1.913-.221,1.681,1.231-.223,1.4-.826,2.386-2.958,1.889" transform="translate(-102.018 -85.832)" fill="#faedef"/>
    <path id="Path_40732" data-name="Path 40732" d="M402.812,134.912c.011,0-.614,0-.688-.2-.646-1.753.247-3.362.791-4.919.367-1.05,1.651-.4,2.529-.482.137-.012.4.087.414.168.286,1.581-.54,2.984-.776,4.487-.152.971-1.035,1.052-2.27.948" transform="translate(-294.726 -94.734)" fill="#fdf8f9"/>
    <path id="Path_40733" data-name="Path 40733" d="M270.458,134.765c-1.018.15-1.5-.288-1.275-1.323.245-1.141.537-2.272.834-3.4.437-1.665,1.806-.979,2.727-.866,1.294.16.305,1.08.25,1.636-.085.846-.361,1.672-.49,2.516-.182,1.194-.926,1.546-2.046,1.438" transform="translate(-197.361 -94.556)" fill="#fdf8f9"/>
    <path id="Path_40734" data-name="Path 40734" d="M20.3,69c-.728.011-1.579-.155-1.285-.724.583-1.127,1.938-1.049,3.059-1.24.441-.075,1.182-.194,1.085.411-.278,1.741-2.172.7-2.859,1.554" transform="translate(-13.899 -49.114)"/>
    <path id="Path_40735" data-name="Path 40735" d="M4.768,60.687l-.491-.728c1.022.267,1.969-.846,3.013-.161-.665.787-1.716.5-2.522.889" transform="translate(-3.136 -43.686)"/>
    <path id="Path_40736" data-name="Path 40736" d="M56.559,40.937a33.1,33.1,0,0,0-12.625-.272c-.328-2.421.044-4.884-.479-7.3-.318-1.464.438-3.331-1.715-4.083-.22-.077-.185-.871-.268-1.333,1.022-.721,2.1.078,3.1-.1-1.164-.386-2.71-.1-3.289-1.7-.373-1.881.072-2.353,2.111-1.729a6.884,6.884,0,0,0,6.189-1.19c1.5.043.717,1.059.661,1.665-.225,2.411-.523,4.816-.794,7.223a1.705,1.705,0,0,0-.141,1.02,2.91,2.91,0,0,1,.6-.488c1.344-1.926,2.728-3.826,4.014-5.79.581-.887,1-1.154,2.022-.471,2.087,1.391,4.279,2.635,6.472,3.861.954.533.928.987.339,1.809-2.1,2.93-4.136,5.91-6.2,8.87" transform="translate(-30.183 -17.042)" fill="#fff"/>
    <path id="Path_40737" data-name="Path 40737" d="M69.122,57.1a5.474,5.474,0,0,1-1.761,2.239,4.369,4.369,0,0,1,1.3-2.771l.463.532" transform="translate(-49.398 -41.482)"/>
    <path id="Path_40738" data-name="Path 40738" d="M40.638,34.185c1.4,1.089,3.182.992,4.971,1.42-1.649,1.5-3.23.674-4.778.374-.318-.571-.939-1.11-.193-1.794" transform="translate(-29.542 -25.069)"/>
    <path id="Path_40739" data-name="Path 40739" d="M437.574,145.892c.569.364,1.606.242,1.439,1.368-1.051.136-1.542-.307-1.439-1.368" transform="translate(-320.878 -106.987)" fill="#dedbdb"/>
  </g>
</svg>
