<svg id="nestle" xmlns="http://www.w3.org/2000/svg" xmlns:xlink="http://www.w3.org/1999/xlink" width="93.625" height="60" viewBox="0 0 93.625 60">
  <defs>
    <clipPath id="clip-path">
      <rect id="Rectangle_14" data-name="Rectangle 14" width="93.625" height="60" fill="none"/>
    </clipPath>
  </defs>
  <g id="Group_10" data-name="Group 10" clip-path="url(#clip-path)">
    <path id="Path_731" data-name="Path 731" d="M87.183,14.811a25.239,25.239,0,0,1,4.824,7.263,20.225,20.225,0,0,1,0,15.855,25.236,25.236,0,0,1-4.824,7.263,37.319,37.319,0,0,1-7.346,6.07,50.684,50.684,0,0,1-9.459,4.654,62.485,62.485,0,0,1-11.332,3.063A71.571,71.571,0,0,1,46.812,60a71.575,71.575,0,0,1-12.234-1.023,62.487,62.487,0,0,1-11.332-3.063,50.685,50.685,0,0,1-9.459-4.654,37.319,37.319,0,0,1-7.346-6.07,25.232,25.232,0,0,1-4.824-7.263,20.224,20.224,0,0,1,0-15.855,25.235,25.235,0,0,1,4.824-7.263,37.319,37.319,0,0,1,7.346-6.07,50.7,50.7,0,0,1,9.459-4.654A62.487,62.487,0,0,1,34.579,1.024a73.676,73.676,0,0,1,24.468,0A62.485,62.485,0,0,1,70.378,4.086a50.7,50.7,0,0,1,9.459,4.654,37.319,37.319,0,0,1,7.346,6.07m4.176,7.538a24.529,24.529,0,0,0-4.691-7.059,36.616,36.616,0,0,0-7.211-5.954A49.973,49.973,0,0,0,70.13,4.745a61.758,61.758,0,0,0-11.2-3.027,73.027,73.027,0,0,0-24.231,0,61.758,61.758,0,0,0-11.2,3.027,49.981,49.981,0,0,0-9.327,4.591,36.621,36.621,0,0,0-7.21,5.954,24.53,24.53,0,0,0-4.691,7.059,19.542,19.542,0,0,0,0,15.3,24.529,24.529,0,0,0,4.691,7.059,36.621,36.621,0,0,0,7.21,5.954,49.982,49.982,0,0,0,9.327,4.591,61.758,61.758,0,0,0,11.2,3.027A70.884,70.884,0,0,0,46.812,59.3a70.884,70.884,0,0,0,12.115-1.012,61.758,61.758,0,0,0,11.2-3.027,49.973,49.973,0,0,0,9.327-4.591,36.616,36.616,0,0,0,7.211-5.954,24.529,24.529,0,0,0,4.691-7.059,19.541,19.541,0,0,0,0-15.3" transform="translate(0 -0.001)"/>
    <path id="Path_732" data-name="Path 732" d="M420.279,54.146a1.927,1.927,0,1,1,.564,1.382,2.055,2.055,0,0,1-.564-1.382m1.946,2.257a2.377,2.377,0,0,0,1.636-.649,2.305,2.305,0,0,0,.649-1.608,2.218,2.218,0,0,0-2.285-2.285,2.306,2.306,0,0,0-1.608.649,2.375,2.375,0,0,0-.649,1.636,2.217,2.217,0,0,0,2.257,2.257" transform="translate(-332.592 -41.071)"/>
    <path id="Path_733" data-name="Path 733" d="M427.858,57.719c.085.256-.339.26-.48.282h-.338v-.564h.338c.2.031.48,0,.48.282m-.564.79.536.959h.649l-.677-1.1a.592.592,0,0,0,.621-.621c.057-.51-.44-.733-.874-.733h-1.072v2.454h.564v-.959Z" transform="translate(-337.745 -45.152)"/>
    <path id="Path_734" data-name="Path 734" d="M65.068,58.9a11.338,11.338,0,0,0,5.162-1.185c1.441-.728,3.1-1.462,4.965-2.2a20.26,20.26,0,0,1,7.475-1.185,14.605,14.605,0,0,1,6.375,1.5c1.862.9,3.725,1.716,5.614,2.426a10.485,10.485,0,0,0,6.4.2,5.35,5.35,0,0,0,2.37-1.467,12.741,12.741,0,0,0,2.482-3.836,15.243,15.243,0,0,0,1.241-6.319,17.152,17.152,0,0,0-3.808-10.86,30.5,30.5,0,0,0-9.873-7.983,54.165,54.165,0,0,0-13.54-4.936,66.125,66.125,0,0,0-29.732,0,54.16,54.16,0,0,0-13.54,4.936,30.5,30.5,0,0,0-9.873,7.983,17.151,17.151,0,0,0-3.808,10.86,15.243,15.243,0,0,0,1.241,6.319A12.984,12.984,0,0,0,26.7,56.982a5.207,5.207,0,0,0,2.37,1.467,10.5,10.5,0,0,0,6.4-.2c1.89-.705,3.752-1.523,5.614-2.426a14.606,14.606,0,0,1,6.375-1.5,20.152,20.152,0,0,1,7.475,1.185c1.834.734,3.5,1.461,4.965,2.2A11.322,11.322,0,0,0,65.068,58.9" transform="translate(-18.2 -16.911)"/>
    <path id="Path_735" data-name="Path 735" d="M119.953,190.381a12.186,12.186,0,0,1-4.654-1.128l-4.88-2.144a13.967,13.967,0,0,0-4.993-1.156,22.9,22.9,0,0,0-7.955,1.185,44.176,44.176,0,0,0-4.711,2.172,11.529,11.529,0,0,1-5.36,1.157h-.056a11.531,11.531,0,0,1-5.36-1.157,44.138,44.138,0,0,0-4.711-2.172,22.9,22.9,0,0,0-7.955-1.185,13.967,13.967,0,0,0-4.993,1.156l-4.88,2.144a12.207,12.207,0,0,1-4.654,1.128l-2.99-.2h-.536c-.141.028-.169.113-.028.254a26.284,26.284,0,0,0,2.624,2.4,27.289,27.289,0,0,0,3.413,2.454,6.755,6.755,0,0,0,3.131,1.1,9.269,9.269,0,0,0,2.68-.818,19.575,19.575,0,0,1,2.99-1.157,16.924,16.924,0,0,1,4.682-.564,18.032,18.032,0,0,1,6.686,1.213c1.805.734,3.47,1.467,4.965,2.228a10.994,10.994,0,0,0,9.93,0c1.5-.761,3.159-1.495,4.937-2.228a18.3,18.3,0,0,1,6.714-1.213,17.074,17.074,0,0,1,4.683.564,19.575,19.575,0,0,1,2.99,1.157,9.355,9.355,0,0,0,2.652.818,6.745,6.745,0,0,0,3.159-1.1,29.96,29.96,0,0,0,3.385-2.426,30.924,30.924,0,0,0,2.652-2.426c.141-.141.113-.226-.028-.254h-.564Z" transform="translate(-40.503 -147.264)"/>
    <path id="Path_736" data-name="Path 736" d="M161.516,59.589l-1.777.169-3.328.339-1.918.2c-.254.057-.395.2-.395.423v.536a.374.374,0,0,0,.367.367h7.052a.573.573,0,0,0,.592-.564v-.874a.578.578,0,0,0-.592-.592m-12.1,3.47h-1.551V60.435a.652.652,0,0,0-.677-.677H146.2a.652.652,0,0,0-.677.677v2.624h-.48a.482.482,0,0,0-.508.479v.705a.483.483,0,0,0,.508.48h.48v4.288a2.949,2.949,0,0,0,.79,1.975,2.89,2.89,0,0,0,2.087.846h.931a.531.531,0,0,0,.508-.536v-.762A.512.512,0,0,0,149.33,70h-.141a1.222,1.222,0,0,1-1.326-1.3V64.723h1.551a.459.459,0,0,0,.48-.48v-.705a.459.459,0,0,0-.48-.479M143.6,59.871H125.155a.726.726,0,0,0-.762.762l.057,7.25-1.044-1.862-1.946-3.583-1.185-2.116a1.276,1.276,0,0,0-1.185-.649h-1.523a.725.725,0,0,0-.762.762V71.07a.758.758,0,0,0,.762.762h.959a.758.758,0,0,0,.762-.762l-.056-7.475,1.044,1.918,1.975,3.554,1.157,2.087a1.388,1.388,0,0,0,1.213.677H126a.759.759,0,0,0,.762-.762V61.676H143.6a.53.53,0,0,0,.536-.508v-.79a.53.53,0,0,0-.536-.508m15.684,5.219a1.774,1.774,0,0,1,.677,1.241H155.9a1.978,1.978,0,0,1,2.031-1.749,2.213,2.213,0,0,1,1.354.508m-1.354-2.341a4.328,4.328,0,0,0-3.272,1.41,4.692,4.692,0,0,0-1.157,3.159,5.108,5.108,0,0,0,1.185,3.272A4.4,4.4,0,0,0,157.933,72a5.348,5.348,0,0,0,2.623-.705,3.022,3.022,0,0,0,1.467-1.918q.042-.423-.423-.508h-1.326a.678.678,0,0,0-.564.31,1.962,1.962,0,0,1-1.777.846,2.093,2.093,0,0,1-1.439-.592,2.026,2.026,0,0,1-.621-1.354h5.7q.8-.042.761-.762a4.771,4.771,0,0,0-1.044-3.131,4.221,4.221,0,0,0-3.357-1.439m-24.6,2.341a1.774,1.774,0,0,1,.677,1.241H129.95a1.95,1.95,0,0,1,2-1.749,2.294,2.294,0,0,1,1.382.508m-1.382-2.341a4.375,4.375,0,0,0-3.272,1.41,4.837,4.837,0,0,0-1.157,3.159,4.981,4.981,0,0,0,1.213,3.272A4.358,4.358,0,0,0,131.981,72a5.323,5.323,0,0,0,2.6-.705,3.021,3.021,0,0,0,1.467-1.918.416.416,0,0,0-.395-.508h-1.354a.628.628,0,0,0-.536.31,1.962,1.962,0,0,1-1.777.846,2.165,2.165,0,0,1-1.467-.592,2,2,0,0,1-.592-1.354h5.7q.761-.042.761-.762a4.954,4.954,0,0,0-1.072-3.131,4.221,4.221,0,0,0-3.357-1.439m20.141-2.99h-1.016a.675.675,0,0,0-.705.677V71.126a.717.717,0,0,0,.705.705h1.016a.692.692,0,0,0,.677-.705V60.435a.652.652,0,0,0-.677-.677m-10.889,6.573-.959-.254c-.592-.085-.9-.31-.987-.733q.127-.889,1.354-.846a1.607,1.607,0,0,1,1.636.79.508.508,0,0,0,.564.282h1.128c.2,0,.338-.141.367-.395a2.166,2.166,0,0,0-1.044-1.693,5.128,5.128,0,0,0-5.331.028,2.432,2.432,0,0,0-1.016,2,2.213,2.213,0,0,0,.677,1.58,3.36,3.36,0,0,0,1.608.818l1.044.282.987.254c.592.085.9.339.987.733a.809.809,0,0,1-.48.733,2.51,2.51,0,0,1-1.072.2,1.845,1.845,0,0,1-1.721-.874.625.625,0,0,0-.677-.367h-1.128a.434.434,0,0,0-.423.423v.141a2.266,2.266,0,0,0,1.128,1.749,4.983,4.983,0,0,0,2.821.79,5.2,5.2,0,0,0,2.567-.592,2.521,2.521,0,0,0-.874-4.739Z" transform="translate(-92.503 -47.191)" fill="#fff"/>
    <path id="Path_737" data-name="Path 737" d="M161.033,128.294a1.682,1.682,0,0,1,.733,1.467c-.053,1.87-1.668,2.678-3.357,2.623a4.271,4.271,0,0,1-2.849-1.015,2.255,2.255,0,0,1-.592-1.185c-.057-.31.055-.451.367-.451h1.551a1.081,1.081,0,0,0,.451.987,1.785,1.785,0,0,0,1.1.282c.587.053,1.347-.277,1.326-.959-.017-.539-.818-.9-2.313-1.157a4.547,4.547,0,0,1-1.608-.593,1.572,1.572,0,0,1-.733-1.41c0-1.841,1.639-2.426,3.216-2.426a4.194,4.194,0,0,1,2.172.508,2.281,2.281,0,0,1,1.072,1.89h-1.382a.808.808,0,0,1-.635-.48.973.973,0,0,0-.183-.254,1.627,1.627,0,0,0-1.1-.282c-.48-.011-1.128.092-1.128.705,0,.368.25.606.705.733.523.146,1.049.282,1.58.4a4.416,4.416,0,0,1,1.608.62m-17.348-.677a1.616,1.616,0,0,1,1.721-1.608c.959-.021,1.5.564,1.636,1.608Zm1.777-3.16a3.716,3.716,0,0,0-2.793,1.128,3.964,3.964,0,0,0-1.072,2.849,4.015,4.015,0,0,0,1.044,2.849,3.6,3.6,0,0,0,2.821,1.128,3.463,3.463,0,0,0,2.765-1.128,3.106,3.106,0,0,0,.62-1.1c.04-.215,0-.31-.31-.31h-1.382a1.661,1.661,0,0,1-1.636.959c-1.155.063-1.777-.621-1.834-1.89h4.993a.422.422,0,0,0,.423-.451,4.8,4.8,0,0,0-1.016-2.99,3.2,3.2,0,0,0-2.624-1.044m-4.57.2H139.82v-1.3a.428.428,0,0,0-.451-.451h-1.185a.428.428,0,0,0-.451.451v1.3h-.79c-.283,0-.423.169-.451.451v.48c.028.282.168.451.451.451h.79v4.006c0,1.636.828,2.286,2.4,2.228l.762-.028a.457.457,0,0,0,.451-.48v-.733a.378.378,0,0,0-.423-.395h-.226a.845.845,0,0,1-.649-.2,1.821,1.821,0,0,1-.226-1.128v-3.272h1.072a.414.414,0,0,0,.451-.451v-.48a.414.414,0,0,0-.451-.451m-12.5-1.382h-1.3a.549.549,0,0,0-.564.423l-1.128,4.824-.113.451-.141-.451-1.185-4.824a.551.551,0,0,0-.564-.423h-2a.566.566,0,0,0-.564.423l-1.185,4.739-.141.423-.113-.423-1.1-4.739a.539.539,0,0,0-.536-.423h-1.354a.318.318,0,0,0-.339.423l2.144,8.068a.557.557,0,0,0,.564.423h1.41a.552.552,0,0,0,.564-.423l1.523-6.234.113-.423.141.423,1.551,6.234a.522.522,0,0,0,.536.423H126a.558.558,0,0,0,.564-.423l2.172-8.068a.317.317,0,0,0-.339-.423m25.98,1.185a2.326,2.326,0,0,0-1.693.564,2.211,2.211,0,0,0-.48.592,2.84,2.84,0,0,0-.254.451v-.959a.446.446,0,0,0-.451-.451h-1.072a.446.446,0,0,0-.451.451v6.629a.414.414,0,0,0,.451.451h1.185a.407.407,0,0,0,.423-.451V128.8a3.02,3.02,0,0,1,.48-1.721,1.811,1.811,0,0,1,1.58-.705,2.807,2.807,0,0,1,.31,0,.353.353,0,0,0,.423-.367c.019-.5,0-1,0-1.495a3.383,3.383,0,0,0-.451-.057m-20.508,4.372v.662c0,1.047-.683,1.421-1.664,1.51-.763.069-1.269-.249-1.269-.959,0-.682.508-1.044,1.213-1.1a4.033,4.033,0,0,0,1.721-.451Zm-2.454-.987a4.607,4.607,0,0,0-1.749.564,1.964,1.964,0,0,0-.818,1.721,2.317,2.317,0,0,0,2.567,2.285,3.486,3.486,0,0,0,2.539-.959c.034.376.144.683.593.733h1.664a2.292,2.292,0,0,1-.2-.733c-.019-.461-.079-.908-.056-1.382v-3.5a1.742,1.742,0,0,0-1.1-1.749,5.565,5.565,0,0,0-2.228-.367,4.96,4.96,0,0,0-2.37.508,2.331,2.331,0,0,0-1.157,2h1.608c.255,0,.418-.187.564-.423l.226-.367c.146-.238.536-.326,1.044-.339.823-.02,1.325.225,1.326,1.016,0,.4-.252.662-.733.733Z" transform="translate(-91.907 -97.335)" fill="#fff"/>
  </g>
</svg>
