<svg xmlns="http://www.w3.org/2000/svg" width="247.201" height="194.064" viewBox="0 0 247.201 194.064">
  <g id="quotation-sign" transform="translate(41.341 -15.877) rotate(14)" opacity="0.1">
    <path id="Path_42053" data-name="Path 42053" d="M56.281,78.048C67.434,38.16,94.949,9.2,121.7,9.2a36.752,36.752,0,0,1,6.385.557,4.241,4.241,0,0,1,3.359,5.327l-5.506,19.693a4.294,4.294,0,0,1-4.271,3.1l-.438-.008c-9.919,0-28.046,14.866-37.287,47.905-.365,1.311-.712,2.652-1.045,4.05a48.289,48.289,0,0,1,33.956-3.2,47.6,47.6,0,1,1-25.641,91.688c-16.672-4.66-29.207-18.5-35.3-38.966C50.414,120.888,50.552,98.544,56.281,78.048Z" transform="translate(-47.046 10.202)" fill="#fff"/>
    <path id="Path_42054" data-name="Path 42054" d="M69.821,9.206a36.719,36.719,0,0,1,6.381.552,4.244,4.244,0,0,1,3.359,5.327L74.054,34.779a4.266,4.266,0,0,1-4.271,3.1l-.433-.009c-9.919,0-28.048,14.866-37.29,47.905-.368,1.32-.714,2.66-1.045,4.05a48.291,48.291,0,0,1,33.956-3.2,47.6,47.6,0,1,1-25.647,91.688c-16.67-4.66-29.2-18.5-35.3-38.966C-1.469,120.885-1.333,98.54,4.4,78.041,15.558,38.157,43.069,9.206,69.821,9.206Z" transform="translate(109.669 -20.187)" fill="#fff"/>
  </g>
</svg>
