<svg xmlns="http://www.w3.org/2000/svg" width="100" height="61.729" viewBox="0 0 100 61.729">
  <g id="ic_respect" transform="translate(0 -97.972)">
    <path id="Path_43417" data-name="Path 43417" d="M.915,121.726l4.532,2.616-.829,1.436a4.115,4.115,0,0,0,7.128,4.115l.833-1.443,4.573,2.636a4.732,4.732,0,0,0,.29,4.158l1.239,2.146a4.73,4.73,0,0,0,3.385,2.319,4.714,4.714,0,0,0,.6,2.967l1.239,2.146a4.751,4.751,0,0,0,5.16,2.261,4.722,4.722,0,0,0,.62,1.989l1.239,2.146a4.752,4.752,0,0,0,5.913,2.022,4.722,4.722,0,0,0,.6,1.8l1.239,2.146a4.756,4.756,0,0,0,6.489,1.738l2.3-1.326a5.994,5.994,0,0,0,1.546-1.277l4.787,2.739a4.747,4.747,0,0,0,6.533-1.817l1.2-2.169a4.684,4.684,0,0,0,.548-1.681l.566.327a4.747,4.747,0,0,0,6.533-1.817l1.2-2.169a4.693,4.693,0,0,0,.579-2.032,4.76,4.76,0,0,0,4.845-2.319l1.239-2.146a4.723,4.723,0,0,0,.621-2.73,4.737,4.737,0,0,0,3.774-2.484l1.174-2.183a4.727,4.727,0,0,0-.229-4.9l4.57-2.645.725,1.255a1.832,1.832,0,0,0,2.5.669l8.918-5.148a1.832,1.832,0,0,0,.669-2.5L86.168,99.045a1.832,1.832,0,0,0-2.5-.67l-9.233,5.331a1.462,1.462,0,0,0-.721,1.089l-6.868,3.956a6.091,6.091,0,0,1-6.073,0l-6.2-3.58a9.142,9.142,0,0,0-9.117,0l-1.8,1.037a1.465,1.465,0,0,0,1.465,2.537l1.8-1.037a6.2,6.2,0,0,1,6.187,0l6.2,3.58a9.028,9.028,0,0,0,9,0l6.613-3.809L81.3,118.52a1.465,1.465,0,1,0,2.537-1.465L77.17,105.511l7.012-4.048,12.487,21.628-7.012,4.048-2.367-4.1a1.465,1.465,0,0,0-2.537,1.465l.728,1.261-5.551,3.213-21.12-12.194a7.234,7.234,0,0,0,.446-1.277,1.465,1.465,0,0,0-2.843-.706,4.3,4.3,0,0,1-.769,1.593l-.021.028a4.35,4.35,0,0,1-6.611.3,3.529,3.529,0,0,0-4.364-.629l-1.954,1.128a5.315,5.315,0,0,1-7.253-1.943l-.4-.7,4.058-2.343a1.465,1.465,0,1,0-1.465-2.537l-.654.378a9.5,9.5,0,0,1-4.094-1.249L26.073,104.9a4.116,4.116,0,0,0-6.976-4.019l-4.609-2.661a1.832,1.832,0,0,0-2.5.67L.245,119.227a1.832,1.832,0,0,0,.67,2.5Zm20.3,14.2-1.239-2.146a1.819,1.819,0,0,1,.666-2.486l5.1-2.942a3.059,3.059,0,0,1,3.059,5.3l-5.1,2.942a1.823,1.823,0,0,1-2.487-.666Zm5.224,7.432L25.2,141.211a1.819,1.819,0,0,1,.666-2.486l3.465-2a3.059,3.059,0,0,1,3.057,5.3l-3.463,2a1.819,1.819,0,0,1-2.487-.666Zm7.019,6.4-1.239-2.146a1.819,1.819,0,0,1,.666-2.486l3.229-1.864a3.059,3.059,0,0,1,3.059,5.3l-3.229,1.864a1.819,1.819,0,0,1-2.486-.666ZM46,155.064l-2.3,1.326a1.822,1.822,0,0,1-2.487-.666l-1.239-2.146a1.822,1.822,0,0,1,.666-2.487l2.3-1.326a3.059,3.059,0,1,1,3.059,5.3ZM33.261,112.228a2.851,2.851,0,0,0-.805,3.736l.446.773a8.248,8.248,0,0,0,11.255,3.015l1.954-1.128a.619.619,0,0,1,.759.091,7.306,7.306,0,0,0,5.321,2.312,7.226,7.226,0,0,0,4.872-1.869l22.269,12.857a1.812,1.812,0,0,1,.693,2.439l-1.174,2.183a1.819,1.819,0,0,1-2.513.714L71.2,134.383l-.047-.026-5.835-3.369a1.465,1.465,0,1,0-1.465,2.537l9.981,5.763a1.822,1.822,0,0,1,.666,2.486l-1.239,2.146a1.822,1.822,0,0,1-2.487.666l-9.98-5.762a1.465,1.465,0,1,0-1.465,2.537l7.8,4.5a1.829,1.829,0,0,1,.683,2.456l-1.2,2.169a1.819,1.819,0,0,1-2.5.7l-7.864-4.54a1.465,1.465,0,1,0-1.465,2.537l3.5,2.022a1.829,1.829,0,0,1,.683,2.456l-1.2,2.169a1.819,1.819,0,0,1-2.508.693L50.317,153.7a5.989,5.989,0,0,0-6.712-7.211,5.985,5.985,0,0,0-6.788-6.515,5.976,5.976,0,0,0-4.183-6.316,5.987,5.987,0,0,0-8.359-7.844c-4.084,2.358-5.116,2.953-5.2,3l-5.036-2.9,10.643-18.434,6.73,3.878a12.445,12.445,0,0,0,1.845.871ZM13.975,101.3l3.579,2.067-1.619,2.8a1.465,1.465,0,1,0,2.537,1.465l2.657-4.6a1.186,1.186,0,1,1,2.054,1.186L9.208,128.429a1.186,1.186,0,0,1-2.054-1.185l7.816-13.538a1.465,1.465,0,0,0-2.537-1.465l-5.522,9.565L3.332,119.74Z" transform="translate(0 0)" fill="#3d3d3d"/>
  </g>
</svg>
