<svg id="seniority" xmlns="http://www.w3.org/2000/svg" xmlns:xlink="http://www.w3.org/1999/xlink" width="120" height="37.439" viewBox="0 0 120 37.439">
  <defs>
    <clipPath id="clip-path">
      <rect id="Rectangle_18" data-name="Rectangle 18" width="120" height="37.439" fill="none"/>
    </clipPath>
  </defs>
  <g id="Group_14" data-name="Group 14" clip-path="url(#clip-path)">
    <path id="Path_738" data-name="Path 738" d="M22.849,10.088C21.134,4.929,16.4,1.583,8.78.137L8.691.12C8.626.106,8.566.1,8.514.087s-.1-.018-.136-.029h0l0,0A2.387,2.387,0,0,0,7.988.008L7.949,0c-.033,0-.064,0-.1,0A2.774,2.774,0,0,0,5.634,1.109c-.062.09-.169.22-.31.395C3.549,3.731-1.851,10.5.65,18.033c2.373,7.143,10.3,7.945,13.285,8.248.162.016.308.033.435.047l.074.009a3.928,3.928,0,0,0,.486.03,3.555,3.555,0,0,0,1.167-.192,3.326,3.326,0,0,0,.463-.209.167.167,0,0,0,.022-.013,3.4,3.4,0,0,0,.347-.21c.021-.015.043-.035.064-.05.1-.072.194-.144.286-.225.113-.1.223-.211.331-.33.066-.075.146-.159.234-.251l.124-.134c1.969-2.1,7.2-7.671,4.88-14.664M14.184,23.8c-2.545-.257-9.3-.942-11.169-6.554C1.351,12.24,4.082,7.409,6.036,4.68A20.315,20.315,0,0,0,6.95,8.091a20.78,20.78,0,0,0,3.527,5.831A18.641,18.641,0,0,1,13.651,19.1a13.838,13.838,0,0,1,.961,4.742l-.428-.045" transform="translate(0)"/>
    <path id="Path_739" data-name="Path 739" d="M210.6,44.676a4.609,4.609,0,0,0-3.179,1.212,1.279,1.279,0,0,0-.22-.618,1.33,1.33,0,0,0-1.119-.543,1.344,1.344,0,0,0-1.141.586,2.088,2.088,0,0,0-.237,1.257v9.22a2.274,2.274,0,0,0,.2,1.173,1.384,1.384,0,0,0,2.359,0,2.277,2.277,0,0,0,.2-1.171v-5.98a2.337,2.337,0,0,1,2.455-2.625c1.513,0,2.381.957,2.381,2.625v5.98a2.28,2.28,0,0,0,.2,1.174,1.386,1.386,0,0,0,2.36,0,2.259,2.259,0,0,0,.2-1.172V49.441a4.637,4.637,0,0,0-1.29-3.6,4.432,4.432,0,0,0-3.158-1.165" transform="translate(-150.116 -32.762)"/>
    <path id="Path_740" data-name="Path 740" d="M254.924,25.86a1.635,1.635,0,1,0,1.635,1.635,1.637,1.637,0,0,0-1.635-1.635" transform="translate(-185.745 -18.964)"/>
    <path id="Path_741" data-name="Path 741" d="M255.633,44.866a1.265,1.265,0,0,0-1.179.657,2.265,2.265,0,0,0-.2,1.173v9.233a2.276,2.276,0,0,0,.2,1.174,1.383,1.383,0,0,0,2.358,0,2.237,2.237,0,0,0,.2-1.171V46.7a2.259,2.259,0,0,0-.2-1.174,1.268,1.268,0,0,0-1.179-.656" transform="translate(-186.454 -32.902)"/>
    <path id="Path_742" data-name="Path 742" d="M279.411,44.676a5.126,5.126,0,0,0-3.809,1.511c-1.246,1.284-1.5,2.86-1.5,4.986s.25,3.7,1.5,4.984a5.553,5.553,0,0,0,7.621,0c1.243-1.3,1.5-2.867,1.5-4.984s-.253-3.689-1.5-4.986a5.126,5.126,0,0,0-3.809-1.511m-1.727,3.184a2.551,2.551,0,0,1,3.456,0c.723.735.822,2.027.822,3.314s-.1,2.59-.822,3.314a2.553,2.553,0,0,1-3.458,0c-.722-.723-.822-2.021-.822-3.313s.1-2.577.824-3.314" transform="translate(-201.01 -32.762)"/>
    <path id="Path_743" data-name="Path 743" d="M331.467,45.275a3.754,3.754,0,0,0-2.255-.6,4.25,4.25,0,0,0-3.066,1.267,1.278,1.278,0,0,0-.222-.674,1.411,1.411,0,0,0-2.258.043,2.067,2.067,0,0,0-.239,1.257v9.22a2.274,2.274,0,0,0,.2,1.173,1.384,1.384,0,0,0,2.359,0,2.248,2.248,0,0,0,.2-1.171V49.845a2.438,2.438,0,0,1,2.418-2.661,2.588,2.588,0,0,1,1.288.351,2.084,2.084,0,0,0,1.035.348,1.388,1.388,0,0,0,.947-.38,1.439,1.439,0,0,0,.4-1,1.5,1.5,0,0,0-.8-1.23" transform="translate(-237.181 -32.762)"/>
    <path id="Path_744" data-name="Path 744" d="M363.237,25.86a1.635,1.635,0,1,0,1.634,1.635,1.637,1.637,0,0,0-1.634-1.635" transform="translate(-265.175 -18.964)"/>
    <path id="Path_745" data-name="Path 745" d="M363.945,44.866a1.27,1.27,0,0,0-1.181.657,2.282,2.282,0,0,0-.2,1.173v9.233a2.267,2.267,0,0,0,.2,1.174,1.383,1.383,0,0,0,2.358,0,2.264,2.264,0,0,0,.2-1.171V46.7a2.261,2.261,0,0,0-.2-1.174,1.263,1.263,0,0,0-1.177-.656" transform="translate(-265.883 -32.902)"/>
    <path id="Path_746" data-name="Path 746" d="M386.643,45.682a2.157,2.157,0,0,0-.966-.188c-.78-.021-1.144-.436-1.144-1.31v-6.85h1.227a1.71,1.71,0,0,0,.933-.163,1.089,1.089,0,0,0,0-1.839,1.7,1.7,0,0,0-.93-.162h-1.227V33.342a2.286,2.286,0,0,0-.2-1.175,1.387,1.387,0,0,0-2.358,0,2.264,2.264,0,0,0-.2,1.174v1.827h-.453a1.71,1.71,0,0,0-.933.162,1.091,1.091,0,0,0,0,1.839,1.7,1.7,0,0,0,.933.163h.453v6.96a3.292,3.292,0,0,0,3.5,3.573h.247a2.34,2.34,0,0,0,1.114-.21,1.085,1.085,0,0,0,.57-.983,1.1,1.1,0,0,0-.567-.992" transform="translate(-278.586 -23.108)"/>
    <path id="Path_747" data-name="Path 747" d="M422.215,45.7a1.37,1.37,0,0,0-1.287-.834c-.834,0-1.1.581-1.33,1.289l-2.388,7.261-2.337-7.261c-.237-.707-.5-1.289-1.336-1.289a1.376,1.376,0,0,0-1.286.834,2.025,2.025,0,0,0,.136,1.281l3.475,10.1-.588,1.789c-.367,1.09-.932,1.241-1.492,1.241a1.3,1.3,0,0,0-.909.258,1.326,1.326,0,0,0-.033,1.923,1.849,1.849,0,0,0,1.238.327,3.438,3.438,0,0,0,2.532-.957,3.9,3.9,0,0,0,.939-1.594l4.529-13.087a1.98,1.98,0,0,0,.136-1.284" transform="translate(-302.275 -32.902)"/>
    <path id="Path_748" data-name="Path 748" d="M161.43,44.676c-3.384,0-5.405,2.429-5.405,6.5,0,5.37,3.119,6.5,5.735,6.5a6.086,6.086,0,0,0,3.322-.818c.869-.557,1.311-1.1,1.311-1.615a1.239,1.239,0,0,0-1.158-1.193,1.745,1.745,0,0,0-1.1.482,3.664,3.664,0,0,1-2.317.758c-1.882,0-3.023-1.217-3.067-3.262h6.49a1.338,1.338,0,0,0,1.574-1.563c-.076-3.512-2.2-5.783-5.39-5.783m-2.368,3.835a2.6,2.6,0,0,1,4.709,0,3.854,3.854,0,0,1,.325,1.519h-5.338a3.526,3.526,0,0,1,.3-1.519" transform="translate(-114.418 -32.762)"/>
    <path id="Path_749" data-name="Path 749" d="M109.9,33.56l-2.088-.32a3.212,3.212,0,0,1-1.853-.757,1.888,1.888,0,0,1-.6-1.525c0-1.622,1.139-2.589,3.044-2.589a5.157,5.157,0,0,1,3.028.841,2.472,2.472,0,0,0,1.133.4,1.14,1.14,0,0,0,.906-.424,1.366,1.366,0,0,0,.337-.891c0-.562-.394-1.063-1.135-1.449A7.816,7.816,0,0,0,108.5,25.8c-3.628,0-5.969,2.053-5.969,5.231a4.451,4.451,0,0,0,1.33,3.443,6.022,6.022,0,0,0,3.369,1.444l2.076.295a3.339,3.339,0,0,1,1.839.709,2.1,2.1,0,0,1,.643,1.722c0,1.661-1.24,2.577-3.484,2.577a5.782,5.782,0,0,1-3.65-1.1,2.032,2.032,0,0,0-1.2-.464,1.209,1.209,0,0,0-.863.356,1.415,1.415,0,0,0-.4.959c0,.746.438,1.141,1.3,1.655a8.546,8.546,0,0,0,4.766,1.2c3.9,0,6.413-2.064,6.413-5.257A4.775,4.775,0,0,0,113.2,34.89a5.838,5.838,0,0,0-3.3-1.331" transform="translate(-74.936 -18.919)"/>
    <path id="Path_750" data-name="Path 750" d="M103.009,115.664a.774.774,0,0,1-.177-.594V110.2a1.049,1.049,0,0,1,.087-.553.651.651,0,0,1,1.1,0,1.057,1.057,0,0,1,.086.553v4.515h2.2a.971.971,0,0,1,.495.073.582.582,0,0,1,0,.979.976.976,0,0,1-.495.073h-2.7a.775.775,0,0,1-.594-.177" transform="translate(-75.41 -80.188)"/>
    <path id="Path_751" data-name="Path 751" d="M123.187,108.445a.68.68,0,1,1-.68.68.68.68,0,0,1,.68-.68m.513,6.49a.608.608,0,0,1-1.025,0,1.061,1.061,0,0,1-.078-.526V111.36a1.06,1.06,0,0,1,.078-.526.609.609,0,0,1,1.025,0,1.071,1.071,0,0,1,.077.526v3.048a1.083,1.083,0,0,1-.077.526" transform="translate(-89.838 -79.526)"/>
    <path id="Path_752" data-name="Path 752" d="M131.37,116.757a.92.92,0,0,1-.068-.549.57.57,0,0,1,.548-.366c.368,0,.472.281.567.567l.758,2.3.757-2.3c.095-.286.2-.567.566-.567a.57.57,0,0,1,.549.366.92.92,0,0,1-.069.549l-1.106,3.252a1.009,1.009,0,0,1-.267.481.607.607,0,0,1-.431.15.614.614,0,0,1-.431-.15,1.007,1.007,0,0,1-.268-.481Z" transform="translate(-96.272 -84.951)"/>
    <path id="Path_753" data-name="Path 753" d="M149.442,118.554a.969.969,0,0,0,1.043,1.051,1.365,1.365,0,0,0,.817-.253.715.715,0,0,1,.44-.177.51.51,0,0,1,.476.494c0,.222-.19.426-.462.607a2.289,2.289,0,0,1-1.287.327c-1.121,0-2.186-.507-2.186-2.417,0-1.542.831-2.418,2.054-2.418a2.006,2.006,0,0,1,2.055,2.108.692.692,0,0,1-.159.526.661.661,0,0,1-.516.15h-2.273Zm1.687-1.319a.888.888,0,0,0-1.583,0,1.193,1.193,0,0,0-.1.513h1.791a1.269,1.269,0,0,0-.1-.513" transform="translate(-108.739 -84.897)"/>
    <path id="Path_754" data-name="Path 754" d="M177.569,118.554a.968.968,0,0,0,1.043,1.051,1.362,1.362,0,0,0,.817-.253.716.716,0,0,1,.44-.177.511.511,0,0,1,.476.494c0,.222-.19.426-.463.607a2.288,2.288,0,0,1-1.287.327c-1.12,0-2.186-.507-2.186-2.417,0-1.542.83-2.418,2.054-2.418a2.006,2.006,0,0,1,2.055,2.108.691.691,0,0,1-.159.526.662.662,0,0,1-.516.15h-2.273Zm1.687-1.319a.888.888,0,0,0-1.583,0,1.193,1.193,0,0,0-.1.513h1.791a1.264,1.264,0,0,0-.1-.513" transform="translate(-129.366 -84.897)"/>
    <path id="Path_755" data-name="Path 755" d="M194.646,116.757a.927.927,0,0,1-.069-.549.571.571,0,0,1,.549-.366c.368,0,.472.281.567.567l.757,2.3.757-2.3c.1-.286.2-.567.567-.567a.569.569,0,0,1,.548.366.915.915,0,0,1-.068.549l-1.106,3.252a1.012,1.012,0,0,1-.267.481.7.7,0,0,1-.862,0,1.009,1.009,0,0,1-.267-.481Z" transform="translate(-142.675 -84.951)"/>
    <path id="Path_756" data-name="Path 756" d="M212.723,118.554a.969.969,0,0,0,1.043,1.051,1.36,1.36,0,0,0,.816-.253.717.717,0,0,1,.44-.177.51.51,0,0,1,.476.494c0,.222-.19.426-.462.607a2.292,2.292,0,0,1-1.288.327c-1.12,0-2.186-.507-2.186-2.417,0-1.542.83-2.418,2.054-2.418a2.006,2.006,0,0,1,2.054,2.108.691.691,0,0,1-.159.526.663.663,0,0,1-.517.15h-2.271Zm1.686-1.319a.888.888,0,0,0-1.583,0,1.193,1.193,0,0,0-.1.513h1.792a1.265,1.265,0,0,0-.105-.513" transform="translate(-155.145 -84.897)"/>
    <path id="Path_757" data-name="Path 757" d="M233.749,115.771a1.381,1.381,0,0,1,.817.218.58.58,0,0,1,.122.925.557.557,0,0,1-.394.164.9.9,0,0,1-.4-.123.973.973,0,0,0-.448-.123.784.784,0,0,0-.785.87v2.078a1.078,1.078,0,0,1-.077.526.608.608,0,0,1-1.025,0,1.064,1.064,0,0,1-.078-.526v-3.188a.945.945,0,0,1,.087-.531.567.567,0,0,1,.507-.272.529.529,0,0,1,.376.135.547.547,0,0,1,.177.357,1.535,1.535,0,0,1,1.124-.51" transform="translate(-169.75 -84.899)"/>
    <path id="Path_758" data-name="Path 758" d="M247.209,122.076a.772.772,0,0,1-.471-.6.5.5,0,0,1,.471-.5.794.794,0,0,1,.441.15,1.292,1.292,0,0,0,.7.217.89.89,0,0,0,.949-.98v-.481a1.386,1.386,0,0,1-1.125.472,1.574,1.574,0,0,1-1.125-.418,2.46,2.46,0,0,1-.481-1.877,2.434,2.434,0,0,1,.481-1.868,1.593,1.593,0,0,1,1.133-.418,1.372,1.372,0,0,1,1.148.5.586.586,0,0,1,.176-.344.531.531,0,0,1,.377-.136.57.57,0,0,1,.507.272.944.944,0,0,1,.087.531v3.786a1.919,1.919,0,0,1-2.077,1.959,2.309,2.309,0,0,1-1.189-.262m1.307-5.234c-.7,0-.772.594-.772,1.216s.073,1.224.772,1.224.779-.6.779-1.224-.082-1.216-.779-1.216" transform="translate(-180.815 -84.899)"/>
    <path id="Path_759" data-name="Path 759" d="M268.584,115.771a1.381,1.381,0,0,1,.817.218.58.58,0,0,1,.122.925.563.563,0,0,1-.4.164.893.893,0,0,1-.4-.123.976.976,0,0,0-.449-.123.783.783,0,0,0-.784.87v2.078a1.07,1.07,0,0,1-.078.526.608.608,0,0,1-1.025,0,1.061,1.061,0,0,1-.078-.526v-3.188a.954.954,0,0,1,.086-.531.57.57,0,0,1,.508-.272.528.528,0,0,1,.376.135.552.552,0,0,1,.177.357,1.537,1.537,0,0,1,1.125-.51" transform="translate(-195.295 -84.899)"/>
    <path id="Path_760" data-name="Path 760" d="M282.188,118.554a.969.969,0,0,0,1.044,1.051,1.362,1.362,0,0,0,.816-.253.717.717,0,0,1,.44-.177.511.511,0,0,1,.477.494c0,.222-.191.426-.462.607a2.29,2.29,0,0,1-1.288.327c-1.12,0-2.186-.507-2.186-2.417,0-1.542.83-2.418,2.055-2.418a2.006,2.006,0,0,1,2.054,2.108.692.692,0,0,1-.16.526.662.662,0,0,1-.516.15h-2.273Zm1.687-1.319a.887.887,0,0,0-1.582,0,1.177,1.177,0,0,0-.1.513h1.791a1.251,1.251,0,0,0-.105-.513" transform="translate(-206.087 -84.897)"/>
    <path id="Path_761" data-name="Path 761" d="M300.9,118.554a.969.969,0,0,0,1.043,1.051,1.367,1.367,0,0,0,.817-.253.712.712,0,0,1,.44-.177.511.511,0,0,1,.476.494c0,.222-.191.426-.462.607a2.291,2.291,0,0,1-1.288.327c-1.12,0-2.185-.507-2.185-2.417,0-1.542.829-2.418,2.054-2.418a2.006,2.006,0,0,1,2.054,2.108.693.693,0,0,1-.16.526.661.661,0,0,1-.515.15H300.9Zm1.687-1.319a.888.888,0,0,0-1.583,0,1.181,1.181,0,0,0-.1.513h1.791a1.264,1.264,0,0,0-.105-.513" transform="translate(-219.81 -84.897)"/>
    <path id="Path_762" data-name="Path 762" d="M321.3,115.771a1.533,1.533,0,0,1,1.116.418,1.752,1.752,0,0,1,.48,1.342v2.249a1.087,1.087,0,0,1-.076.526.608.608,0,0,1-1.025,0,1.069,1.069,0,0,1-.077-.526V117.7a.787.787,0,1,0-1.569,0v2.086a1.087,1.087,0,0,1-.076.526.609.609,0,0,1-1.026,0,1.071,1.071,0,0,1-.076-.526v-3.188a.959.959,0,0,1,.085-.531.572.572,0,0,1,.508-.272.528.528,0,0,1,.376.136.6.6,0,0,1,.177.344,1.608,1.608,0,0,1,1.184-.5" transform="translate(-233.913 -84.899)"/>
  </g>
</svg>
