<svg xmlns="http://www.w3.org/2000/svg" width="194.372" height="40" viewBox="0 0 194.372 40">
  <path id="shopify-plus-vector-logo" d="M171.875,275.37a7.745,7.745,0,0,0-5.964,2.5l.292-1.459a.682.682,0,0,0-.681-.843,1.071,1.071,0,0,0-1,.843l-4.279,22.2a.682.682,0,0,0,.681.843,1.071,1.071,0,0,0,1-.843l1.588-8.266c.583,1.07,1.945,2.5,4.992,2.5a8.461,8.461,0,0,0,5.932-2.172,11.736,11.736,0,0,0,3.274-6.613c.551-2.885.324-5.089-.713-6.58-1-1.394-2.723-2.107-5.122-2.107ZM168.8,291.318c-3.63,0-5.057-2.5-4.149-7.229.908-4.765,3.209-7.2,6.807-7.2,3.955,0,5.413,2.366,4.473,7.2-.94,4.959-3.209,7.229-7.131,7.229Zm40-8.136c-2.139-.81-4.182-1.556-3.793-3.566.194-1,1-2.69,4.311-2.69a4.578,4.578,0,0,1,4.019,1.783.613.613,0,0,0,.486.227,1.04,1.04,0,0,0,.94-.778.808.808,0,0,0-.1-.551v-.032c-1.037-1.459-2.723-2.2-5.057-2.2-3.371,0-5.8,1.621-6.288,4.246-.616,3.144,2.172,4.182,4.635,5.122,2.107.81,4.117,1.556,3.76,3.468-.519,2.723-3.371,3.112-5.024,3.112-2.269,0-3.663-.616-4.7-2.075h0a.583.583,0,0,0-.486-.227,1.04,1.04,0,0,0-.94.778.808.808,0,0,0,.1.551c.681,1.264,2.723,2.561,5.737,2.561,3.825,0,6.451-1.75,7-4.668.583-3.144-2.172-4.182-4.6-5.057Zm-5.122-12.22h-1.783l.357-1.783a.682.682,0,0,0-.681-.843,1.1,1.1,0,0,0-1,.843l-.357,1.783h-1.783a1.1,1.1,0,0,0-1,.843.682.682,0,0,0,.681.843h1.783l-.357,1.783a.682.682,0,0,0,.681.843,1.1,1.1,0,0,0,1-.843l.357-1.783h1.783a1.1,1.1,0,0,0,1-.843.7.7,0,0,0-.519-.843C203.8,270.994,203.739,270.962,203.674,270.962ZM61.5,288.206a8.8,8.8,0,0,0,3.922,1.037c1.361,0,2.075-.746,2.075-1.621s-.519-1.459-1.977-2.3c-1.815-1.037-3.177-2.5-3.177-4.408,0-3.371,2.885-5.77,7.1-5.77a8.558,8.558,0,0,1,4.052.81l-1.1,3.4a7.26,7.26,0,0,0-2.982-.648c-1.361,0-2.237.616-2.237,1.588,0,.778.616,1.329,1.848,1.977,1.88,1.07,3.436,2.528,3.436,4.6,0,3.825-3.112,6-7.423,5.964a9.237,9.237,0,0,1-4.733-1.2C60.335,291.642,61.5,288.206,61.5,288.206Zm11.929,4.506L78.1,268.336h4.8l-1.848,9.433.065-.065a6.576,6.576,0,0,1,5.089-2.593c2.5,0,3.922,1.621,3.922,4.311a17.637,17.637,0,0,1-.357,3.241l-1.88,10.016h-4.8l1.815-9.724a12.3,12.3,0,0,0,.194-2.172c0-1.037-.421-1.815-1.491-1.815-1.524,0-3.177,2.042-3.793,5.219l-1.588,8.493-4.8.032ZM107.5,281.821c0,5.964-3.825,11.021-9.5,11.021-4.311,0-6.613-2.982-6.613-6.71,0-5.8,3.825-11.021,9.595-11.021,4.506,0,6.515,3.274,6.515,6.71Zm-11.183,4.214c0,1.75.681,3.144,2.334,3.144,2.528,0,3.955-4.538,3.955-7.488,0-1.426-.551-2.885-2.269-2.885C97.742,278.774,96.316,283.279,96.316,286.035Zm10.049,13.452,3.339-17.569c.389-1.977.778-4.538.972-6.353h4.246l-.292,2.723h.065a6.555,6.555,0,0,1,5.089-3.015c3.5,0,4.927,2.82,4.927,6.029,0,5.835-3.7,11.6-9.335,11.6a4.842,4.842,0,0,1-2.82-.648h-.1l-1.329,7.229Zm6.84-10.956a2.916,2.916,0,0,0,1.977.681c2.69,0,4.538-4.408,4.538-7.52,0-1.3-.454-2.658-1.912-2.658-1.686,0-3.241,1.977-3.793,4.992Zm11.669,4.182,3.241-17.147h4.83l-3.274,17.147Zm6.224-18.93a2.382,2.382,0,0,1-2.269-2.593,2.845,2.845,0,0,1,2.755-2.885,2.385,2.385,0,0,1,2.4,2.528,2.824,2.824,0,0,1-2.82,2.917C131.162,273.782,131.1,273.782,131.1,273.782Zm2.755,18.93,2.528-13.549h-2.237l.681-3.6h2.237l.13-.875a9.048,9.048,0,0,1,2.788-5.446,7.208,7.208,0,0,1,4.7-1.621,6.386,6.386,0,0,1,2.593.421l-.94,3.76a4.849,4.849,0,0,0-1.523-.259c-1.588,0-2.561,1.523-2.853,3.177l-.162.875h3.339l-.648,3.6h-3.306l-2.528,13.549-4.8-.032Zm17.277-17.147.778,7.682c.162,1.361.292,2.69.421,4.052h.065c.389-.908.746-2.237,1.426-4.084l2.917-7.65h5.024l-5.867,12.545c-2.075,4.311-4.117,7.455-6.288,9.5a10.955,10.955,0,0,1-4.7,2.593l-1.329-4.084a11.226,11.226,0,0,0,2.723-1.361,8.85,8.85,0,0,0,2.626-2.885.973.973,0,0,0,.1-.746l-2.885-15.592C146.073,275.565,151.129,275.565,151.129,275.565Zm48.622,1.621a1.1,1.1,0,0,0-1,.843l-1.621,8.428c-.875,4.279-3.5,4.862-6,4.862-4.441,0-4.57-2.528-4.084-5.024l1.912-9.887a.682.682,0,0,0-.681-.843,1.1,1.1,0,0,0-1,.843l-1.912,9.887c-.389,2.01-.259,3.468.421,4.538.843,1.329,2.528,2.01,5.057,2.01a8.016,8.016,0,0,0,5.835-2.01,8.528,8.528,0,0,0,2.172-4.538l1.588-8.3a.669.669,0,0,0-.681-.81Zm-15.332-8.817a1.071,1.071,0,0,0-1,.843L179.071,291.8a.682.682,0,0,0,.681.843,1.1,1.1,0,0,0,1-.843l4.344-22.593A.682.682,0,0,0,184.419,268.369ZM43.9,264.8l-1.167.357a7.335,7.335,0,0,0-.551-1.394,3.952,3.952,0,0,0-3.5-2.431h0a.9.9,0,0,0-.292.032c-.032-.065-.1-.1-.13-.162a3.2,3.2,0,0,0-2.431-1c-1.912.065-3.793,1.426-5.316,3.857a15.31,15.31,0,0,0-2.139,5.543l-3.728,1.167c-1.1.357-1.135.389-1.264,1.426-.1.778-2.982,23.047-2.982,23.047l23.89,4.117V264.771a1.225,1.225,0,0,0-.389.032Zm-5.511,1.718-4.019,1.264a9.567,9.567,0,0,1,2.042-3.955,4.028,4.028,0,0,1,1.361-1A9.331,9.331,0,0,1,38.39,266.521ZM35.8,261.5a1.983,1.983,0,0,1,1.135.292,5.524,5.524,0,0,0-1.459,1.135,11.027,11.027,0,0,0-2.5,5.251l-3.339,1.037c.681-3.047,3.209-7.618,6.159-7.715Zm-3.7,17.374c.13,2.042,5.478,2.464,5.77,7.229.227,3.76-1.977,6.321-5.186,6.515a7.712,7.712,0,0,1-5.964-2.01l.81-3.468s2.139,1.621,3.825,1.491a1.484,1.484,0,0,0,1.459-1.621c-.162-2.658-4.506-2.5-4.8-6.84-.227-3.663,2.172-7.391,7.488-7.715a6.5,6.5,0,0,1,3.079.389l-1.2,4.538a6.946,6.946,0,0,0-2.95-.519C32.1,277.023,32.069,278.514,32.1,278.871Zm7.553-12.739a9.976,9.976,0,0,0-.583-3.468c1.426.259,2.139,1.912,2.464,2.885C41.5,265.548,39.654,266.132,39.654,266.132Zm5.316,33.16,9.919-2.464s-4.279-28.849-4.279-29.044a.415.415,0,0,0-.357-.324c-.13,0-2.917-.065-2.917-.065s-1.686-1.653-2.334-2.269v34.165Z" transform="translate(-20.4 -260.2)"/>
</svg>
