<svg id="Layer_1" data-name="Layer 1" xmlns="http://www.w3.org/2000/svg" viewBox="0 0 793 195"><title>sj-master-logo</title><path d="M10.16,115.9c-2-1-2.16-1.58-2.16-5.47,0-7.2.58-13,.72-15.26.14-1.58.43-2.3,1.15-2.3s1,.43,1,1.58a25.36,25.36,0,0,0,.43,5.33c2.16,10.66,11.66,14.69,21.31,14.69,13.82,0,20.59-9.94,20.59-19.15,0-9.94-4.18-15.7-16.56-25.92l-6.48-5.33C14.91,51.54,11.46,42.61,11.46,32.82,11.46,17.41,23,6.9,41.27,6.9A55.85,55.85,0,0,1,54.66,8.34a23.54,23.54,0,0,0,5,.72c1.15,0,1.44.29,1.44,1s-.58,5.47-.58,15.26c0,2.3-.29,3.31-1,3.31s-1-.72-1.15-1.87a25.29,25.29,0,0,0-1.87-7.2c-.86-1.58-4.75-7.63-18-7.63-9.94,0-17.71,6.19-17.71,16.7,0,8.21,3.74,13.39,17.57,24.19l4,3.17c17,13.39,21,22.32,21,33.84,0,5.9-2.3,16.85-12.24,23.9-6.19,4.32-14,6-21.74,6C22.69,119.79,16.07,118.79,10.16,115.9Z"/><path d="M104.17,54.88c1-2.83,1.37-3.35,1.89-3.35s.86.43,1.89,3.09c1.29,3.26,14.76,38.7,20,51.74,3.09,7.64,5.58,9,7.38,9.52a11.06,11.06,0,0,0,3.43.52c.51,0,.86.08.86.51s-.77.69-1.72.69c-1.29,0-7.55,0-13.47-.17-1.63-.09-2.57-.09-2.57-.6,0-.34.26-.51.6-.6.51-.17,1-.94.51-2.32l-8-21.11a.75.75,0,0,0-.77-.51H95.76a.9.9,0,0,0-.86.69l-5.15,15.19a18.11,18.11,0,0,0-1.2,5.75c0,1.72,1.8,2.49,3.26,2.49h.86c.6,0,.86.17.86.51,0,.51-.51.69-1.29.69-2.06,0-5.75-.26-6.69-.26s-5.66.26-9.7.26c-1.12,0-1.63-.17-1.63-.69,0-.34.34-.51.77-.51.6,0,1.8-.09,2.49-.17,3.95-.51,5.66-3.78,7.21-8.07ZM113.1,89.2c.43,0,.43-.26.34-.6l-8.15-23.17q-.64-1.93-1.29,0L96.45,88.6c-.17.43,0,.6.26.6Z"/><path d="M218.28,106.53c.34,3.09.94,7.89,4.63,9.09a18.6,18.6,0,0,0,5.58.77c.43,0,.69.08.69.43,0,.51-.77.77-1.8.77-1.89,0-11.15-.26-14.33-.52-2-.17-2.4-.43-2.4-.86s.17-.51.6-.6.51-1.54.34-3.09l-4.12-44.27h-.26l-21,44.62c-1.8,3.77-2.06,4.55-2.83,4.55-.6,0-1-.86-2.66-3.95-2.23-4.2-9.61-19-10-19.91-.77-1.54-10.38-22.14-11.33-24.45H159l-3.43,39.81c-.09,1.37-.09,2.92-.09,4.38a2.75,2.75,0,0,0,2.23,2.66,15.79,15.79,0,0,0,3.26.43c.34,0,.69.17.69.43,0,.6-.51.77-1.54.77-3.17,0-7.29-.26-8-.26s-4.89.26-7.21.26c-.86,0-1.46-.17-1.46-.77,0-.26.43-.43.86-.43a11,11,0,0,0,2.57-.26c2.83-.51,3.09-3.86,3.43-7.12l6.18-55.94c.09-.94.43-1.54.94-1.54s.86.34,1.29,1.29l26.25,54,25.23-53.88c.34-.77.69-1.37,1.29-1.37s.86.69,1,2.32Z"/><path d="M264.95,54.88c1-2.83,1.37-3.35,1.89-3.35s.86.43,1.89,3.09c1.29,3.26,14.76,38.7,20,51.74,3.09,7.64,5.58,9,7.38,9.52a11.06,11.06,0,0,0,3.43.52c.51,0,.86.08.86.51s-.77.69-1.72.69c-1.29,0-7.55,0-13.47-.17-1.63-.09-2.57-.09-2.57-.6,0-.34.26-.51.6-.6.51-.17,1-.94.51-2.32l-8-21.11a.75.75,0,0,0-.77-.51H256.54a.9.9,0,0,0-.86.69l-5.15,15.19a18.11,18.11,0,0,0-1.2,5.75c0,1.72,1.8,2.49,3.26,2.49h.86c.6,0,.86.17.86.51,0,.51-.51.69-1.29.69-2.06,0-5.75-.26-6.69-.26s-5.66.26-9.7.26c-1.12,0-1.63-.17-1.63-.69,0-.34.34-.51.77-.51.6,0,1.8-.09,2.49-.17,3.95-.51,5.66-3.78,7.21-8.07Zm8.92,34.32c.43,0,.43-.26.34-.6l-8.15-23.17q-.64-1.93-1.29,0L257.23,88.6c-.17.43,0,.6.26.6Z"/><path d="M319,77.62c0-13.38,0-15.79-.17-18.53-.17-2.92-.86-4.29-3.69-4.89a16.07,16.07,0,0,0-2.92-.26c-.34,0-.69-.17-.69-.51,0-.52.43-.69,1.37-.69,3.86,0,9.27.26,9.7.26.94,0,7.46-.26,10.12-.26,5.41,0,11.15.51,15.7,3.77a15,15,0,0,1,5.92,11.67c0,6.35-2.66,12.7-10.38,19.82,7,9,12.87,16.65,17.85,22,4.63,4.89,8.32,5.83,10.47,6.18a20.55,20.55,0,0,0,3.35.26c.43,0,.77.26.77.51,0,.51-.52.69-2.06.69h-6.09c-4.8,0-6.95-.43-9.18-1.63-3.69-2-6.69-6.18-11.58-12.61-3.6-4.72-7.64-10.47-9.35-12.7a1.38,1.38,0,0,0-1.12-.51L326.46,90c-.43,0-.6.26-.6.69v2.06c0,8.24,0,15,.43,18.62.26,2.49.77,4.38,3.35,4.72a37.37,37.37,0,0,0,3.86.34c.52,0,.69.26.69.51,0,.43-.43.69-1.37.69-4.72,0-10.12-.26-10.55-.26-.09,0-5.49.26-8.06.26-.94,0-1.37-.17-1.37-.69,0-.26.17-.51.69-.51a13.23,13.23,0,0,0,2.57-.34c1.72-.34,2.14-2.23,2.49-4.72.43-3.6.43-10.38.43-18.62Zm6.86,7.46a1.12,1.12,0,0,0,.6,1c1.29.77,5.23,1.37,9,1.37a11.11,11.11,0,0,0,6.44-1.63c3-2.06,5.23-6.69,5.23-13.21,0-10.73-5.66-17.16-14.84-17.16a25.91,25.91,0,0,0-5.75.51,1,1,0,0,0-.69,1Z"/><path d="M402.82,54.88c1-2.83,1.37-3.35,1.89-3.35s.86.43,1.89,3.09c1.29,3.26,14.76,38.7,20,51.74,3.09,7.64,5.58,9,7.38,9.52a11.06,11.06,0,0,0,3.43.52c.51,0,.86.08.86.51s-.77.69-1.72.69c-1.29,0-7.55,0-13.47-.17-1.63-.09-2.57-.09-2.57-.6,0-.34.26-.51.6-.6.51-.17,1-.94.51-2.32l-8-21.11a.75.75,0,0,0-.77-.51H394.41a.9.9,0,0,0-.86.69l-5.15,15.19a18.11,18.11,0,0,0-1.2,5.75c0,1.72,1.8,2.49,3.26,2.49h.86c.6,0,.86.17.86.51,0,.51-.51.69-1.29.69-2.06,0-5.75-.26-6.69-.26s-5.66.26-9.7.26c-1.12,0-1.63-.17-1.63-.69,0-.34.34-.51.77-.51.6,0,1.8-.09,2.49-.17,3.95-.51,5.66-3.78,7.21-8.07Zm8.92,34.32c.43,0,.43-.26.34-.6l-8.15-23.17q-.64-1.93-1.29,0L395.1,88.6c-.17.43,0,.6.26.6Z"/><path d="M498.31,98.21c0,13.9,0,19.22-2.57,25.31-1.8,4.29-5.58,8.32-12.53,13.13a34.89,34.89,0,0,1-3.35,2.15,1.24,1.24,0,0,1-.6.17.57.57,0,0,1-.6-.52c0-.51.43-.77,1.2-1.29a16.83,16.83,0,0,0,3-2.4c5.58-5.66,8.24-10.21,8.24-32.35V77.62c0-13.38,0-15.79-.17-18.53-.17-2.92-.86-4.29-3.69-4.89a16.07,16.07,0,0,0-2.92-.26c-.34,0-.69-.17-.69-.51,0-.52.43-.69,1.37-.69,3.86,0,9.27.26,9.7.26s5.83-.26,8.41-.26c.94,0,1.37.17,1.37.69,0,.34-.34.51-.69.51a12.78,12.78,0,0,0-2.15.26c-2.32.43-3,1.89-3.17,4.89-.17,2.75-.17,5.15-.17,18.53Z"/><path d="M545.32,54.88c1-2.83,1.37-3.35,1.89-3.35s.86.43,1.89,3.09c1.29,3.26,14.76,38.7,20,51.74,3.09,7.64,5.58,9,7.38,9.52a11.06,11.06,0,0,0,3.43.52c.51,0,.86.08.86.51s-.77.69-1.72.69c-1.29,0-7.55,0-13.47-.17-1.63-.09-2.57-.09-2.57-.6,0-.34.26-.51.6-.6.51-.17,1-.94.51-2.32l-8-21.11a.75.75,0,0,0-.77-.51H536.91a.9.9,0,0,0-.86.69l-5.15,15.19a18.11,18.11,0,0,0-1.2,5.75c0,1.72,1.8,2.49,3.26,2.49h.86c.6,0,.86.17.86.51,0,.51-.51.69-1.29.69-2.06,0-5.75-.26-6.69-.26s-5.66.26-9.7.26c-1.12,0-1.63-.17-1.63-.69,0-.34.34-.51.77-.51.6,0,1.8-.09,2.49-.17,3.95-.51,5.66-3.78,7.21-8.07Zm8.92,34.32c.43,0,.43-.26.34-.6l-8.15-23.17q-.64-1.93-1.29,0L537.6,88.6c-.17.43,0,.6.26.6Z"/><path d="M665.35,106.53c.34,3.09.94,7.89,4.63,9.09a18.6,18.6,0,0,0,5.58.77c.43,0,.69.08.69.43,0,.51-.77.77-1.8.77-1.89,0-11.15-.26-14.33-.52-2-.17-2.4-.43-2.4-.86s.17-.51.6-.6.51-1.54.34-3.09l-4.12-44.27h-.26l-21,44.62c-1.8,3.77-2.06,4.55-2.83,4.55-.6,0-1-.86-2.66-3.95-2.23-4.2-9.61-19-10-19.91C617,92,607.35,71.44,606.41,69.13h-.34l-3.43,39.81c-.09,1.37-.09,2.92-.09,4.38a2.75,2.75,0,0,0,2.23,2.66,15.8,15.8,0,0,0,3.26.43c.34,0,.69.17.69.43,0,.6-.51.77-1.54.77-3.17,0-7.29-.26-8-.26s-4.89.26-7.21.26c-.86,0-1.46-.17-1.46-.77,0-.26.43-.43.86-.43a11,11,0,0,0,2.57-.26c2.83-.51,3.09-3.86,3.43-7.12l6.18-55.94c.09-.94.43-1.54.94-1.54s.86.34,1.29,1.29l26.25,54,25.22-53.88c.34-.77.69-1.37,1.29-1.37s.86.69,1,2.32Z"/><path d="M697.95,77.62c0-13.38,0-15.79-.17-18.53-.17-2.92-.86-4.29-3.69-4.89a16.06,16.06,0,0,0-2.92-.26c-.34,0-.69-.17-.69-.51,0-.52.43-.69,1.37-.69,2,0,4.29,0,6.18.09l3.52.17c.6,0,17.67,0,19.65-.09a22.88,22.88,0,0,0,3.69-.43c.43-.09.77-.43,1.2-.43.26,0,.34.34.34.77,0,.6-.43,1.63-.69,4-.08.86-.26,4.63-.43,5.66-.09.43-.26.94-.6.94-.51,0-.69-.43-.69-1.12a9.22,9.22,0,0,0-.51-3.09c-.6-1.37-1.46-2.4-6.09-2.92-1.46-.17-10.81-.26-11.75-.26-.34,0-.51.26-.51.86V80.62c0,.6.09.86.51.86,1.12,0,11.67,0,13.64-.17s3.26-.34,4-1.2c.6-.69.94-1.12,1.29-1.12s.43.17.43.69-.43,2-.69,4.81C724.2,86.2,724,89.37,724,90s0,1.63-.6,1.63c-.43,0-.6-.34-.6-.77a8.78,8.78,0,0,0-.34-2.83c-.34-1.2-1.12-2.66-4.46-3-2.32-.26-10.81-.43-12.27-.43a.54.54,0,0,0-.6.6v7.55c0,2.92-.09,12.87,0,14.67.26,5.92,1.54,7,10,7,2.23,0,6,0,8.24-.94s3.26-2.66,3.86-6.18c.17-.94.34-1.29.77-1.29s.51.69.51,1.29-.69,6.52-1.12,8.32c-.6,2.23-1.29,2.23-4.63,2.23-6.43,0-11.15-.17-14.5-.26s-5.41-.26-6.69-.26c-.17,0-1.63,0-3.43.09s-3.69.17-5,.17c-.94,0-1.37-.17-1.37-.69,0-.26.17-.51.69-.51a13.23,13.23,0,0,0,2.57-.34c1.72-.34,2.14-2.23,2.49-4.72.43-3.6.43-10.38.43-18.62Z"/><path d="M751.14,116.49c-1.2-.6-1.29-.94-1.29-3.26,0-4.29.34-7.72.43-9.09.09-.94.26-1.37.69-1.37s.6.26.6.94a15.08,15.08,0,0,0,.26,3.17c1.29,6.35,6.95,8.75,12.7,8.75,8.24,0,12.27-5.92,12.27-11.41,0-5.92-2.49-9.35-9.87-15.44l-3.86-3.17C754,78.13,751.91,72.81,751.91,67c0-9.18,6.86-15.44,17.76-15.44a33.29,33.29,0,0,1,8,.86,14,14,0,0,0,3,.43c.69,0,.86.17.86.6s-.34,3.26-.34,9.09c0,1.37-.17,2-.6,2s-.6-.43-.69-1.12a15.08,15.08,0,0,0-1.12-4.29c-.51-.94-2.83-4.55-10.73-4.55-5.92,0-10.55,3.69-10.55,10,0,4.89,2.23,8,10.47,14.41l2.4,1.89c10.13,8,12.53,13.3,12.53,20.16a17.78,17.78,0,0,1-7.29,14.24,22.57,22.57,0,0,1-13,3.6A26,26,0,0,1,751.14,116.49Z"/><path d="M9.55,171.79c0-4.46,0-5.26-.06-6.18s-.29-1.43-1.23-1.63a5.31,5.31,0,0,0-1-.09c-.11,0-.23-.06-.23-.17s.14-.23.46-.23c.66,0,1.43,0,2.06,0l1.17.06c.57,0,6.38,0,7,0a6.38,6.38,0,0,0,1.26-.11c.17-.06.29-.17.4-.17s.17.11.17.26-.14.54-.23,1.34c0,.29-.09,1.54-.14,1.89,0,.14-.09.31-.23.31s-.2-.14-.2-.34a3.08,3.08,0,0,0-.26-1.09,2.18,2.18,0,0,0-1.94-.92l-4.4-.09c-.17,0-.26.09-.26.32v7.89c0,.17,0,.26.2.26l3.66,0c.49,0,.89,0,1.29,0,.69-.06,1.06-.14,1.32-.51.11-.14.2-.29.31-.29s.14.09.14.23-.14.66-.23,1.6c-.06.57-.11,1.72-.11,1.92s0,.54-.2.54-.2-.11-.2-.26a4.81,4.81,0,0,0-.17-1,1.73,1.73,0,0,0-1.49-1c-.71-.09-3.83-.09-4.32-.09-.14,0-.2.06-.2.26v2.43c0,2.75,0,5,.14,6.21.09.83.26,1.46,1.12,1.57a12.62,12.62,0,0,0,1.29.11c.17,0,.23.09.23.17s-.14.23-.46.23c-1.57,0-3.37-.09-3.52-.09s-1.94.09-2.8.09c-.31,0-.46-.06-.46-.23s.06-.17.23-.17a4.46,4.46,0,0,0,.86-.11c.57-.11.71-.74.83-1.57.14-1.2.14-3.46.14-6.21Z"/><path d="M57.37,163.1c6.43,0,11.24,4.06,11.24,10.72,0,6.41-4.52,11.7-11.41,11.7-7.83,0-11.09-6.09-11.09-11.24A11.07,11.07,0,0,1,57.37,163.1Zm.6,21.33c2.57,0,7.89-1.49,7.89-9.81,0-6.86-4.17-10.55-8.69-10.55-4.78,0-8.35,3.15-8.35,9.41C48.82,180.14,52.82,184.43,58,184.43Z"/><path d="M97.55,171.79c0-4.46,0-5.26-.06-6.18s-.29-1.43-1.23-1.63a5.31,5.31,0,0,0-1-.09c-.11,0-.23-.06-.23-.17s.14-.23.46-.23c1.29,0,3.09.09,3.23.09.31,0,2.49-.09,3.37-.09a8.8,8.8,0,0,1,5.23,1.26,5,5,0,0,1,2,3.89c0,2.12-.89,4.23-3.46,6.61,2.34,3,4.29,5.55,5.95,7.32a5.91,5.91,0,0,0,3.49,2.06,6.85,6.85,0,0,0,1.12.09c.14,0,.26.09.26.17s-.17.23-.69.23h-2a5.83,5.83,0,0,1-3.06-.54c-1.23-.66-2.23-2.06-3.86-4.2-1.2-1.57-2.54-3.49-3.12-4.23a.46.46,0,0,0-.37-.17l-3.52-.06c-.14,0-.2.09-.2.23v.69c0,2.75,0,5,.14,6.21.09.83.26,1.46,1.12,1.57a12.62,12.62,0,0,0,1.29.11c.17,0,.23.09.23.17s-.14.23-.46.23c-1.57,0-3.37-.09-3.52-.09s-1.83.09-2.69.09c-.31,0-.46-.06-.46-.23s.06-.17.23-.17a4.46,4.46,0,0,0,.86-.11c.57-.11.71-.74.83-1.57.14-1.2.14-3.46.14-6.21Zm2.29,2.49a.37.37,0,0,0,.2.34,7.89,7.89,0,0,0,3,.46,3.71,3.71,0,0,0,2.14-.54c1-.69,1.74-2.23,1.74-4.4,0-3.57-1.89-5.72-4.95-5.72a8.61,8.61,0,0,0-1.92.17.34.34,0,0,0-.23.34Z"/><path d="M172.33,184.74c-.4-.2-.43-.31-.43-1.09,0-1.43.11-2.57.14-3s.09-.46.23-.46.2.09.2.31a5,5,0,0,0,.09,1.06c.43,2.12,2.32,2.92,4.23,2.92a3.82,3.82,0,0,0,4.09-3.8c0-2-.83-3.12-3.29-5.15l-1.29-1.06c-3-2.49-3.72-4.26-3.72-6.21,0-3.06,2.29-5.15,5.92-5.15a11.07,11.07,0,0,1,2.66.29,4.68,4.68,0,0,0,1,.14c.23,0,.29.06.29.2s-.11,1.09-.11,3c0,.46-.06.66-.2.66s-.2-.14-.23-.37a5,5,0,0,0-.37-1.43c-.17-.31-.94-1.52-3.57-1.52a3.25,3.25,0,0,0-3.52,3.32c0,1.63.74,2.66,3.49,4.8l.8.63c3.37,2.66,4.17,4.43,4.17,6.72a5.92,5.92,0,0,1-2.43,4.75,7.52,7.52,0,0,1-4.32,1.2A8.67,8.67,0,0,1,172.33,184.74Z"/><path d="M221.35,163.1c6.43,0,11.24,4.06,11.24,10.72,0,6.41-4.52,11.7-11.41,11.7-7.83,0-11.09-6.09-11.09-11.24A11.07,11.07,0,0,1,221.35,163.1Zm.6,21.33c2.57,0,7.89-1.49,7.89-9.81,0-6.86-4.17-10.55-8.69-10.55-4.78,0-8.35,3.15-8.35,9.41C212.8,180.14,216.8,184.43,222,184.43Z"/><path d="M283.38,181.43c.11,1,.31,2.63,1.54,3a6.19,6.19,0,0,0,1.86.26c.14,0,.23,0,.23.14s-.26.26-.6.26c-.63,0-3.72-.09-4.78-.17-.66-.06-.8-.14-.8-.29s.06-.17.2-.2.17-.51.11-1l-1.37-14.75h-.09l-7,14.87c-.6,1.26-.69,1.52-.94,1.52s-.34-.29-.89-1.32c-.74-1.4-3.2-6.35-3.35-6.63-.26-.51-3.46-7.38-3.77-8.15h-.11l-1.14,13.27c0,.46,0,1,0,1.46a.92.92,0,0,0,.74.89,5.27,5.27,0,0,0,1.09.14c.11,0,.23.06.23.14s-.17.26-.51.26c-1.06,0-2.43-.09-2.66-.09s-1.63.09-2.4.09c-.29,0-.49-.06-.49-.26s.14-.14.29-.14a3.67,3.67,0,0,0,.86-.09c.94-.17,1-1.29,1.14-2.37l2.06-18.64c0-.31.14-.51.31-.51s.29.11.43.43l8.75,18,8.41-18c.11-.26.23-.46.43-.46s.29.23.34.77Z"/><path d="M315,171.79c0-4.46,0-5.26-.06-6.18s-.29-1.43-1.23-1.63a5.31,5.31,0,0,0-1-.09c-.11,0-.23-.06-.23-.17s.14-.23.46-.23c.66,0,1.43,0,2.06,0l1.17.06c.2,0,5.89,0,6.55,0a7.65,7.65,0,0,0,1.23-.14c.14,0,.26-.14.4-.14s.11.11.11.26-.14.54-.23,1.34c0,.29-.09,1.54-.14,1.89,0,.14-.09.31-.2.31s-.23-.14-.23-.37a3.06,3.06,0,0,0-.17-1c-.2-.46-.49-.8-2-1-.49-.06-3.6-.09-3.92-.09-.11,0-.17.09-.17.29v7.89c0,.2,0,.29.17.29.37,0,3.89,0,4.55-.06s1.09-.11,1.34-.4.31-.37.43-.37.14.06.14.23-.14.66-.23,1.6c-.06.57-.11,1.63-.11,1.83s0,.54-.2.54-.2-.12-.2-.26a2.92,2.92,0,0,0-.11-.94c-.11-.4-.37-.89-1.49-1-.77-.09-3.6-.14-4.09-.14a.18.18,0,0,0-.2.2v2.52c0,1,0,4.29,0,4.89.09,2,.51,2.34,3.32,2.34a8.21,8.21,0,0,0,2.75-.31c.74-.31,1.09-.89,1.29-2.06.06-.31.11-.43.26-.43s.17.23.17.43a28,28,0,0,1-.37,2.77c-.2.74-.43.74-1.54.74-2.14,0-3.72-.06-4.83-.09s-1.8-.09-2.23-.09c-.06,0-.54,0-1.14,0s-1.23.06-1.66.06-.46-.06-.46-.23.06-.17.23-.17a4.46,4.46,0,0,0,.86-.11c.57-.11.71-.74.83-1.57.14-1.2.14-3.46.14-6.21Z"/><path d="M363.34,163.1c6.43,0,11.24,4.06,11.24,10.72,0,6.41-4.52,11.7-11.41,11.7-7.83,0-11.09-6.09-11.09-11.24A11.07,11.07,0,0,1,363.34,163.1Zm.6,21.33c2.57,0,7.89-1.49,7.89-9.81,0-6.86-4.17-10.55-8.69-10.55-4.78,0-8.35,3.15-8.35,9.41C354.79,180.14,358.79,184.43,363.94,184.43Z"/><path d="M404.29,181.23c.06,2.34.34,3.09,1.12,3.32a6.24,6.24,0,0,0,1.43.17c.14,0,.23.06.23.17s-.17.23-.51.23c-1.63,0-2.77-.09-3-.09s-1.46.09-2.75.09c-.29,0-.46,0-.46-.23s.09-.17.23-.17a4.09,4.09,0,0,0,1.17-.17c.71-.2.86-1,.86-3.63l0-16.39c0-1.12.09-1.43.31-1.43s.71.63,1,.92c.43.49,4.69,5.09,9.09,9.81,2.83,3,5.95,6.52,6.86,7.46l-.31-14.53c0-1.86-.23-2.49-1.12-2.72a7.56,7.56,0,0,0-1.4-.14c-.2,0-.23-.09-.23-.2s.23-.2.57-.2c1.29,0,2.66.09,3,.09s1.26-.09,2.43-.09c.31,0,.51,0,.51.2s-.11.2-.31.2a2.51,2.51,0,0,0-.69.09c-.94.2-1.06.83-1.06,2.54l-.06,16.76c0,1.89-.06,2-.26,2s-.57-.31-2.09-1.83c-.31-.29-4.43-4.49-7.46-7.75-3.32-3.58-6.55-7.18-7.46-8.21Z"/><path d="M453.48,171.79c0-4.46,0-5.26-.06-6.18s-.29-1.43-1.23-1.63a5.31,5.31,0,0,0-1-.09c-.11,0-.23-.06-.23-.17s.14-.23.46-.23c.66,0,1.43,0,2.06,0l1.17.06c.2,0,5.89,0,6.55,0a7.65,7.65,0,0,0,1.23-.14c.14,0,.26-.14.4-.14s.11.11.11.26-.14.54-.23,1.34c0,.29-.09,1.54-.14,1.89,0,.14-.09.31-.2.31s-.23-.14-.23-.37a3.06,3.06,0,0,0-.17-1c-.2-.46-.49-.8-2-1-.49-.06-3.6-.09-3.92-.09-.11,0-.17.09-.17.29v7.89c0,.2,0,.29.17.29.37,0,3.89,0,4.55-.06s1.09-.11,1.34-.4.31-.37.43-.37.14.06.14.23-.14.66-.23,1.6c-.06.57-.11,1.63-.11,1.83s0,.54-.2.54-.2-.12-.2-.26a2.92,2.92,0,0,0-.11-.94c-.11-.4-.37-.89-1.49-1-.77-.09-3.6-.14-4.09-.14a.18.18,0,0,0-.2.2v2.52c0,1,0,4.29,0,4.89.09,2,.51,2.34,3.32,2.34a8.21,8.21,0,0,0,2.75-.31c.74-.31,1.09-.89,1.29-2.06.06-.31.11-.43.26-.43s.17.23.17.43a28,28,0,0,1-.37,2.77c-.2.74-.43.74-1.54.74-2.14,0-3.72-.06-4.83-.09s-1.8-.09-2.23-.09c-.06,0-.54,0-1.14,0s-1.23.06-1.66.06-.46-.06-.46-.23.06-.17.23-.17a4.46,4.46,0,0,0,.86-.11c.57-.11.71-.74.83-1.57.14-1.2.14-3.46.14-6.21Z"/><path d="M524.15,184.74c-.4-.2-.43-.31-.43-1.09,0-1.43.11-2.57.14-3s.08-.46.23-.46.2.09.2.31a5,5,0,0,0,.09,1.06c.43,2.12,2.32,2.92,4.23,2.92a3.82,3.82,0,0,0,4.09-3.8c0-2-.83-3.12-3.29-5.15l-1.29-1.06c-3-2.49-3.72-4.26-3.72-6.21,0-3.06,2.29-5.15,5.92-5.15a11.07,11.07,0,0,1,2.66.29,4.68,4.68,0,0,0,1,.14c.23,0,.29.06.29.2s-.11,1.09-.11,3c0,.46-.06.66-.2.66s-.2-.14-.23-.37a5,5,0,0,0-.37-1.43c-.17-.31-.94-1.52-3.57-1.52a3.25,3.25,0,0,0-3.52,3.32c0,1.63.74,2.66,3.49,4.8l.8.63c3.38,2.66,4.17,4.43,4.17,6.72a5.92,5.92,0,0,1-2.43,4.75,7.52,7.52,0,0,1-4.32,1.2A8.68,8.68,0,0,1,524.15,184.74Z"/><path d="M565.16,171.79c0-4.46,0-5.26-.06-6.18s-.29-1.43-1.23-1.63a5.32,5.32,0,0,0-1-.09c-.11,0-.23-.06-.23-.17s.14-.23.46-.23c1.29,0,3,.09,3.23.09.63,0,2.29-.09,3.6-.09,3.57,0,4.86,1.2,5.32,1.63a5,5,0,0,1,1.43,3.4c0,4.06-3,6.81-7,6.81a4.12,4.12,0,0,1-.6,0c-.14,0-.31-.06-.31-.2s.17-.26.77-.26a4.75,4.75,0,0,0,4.95-4.66,6.07,6.07,0,0,0-1.6-4.4,5,5,0,0,0-3.92-1.43,3.52,3.52,0,0,0-1.23.17c-.17.06-.23.26-.23.54v11.75c0,2.75,0,5,.14,6.21.09.83.26,1.46,1.12,1.57a12.63,12.63,0,0,0,1.29.11c.17,0,.23.09.23.17s-.14.23-.46.23c-1.57,0-3.37-.09-3.52-.09s-1.89.09-2.75.09c-.32,0-.46-.06-.46-.23s.06-.17.23-.17a4.46,4.46,0,0,0,.86-.11c.57-.11.71-.74.83-1.57.14-1.2.14-3.46.14-6.21Z"/><path d="M606,171.79c0-4.46,0-5.26-.06-6.18s-.29-1.43-1.23-1.63a5.32,5.32,0,0,0-1-.09c-.11,0-.23-.06-.23-.17s.14-.23.46-.23c.66,0,1.43,0,2.06,0l1.17.06c.2,0,5.89,0,6.55,0a7.66,7.66,0,0,0,1.23-.14c.14,0,.26-.14.4-.14s.11.11.11.26-.14.54-.23,1.34c0,.29-.08,1.54-.14,1.89,0,.14-.09.31-.2.31s-.23-.14-.23-.37a3.05,3.05,0,0,0-.17-1c-.2-.46-.49-.8-2-1-.49-.06-3.6-.09-3.92-.09-.11,0-.17.09-.17.29v7.89c0,.2,0,.29.17.29.37,0,3.89,0,4.55-.06s1.09-.11,1.34-.4.31-.37.43-.37.14.06.14.23-.14.66-.23,1.6c-.06.57-.11,1.63-.11,1.83s0,.54-.2.54-.2-.12-.2-.26a2.92,2.92,0,0,0-.11-.94c-.11-.4-.37-.89-1.49-1-.77-.09-3.6-.14-4.09-.14a.18.18,0,0,0-.2.2v2.52c0,1,0,4.29,0,4.89.09,2,.51,2.34,3.32,2.34a8.21,8.21,0,0,0,2.75-.31c.74-.31,1.09-.89,1.29-2.06.06-.31.11-.43.26-.43s.17.23.17.43-.23,2.17-.37,2.77-.43.74-1.54.74c-2.14,0-3.72-.06-4.83-.09s-1.8-.09-2.23-.09c-.06,0-.54,0-1.14,0s-1.23.06-1.66.06-.46-.06-.46-.23.06-.17.23-.17a4.46,4.46,0,0,0,.86-.11c.57-.11.71-.74.83-1.57.14-1.2.14-3.46.14-6.21Z"/><path d="M646.49,182.43A11,11,0,0,1,643,174a11.42,11.42,0,0,1,3.2-7.81c1.72-1.71,4.32-3.06,8.72-3.06a24.47,24.47,0,0,1,4.15.34,24.93,24.93,0,0,0,2.92.43c.31,0,.37.14.37.31s-.09.57-.14,1.6-.06,2.52-.09,2.95-.09.6-.26.6-.23-.2-.23-.6a4,4,0,0,0-1.2-2.92,9.52,9.52,0,0,0-5.72-1.63c-3.8,0-5.58,1.12-6.58,2.09-2.09,2-2.57,4.55-2.57,7.46a10.33,10.33,0,0,0,10.32,10.47c2.14,0,3.83-.26,5-1.43a5.45,5.45,0,0,0,1.06-2.4c.06-.31.11-.43.29-.43s.2.2.2.43a29.78,29.78,0,0,1-.63,3.66c-.17.54-.23.6-.74.83a16.54,16.54,0,0,1-5.15.66C651.64,185.52,648.75,184.46,646.49,182.43Z"/><path d="M694.59,176.82c0,2.75,0,5,.14,6.21.09.83.26,1.46,1.12,1.57a12.62,12.62,0,0,0,1.29.11c.17,0,.23.09.23.17s-.14.23-.46.23c-1.57,0-3.37-.09-3.52-.09s-1.94.09-2.8.09c-.31,0-.46-.06-.46-.23s.06-.17.23-.17a4.45,4.45,0,0,0,.86-.11c.57-.11.72-.74.83-1.57.14-1.2.14-3.46.14-6.21v-5c0-4.46,0-5.26-.06-6.18s-.34-1.46-1-1.6a3.74,3.74,0,0,0-.89-.11c-.11,0-.23-.06-.23-.17s.14-.23.46-.23c.94,0,2.75.09,2.89.09s1.94-.09,2.8-.09c.32,0,.46.06.46.23s-.11.17-.23.17a4.2,4.2,0,0,0-.71.09c-.77.14-1,.63-1.06,1.63s-.06,1.72-.06,6.18Z"/><path d="M731.77,164.21c.34-.94.46-1.12.63-1.12s.29.14.63,1c.43,1.09,4.92,12.9,6.66,17.24,1,2.54,1.86,3,2.46,3.17a3.67,3.67,0,0,0,1.14.17c.17,0,.29,0,.29.17s-.26.23-.57.23-2.52,0-4.49-.06c-.54,0-.86,0-.86-.2s.08-.17.2-.2.34-.31.17-.77l-2.66-7a.25.25,0,0,0-.26-.17H729a.3.3,0,0,0-.29.23L727,182a6.05,6.05,0,0,0-.4,1.92c0,.57.6.83,1.09.83h.29c.2,0,.29.06.29.17s-.17.23-.43.23c-.69,0-1.92-.09-2.23-.09s-1.89.09-3.23.09c-.37,0-.54-.06-.54-.23s.12-.17.26-.17.6,0,.83-.06c1.32-.17,1.89-1.26,2.4-2.69Zm3,11.44c.14,0,.14-.09.11-.2l-2.72-7.72q-.21-.64-.43,0l-2.52,7.72c-.06.14,0,.2.09.2Z"/><path d="M773,176.88c0,4.2.11,6,.63,6.55s1.2.66,3.43.66c1.52,0,2.77,0,3.46-.86a4,4,0,0,0,.74-1.72c0-.23.09-.37.26-.37s.17.11.17.43a18.28,18.28,0,0,1-.43,2.86c-.2.66-.29.77-1.8.77-2.06,0-3.55-.06-4.75-.09s-2.09-.09-2.92-.09c-.11,0-.6,0-1.17,0s-1.2.06-1.63.06-.46-.06-.46-.23.06-.17.23-.17a4.44,4.44,0,0,0,.86-.11c.57-.11.72-.74.83-1.57.14-1.2.14-3.46.14-6.21v-5c0-4.46,0-5.26-.06-6.18s-.29-1.43-1.23-1.63a5.31,5.31,0,0,0-1-.09c-.11,0-.23-.06-.23-.17s.14-.23.46-.23c1.29,0,3.09.09,3.23.09s2.23-.09,3.09-.09c.31,0,.46.06.46.23s-.11.17-.23.17a6.67,6.67,0,0,0-.94.09c-.83.14-1.06.63-1.12,1.63s-.06,1.72-.06,6.18Z"/></svg>
