<svg xmlns="http://www.w3.org/2000/svg" width="291.323" height="2.799" viewBox="0 0 291.323 2.799">
  <path id="Path_41996" data-name="Path 41996" d="M331.354,1.606a2.46,2.46,0,0,0-.9-.315A108.849,108.849,0,0,0,315.369.472a7.2,7.2,0,0,1-2.1.137c-4.48-1.052-9.188-.079-13.75-.468-2.665-.228-5.332.7-7.952.183a15.774,15.774,0,0,0-4.914-.136,68.218,68.218,0,0,1-9.183.35c-3.526-.02-7.133.077-10.689.256-.19-.111-.336-.114-.372,0-.013.038.092.087.145.131a48.3,48.3,0,0,0-7.1-.512c-7.375-.055-14.745.164-22.127.01-6.782-.142-13.569.061-20.344.319-2.177-.716-4.439-.1-6.659-.123C205.893.563,201.447.4,197.034.531c-2.775.084-5.684-.64-8.346.313C185.269-.039,181.7.783,178.2.566c-3.052-.189-6.187.169-9.194.055C165.2.477,161.4.535,157.595.416c-7.632-.236-15.272.136-22.922.023-5.122-.075-10.259-.485-15.4-.064a9.9,9.9,0,0,1-2.493-.128A23.917,23.917,0,0,0,112.134.01C101.307.124,90.479.2,79.66.4c-7.608.146-15.249.143-22.794.854a34.508,34.508,0,0,1-7.138.265c-2.7-.316-5.205.37-7.834.216-.651-.038-1.163.254-1.163.616,0,.466.734.452,1.325.44,4.31-.091,8.718.091,12.908-.352,6.974-.74,14.023-.554,21.015-.926,6.635-.355,13.372-.178,20.064-.162q22.3.054,44.593.3c24.307.3,48.636.072,72.956.08,1.28,0,2.414-.046,3.018-.78.749,1.253,2.9.894,4.3.906,4,.037,8.006-.456,11.985.242a8.785,8.785,0,0,0,2.508.006c4.242-.557,8.577.513,12.794-.252,6.563.521,13.17.138,19.749.295a36.109,36.109,0,0,1,5-.009c3.386.538,6.89.107,10.277.029,2.159-.051,4.627-.292,6.657-.2,4.571.207,9.114.084,13.663.145,8.14.11,16.3-.15,24.421.394a8.694,8.694,0,0,0,4.09-.319,4.548,4.548,0,0,0-.7-.589" transform="translate(-40.731)" fill="#6ec1b6"/>
</svg>
