<svg xmlns="http://www.w3.org/2000/svg" width="144.202" height="13.403" viewBox="0 0 144.202 13.403">
  <g id="thebodyshop" transform="translate(-0.698 -0.798)">
    <path id="Path_40700" data-name="Path 40700" d="M447.511,30.7a1.629,1.629,0,1,1,0,3.258,1.627,1.627,0,0,1-1.613-1.645A1.58,1.58,0,0,1,447.511,30.7Zm1.328,1.613a1.329,1.329,0,1,0-1.328,1.36A1.343,1.343,0,0,0,448.839,32.313Zm-1.992-.949h.727c.411,0,.664.19.664.569a.508.508,0,0,1-.506.538l.538.822h-.285l-.538-.791h-.316v.791h-.285Zm.6.854c.253,0,.506,0,.506-.285,0-.253-.221-.285-.411-.285h-.379v.569Z" transform="translate(-304.256 -20.307)"/>
    <g id="Group_47867" data-name="Group 47867" transform="translate(0.9 1)">
      <path id="Path_40701" data-name="Path 40701" d="M6.466,3.024V13.778h-1.9V3.024H.9V1.19h9.235V3.056H6.466ZM20.161,13.778V8.116H14.373v5.661h-1.9V1.19h1.9V6.282h5.788V1.19h1.9V13.778h-1.9Zm5.187,0V1.19h8.128V3.024H27.246v3.1h3.606V7.958H27.246v3.985h6.484v1.834H25.348ZM51.5,9.919a3.63,3.63,0,0,1-1.139,2.91,4.654,4.654,0,0,1-3.194.98h-5V1.19h5.187a3.952,3.952,0,0,1,2.625.822,2.994,2.994,0,0,1,.98,2.435,2.54,2.54,0,0,1-.474,1.581,3.271,3.271,0,0,1-1.139.949,2.707,2.707,0,0,1,.759.348,3.061,3.061,0,0,1,.7.6,3.8,3.8,0,0,1,.506.854A3.064,3.064,0,0,1,51.5,9.919ZM49.1,4.542a1.656,1.656,0,0,0-.411-1.17,1.686,1.686,0,0,0-1.36-.474H43.945V6.124h3.384A1.977,1.977,0,0,0,48.12,6a1.756,1.756,0,0,0,.538-.348,1.7,1.7,0,0,0,.316-.506A1.283,1.283,0,0,0,49.1,4.542Zm.538,5.44a2,2,0,0,0-.569-1.518,2.26,2.26,0,0,0-1.645-.569H44.008V12.07h3.353a2.287,2.287,0,0,0,1.771-.569,2.435,2.435,0,0,0,.506-1.518Zm14.707-2.5a8.63,8.63,0,0,1-.38,2.625,6.056,6.056,0,0,1-1.075,2.056,4.882,4.882,0,0,1-1.676,1.328,5.4,5.4,0,0,1-4.428,0,4.882,4.882,0,0,1-1.676-1.328,6.055,6.055,0,0,1-1.075-2.056,8.63,8.63,0,0,1-.38-2.625,8.63,8.63,0,0,1,.38-2.625A6.056,6.056,0,0,1,55.11,2.8a4.882,4.882,0,0,1,1.676-1.328,5.4,5.4,0,0,1,4.428,0A4.6,4.6,0,0,1,62.89,2.8a6.055,6.055,0,0,1,1.075,2.056A8.63,8.63,0,0,1,64.345,7.484Zm-1.929,0a5.55,5.55,0,0,0-.886-3.353,3.244,3.244,0,0,0-5.092,0,5.848,5.848,0,0,0-.886,3.353,5.55,5.55,0,0,0,.886,3.353,2.89,2.89,0,0,0,2.53,1.233,2.984,2.984,0,0,0,2.562-1.233,5.55,5.55,0,0,0,.886-3.353Zm14.232,0a7.048,7.048,0,0,1-.506,2.846,5.51,5.51,0,0,1-1.328,1.961,5.515,5.515,0,0,1-1.961,1.139,7.11,7.11,0,0,1-2.34.348H67.065V1.19h3.447a8.108,8.108,0,0,1,2.372.348,5.083,5.083,0,0,1,1.961,1.139,5.953,5.953,0,0,1,1.328,1.961A7.66,7.66,0,0,1,76.648,7.484Zm-1.929,0a6.4,6.4,0,0,0-.221-1.8,3.863,3.863,0,0,0-.759-1.423A3.338,3.338,0,0,0,72.41,3.34a5.034,5.034,0,0,0-1.929-.316h-1.55v8.919h1.55a5.034,5.034,0,0,0,1.929-.316,3.691,3.691,0,0,0,1.328-.917A3.629,3.629,0,0,0,74.5,9.286,6.4,6.4,0,0,0,74.719,7.484Zm9.14,1.328v5h-1.9v-5L77.439,1.19h2.214l1.961,3.479c.095.19.221.411.348.633.127.253.253.474.38.7s.221.443.348.664c.095.19.158.38.221.474.063-.127.127-.285.221-.474s.221-.411.348-.633.253-.474.38-.7c.127-.253.253-.474.348-.664L86.2,1.19h2.182L83.859,8.812Zm18.945,1.36a4.1,4.1,0,0,1-.285,1.55,2.988,2.988,0,0,1-.854,1.2,3.771,3.771,0,0,1-1.455.791A6.941,6.941,0,0,1,98.123,14a5.792,5.792,0,0,1-4.491-2.024l1.36-1.328a4.409,4.409,0,0,0,1.518,1.075,3.927,3.927,0,0,0,1.771.411c1.74,0,2.625-.6,2.625-1.834a1.337,1.337,0,0,0-.158-.633,1.5,1.5,0,0,0-.474-.538,5.6,5.6,0,0,0-.886-.474,10.8,10.8,0,0,0-1.328-.443,12.25,12.25,0,0,1-1.74-.6,5.044,5.044,0,0,1-1.233-.7,2.741,2.741,0,0,1-.727-.98,3.7,3.7,0,0,1-.253-1.423,3.079,3.079,0,0,1,.316-1.455,3.055,3.055,0,0,1,.886-1.107,4.418,4.418,0,0,1,1.328-.7A5.433,5.433,0,0,1,98.281,1a5.732,5.732,0,0,1,2.277.443,6.36,6.36,0,0,1,1.834,1.265l-1.328,1.36a4.425,4.425,0,0,0-1.3-.917,4.367,4.367,0,0,0-1.645-.285,2.234,2.234,0,0,0-1.613.474A1.515,1.515,0,0,0,96,4.447a1.284,1.284,0,0,0,.126.6,1.058,1.058,0,0,0,.443.474,3.487,3.487,0,0,0,.854.443,11.515,11.515,0,0,0,1.36.443,14.569,14.569,0,0,1,1.676.6,4.428,4.428,0,0,1,1.265.727,3.038,3.038,0,0,1,.791,1.012,3.168,3.168,0,0,1,.285,1.423Zm10.342,3.606V8.116h-5.788v5.661h-1.9V1.19h1.9V6.282h5.788V1.19h1.9V13.778h-1.9Zm15.308-6.294a8.63,8.63,0,0,1-.38,2.625A6.056,6.056,0,0,1,127,12.165a4.882,4.882,0,0,1-1.676,1.328,5.4,5.4,0,0,1-4.428,0,4.882,4.882,0,0,1-1.676-1.328,6.055,6.055,0,0,1-1.075-2.056,8.63,8.63,0,0,1-.38-2.625,8.63,8.63,0,0,1,.38-2.625A6.055,6.055,0,0,1,119.218,2.8a4.882,4.882,0,0,1,1.676-1.328,5.4,5.4,0,0,1,4.428,0A4.6,4.6,0,0,1,127,2.8a6.056,6.056,0,0,1,1.075,2.056A8.63,8.63,0,0,1,128.454,7.484Zm-1.929,0a5.55,5.55,0,0,0-.886-3.353,3.244,3.244,0,0,0-5.092,0,5.848,5.848,0,0,0-.886,3.353,5.55,5.55,0,0,0,.886,3.353,2.89,2.89,0,0,0,2.53,1.233,2.984,2.984,0,0,0,2.562-1.233,5.55,5.55,0,0,0,.886-3.353ZM140.5,5.112a4.116,4.116,0,0,1-.316,1.708,3.193,3.193,0,0,1-.854,1.233,3.472,3.472,0,0,1-1.328.759,5.644,5.644,0,0,1-1.676.253H133.04v4.712h-1.866V1.19h5.282a5.382,5.382,0,0,1,1.613.253,3.348,3.348,0,0,1,1.3.759,3.572,3.572,0,0,1,.854,1.233,5.3,5.3,0,0,1,.285,1.676Zm-1.929,0a2.077,2.077,0,0,0-.6-1.613,2.154,2.154,0,0,0-1.581-.569h-3.384V7.262h3.384a2.086,2.086,0,0,0,1.613-.569A2.057,2.057,0,0,0,138.574,5.112Z" transform="translate(-0.9 -1)" stroke="#000" stroke-width="0.404"/>
    </g>
  </g>
</svg>
