<svg xmlns="http://www.w3.org/2000/svg" width="74.144" height="70" viewBox="0 0 74.144 70">
  <g id="UC" transform="translate(-343.806 -2974)">
    <path id="Path_78" data-name="Path 78" d="M236.622,192.032c-.007.02-.017.041-.027.061.015-.022.027-.044.039-.064A.021.021,0,0,1,236.622,192.032Z" transform="translate(135.29 2793.896)"/>
    <path id="Path_79" data-name="Path 79" d="M263.189,144.109a17.335,17.335,0,0,1-1.459,6.982s0,.007,0,.01a17.4,17.4,0,0,1-3.876,5.555,16.887,16.887,0,0,1-1.4,1.217,17.356,17.356,0,0,1-8.382,3.534l-.242.029a17.666,17.666,0,0,1-4.421-.029c-.056-.09-.112-.183-.166-.276-.027-.049-.056-.1-.083-.149-.056-.1-.11-.2-.164-.3s-.1-.208-.154-.315a10.324,10.324,0,0,1-.677-1.882l-.015-.059c-.017-.068-.032-.134-.049-.2s-.027-.12-.039-.181a14.1,14.1,0,0,0,13.057-9.162s0-.007,0-.01a10.239,10.239,0,0,0,.933-2.691c.012-.044.02-.09.029-.137a10.52,10.52,0,0,0-.582-5.855s0-.01,0-.015a10.16,10.16,0,0,0-.8-1.584,10.582,10.582,0,0,0-2.769-2.986,10.457,10.457,0,0,0-6.188-2.016c-.1,0-.191,0-.286,0-.047,0-.091,0-.135,0a9.945,9.945,0,0,0-1.276.127l-.112.019q-.275.048-.543.11c-.063.015-.127.029-.191.046-.042.007-.081.02-.12.029-.076.02-.149.039-.222.061s-.166.049-.249.076a.318.318,0,0,0-.044.012c-.066.022-.132.042-.2.066-.105.034-.21.073-.315.113s-.208.081-.31.122-.205.086-.308.132-.2.093-.3.142c-.2.1-.4.2-.587.31-.261.149-.516.308-.762.479-.046.032-.1.066-.142.1-.088.061-.176.127-.261.193-.191.144-.374.293-.552.452-.1.083-.2.173-.293.264-.049.044-.1.09-.142.137-.081.076-.156.154-.232.232-.054.056-.107.113-.156.166s-.1.11-.149.166c-.078.088-.156.176-.227.266-.039.044-.076.09-.11.134s-.073.09-.108.137q-.11.139-.213.286c-.066.088-.127.178-.188.269-.039.056-.076.113-.112.171s-.073.113-.11.171a.022.022,0,0,1-.012,0c.059-.134.122-.269.186-.4l0,0q.03-.07.066-.139c.01-.022.02-.042.029-.061.063-.127.127-.254.2-.379.085-.161.173-.323.264-.479s.183-.313.281-.467c.081-.132.164-.259.249-.386.039-.059.078-.117.117-.174.081-.117.161-.23.242-.342.1-.129.191-.257.291-.384.015-.022.032-.042.046-.061.078-.1.154-.2.235-.288a.127.127,0,0,1,.029-.034c.061-.076.125-.151.191-.225a.024.024,0,0,1,.01-.012c.032-.039.066-.078.1-.115a.332.332,0,0,1,.039-.042c.059-.068.12-.134.181-.2.078-.088.159-.174.242-.259l.1-.1c0-.007.007-.012.01-.012a.309.309,0,0,1,.039-.039c.061-.064.122-.125.186-.186l.046-.044.076-.071c.11-.108.22-.21.332-.308s.227-.2.342-.3.232-.193.352-.288c.076-.061.151-.12.227-.178,0,0,0,0,0,0a.333.333,0,0,1,.051-.037l0,0a.046.046,0,0,1,.017-.015.114.114,0,0,1,.029-.022c.039-.032.081-.061.12-.088a.084.084,0,0,1,.025-.02h0c0-.007.007-.01.012-.01a.226.226,0,0,1,.041-.029c.064-.049.127-.1.193-.139.249-.176.5-.342.76-.5.068-.044.139-.085.21-.127s.122-.071.183-.108c.132-.076.264-.149.4-.222s.269-.142.406-.21c.274-.139.552-.266.833-.386.264-.112.535-.22.806-.318l.09-.032c.156-.054.31-.107.469-.156.064-.022.125-.042.188-.059s.134-.042.2-.061c.144-.042.288-.081.435-.117.215-.056.432-.105.65-.151.066-.015.13-.027.2-.039l.156-.029q.191-.037.381-.066c.125-.02.252-.039.381-.056.1-.012.188-.025.284-.034.061-.007.125-.015.186-.02.083-.01.169-.017.254-.022.061-.007.12-.012.181-.015.134-.012.266-.02.4-.025.073,0,.149-.007.225-.01.159,0,.32-.007.481-.007a15.133,15.133,0,0,1,6.327,1.376,17.429,17.429,0,0,1,6.126,13.264Z" transform="translate(135.138 2847.342)"/>
    <path id="Path_80" data-name="Path 80" d="M193.881,284.763c-.288-.225-.572-.459-.846-.7A17.556,17.556,0,0,1,188.615,278a14.134,14.134,0,0,0,5.159,5.083C193.781,283.649,193.82,284.211,193.881,284.763Z" transform="translate(176.28 2720.451)"/>
    <path id="Path_81" data-name="Path 81" d="M195.187,246.068c-.064.139-.122.281-.178.423a17.163,17.163,0,0,0-1.207,4.956q-.077.8-.076,1.608c0,.1,0,.205.005.308a14.134,14.134,0,0,1-5.159-5.083l-.007-.015a10.558,10.558,0,0,1,5.645-5.054,10.441,10.441,0,0,0,.977,2.857Z" transform="translate(176.322 2750.171)" fill="#2d2d2d"/>
    <path id="Path_82" data-name="Path 82" d="M207.99,114.36a15.133,15.133,0,0,0-6.327-1.376c-.161,0-.323,0-.481.007-.076,0-.152,0-.225.01-.134,0-.266.012-.4.024-.061,0-.12.007-.181.015-.085,0-.171.012-.254.022-.061,0-.125.012-.186.02-.1.01-.188.022-.283.034-.129.017-.257.037-.381.056s-.254.042-.381.066l-.156.029c-.066.012-.129.024-.2.039-.218.046-.435.1-.65.152-.147.037-.291.076-.435.117-.068.02-.137.039-.2.061s-.125.037-.188.059c-.188.059-.374.122-.56.188-.271.1-.543.205-.806.318-.281.12-.56.247-.833.386-.137.068-.271.137-.406.21s-.266.147-.4.222c-.061.037-.125.071-.183.107s-.142.083-.21.127c-.257.161-.511.328-.76.5-.066.044-.13.09-.193.139a.21.21,0,0,0-.042.029s-.007,0-.012.01h0a.086.086,0,0,0-.024.02c-.039.027-.081.056-.12.088a.118.118,0,0,0-.029.022.046.046,0,0,0-.017.015l0,0a.327.327,0,0,0-.051.037s0,0,0,0c-.076.059-.151.117-.227.178-.12.1-.237.191-.352.288s-.23.2-.342.3-.222.2-.332.308l-.076.071-.046.044c-.064.061-.125.12-.186.186a.29.29,0,0,0-.039.039s-.007,0-.01.012l-.1.1c-.083.085-.164.171-.242.259-.061.066-.122.132-.181.2a.3.3,0,0,0-.039.042c-.034.037-.068.076-.1.115a.024.024,0,0,0-.01.012c-.066.073-.129.149-.191.225a.127.127,0,0,0-.029.034c-.081.093-.159.191-.235.288-.015.019-.032.039-.047.061-.1.127-.2.254-.291.384-.081.112-.161.225-.242.342-.039.056-.078.115-.117.173-.086.127-.169.254-.249.386-.1.154-.191.308-.281.467s-.178.318-.264.479c-.068.125-.132.252-.2.379-.01.02-.02.039-.029.061q-.037.07-.066.139l0,0c-.064.134-.127.269-.186.4a17.369,17.369,0,0,0-8.37,3.529,17.279,17.279,0,0,1,1.112-4.428,17.434,17.434,0,0,1,27.548-6.842Z" transform="translate(184.212 2863.826)"/>
    <path id="Path_83" data-name="Path 83" d="M253.535,252.971a15.046,15.046,0,0,1-.337,3.187,15.287,15.287,0,0,1-6.527,9.548,17.433,17.433,0,0,1-19.156-6.149l0,0a17.3,17.3,0,0,1-3.407-8.509h0a17.824,17.824,0,0,1-.112-1.989q0-.814.076-1.608a17.158,17.158,0,0,1,1.207-4.956c.056-.142.115-.284.178-.423a17.3,17.3,0,0,1,2.06-3.514c.227-.017.454-.024.684-.024a10.526,10.526,0,0,1,2.468.291c.193.049.386.1.577.156a14.113,14.113,0,0,0,1.339,15.745,10.445,10.445,0,0,0,1.811,2.133c.139.129.281.252.428.369a10.487,10.487,0,0,0,6.622,2.353c.23,0,.459-.007.684-.024a10.524,10.524,0,0,0,9.841-10.5,10.677,10.677,0,0,0-.147-1.757,10.4,10.4,0,0,0-.982-2.979,14.939,14.939,0,0,1,1.378,2.449A15.149,15.149,0,0,1,253.535,252.971Z" transform="translate(146.058 2754.169)"/>
    <path id="Path_84" data-name="Path 84" d="M254.746,212.4c-.44.274-.892.525-1.356.76a17.35,17.35,0,0,1-5.479,1.693,10.542,10.542,0,0,1-2.331,2.646,10.463,10.463,0,0,0,6.622,2.353c.222,0,.445-.007.662-.022a14.1,14.1,0,0,0,1.887-7.067C254.751,212.645,254.749,212.522,254.746,212.4Zm-18.132-20.366c-.007.02-.017.042-.027.061.015-.022.027-.044.039-.064A.022.022,0,0,1,236.614,192.036Z" transform="translate(135.296 2793.891)" fill="#2d2d2d"/>
    <path id="Path_85" data-name="Path 85" d="M351.744,324.428c-.039.352-.088.7-.152,1.048a17.342,17.342,0,0,1-3.255,7.461.072.072,0,0,0-.022,0,14.1,14.1,0,0,0,1.887-7.067c0-.122,0-.244,0-.364A17.348,17.348,0,0,0,351.744,324.428Z" transform="translate(39.845 2680.786)"/>
    <path id="Path_86" data-name="Path 86" d="M166.664,201.447c-.054.1-.108.2-.161.3-.022.034-.042.071-.061.105a.078.078,0,0,0-.01.019c-.049.083-.1.164-.147.244l-.044.071c-.046.078-.1.156-.149.232a1.31,1.31,0,0,1-.081.122c-.044.066-.088.129-.134.193s-.1.147-.159.217q-.059.081-.125.161a.606.606,0,0,1-.064.081c-.071.093-.147.183-.222.271-.173.205-.357.406-.548.6l-.107.107c-.066.066-.134.13-.2.193l-.071.066-.012.012a14.1,14.1,0,0,0-14.423-6.508,10.254,10.254,0,0,0-2.852.6c-.049.017-.1.034-.142.054a10.536,10.536,0,0,0-6.8,9.843c0,.037,0,.073,0,.11a10.524,10.524,0,0,0,9.836,10.388l0,0a15.206,15.206,0,0,1-1.958.125c-.33,0-.66-.01-.985-.032a15.277,15.277,0,0,1-13.8-11.481,17.478,17.478,0,0,1,15.083-16.41.665.665,0,0,1-.027.061c.015-.022.027-.044.039-.064a17.923,17.923,0,0,1,2.331-.154,17.409,17.409,0,0,1,4.426.569,16.927,16.927,0,0,1,2.2.738c.144.059.291.12.433.186.071.029.142.061.21.1s.166.073.247.115c.063.029.125.059.188.09.13.064.259.127.386.2l0,0c.061.032.122.063.183.1.083.044.166.088.249.137l.015.007c.122.068.244.139.364.213.1.059.2.12.3.183.227.142.45.286.67.44.071.046.139.1.208.144.105.073.21.149.313.227.041.029.081.061.122.093.063.047.125.093.188.147a.025.025,0,0,1,.017.012l0,0c.078.061.159.125.235.186a.081.081,0,0,1,.02.015c.09.071.181.147.271.225a.013.013,0,0,1,.01.007c.134.112.264.227.393.345s.264.242.393.364.239.232.357.352c.083.083.164.166.242.252.007,0,.012.007.012.012.037.037.071.073.1.11,0,0,.007,0,0,0,.066.068.127.137.188.205.09.1.176.2.259.293.034.039.066.076.1.115q.147.169.286.345c.115.142.225.284.335.428A17.323,17.323,0,0,1,166.664,201.447Z" transform="translate(223.582 2794.794)"/>
    <path id="Path_87" data-name="Path 87" d="M157.158,321.71a17.237,17.237,0,0,1-3.944,1.1,17.459,17.459,0,0,1-20.129-17.245c0-.3.007-.594.025-.887a15.284,15.284,0,0,0,13.8,11.481c.325.022.655.032.985.032a15.231,15.231,0,0,0,1.957-.125A17.5,17.5,0,0,0,157.158,321.71Z" transform="translate(223.719 2697.657)"/>
    <path id="Path_88" data-name="Path 88" d="M307.27,191.134c-.073,0-.147,0-.22,0a14.01,14.01,0,0,0-7.111,1.923c-.054-.029-.105-.059-.159-.085l0,0c-.127-.068-.257-.132-.386-.2-.063-.032-.125-.061-.188-.09-.081-.042-.164-.078-.247-.115s-.139-.066-.21-.1c-.142-.066-.288-.127-.432-.186.164-.068.33-.132.5-.2a17.318,17.318,0,0,1,6.124-1.112A17.508,17.508,0,0,1,307.27,191.134Z" transform="translate(82.562 2794.794)"/>
    <path id="Path_89" data-name="Path 89" d="M318.369,197.559a10.467,10.467,0,0,1-.179,1.931,9.847,9.847,0,0,0-1.068-.34,10.112,10.112,0,0,0-1.972-.318c-.11-.144-.22-.286-.335-.428q-.139-.176-.286-.345c-.032-.039-.064-.076-.1-.115-.083-.1-.169-.2-.259-.293-.061-.068-.122-.137-.188-.205,0,0,0,0,0,0q-.048-.055-.1-.11s0-.007-.012-.012c-.078-.086-.159-.169-.242-.252-.117-.12-.235-.237-.357-.352s-.259-.247-.393-.364-.262-.232-.393-.345a.014.014,0,0,0-.01-.007c-.09-.078-.181-.154-.271-.225a.079.079,0,0,0-.02-.015c-.078-.066-.156-.127-.235-.186l0,0a.025.025,0,0,0-.017-.012c-.063-.054-.125-.1-.188-.147-.041-.032-.081-.063-.122-.093-.1-.078-.208-.154-.313-.227-.069-.051-.137-.1-.208-.144-.22-.154-.442-.3-.67-.44-.1-.064-.2-.125-.3-.183-.12-.073-.242-.144-.364-.213l-.015-.007c-.083-.049-.166-.093-.249-.137a.115.115,0,0,0-.024-.012,14.011,14.011,0,0,1,7.111-1.923c.073,0,.147,0,.22,0A10.458,10.458,0,0,1,318.369,197.559Z" transform="translate(73.033 2793.891)" fill="#2d2d2d"/>
    <path id="Path_90" data-name="Path 90" d="M391.894,230.035a17.479,17.479,0,0,1-12.221,16.649,15.241,15.241,0,0,0,5.545-18.936,14.923,14.923,0,0,0-1.378-2.449.577.577,0,0,0-.027-.056,17.425,17.425,0,0,0,1.344-8.976,17.633,17.633,0,0,1,2.913,2.876A17.369,17.369,0,0,1,391.894,230.035Z" transform="translate(13.057 2773.189)"/>
    <path id="Path_91" data-name="Path 91" d="M284.823,262.685a14.1,14.1,0,0,1-13.057,9.161c-.059-.291-.107-.582-.144-.88a10.531,10.531,0,0,1,.073-3.059c.01-.049.017-.1.027-.149l.071.027a10.423,10.423,0,0,0,2.957.633c.23.015.462.022.694.022a10.453,10.453,0,0,0,3.722-.679c.076-.029.154-.059.23-.09.166-.068.33-.139.491-.215.125-.059.247-.117.367-.181s.232-.122.345-.186c.156-.088.308-.178.457-.274l.1-.066a.1.1,0,0,0,.02-.015c.061-.037.122-.078.181-.117l.088-.061.132-.1.132-.1c.029-.022.059-.042.086-.064,0,0,0,0,0,0a.573.573,0,0,0,.061-.046l0,0c.091-.068.176-.137.264-.21.034-.027.066-.054.1-.081.1-.088.205-.176.3-.266l.071-.066c.068-.063.137-.127.2-.193l.108-.108c.191-.191.374-.391.548-.6.076-.088.151-.178.222-.271a.606.606,0,0,0,.064-.081q.066-.081.125-.161c.056-.071.108-.144.159-.217s.09-.127.134-.193a1.319,1.319,0,0,0,.081-.122c.051-.076.1-.154.149-.232l.044-.071c.049-.081.1-.161.147-.244a.077.077,0,0,1,.01-.02c.02-.034.039-.071.061-.105.054-.1.108-.2.161-.3A.1.1,0,0,0,284.823,262.685Z" transform="translate(105.432 2733.534)" fill="#2d2d2d"/>
    <path id="Path_92" data-name="Path 92" d="M262.282,244.021c-.093.085-.193.169-.291.254-.032.027-.064.054-.1.081-.088.073-.173.142-.264.21l0,0a.55.55,0,0,1-.061.046s0,0,0,0c-.027.022-.056.042-.086.064l-.132.1-.132.1-.088.061c-.059.039-.12.081-.181.117a.1.1,0,0,1-.019.015l-.1.066c-.149.1-.3.186-.457.274-.112.064-.227.127-.345.186s-.242.122-.367.181c-.161.076-.325.147-.491.215-.076.032-.154.061-.23.09-.007-.041-.015-.08-.024-.122a10.442,10.442,0,0,0-1.193-3.182,10.557,10.557,0,0,0-2.5-2.937c-.112-.093-.225-.181-.342-.266-.088-.066-.173-.13-.264-.191-.064-.046-.13-.093-.2-.134-.041-.029-.081-.056-.122-.081,0,0,0,0-.007,0a2.774,2.774,0,0,0-.239-.149l0,0c-.071-.046-.144-.09-.217-.129a1.52,1.52,0,0,0-.147-.083c-.132-.076-.267-.147-.4-.213-.027-.015-.051-.027-.078-.039-.046-.024-.1-.046-.142-.068-.137-.066-.279-.127-.418-.186s-.293-.12-.442-.173h0a10.344,10.344,0,0,0-3.6-.635c-.23,0-.457.007-.684.024a.276.276,0,0,0-.044,0,14.1,14.1,0,0,1,14.423,6.508Z" transform="translate(125.667 2755.216)" fill="#2d2d2d"/>
    <path id="Path_93" data-name="Path 93" d="M266.832,243.506c-.2.161-.393.33-.579.508a10.483,10.483,0,0,0-3.143,5.731c-.01.049-.017.1-.027.149a10.537,10.537,0,0,0-.073,3.059c.044.359.105.711.183,1.061.017.069.032.135.049.2l.015.059a10.324,10.324,0,0,0,.677,1.882c.049.107.1.21.154.315s.108.2.164.3c.027.051.056.1.083.149.054.093.11.186.166.276.029.049.061.1.093.144a14.114,14.114,0,0,1-1.339-15.745c.188.059.374.12.557.188h0c.149.054.3.112.442.174s.281.12.418.186c.047.022.1.044.142.068.027.012.051.025.078.039.134.066.269.137.4.213.049.027.1.054.147.083.073.039.147.083.217.13l0,0c.081.049.161.1.239.149,0,0,.005,0,.008,0,.042.024.081.051.122.081.066.042.132.088.2.134q.136.092.264.191C266.607,243.325,266.72,243.416,266.832,243.506Z" transform="translate(114.045 2751.547)" fill="#2d2d2d"/>
    <g id="Group_73" data-name="Group 73" transform="translate(343.806 3026.119)">
      <path id="Path_94" data-name="Path 94" d="M372.115,558.606a6.989,6.989,0,0,1-2.7-.525,3.685,3.685,0,0,1-1.208-.762,1.965,1.965,0,0,1-.586-1.627,2.174,2.174,0,0,1,1.035-1.576,6.063,6.063,0,0,1,2.653-.85c.205-.022.413-.035.58-.045l.182-.011h.02a7.069,7.069,0,0,1,3.457.81,2.164,2.164,0,0,1,1.148,1.479,2.067,2.067,0,0,1-.979,2.2,5.659,5.659,0,0,1-2.21.8A8.884,8.884,0,0,1,372.115,558.606Zm.072-4.666a1.476,1.476,0,0,0-1.6,1.031,3.073,3.073,0,0,0,0,1.871,1.327,1.327,0,0,0,1.074.978,2.832,2.832,0,0,0,.575.056c.046,0,.094,0,.141,0a1.428,1.428,0,0,0,1.43-1.137,3.261,3.261,0,0,0,.087-1.26,1.755,1.755,0,0,0-.512-1.146,1.707,1.707,0,0,0-1.184-.391Z" transform="translate(-320.441 -540.782)"/>
      <path id="Path_95" data-name="Path 95" d="M314.012,558.543c-.081,0-.164,0-.247,0a5.73,5.73,0,0,1-2.885-.666,2.248,2.248,0,0,1-1.178-2.54,2.19,2.19,0,0,1,.978-1.341,6.545,6.545,0,0,1,3.177-.857,7.166,7.166,0,0,1,2.413.461.728.728,0,0,0,.235.053.24.24,0,0,0,.206-.122.448.448,0,0,1,.327-.147c.034,0,.066-.009.092-.016l.274-.069v1.949l-.148.052a.624.624,0,0,1-.2.039.469.469,0,0,1-.412-.27,2.293,2.293,0,0,0-1.584-1.052,3.438,3.438,0,0,0-.749-.084,3.112,3.112,0,0,0-.329.017,1.414,1.414,0,0,0-1.246,1.1,2.614,2.614,0,0,0-.057,1.469,1.558,1.558,0,0,0,1.663,1.258h.036a2.748,2.748,0,0,0,1.908-.739,1.793,1.793,0,0,0,.352-.435.482.482,0,0,1,.424-.287.64.64,0,0,1,.192.033l.155.048v2.091l-.286-.089c-.031-.009-.065-.017-.1-.024a.543.543,0,0,1-.315-.145.271.271,0,0,0-.217-.108.632.632,0,0,0-.209.045A6.631,6.631,0,0,1,314.012,558.543Z" transform="translate(-270.917 -540.719)"/>
      <path id="Path_96" data-name="Path 96" d="M498.317,558.789v-.576l.113-.063h0a.276.276,0,0,1,.128-.049h.007a1.246,1.246,0,0,0,.442-.078,1.233,1.233,0,0,0,.046-.445v-2.938a1.24,1.24,0,0,0-.049-.471,1.321,1.321,0,0,0-.485-.093l-.2-.018v-.662h4.143v0h.134a6.024,6.024,0,0,1,2.534.5,1.453,1.453,0,0,1,.879.958,1.277,1.277,0,0,1-.753,1.446,4.7,4.7,0,0,1-1.625.49c-.36.048-1.335.078-1.876.078h-.029v1.009c.013.141.037.154.052.162l0,0,0,0,.01.006a.246.246,0,0,0,.087.027c.04.006.083.01.13.014h.007c.053.006.112.01.184.016h.006a.279.279,0,0,1,.129.05l0,0,.111.064,0,.126v.441Zm3.408-2.653a5.4,5.4,0,0,0,1.02.1h.055a.951.951,0,0,0,.989-.641,1.546,1.546,0,0,0,.063-.681l0-.012v-.026h0c0-.025-.007-.05-.012-.076v0h0l-.006-.031v0l0-.01c0-.009,0-.018-.007-.027a.971.971,0,0,0-.068-.185l-.071-.1a1.814,1.814,0,0,0-.2-.123l-.016-.008-.005,0a1.092,1.092,0,0,0-.2-.088h0l-.021-.008-.017,0-.011-.005a2.634,2.634,0,0,0-.851-.131l-.121,0a.835.835,0,0,1-.122.014.561.561,0,0,0-.324.066.574.574,0,0,0-.057.33c0,.091,0,.459,0,.551v.221h0Z" transform="translate(-432.108 -540.941)"/>
      <path id="Path_97" data-name="Path 97" d="M437.472,558.607a6.984,6.984,0,0,1-2.7-.525,3.685,3.685,0,0,1-1.207-.762,1.965,1.965,0,0,1-.586-1.627,2.174,2.174,0,0,1,1.035-1.576,6.057,6.057,0,0,1,2.653-.85c.2-.022.412-.034.579-.044l.182-.012h.019l.092,0a6.973,6.973,0,0,1,3.366.807,2.159,2.159,0,0,1,1.148,1.478,2.067,2.067,0,0,1-.979,2.2,5.669,5.669,0,0,1-2.211.8,8.85,8.85,0,0,1-1.331.113Zm.058-4.666a1.471,1.471,0,0,0-1.59,1.031,3.072,3.072,0,0,0,0,1.871,1.327,1.327,0,0,0,1.074.978,2.777,2.777,0,0,0,.52.055h.072l.124,0a1.429,1.429,0,0,0,1.43-1.137,3.261,3.261,0,0,0,.087-1.259,1.754,1.754,0,0,0-.512-1.145,1.705,1.705,0,0,0-1.184-.391Z" transform="translate(-376.276 -540.782)"/>
      <path id="Path_98" data-name="Path 98" d="M151.6,558.833v-.667l.19-.027.108-.017.02-.005h0c.021,0,.04-.01.057-.016h0l.016-.006,0,0c.036-.015.059-.025.074-.156a2.149,2.149,0,0,0,.011-.221v0c0-.036,0-.073,0-.113v-2.944c0-.04,0-.078,0-.113v0a2.147,2.147,0,0,0-.011-.221c-.015-.131-.038-.141-.074-.155l0,0-.017-.006h0a.532.532,0,0,0-.056-.016h0l-.021-.005c-.03-.006-.064-.011-.106-.017l-.192-.025v-.669h3.162v.67l-.2.031-.058.01a.61.61,0,0,0-.079.02l-.019.007h-.005l-.006,0c-.03.013-.053.024-.068.153q0,.035-.006.076v0c0,.04,0,.085,0,.14v0c0,.036,0,.073,0,.113V557.6c0,.04,0,.078,0,.113v0c0,.055,0,.1,0,.14v0c0,.027,0,.052.006.075.015.13.038.141.068.154l.006,0h0l0,0,.019.007a.655.655,0,0,0,.078.02l.058.01.2.032v.67Z" transform="translate(-135.905 -540.965)"/>
      <path id="Path_99" data-name="Path 99" d="M178.014,558.876a6.987,6.987,0,0,1-2.7-.525,3.687,3.687,0,0,1-1.208-.763,1.965,1.965,0,0,1-.586-1.627,2.173,2.173,0,0,1,1.035-1.577,6.059,6.059,0,0,1,2.653-.85c.2-.022.412-.035.579-.045l.182-.012h.019l.091,0a6.975,6.975,0,0,1,3.367.807,2.161,2.161,0,0,1,1.148,1.479,2.068,2.068,0,0,1-.979,2.2,5.668,5.668,0,0,1-2.211.8,8.843,8.843,0,0,1-1.331.114Zm.058-4.666a1.472,1.472,0,0,0-1.59,1.031,3.072,3.072,0,0,0,0,1.871,1.328,1.328,0,0,0,1.074.978,2.786,2.786,0,0,0,.52.055h.072c.042,0,.084,0,.124,0a1.429,1.429,0,0,0,1.43-1.137,3.256,3.256,0,0,0,.087-1.259,1.753,1.753,0,0,0-.512-1.145,1.706,1.706,0,0,0-1.184-.391Z" transform="translate(-154.618 -541.013)"/>
      <path id="Path_100" data-name="Path 100" d="M241.328,558.849l-.089,0a.5.5,0,0,1-.35-.134l-3.833-4.156v2.15c0,.283-.009.519-.015.743v.467c.012.136.036.152.05.16l.007,0h0l.01.006a.25.25,0,0,0,.088.027l.112.012.2.016v.706H235.8v-.705l.2-.022a.921.921,0,0,0,.212-.041c.042-.016.076-.03.079-.4v0c0-.02,0-.04,0-.061v-2.938a1.422,1.422,0,0,0-.042-.462c-.019-.032-.1-.057-.257-.078l-.192-.025v-.677h3a.617.617,0,0,1,.38.1l.01.009,3.109,3.5.057.065v-1.5h0v-.278c0-.046,0-.094,0-.147v-.12c0-.007,0-.013,0-.018v-.382c0-.04,0-.078,0-.113v-.006c0-.019,0-.037,0-.055v0c0-.028,0-.053,0-.077v-.005c0-.027,0-.053-.006-.075-.015-.13-.038-.141-.068-.154l-.006,0h0l0,0-.019-.007a.627.627,0,0,0-.078-.02l-.062-.01-.019,0-.007,0-.017-.005-.15-.051v-.637h.774l.269,0v0h.621v.666l-.183.032-.018,0-.011,0h-.006l-.034.006a.636.636,0,0,0-.079.021l-.019.007,0,0h0l-.006,0c-.03.013-.053.024-.068.153,0,.024,0,.049-.006.076v.005c0,.025,0,.05,0,.078v0c0,.018,0,.036,0,.055v.006c0,.036,0,.073,0,.113v.382c0,.006,0,.012,0,.017v.007c0,.057,0,.109,0,.159v1.121h0V558.5a.348.348,0,0,1-.315.35.438.438,0,0,1-.05,0h-1.443Z" transform="translate(-207.833 -540.976)"/>
      <path id="Path_101" data-name="Path 101" d="M101.7,558.813c-.035,0-.064,0-.089,0a.494.494,0,0,1-.35-.134l-3.833-4.156v2.151c0,.283-.009.519-.015.743v.467c.012.136.036.152.05.16l.008,0h0l.01.006a.25.25,0,0,0,.088.027c.036,0,.074.009.112.012l.2.016v.706H96.172v-.7l.2-.022a.909.909,0,0,0,.212-.041c.042-.016.076-.03.079-.4v0c0-.02,0-.04,0-.061v-2.938a1.418,1.418,0,0,0-.042-.462c-.019-.032-.1-.057-.256-.078l-.192-.025V553.4h3a.618.618,0,0,1,.38.1l.01.009,3.109,3.5.057.065v-1.5h0v-.333c0-.052,0-.106,0-.167v-.046c0-.007,0-.013,0-.018v-.342c0-.03,0-.059,0-.087v0c0-.006,0-.012,0-.017v-.012c0-.019,0-.037,0-.055v-.005c0-.027,0-.053,0-.077v-.005c0-.027,0-.052-.006-.075-.015-.13-.038-.141-.068-.154l-.005,0h0l0,0-.018-.006a.645.645,0,0,0-.078-.02l-.062-.01-.019,0-.007,0-.016,0-.151-.05V553.4h.774l.269,0v0h.621v.7l-.183.039-.013,0-.011,0-.011,0-.034.006a.579.579,0,0,0-.079.021l-.019.007,0,0-.007,0c-.03.014-.053.024-.068.153,0,.024,0,.049-.006.076v.005c0,.025,0,.05,0,.077v.008c0,.018,0,.036,0,.055s0,.012,0,.019v.01c0,.028,0,.058,0,.089v.339c0,.006,0,.012,0,.018v.006c0,.037,0,.076,0,.117,0,.014,0,.07,0,.083v1.081h0v2.138a.348.348,0,0,1-.315.35.4.4,0,0,1-.05,0H101.7Z" transform="translate(-88.548 -540.945)"/>
      <path id="Path_102" data-name="Path 102" d="M47.7,558.833c-.282,0-.557-.011-.816-.031a7.371,7.371,0,0,1-.943-.133l-.029-.006-.008,0-.027-.006a3.06,3.06,0,0,1-1.176-.487l-.012-.009-.011-.011a1.534,1.534,0,0,1-.335-.95v-2.545c0-.04,0-.078,0-.113v0a2.182,2.182,0,0,0-.011-.221c-.015-.131-.038-.141-.074-.156h0l-.017-.006h0l-.057-.016h0l-.021-.005-.1-.016-.191-.026v-.68H47.5v.68l-.191.026c-.038.005-.073.011-.1.017a.653.653,0,0,0-.077.02l-.019.007,0,0h0l-.006,0c-.03.013-.053.024-.068.153,0,.024,0,.049-.006.076v0c0,.04,0,.085,0,.14v0c0,.036,0,.073,0,.113v2.8a.7.7,0,0,0,.029.195l.017.015a1.752,1.752,0,0,0,1.176.37h.041a2.82,2.82,0,0,0,1.008-.166l.01,0,.01,0a.951.951,0,0,0,.409-.224l.011-.012.011-.008a.318.318,0,0,0,.093-.142l0-.006a2.134,2.134,0,0,0,.019-.216l0-.782v-1.149c0-.046,0-.094,0-.147v-.125c0-.194-.015-.355-.031-.492-.009-.077-.021-.148-.034-.211l0-.009,0-.021a.456.456,0,0,0-.024-.1l-.012-.024a.152.152,0,0,0-.057-.042l0,0,0,0-.011-.006a.2.2,0,0,0-.051-.019h0l-.032-.006-.214-.027v-.68h1.85v.686l-.2.016c-.041,0-.08.008-.116.013a.246.246,0,0,0-.084.027l-.01.006,0,0-.005,0a.143.143,0,0,0-.058.044l-.01.021a.457.457,0,0,0-.025.1l0,.025v0c-.013.062-.024.133-.033.211-.016.137-.027.3-.031.495,0,.06,0,.115,0,.168v2.241c0,.6-.4,1-1.182,1.2a4.4,4.4,0,0,1-.512.1l-.061.008-.065.008-.084.009-.167.015-.083.006h0C48.245,558.825,47.985,558.833,47.7,558.833Z" transform="translate(-43.862 -540.952)"/>
      <path id="Path_103" data-name="Path 103" d="M45.435,493.415l-.588-.835h3.12l0-1.02a7.035,7.035,0,0,0-.194-2.4c-.274.045-.728.465-1.4,2.1l-.261.633-.554-2.337.272-.007a.669.669,0,0,0,.52-.3l.065-.07a1.916,1.916,0,0,1,1.6-.715c.84,0,1.435.545,1.769,1.62a9.856,9.856,0,0,1,.326,2.85v.481Z" transform="translate(-44.703 -485.47)"/>
      <path id="Path_104" data-name="Path 104" d="M107.62,475.679v3.749c0,.939-.791,1.523-2.064,1.523H88.034v-.013c-1.085-.09-1.749-.656-1.749-1.51v-5.194l2.025-.36v5.554c0,.688.191.688.294.688h12.883a8.057,8.057,0,0,0-.5-2.67c-.242-.566-.552-.89-.851-.89-.324,0-.918.713-1.458,2.278l-.147.428-1.111-1.711.067-.117a2.727,2.727,0,0,1,2.681-1.528,3.223,3.223,0,0,1,2.631,1.423,5.321,5.321,0,0,1,.948,2.787h1.532c.1-.007.334-.04.324-.685v-3.2Z" transform="translate(-80.104 -473.006)"/>
      <path id="Path_105" data-name="Path 105" d="M203.237,470.479l1.579-.825.668.438.856-.438,1.406.947-1.591.824-.667-.437-.845.438Z" transform="translate(-180.018 -469.4)"/>
      <path id="Path_106" data-name="Path 106" d="M239.092,475.521v5.314c0,.458-.192,1.523-1.97,1.523H233.51l.538-.835h.365v-4.716l2.025-.556v5.278l.347-.007a.293.293,0,0,0,.206-.137,1.344,1.344,0,0,0,.077-.549v-4.758Z" transform="translate(-205.88 -474.413)"/>
      <path id="Path_107" data-name="Path 107" d="M277.546,470.688v7.541h-2.025v-6.985Z" transform="translate(-241.772 -470.284)"/>
      <g id="Group_72" data-name="Group 72" transform="translate(38.729)">
        <path id="Path_108" data-name="Path 108" d="M316.68,470.16l1.592-.825.657.438.855-.438,1.4.946-1.579.825-.668-.438-.855.438Z" transform="translate(-315.662 -469.128)"/>
        <path id="Path_109" data-name="Path 109" d="M349.657,528.7l1.579-.825.668.438.856-.438,1.4.946-1.578.825-.677-.438-.846.439Z" transform="translate(-343.834 -519.141)"/>
        <path id="Path_110" data-name="Path 110" d="M314.931,491.341v0A2.34,2.34,0,0,1,313.61,491a2.732,2.732,0,0,1-1.458.338,2.357,2.357,0,0,1-1.9-.755,2.747,2.747,0,0,1-.558-1.819,2.428,2.428,0,0,1,.742-1.722,2.759,2.759,0,0,1,1.947-.76h.03c.055,0,.55,0,1.063-.037.912-.065,1.067-.181,1.081-.194a.078.078,0,0,0-.013.019l.415.1v.109h.008v3.689c0,.242.075.531.432.531h2.45l0-3.882,2.025-.373v4.255h1.5c.319,0,.353-.481.353-.688v-3.194l2.024-.373v3.567c0,.939-.791,1.523-2.064,1.523ZM312.973,487a1.052,1.052,0,0,0-.923.511,2.582,2.582,0,0,0-.291,1.329c0,1.23.3,1.667.548,1.667a.572.572,0,0,0,.543-.343,1.194,1.194,0,0,0,.123-.449Z" transform="translate(-309.692 -483.411)"/>
        <path id="Path_111" data-name="Path 111" d="M387.248,468.824l1.549-.91,1.372,1.04-1.549.9Z" transform="translate(-375.949 -467.914)"/>
        <path id="Path_112" data-name="Path 112" d="M410.766,493.333c-.072,0-.349,0-.9-.042l-.03-.436c.834-.177,1.552-.417,1.841-1.471a4.218,4.218,0,0,1-.619.043c-1.3,0-2.148-.7-2.148-1.783a2.94,2.94,0,0,1,.815-2.092,3.536,3.536,0,0,1,2.051-.992l0,0,.051-.005.143-.018h0a3.38,3.38,0,0,0,1.452-.38l0,0,.416.1v2.954a4.6,4.6,0,0,1-1.021,3.407A2.829,2.829,0,0,1,410.766,493.333Zm1.04-5.984a2.741,2.741,0,0,0-.871,2.233c0,.595.19,1.007.37,1.024.3-.009.5-.641.5-1.233Z" transform="translate(-394.455 -483.498)"/>
        <path id="Path_113" data-name="Path 113" d="M521.84,470.161l1.578-.825.668.438.856-.438,1.406.947-1.591.824-.667-.437-.845.438Z" transform="translate(-490.933 -469.128)"/>
        <path id="Path_114" data-name="Path 114" d="M456.827,478.472a3.448,3.448,0,0,1-1.222-.149,2.918,2.918,0,0,1-1.058.149h-5.5v-.013c-1.085-.09-1.75-.656-1.75-1.51v-5.194l2.025-.765v5.959c0,.688.155.688.258.688h4.678a1.758,1.758,0,0,0,.439-.059,7.605,7.605,0,0,1-1.082-1.863,4.7,4.7,0,0,0-.621-.986l-.17-.2.224-.135a5.723,5.723,0,0,1,2.78-.8,3.444,3.444,0,0,1,1.94.508,1.758,1.758,0,0,1,.811,1.5c0,.876-.856,1.518-1.8,2.031h1.847l1.474.014c.153-.014.331-.15.331-.7v-3.194l2.025-.373v3.567c0,.939-.791,1.523-2.064,1.523Zm-2.036-3.765a7.472,7.472,0,0,1,.711,1.365,9.137,9.137,0,0,0,.417.865,1.821,1.821,0,0,0,.521-1.38,2.118,2.118,0,0,0-.162-.866.46.46,0,0,0-.44-.312A2.147,2.147,0,0,0,454.791,474.706Z" transform="translate(-427.249 -470.542)"/>
      </g>
    </g>
  </g>
</svg>
