<svg id="vtex-logo" xmlns="http://www.w3.org/2000/svg" width="111.239" height="40" viewBox="0 0 111.239 40">
  <path id="Shape" d="M198.659,35.588h-3.988V49.239a.471.471,0,0,1-.467.467h-3.071a.471.471,0,0,1-.467-.467V35.588h-4.017a.449.449,0,0,1-.467-.446V32.725a.449.449,0,0,1,.467-.446h12a.471.471,0,0,1,.493.446v2.418A.471.471,0,0,1,198.659,35.588Z" transform="translate(-118.257 -20.607)"/>
  <path id="Shape-2" data-name="Shape" d="M237.208,49.249a30.7,30.7,0,0,1-4.747.307c-3.027,0-5.7-.774-5.7-5.043v-7.79c0-4.269,2.7-5.018,5.723-5.018a30.313,30.313,0,0,1,4.711.3c.329.047.467.164.467.467v2.191a.471.471,0,0,1-.467.467h-4.93c-1.1,0-1.5.365-1.5,1.6v2.133h6.259a.471.471,0,0,1,.467.467v2.228a.471.471,0,0,1-.467.467h-6.259v2.487c0,1.22.4,1.6,1.5,1.6h4.945a.471.471,0,0,1,.467.467v2.191C237.679,49.059,237.537,49.2,237.208,49.249Z" transform="translate(-144.017 -20.242)"/>
  <path id="Shape-3" data-name="Shape" d="M277.828,49.7H274.1a.617.617,0,0,1-.61-.365l-3.236-5.113-2.922,5.018c-.164.281-.329.467-.588.467h-3.462a.31.31,0,0,1-.365-.307.432.432,0,0,1,.047-.164l5.087-8.469-5.135-8.049a.33.33,0,0,1-.047-.142.34.34,0,0,1,.365-.307h3.776c.259,0,.446.234.588.446l3,4.747,2.922-4.747a.76.76,0,0,1,.588-.446h3.473a.34.34,0,0,1,.365.307.33.33,0,0,1-.047.142l-5.113,8.1,5.321,8.4a.522.522,0,0,1,.069.234A.331.331,0,0,1,277.828,49.7Z" transform="translate(-166.94 -20.6)"/>
  <path id="Shape-4" data-name="Shape" d="M150.083,32.41a.365.365,0,0,0-.365.289L146.311,45.3c-.047.259-.117.365-.329.365s-.281-.095-.329-.365l-3.4-12.606a.365.365,0,0,0-.365-.289H138.54a.365.365,0,0,0-.365.446s4.16,14.451,4.2,14.608a3.537,3.537,0,0,0,3.615,2.556,3.652,3.652,0,0,0,3.615-2.556c.066-.2,4.134-14.608,4.134-14.608a.365.365,0,0,0-.365-.442Z" transform="translate(-87.776 -20.691)"/>
  <path id="Shape-5" data-name="Shape" d="M43.492.32H8.536A3.63,3.63,0,0,0,5.355,5.637l3.5,6.661H2.514a2.286,2.286,0,0,0-2.06,3.36L11.7,36.912a2.33,2.33,0,0,0,4.119,0l3.053-5.759,3.835,7.253a3.6,3.6,0,0,0,6.358,0L46.6,5.447A3.484,3.484,0,0,0,43.492.32ZM27.873,14.245,20.2,28.626a1.519,1.519,0,0,1-2.684,0L9.949,14.383A1.413,1.413,0,0,1,11.2,12.305H26.69a1.318,1.318,0,0,1,1.183,1.939Z" transform="translate(-0.186 -0.32)"/>
</svg>
