<svg xmlns="http://www.w3.org/2000/svg" width="12.6" height="22.304" viewBox="0 0 12.6 22.304">
  <path id="Path_44571" data-name="Path 44571" d="M48.8,30c-.1,0-.2-.1-.2-.3l.2-2.6c0-.1.2-.2.3-.2a21.834,21.834,0,0,0,4.4.4c3.4,0,4-.4,4-2.9,0-1.5-.8-2.2-4.1-4.6s-4.5-3.4-4.5-6C48.9,9.7,50.7,8,56,8a27.738,27.738,0,0,1,4.6.3c.1,0,.2.1.2.3l-.2,2.6c0,.1-.2.2-.3.2a22.3,22.3,0,0,0-3.9-.4c-3,0-4,.2-4,2.4,0,1.8.9,2.4,4.2,4.5,3.4,2.3,4.6,3.8,4.6,6.2,0,4.7-2.1,6.1-7,6.1A18.093,18.093,0,0,1,48.8,30Z" transform="translate(-48.6 -8)"/>
</svg>
