<svg xmlns="http://www.w3.org/2000/svg" width="36" height="36" viewBox="0 0 36 36">
  <g id="ic_b2b" transform="translate(-0.007)">
    <g id="Group_57686" data-name="Group 57686" transform="translate(0.007)">
      <path id="Path_44974" data-name="Path 44974" d="M286.716,366.181h-.967a.527.527,0,1,0,0,1.055h.967a.527.527,0,0,0,0-1.055Z" transform="translate(-265.167 -340.434)"/>
      <path id="Path_44975" data-name="Path 44975" d="M448.119,366.181h-.969a.527.527,0,0,0,0,1.055h.969a.527.527,0,1,0,0-1.055Z" transform="translate(-415.22 -340.434)"/>
      <path id="Path_44976" data-name="Path 44976" d="M265.34,270.361h-2.209v-1.942a1.169,1.169,0,0,0-1.169-1.167h-8.206a1.169,1.169,0,0,0-1.169,1.167v1.942h-2.209a1.781,1.781,0,0,0-1.779,1.779v10.542a1.781,1.781,0,0,0,1.779,1.779h6.264a.527.527,0,1,0,0-1.055h-6.264a.725.725,0,0,1-.724-.724v-5.155a3.087,3.087,0,0,0,2.046.774h2.769v.106a1.161,1.161,0,0,0,1.159,1.159h4.463a1.162,1.162,0,0,0,1.161-1.159V278.3h2.767a3.087,3.087,0,0,0,2.046-.774v5.155a.725.725,0,0,1-.724.724h-6.262a.527.527,0,1,0,0,1.055h6.262a1.781,1.781,0,0,0,1.779-1.779V272.14A1.781,1.781,0,0,0,265.34,270.361Zm-11.7-1.942a.115.115,0,0,1,.114-.112h8.206a.115.115,0,0,1,.114.112v1.942h-8.434Zm6.555,9.987a.107.107,0,0,1-.106.1h-4.463a.1.1,0,0,1-.1-.1v-1.268a.106.106,0,0,1,.1-.1h4.463a.108.108,0,0,1,.106.1Zm3.822-1.161h-2.767v-.106a1.161,1.161,0,0,0-1.161-1.159h-4.463a1.16,1.16,0,0,0-1.159,1.159v.106H251.7a2.048,2.048,0,0,1-2.046-2.046V272.14a.725.725,0,0,1,.724-.724H265.34a.725.725,0,0,1,.724.724V275.2A2.048,2.048,0,0,1,264.019,277.245Z" transform="translate(-231.119 -248.461)"/>
      <path id="Path_44977" data-name="Path 44977" d="M38.1,98.958h-.967a.527.527,0,1,0,0,1.055H38.1a.527.527,0,1,0,0-1.055Z" transform="translate(-34.028 -92)"/>
      <path id="Path_44978" data-name="Path 44978" d="M199.524,98.958h-.967a.527.527,0,1,0,0,1.055h.967a.527.527,0,1,0,0-1.055Z" transform="translate(-184.106 -92)"/>
      <path id="Path_44979" data-name="Path 44979" d="M18.525,15.43V4.888a1.781,1.781,0,0,0-1.779-1.779H14.537V1.167A1.168,1.168,0,0,0,13.37,0H5.164A1.169,1.169,0,0,0,4,1.167V3.109H1.786A1.781,1.781,0,0,0,.007,4.888V15.43a1.781,1.781,0,0,0,1.779,1.779H8.05a.527.527,0,1,0,0-1.055H1.786a.725.725,0,0,1-.724-.724V10.276a3.085,3.085,0,0,0,2.044.773H5.875v.106a1.163,1.163,0,0,0,1.161,1.161H11.5a1.161,1.161,0,0,0,1.159-1.161v-.106h2.769a3.085,3.085,0,0,0,2.044-.773V15.43a.725.725,0,0,1-.724.724H10.484a.527.527,0,1,0,0,1.055h6.262a1.781,1.781,0,0,0,1.779-1.779ZM5.05,1.167a.115.115,0,0,1,.114-.112H13.37a.113.113,0,0,1,.112.112V3.109H5.05ZM11.6,11.155a.108.108,0,0,1-.1.107H7.036a.108.108,0,0,1-.106-.107V9.887a.108.108,0,0,1,.106-.1H11.5a.107.107,0,0,1,.1.1Zm3.824-1.161H12.658V9.887A1.161,1.161,0,0,0,11.5,8.728H7.036A1.161,1.161,0,0,0,5.875,9.887v.106H3.105A2.046,2.046,0,0,1,1.062,7.95V4.888a.725.725,0,0,1,.724-.724h14.96a.725.725,0,0,1,.724.724V7.95A2.046,2.046,0,0,1,15.427,9.993Z" transform="translate(-0.007)"/>
      <path id="Path_44980" data-name="Path 44980" d="M290.818,33.161l4.835,3.312a.942.942,0,0,0,1.535-.825V34.577H299.9v6.578a1.251,1.251,0,0,0,1.251,1.249h1.84a1.251,1.251,0,0,0,1.251-1.249V32a1.769,1.769,0,0,0-1.767-1.767h-5.283V29.168a.943.943,0,0,0-1.535-.828l-4.834,3.313a.848.848,0,0,0,0,1.507Zm5.316-3.871v1.475a.527.527,0,0,0,.527.527h5.81a.713.713,0,0,1,.712.712v9.15a.2.2,0,0,1-.2.194h-1.84a.2.2,0,0,1-.2-.194V34.049a.527.527,0,0,0-.527-.527h-3.763a.527.527,0,0,0-.527.527v1.475l-4.548-3.116Z" transform="translate(-269.944 -26.157)"/>
      <path id="Path_44981" data-name="Path 44981" d="M37.691,292.569l-4.835-3.312a.942.942,0,0,0-1.535.825v1.069H28.61v-6.576a1.25,1.25,0,0,0-1.249-1.249H25.52a1.25,1.25,0,0,0-1.249,1.249v9.15a1.767,1.767,0,0,0,1.765,1.765h5.285v1.071a1,1,0,0,0,.5.931.884.884,0,0,0,.414.1,1.11,1.11,0,0,0,.625-.206l4.836-3.313a.848.848,0,0,0,0-1.506Zm-5.315,3.869v-1.475a.527.527,0,0,0-.527-.527H26.036a.711.711,0,0,1-.71-.71v-9.15a.2.2,0,0,1,.194-.194h1.842a.2.2,0,0,1,.194.194v7.1a.527.527,0,0,0,.527.527h3.765a.527.527,0,0,0,.527-.527v-1.473l4.548,3.116Z" transform="translate(-22.565 -263.405)"/>
    </g>
  </g>
</svg>
