<svg xmlns="http://www.w3.org/2000/svg" width="36" height="36" viewBox="0 0 36 36">
  <g id="ic_marketplace" transform="translate(-16 -16)">
    <path id="Path_44984" data-name="Path 44984" d="M50.2,80H46.6v1.2h3.6a.6.6,0,0,1,.6.6v18.6a.6.6,0,0,1-.6.6H17.8a.6.6,0,0,1-.6-.6V81.8a.6.6,0,0,1,.6-.6h3.6V80H17.8A1.8,1.8,0,0,0,16,81.8v18.6a1.8,1.8,0,0,0,1.8,1.8H30.4v5.4H29.2a.6.6,0,0,0-.6.6v2.4a.6.6,0,0,0,.6.6h9.6a.6.6,0,0,0,.6-.6v-2.4a.6.6,0,0,0-.6-.6H37.6v-5.4H50.2a1.8,1.8,0,0,0,1.8-1.8V81.8A1.8,1.8,0,0,0,50.2,80Zm-12,30H29.8v-1.2h8.4Zm-1.8-2.4H31.6v-5.4h1.8v2.4a.6.6,0,0,0,1.2,0v-2.4h1.8Z" transform="translate(0 -59.2)"/>
    <path id="Path_44985" data-name="Path 44985" d="M64,35.2v1.2H92.8V35.2h-3V21.4a.6.6,0,0,0-.063-.268l-2.4-4.8A.6.6,0,0,0,86.8,16H70a.6.6,0,0,0-.537.332l-2.4,4.8A.6.6,0,0,0,67,21.4V35.2Zm18,0V28h3.6v7.2Zm3-12a1.2,1.2,0,1,1-2.4,0V22H85Zm-3.6,0a1.2,1.2,0,1,1-2.4,0V22h2.4Zm-3.6,0a1.2,1.2,0,1,1-2.4,0V22h2.4Zm-3.6,0a1.2,1.2,0,1,1-2.4,0V22h2.4Zm-6-1.2h2.4v1.2a1.2,1.2,0,1,1-2.4,0Zm13.429-1.2H79.371l1.8-3.6h2.258Zm-3.6,0H75.771l1.8-3.6h2.258Zm-3.6,0H72.171l1.8-3.6h2.258ZM86.2,22h2.4v1.2a1.2,1.2,0,1,1-2.4,0Zm.371-1.2.829-1.658.829,1.658Zm.158-3-1.5,3H82.971l1.8-3.6h1.658Zm-16.358-.6h2.258l-1.8,3.6H68.571ZM68.2,25.277a2.394,2.394,0,0,0,3-.492,2.4,2.4,0,0,0,3.6,0,2.4,2.4,0,0,0,3.6,0,2.4,2.4,0,0,0,3.6,0,2.4,2.4,0,0,0,3.6,0,2.394,2.394,0,0,0,3,.492V35.2H86.8V27.4a.6.6,0,0,0-.6-.6H81.4a.6.6,0,0,0-.6.6v7.8H68.2Z" transform="translate(-44.4)"/>
    <path id="Path_44986" data-name="Path 44986" d="M152.4,160h-7.8a.6.6,0,0,0-.6.6V166a.6.6,0,0,0,.6.6h7.8a.6.6,0,0,0,.6-.6v-5.4A.6.6,0,0,0,152.4,160Zm-.6,5.4h-6.6v-4.2h6.6Z" transform="translate(-118.4 -133.2)"/>
    <rect id="Rectangle_20126" data-name="Rectangle 20126" width="1.2" height="1.2" transform="translate(28 38.2)"/>
    <rect id="Rectangle_20127" data-name="Rectangle 20127" width="1.2" height="1.2" transform="translate(31.6 38.2)"/>
    <rect id="Rectangle_20128" data-name="Rectangle 20128" width="1.2" height="1.2" transform="translate(35.2 38.2)"/>
    <rect id="Rectangle_20129" data-name="Rectangle 20129" width="1.2" height="1.2" transform="translate(38.8 38.2)"/>
    <circle id="Ellipse_99" data-name="Ellipse 99" cx="0.6" cy="0.6" r="0.6" transform="translate(38.2 31)"/>
  </g>
</svg>
