<svg xmlns="http://www.w3.org/2000/svg" width="35.81" height="36" viewBox="0 0 35.81 36">
  <g id="ic_b2c" transform="translate(-1.35 0)">
    <g id="Group_57683" data-name="Group 57683" transform="translate(3.916 6.939)">
      <path id="Path_44968" data-name="Path 44968" d="M39.337,99.748h-.964a.527.527,0,0,1,0-1.055h.964a.527.527,0,0,1,0,1.055Z" transform="translate(-37.846 -98.693)"/>
    </g>
    <g id="Group_57684" data-name="Group 57684" transform="translate(15.236 6.939)">
      <path id="Path_44969" data-name="Path 44969" d="M200.335,99.748h-.964a.527.527,0,0,1,0-1.055h.964a.527.527,0,0,1,0,1.055Z" transform="translate(-198.844 -98.693)"/>
    </g>
    <g id="Group_57685" data-name="Group 57685" transform="translate(1.35 0)">
      <path id="Path_44970" data-name="Path 44970" d="M38.935,311.715l-4.822-3.3a.941.941,0,0,0-1.534.826V310.3h-2.7v-6.559a1.248,1.248,0,0,0-1.247-1.247H26.8a1.248,1.248,0,0,0-1.247,1.247v9.128a1.764,1.764,0,0,0,1.762,1.762H32.58V315.7a1,1,0,0,0,.5.931.884.884,0,0,0,.414.1,1.106,1.106,0,0,0,.623-.206l4.823-3.3a.849.849,0,0,0,0-1.506Zm-5.3,3.859v-1.468a.527.527,0,0,0-.527-.527h-5.8a.708.708,0,0,1-.707-.707v-9.128a.2.2,0,0,1,.192-.192h1.837a.2.2,0,0,1,.192.192v7.087a.527.527,0,0,0,.527.527h3.755a.527.527,0,0,0,.527-.527v-1.468l4.534,3.106Z" transform="translate(-23.848 -281.228)"/>
      <path id="Path_44971" data-name="Path 44971" d="M237.734,229.135a9.89,9.89,0,0,0-7.829,3.814.527.527,0,0,0,.83.651,8.888,8.888,0,1,1,13.072,11.966v-.429a2.8,2.8,0,0,0-1.843-2.907l-1.989-.613v-.484a4.235,4.235,0,0,0,1.642-3.009s0-1.4,0-1.566c.01-1.738.014-2.389-1.3-3.51a4.166,4.166,0,0,0-3.289-.8,5.307,5.307,0,0,0-3.173,3.327v2.548a4.235,4.235,0,0,0,1.64,3.007v.486l-1.99.613a2.8,2.8,0,0,0-1.841,2.907v.429a8.892,8.892,0,0,1-2.031-10.149.527.527,0,1,0-.961-.434,9.946,9.946,0,1,0,9.064-5.848Zm-2.826,6.441c0-1.07.248-1.406,1.154-1.564a.527.527,0,0,0,.377-.276,1.1,1.1,0,0,1,.79-.452,2.779,2.779,0,0,1,.531-.049,3.021,3.021,0,0,1,1.873.617,2.018,2.018,0,0,1,.932,1.98,3.113,3.113,0,0,0-2.388-.139c-.845.189-1.347.274-1.848-.192a.527.527,0,0,0-.882.319c-.041.313-.208.465-.538.618Zm0,2.548v-.544l.1-.039a2.419,2.419,0,0,0,1.22-.847,3.307,3.307,0,0,0,2.179.028c.914-.2,1.531-.342,2.156.546v.855a3.454,3.454,0,0,1-2.171,2.734,1.651,1.651,0,0,1-1.312,0A3.454,3.454,0,0,1,234.908,238.124Zm4.012,3.658v.761c0,.408-.611.628-1.186.628s-1.186-.22-1.186-.628v-.762c.054.023.108.045.163.065a2.694,2.694,0,0,0,2.047,0C238.813,241.827,238.867,241.8,238.92,241.782Zm3.832,4.632a8.871,8.871,0,0,1-10.035,0v-1.277c0-.469.107-1.594,1.1-1.9l1.689-.52a1.528,1.528,0,0,0,.781,1.145,2.858,2.858,0,0,0,1.449.364c1.24,0,2.129-.612,2.231-1.508l1.689.52c.992.306,1.1,1.43,1.1,1.9v1.276Z" transform="translate(-211.869 -213.024)"/>
      <path id="Path_44972" data-name="Path 44972" d="M9.373,17.166a.527.527,0,0,0,0-1.055H3.126A.722.722,0,0,1,2.4,15.39V10.253a3.078,3.078,0,0,0,2.037.769H7.2v.1a1.161,1.161,0,0,0,1.159,1.159h4.451a1.16,1.16,0,0,0,1.157-1.159v-.1h2.76a3.078,3.078,0,0,0,2.037-.769V15.39a.722.722,0,0,1-.721.721H11.8a.527.527,0,0,0,0,1.055h6.245a1.778,1.778,0,0,0,1.776-1.776V4.877A1.778,1.778,0,0,0,18.046,3.1h-2.2V1.165A1.167,1.167,0,0,0,14.678,0H6.495A1.168,1.168,0,0,0,5.327,1.165V3.1h-2.2A1.778,1.778,0,0,0,1.35,4.877V15.39a1.778,1.778,0,0,0,1.776,1.776H9.373Zm3.542-6.039a.106.106,0,0,1-.1.1H8.361a.106.106,0,0,1-.1-.1V9.862a.106.106,0,0,1,.1-.1h4.451a.105.105,0,0,1,.1.1ZM6.382,1.165a.113.113,0,0,1,.113-.111h8.184a.111.111,0,0,1,.111.111V3.1H6.382ZM2.4,5.364V4.877a.722.722,0,0,1,.721-.721h14.92a.722.722,0,0,1,.721.721V7.93A2.039,2.039,0,0,1,16.73,9.967h-2.76v-.1A1.159,1.159,0,0,0,12.812,8.7H8.361A1.16,1.16,0,0,0,7.2,9.862v.1H4.441A2.039,2.039,0,0,1,2.4,7.93V5.364Z" transform="translate(-1.35 0)"/>
      <path id="Path_44973" data-name="Path 44973" d="M291.384,13.131l4.822,3.3a.941.941,0,0,0,1.534-.826V14.543h2.7V21.1a1.25,1.25,0,0,0,1.249,1.249h1.835A1.25,1.25,0,0,0,304.77,21.1V11.974a1.765,1.765,0,0,0-1.764-1.762H297.74V9.148a.941.941,0,0,0-1.533-.827l-4.823,3.3a.849.849,0,0,0,0,1.506Zm5.3-3.859V10.74a.527.527,0,0,0,.527.527h5.794a.709.709,0,0,1,.709.707V21.1a.194.194,0,0,1-.194.194h-1.835a.2.2,0,0,1-.194-.194V14.016a.527.527,0,0,0-.527-.527h-3.753a.527.527,0,0,0-.527.527v1.468l-4.534-3.106Z" transform="translate(-270.566 -7.545)"/>
    </g>
  </g>
</svg>
