<svg id="ic_Omnichannel" xmlns="http://www.w3.org/2000/svg" width="36" height="36" viewBox="0 0 36 36">
  <g id="Group_57687" data-name="Group 57687">
    <path id="Path_44982" data-name="Path 44982" d="M29.169,18.527h1.568a2.658,2.658,0,1,0,0-1.055H29.169a11.138,11.138,0,0,0-2.9-6.994l2.824-2.824a3.374,3.374,0,1,0-.746-.746L25.521,9.733a11.138,11.138,0,0,0-6.994-2.9V5.264a2.658,2.658,0,1,0-1.055,0V6.831a11.139,11.139,0,0,0-6.994,2.9L7.655,6.909a3.365,3.365,0,0,0-.841-4.772.527.527,0,0,0-.59.874A2.313,2.313,0,1,1,4.3,2.7a.527.527,0,0,0-.288-1.015,3.369,3.369,0,1,0,2.9,5.966l2.824,2.824a11.138,11.138,0,0,0-2.9,6.994H5.264a2.658,2.658,0,1,0,0,1.055H6.831a11.138,11.138,0,0,0,2.9,6.994L6.909,28.345a3.374,3.374,0,1,0,.746.746l2.824-2.824a11.138,11.138,0,0,0,6.994,2.9v1.568a2.658,2.658,0,1,0,1.055,0V29.169a11.139,11.139,0,0,0,6.994-2.9l2.824,2.824a3.366,3.366,0,1,0,5.92.911.527.527,0,1,0-1,.333,2.313,2.313,0,1,1-1.349-1.42.527.527,0,0,0,.386-.982,3.365,3.365,0,0,0-3.21.412l-2.824-2.824a11.139,11.139,0,0,0,2.9-6.994ZM33.342,16.4a1.6,1.6,0,1,1-1.6,1.6A1.605,1.605,0,0,1,33.342,16.4ZM31.069,2.617a2.314,2.314,0,1,1-2.314,2.314,2.316,2.316,0,0,1,2.314-2.314ZM16.4,2.658a1.6,1.6,0,1,1,1.6,1.6,1.605,1.605,0,0,1-1.6-1.6ZM2.658,19.6a1.6,1.6,0,1,1,1.6-1.6A1.605,1.605,0,0,1,2.658,19.6ZM18,7.873A10.127,10.127,0,1,1,7.873,18,10.138,10.138,0,0,1,18,7.873ZM4.931,33.383a2.314,2.314,0,1,1,2.314-2.314A2.316,2.316,0,0,1,4.931,33.383ZM19.6,33.342a1.6,1.6,0,1,1-1.6-1.6A1.605,1.605,0,0,1,19.6,33.342Z"/>
    <path id="Path_44983" data-name="Path 44983" d="M164.179,161.607h4.736a.527.527,0,0,0,0-1.055h-1.225v-.893a.527.527,0,0,0-1.055,0v.893h-1.928v-2.6a2.316,2.316,0,0,1,2.313-2.314h6.251a2.316,2.316,0,0,1,2.313,2.314v2.6h-1.928v-.893a.527.527,0,0,0-1.055,0v.893h-1.225a.527.527,0,0,0,0,1.055h4.736a.527.527,0,0,0,.527-.527v-3.125a3.372,3.372,0,0,0-3.368-3.369h-.391a4.079,4.079,0,1,0-5.468,0h-.391a3.372,3.372,0,0,0-3.368,3.369v3.125A.527.527,0,0,0,164.179,161.607Zm2.942-10.045a3.024,3.024,0,1,1,3.024,3.024A3.027,3.027,0,0,1,167.121,151.563Z" transform="translate(-152.145 -137.114)"/>
  </g>
</svg>
