<svg xmlns="http://www.w3.org/2000/svg" width="32.203" height="36" viewBox="0 0 32.203 36">
  <g id="ic_Mobile" transform="translate(0 0)">
    <path id="Path_44987" data-name="Path 44987" d="M254.008,37.406h3.543a.7.7,0,0,0,0-1.406h-3.543a.7.7,0,0,0,0,1.406Zm0,0" transform="translate(-235.494 -33.469)"/>
    <path id="Path_44988" data-name="Path 44988" d="M211,37.406a.7.7,0,1,0-.5-.206A.707.707,0,0,0,211,37.406Zm0,0" transform="translate(-195.514 -33.469)"/>
    <path id="Path_44989" data-name="Path 44989" d="M346.4,37.406a.7.7,0,1,0-.5-.206A.709.709,0,0,0,346.4,37.406Zm0,0" transform="translate(-321.392 -33.469)"/>
    <path id="Path_44990" data-name="Path 44990" d="M89.836,0h-18a2.956,2.956,0,0,0-2.953,2.953V11.32H66.7a.7.7,0,0,0,0,1.406h2.188c0,.016,0,.031,0,.047v4.532H66.7a.7.7,0,0,0,0,1.406h2.186v3.883H65.871a.7.7,0,0,0,0,1.406h3.012v9.046A2.956,2.956,0,0,0,71.836,36h18a2.956,2.956,0,0,0,2.953-2.953V2.953A2.956,2.956,0,0,0,89.836,0Zm-18,1.406h18a1.548,1.548,0,0,1,1.547,1.547V5.062H70.289V2.953A1.548,1.548,0,0,1,71.836,1.406Zm-1.549,11.32H72.14l.834,4.579H70.289V12.773c0-.016,0-.031,0-.047ZM85.31,24.985A.984.984,0,1,1,84.325,24,.986.986,0,0,1,85.31,24.985Zm-9.944-2.391L73.983,15H87.825l-1.782,7.594Zm2.965,2.391A.984.984,0,1,1,77.346,24,.986.986,0,0,1,78.331,24.985Zm-8.042-6.273h2.94l.707,3.883H70.289ZM74.779,24h.39a2.391,2.391,0,1,0,4.356,0h2.624A2.391,2.391,0,1,0,86.5,24h.1a.7.7,0,0,0,.685-.542l2.112-9a.7.7,0,0,0-.684-.864H73.727l-.309-1.7a.7.7,0,0,0-.692-.577H70.289V6.468H91.383V29.531H70.289V24ZM89.836,34.593h-18a1.548,1.548,0,0,1-1.547-1.547V30.937H91.383v2.109A1.548,1.548,0,0,1,89.836,34.593Zm0,0" transform="translate(-60.586)"/>
    <path id="Path_44991" data-name="Path 44991" d="M260.227,453.242H257.2a.7.7,0,0,0,0,1.406h3.023a.7.7,0,0,0,0-1.406Zm0,0" transform="translate(-238.465 -421.374)"/>
    <path id="Path_44992" data-name="Path 44992" d="M3.727,161.7a.7.7,0,0,0-.7-.7H.7a.7.7,0,0,0,0,1.406h2.32A.7.7,0,0,0,3.727,161.7Zm0,0" transform="translate(0 -149.68)"/>
    <path id="Path_44993" data-name="Path 44993" d="M37.781,246.129a.7.7,0,1,0,.5.206A.7.7,0,0,0,37.781,246.129Zm0,0" transform="translate(-34.471 -228.823)"/>
  </g>
</svg>
