<svg xmlns="http://www.w3.org/2000/svg" width="43.858" height="36" viewBox="0 0 43.858 36">
  <g id="ic_Headless" transform="translate(0 -39.887)">
    <path id="Path_44967" data-name="Path 44967" d="M.877,75.887H9.49a.877.877,0,0,0,.877-.877V66.4a.877.877,0,0,0-.877-.877H6.061V61.368h14.99V65.52H17.623a.877.877,0,0,0-.877.877V75.01a.877.877,0,0,0,.877.877h8.613a.877.877,0,0,0,.877-.877V66.4a.877.877,0,0,0-.877-.877h-3.43V61.368H37.8V65.52h-3.43a.877.877,0,0,0-.877.877V75.01a.877.877,0,0,0,.877.877H42.98a.877.877,0,0,0,.877-.877V66.4a.877.877,0,0,0-.877-.877H39.551V60.491a.877.877,0,0,0-.877-.877H22.806V54.273h5.439a.877.877,0,0,0,.877-.877V40.764a.877.877,0,0,0-.877-.877H15.613a.877.877,0,0,0-.877.877V53.4a.877.877,0,0,0,.877.877h5.439v5.341H5.184a.877.877,0,0,0-.877.877V65.52H.877A.877.877,0,0,0,0,66.4V75.01a.877.877,0,0,0,.877.877Zm24.482-1.754H18.5V67.274h6.859Zm16.745,0H35.245V67.274H42.1ZM16.49,41.641H27.368V52.519H16.49ZM1.754,67.274H8.613v6.858H1.754Z"/>
  </g>
</svg>
