<svg id="ic_Consumer" xmlns="http://www.w3.org/2000/svg" xmlns:xlink="http://www.w3.org/1999/xlink" width="77.333" height="80" viewBox="0 0 77.333 80">
  <defs>
    <clipPath id="clip-path">
      <rect id="Rectangle_20062" data-name="Rectangle 20062" width="77.333" height="80" fill="#6ec1b6"/>
    </clipPath>
  </defs>
  <g id="Group_57495" data-name="Group 57495" clip-path="url(#clip-path)">
    <path id="Path_44540" data-name="Path 44540" d="M72,29.467V17.333a17.333,17.333,0,1,0-34.667,0V29.467A6.679,6.679,0,0,0,32,36v2.667A6.716,6.716,0,0,0,35.639,44.6l-3.072,6.063H30.591l-2.6-6.921a6.673,6.673,0,0,0-6.661-6.412H18.157L17.192,35.4A1.331,1.331,0,0,0,16,34.667H10.667A1.334,1.334,0,0,0,9.4,36.421L10.26,39c-.105.093-.208.188-.308.288A6.621,6.621,0,0,0,8,44v6.667H4a1.333,1.333,0,0,0-1.327,1.2L.007,78.533A1.333,1.333,0,0,0,1.2,79.993c.044,0,.089.007.133.007h36a1.334,1.334,0,0,0,1.333-1.333c0-.044,0-.089-.007-.133L37.383,65.756l3.951-4.74V78.667A1.334,1.334,0,0,0,42.667,80h32A1.334,1.334,0,0,0,76,78.667v-32a6.621,6.621,0,0,0-.784-3.133,6.707,6.707,0,0,0,2.117-4.867V36A6.679,6.679,0,0,0,72,29.467M74.667,36v2.667a3.966,3.966,0,0,1-1.153,2.812A6.636,6.636,0,0,0,69.333,40H60V36.079A12.064,12.064,0,0,0,65.989,29.3,6.632,6.632,0,0,0,69.333,28v2.671A1.334,1.334,0,0,0,70.667,32a4,4,0,0,1,4,4m-20-1.333a9.344,9.344,0,0,1-9.333-9.333V18.295L59.64,13.525,64,17.885v7.448a9.344,9.344,0,0,1-9.333,9.333M52,37.031a11.886,11.886,0,0,0,5.333,0v4.3A1.336,1.336,0,0,1,56,42.667H53.333A1.336,1.336,0,0,1,52,41.333Zm14.667-11.7V18.9a4,4,0,0,1-.055,7.56c.035-.371.055-.744.055-1.123m-12-22.667A14.684,14.684,0,0,1,69.333,17.333v0a6.629,6.629,0,0,0-3.421-1.311l-4.969-4.969a1.335,1.335,0,0,0-1.364-.323L43.767,16.007A6.62,6.62,0,0,0,40,17.337v0A14.684,14.684,0,0,1,54.667,2.667M42.721,26.456a4,4,0,0,1-.055-7.56v6.437c0,.379.02.752.055,1.123M34.667,36a4,4,0,0,1,4-4A1.334,1.334,0,0,0,40,30.667V28a6.62,6.62,0,0,0,3.344,1.3,12.059,12.059,0,0,0,5.989,6.779V40H42.064a6.7,6.7,0,0,0-5.041,2.309,4.026,4.026,0,0,1-2.356-3.643Zm-9.333,8a1.334,1.334,0,0,0,.085.468l2.324,6.2H24V44a6.6,6.6,0,0,0-1.108-3.683A4,4,0,0,1,25.333,44M15.176,37.333l.965,1.929A1.331,1.331,0,0,0,17.333,40a4,4,0,0,1,4,4v3.316l-1.419-3.781a1.333,1.333,0,0,0-1.248-.865H17.177a4,4,0,0,1-3.795-2.735l-.867-2.6ZM10.667,44a3.979,3.979,0,0,1,.641-2.173,6.653,6.653,0,0,0,5.869,3.507h.565l2,5.333H10.667ZM2.807,77.333l2.4-24H26.793l2.4,24Zm29.067,0-2.4-24H33.46l2.4,24ZM44,52a1.333,1.333,0,0,0-2.667,0v4.849l-4.323,5.188L35.993,51.867a1.331,1.331,0,0,0-.56-.957l2.987-5.9c.007-.013.013-.025.019-.039a4.016,4.016,0,0,1,3.625-2.308h7.5a4,4,0,0,0,3.769,2.667H56a4.006,4.006,0,0,0,3.771-2.667h9.563a4,4,0,0,1,4,4V61.333H68V52a1.333,1.333,0,1,0-2.667,0V77.333H44ZM68,64h5.333V77.333H68ZM49.333,21.333A1.333,1.333,0,1,1,48,22.667a1.334,1.334,0,0,1,1.333-1.333m10.667,0a1.333,1.333,0,1,1-1.333,1.333A1.334,1.334,0,0,1,60,21.333" transform="translate(0)" fill="#6ec1b6"/>
  </g>
</svg>
