<svg xmlns="http://www.w3.org/2000/svg" width="80" height="79.996" viewBox="0 0 80 79.996">
  <g id="ic_Industrial" transform="translate(-15.976 -16)">
    <path id="Path_44873" data-name="Path 44873" d="M93.329,37.842V16H82.663V32.508l-8-4v9.333L72,36.508V16H61.331V31.175L56,28.509V56H36a4,4,0,0,0-4,4v2.667H23.261L16,74.281V86.663h5.5a5.334,5.334,0,0,0,10.329,0H54.4a5.733,5.733,0,0,0,10.929,0h8V84H72V60a4,4,0,0,0-4-4H58.664V32.823l16,8V82.663H77.33V32.823l16,8V93.329H16V96H96V39.175ZM26.666,88a2.667,2.667,0,1,1,2.667-2.667A2.667,2.667,0,0,1,26.666,88ZM32,84H31.83A5.334,5.334,0,0,0,21.5,84H18.667V76H32ZM32,73.33H19.739l5-8H32ZM59.864,88a3.066,3.066,0,1,1,3.066-3.066A3.067,3.067,0,0,1,59.864,88ZM68,58.664A1.335,1.335,0,0,1,69.331,60V84H65.52a5.732,5.732,0,0,0-11.312,0H34.666V60A1.335,1.335,0,0,1,36,58.664Zm1.333-23.489L64,32.508V24h5.333Zm0-13.842H64V18.667h5.333ZM90.663,36.508,85.33,33.842V24h5.333Zm0-15.175H85.33V18.667h5.333Z" transform="translate(-0.02)" fill="#6ec1b6"/>
    <path id="Path_44874" data-name="Path 44874" d="M68.909,72.626l3.717-3.717L70.807,65.94l.485-1.169,3.375-.809V58.705L71.291,57.9l-.485-1.169,1.819-2.969-3.717-3.717L65.94,51.861l-1.169-.485L63.962,48H58.705L57.9,51.376l-1.169.485-2.969-1.819-3.717,3.717,1.819,2.969L51.376,57.9,48,58.705v5.257l3.375.809.485,1.169L50.041,68.91l3.716,3.716,2.969-1.819,1.169.485.809,3.375h5.257l.809-3.375,1.169-.485ZM62.5,69.348,61.859,72H60.808l-.636-2.652-3.68-1.525-2.336,1.431-.744-.744,1.431-2.335L53.319,62.5l-2.652-.636V60.808l2.652-.636,1.525-3.68-1.431-2.335.744-.744,2.335,1.431,3.68-1.525.636-2.652h1.051l.636,2.652,3.68,1.525,2.335-1.431.744.744-1.431,2.335,1.525,3.68L72,60.808v1.052l-2.652.636-1.525,3.68,1.431,2.335-.744.744-2.335-1.431Z" transform="translate(-26.688 -26.668)" fill="#6ec1b6"/>
    <path id="Path_44875" data-name="Path 44875" d="M101.333,96a5.333,5.333,0,1,0,5.333,5.333A5.333,5.333,0,0,0,101.333,96Zm0,8A2.667,2.667,0,1,1,104,101.333,2.667,2.667,0,0,1,101.333,104Z" transform="translate(-66.688 -66.667)" fill="#6ec1b6"/>
    <path id="Path_44876" data-name="Path 44876" d="M416,176h-8v10.666h8Zm-2.667,8h-2.667v-5.333h2.667Z" transform="translate(-326.69 -133.335)" fill="#6ec1b6"/>
    <path id="Path_44877" data-name="Path 44877" d="M304,186.666V176h-8v10.666Zm-5.333-8h2.667V184h-2.667Z" transform="translate(-233.356 -133.335)" fill="#6ec1b6"/>
    <path id="Path_44878" data-name="Path 44878" d="M408,274.666h8V264h-8Zm2.667-8h2.667V272h-2.667Z" transform="translate(-326.69 -206.669)" fill="#6ec1b6"/>
    <path id="Path_44879" data-name="Path 44879" d="M408,362.666h8V352h-8Zm2.667-8h2.667V360h-2.667Z" transform="translate(-326.69 -280.003)" fill="#6ec1b6"/>
    <rect id="Rectangle_20111" data-name="Rectangle 20111" width="2.667" height="19.999" transform="translate(38.645 61.331)" fill="#6ec1b6"/>
    <rect id="Rectangle_20112" data-name="Rectangle 20112" width="2.667" height="19.999" transform="translate(46.645 61.331)" fill="#6ec1b6"/>
    <rect id="Rectangle_20113" data-name="Rectangle 20113" width="2.667" height="15.999" transform="translate(54.644 61.331)" fill="#6ec1b6"/>
    <rect id="Rectangle_20114" data-name="Rectangle 20114" width="2.667" height="15.999" transform="translate(62.644 61.331)" fill="#6ec1b6"/>
    <path id="Path_44880" data-name="Path 44880" d="M128,224.526a18.75,18.75,0,0,0,4.306-.5l-.613-2.595a16.084,16.084,0,0,1-3.693.428Z" transform="translate(-93.355 -171.195)" fill="#6ec1b6"/>
    <path id="Path_44881" data-name="Path 44881" d="M19.417,39.693a16,16,0,1,1,22.611,9.274l1.232,2.365A18.658,18.658,0,1,0,16.88,40.513Z" transform="translate(0 -0.104)" fill="#6ec1b6"/>
    <path id="Path_44882" data-name="Path 44882" d="M35.49,179.179,33.235,180.6a18.764,18.764,0,0,0,2.871,3.516l1.846-1.924a16.1,16.1,0,0,1-2.462-3.016Z" transform="translate(-14.383 -135.984)" fill="#6ec1b6"/>
    <path id="Path_44883" data-name="Path 44883" d="M76.3,215.555a18.565,18.565,0,0,0,4.31,1.6l.613-2.6a15.884,15.884,0,0,1-3.69-1.373Z" transform="translate(-50.272 -164.327)" fill="#6ec1b6"/>
  </g>
</svg>
