<svg xmlns="http://www.w3.org/2000/svg" width="80" height="79.95" viewBox="0 0 80 79.95">
  <g id="ic_Manufacturing" transform="translate(0 -0.16)">
    <path id="Path_44851" data-name="Path 44851" d="M353.474,254.254a1.172,1.172,0,0,0-1.172-1.172H332.924a1.172,1.172,0,0,0-1.172,1.172v4.418a1.172,1.172,0,0,0,1.172,1.172H352.3a1.172,1.172,0,0,0,1.172-1.172v-4.418ZM351.13,257.5H334.1v-2.074H351.13V257.5Z" transform="translate(-279.916 -213.403)" fill="#6ec1b6"/>
    <path id="Path_44852" data-name="Path 44852" d="M341.437,312.325a1.172,1.172,0,0,0-1.172-1.172h-7.341a1.172,1.172,0,0,0-1.172,1.172v4.417a1.172,1.172,0,0,0,1.172,1.172h7.341a1.172,1.172,0,0,0,1.172-1.172Zm-2.344,3.246h-5V313.5h5Z" transform="translate(-279.916 -262.4)" fill="#6ec1b6"/>
    <path id="Path_44853" data-name="Path 44853" d="M418.476,312.325a1.172,1.172,0,0,0-1.172-1.172h-7.341a1.172,1.172,0,0,0-1.172,1.172v4.417a1.172,1.172,0,0,0,1.172,1.172H417.3a1.172,1.172,0,0,0,1.172-1.172Zm-2.344,3.246h-5V313.5h5Z" transform="translate(-344.917 -262.4)" fill="#6ec1b6"/>
    <path id="Path_44854" data-name="Path 44854" d="M340.265,369.224h-7.341a1.172,1.172,0,0,0-1.172,1.172v4.417a1.172,1.172,0,0,0,1.172,1.172h7.341a1.172,1.172,0,0,0,1.172-1.172V370.4A1.172,1.172,0,0,0,340.265,369.224Zm-1.172,4.417h-5v-2.074h5Z" transform="translate(-279.916 -311.398)" fill="#6ec1b6"/>
    <path id="Path_44855" data-name="Path 44855" d="M417.3,369.224h-7.341a1.172,1.172,0,0,0-1.172,1.172v4.417a1.172,1.172,0,0,0,1.172,1.172H417.3a1.172,1.172,0,0,0,1.172-1.172V370.4A1.172,1.172,0,0,0,417.3,369.224Zm-1.172,4.417h-5v-2.074h5Z" transform="translate(-344.917 -311.398)" fill="#6ec1b6"/>
    <path id="Path_44856" data-name="Path 44856" d="M78.828,139.619h-9a1.172,1.172,0,0,0-1.117.819L66.3,148.086H46.566a1.172,1.172,0,0,0-1.172,1.172v13.32L29.109,165.7l.793-11.809h8.752L39,159.116a1.172,1.172,0,1,0,2.338-.157L39.9,137.485a1.172,1.172,0,0,0-1.169-1.093H29.824a1.172,1.172,0,0,0-1.169,1.093l-1.926,28.673-6.444,1.236-1.68-25a1.172,1.172,0,0,0-1.169-1.093H15.566a1.172,1.172,0,1,0,0,2.344h.774l.439,6.527H9.185l.438-6.527H9.9a1.172,1.172,0,0,0,0-2.344H8.528a1.172,1.172,0,0,0-1.169,1.093L5.195,174.613l-4.233.771A1.172,1.172,0,0,0,0,176.537v17.347a1.172,1.172,0,0,0,1.172,1.172H78.828A1.172,1.172,0,0,0,80,193.884V189.56a1.172,1.172,0,0,0-2.344,0v3.152H68.328v-9.454a1.172,1.172,0,0,0-1.172-1.172H58.238a1.172,1.172,0,0,0-1.172,1.172v9.454H47.738V150.43H77.656V184.2a1.172,1.172,0,1,0,2.344,0v-43.4a1.172,1.172,0,0,0-1.172-1.172ZM38.5,151.549H30.059l.308-4.583h7.821Zm-.86-12.813.4,5.887H30.524l.4-5.887ZM59.41,184.43h6.574v8.282H59.41ZM17.269,157.465H8.7l.332-4.95h7.907Zm-8.731,2.344h8.888l.54,8.03-5.2,1a1.172,1.172,0,0,0-.951,1.151v3.419l-4.238.772ZM2.344,177.515l10.849-1.977a1.172,1.172,0,0,0,.962-1.153v-3.428l31.24-5.993v27.748H2.344Zm66.412-29.429,1.935-6.124h6.966v6.124Z" transform="translate(0 -114.946)" fill="#6ec1b6"/>
    <path id="Path_44857" data-name="Path 44857" d="M172.5,12.853a.034.034,0,0,1,.035.033v2.195c0,4.363,6.761,4.347,6.761,0V12.886a.092.092,0,0,1,.125-.033,4.759,4.759,0,0,0,4.485-3.281h2.553c6.086,0,6.044-9.412,0-9.412h-7.01a4.759,4.759,0,0,0-4.485,3.281h-2.555C166.293,3.441,166.391,12.853,172.5,12.853Zm-1.76-6.376a2.346,2.346,0,0,1,1.67-.692h3.516A1.172,1.172,0,0,0,177.1,4.694a2.4,2.4,0,0,1,2.354-2.19h7.01c3.009,0,3.1,4.724,0,4.724h-3.515a1.172,1.172,0,0,0-1.169,1.091,2.4,2.4,0,0,1-2.354,2.19,2.423,2.423,0,0,0-2.469,2.377v2.195a1.037,1.037,0,0,1-2.074,0V12.886a2.381,2.381,0,0,0-2.379-2.377A2.4,2.4,0,0,1,170.744,6.477Z" transform="translate(-141.641)" fill="#6ec1b6"/>
    <path id="Path_44858" data-name="Path 44858" d="M11.932,38.989a4.84,4.84,0,0,0,4.7,3.739.033.033,0,0,1,.033.033v2.195c0,4.364,6.761,4.348,6.761,0V42.761a.092.092,0,0,1,.125-.033c6.086,0,6.044-9.412,0-9.412H18.227a4.971,4.971,0,1,0-6.295,5.673ZM13.339,31.6a2.63,2.63,0,0,1,2.627,2.627c0,.71.328,1.437,1.161,1.437h6.421c3.008,0,3.1,4.724,0,4.724a2.423,2.423,0,0,0-2.469,2.377v2.195a1.037,1.037,0,0,1-2.074,0V42.761a2.38,2.38,0,0,0-2.377-2.377,2.446,2.446,0,0,1-2.454-2.378A1.172,1.172,0,0,0,13.1,36.838a2.627,2.627,0,0,1,.235-5.243Z" transform="translate(-7.06 -24.546)" fill="#6ec1b6"/>
    <path id="Path_44859" data-name="Path 44859" d="M121.815,373.234h4.067a1.172,1.172,0,0,0,1.172-1.172V368a1.172,1.172,0,0,0-1.172-1.172h-4.067A1.172,1.172,0,0,0,120.643,368v4.067A1.172,1.172,0,0,0,121.815,373.234Zm1.172-4.067h1.723v1.723h-1.723Z" transform="translate(-101.792 -309.373)" fill="#6ec1b6"/>
    <path id="Path_44860" data-name="Path 44860" d="M175.346,373.234h4.067a1.172,1.172,0,0,0,1.172-1.172V368a1.172,1.172,0,0,0-1.172-1.172h-4.067A1.172,1.172,0,0,0,174.174,368v4.067A1.172,1.172,0,0,0,175.346,373.234Zm1.172-4.067h1.723v1.723h-1.723Z" transform="translate(-146.959 -309.373)" fill="#6ec1b6"/>
    <path id="Path_44861" data-name="Path 44861" d="M232.943,366.823h-4.067a1.172,1.172,0,0,0-1.172,1.172v4.067a1.172,1.172,0,0,0,1.172,1.172h4.067a1.172,1.172,0,0,0,1.172-1.172v-4.067A1.172,1.172,0,0,0,232.943,366.823Zm-1.172,4.067h-1.723v-1.723h1.723Z" transform="translate(-192.125 -309.372)" fill="#6ec1b6"/>
    <path id="Path_44862" data-name="Path 44862" d="M78.786,425.5H46.172a1.172,1.172,0,0,0,0,2.344H78.786a1.172,1.172,0,0,0,0-2.344Z" transform="translate(-37.969 -358.881)" fill="#6ec1b6"/>
  </g>
</svg>
