<svg xmlns="http://www.w3.org/2000/svg" width="80" height="58.479" viewBox="0 0 80 58.479">
  <g id="ic_Transportation" transform="translate(0 -68.867)">
    <g id="Group_57650" data-name="Group 57650" transform="translate(0 68.867)">
      <g id="Group_57649" data-name="Group 57649" transform="translate(0 0)">
        <path id="Path_44847" data-name="Path 44847" d="M64.766,87.564H59.729L61.246,70.14c0-.032,0-.063,0-.094,0,0,0-.005,0-.008h0a1.172,1.172,0,0,0-.707-1.074l-.011,0c-.026-.011-.053-.02-.08-.029l-.03-.01-.068-.017-.047-.011-.061-.009-.057-.008h-.01c-.021,0-.041,0-.061,0l-.041,0H36.1a1.172,1.172,0,0,0,0,2.344H58.8L56.469,97.988s0,0,0,.006l-.588,6.756H15.159l.681-7.031h7.753a1.172,1.172,0,1,0,0-2.344H16.067l1.438-14.843h12.34a1.172,1.172,0,0,0,0-2.344H17.733l.676-6.978h13a1.172,1.172,0,1,0,0-2.344H17.344a1.172,1.172,0,0,0-1.143.925l0,.012c-.006.029-.01.059-.014.089,0,.01,0,.019,0,.028v.005l-.8,8.263H1.172a1.172,1.172,0,0,0,0,2.344H15.151L13.713,95.376H9.532a1.172,1.172,0,0,0,0,2.344h3.954L12.7,105.8v0l-1.211,12.5v.009c0,.016,0,.032,0,.048s0,.043,0,.065c0,0,0,0,0,0,0,.03,0,.06,0,.09,0,.01,0,.019,0,.029,0,.03.008.06.014.09,0,.009,0,.018,0,.026s.011.044.017.066.007.031.012.046l0,.013a1.171,1.171,0,0,0,.279.459l.007.007c.013.012.026.024.039.036a1.163,1.163,0,0,0,.272.186c.021.01.041.021.063.03l.02.007c.029.012.059.023.089.033l.008,0c.035.01.07.019.105.027l.014,0c.034.006.068.012.1.015h0q.058.006.114.006h5.219a8.92,8.92,0,0,0,17.686,0h18.8a8.92,8.92,0,0,0,17.687,0h5.221c.039,0,.077,0,.116-.006l.02,0c.03,0,.061-.008.09-.014l.038-.009.069-.018.045-.015.057-.021.047-.02.051-.025.047-.025.048-.029.043-.029.047-.035.038-.031c.016-.014.031-.028.047-.042l.032-.031c.016-.017.032-.034.047-.052l.025-.028c.017-.021.033-.043.048-.065l.016-.023c.019-.029.037-.058.054-.088l0-.006c.018-.033.034-.066.048-.1,0-.01.007-.02.011-.03s.019-.048.027-.074.009-.033.013-.049.011-.039.015-.059.006-.036.009-.054.006-.031.008-.047c.05-.4.967-7.76,1.377-12.521,0,0,0-.009,0-.014.118-1.372.194-2.528.194-3.235A15.252,15.252,0,0,0,64.766,87.564Zm-5.241,2.344h4.794l-.612,7.031H58.912ZM26.72,125a6.579,6.579,0,1,1,6.579-6.579A6.586,6.586,0,0,1,26.72,125ZM63.2,125a6.579,6.579,0,1,1,6.579-6.579A6.586,6.586,0,0,1,63.2,125Zm13.026-7.751H72.047a8.92,8.92,0,0,0-17.687,0h-18.8a8.92,8.92,0,0,0-17.687,0H13.948l.984-10.157H56.955a1.153,1.153,0,0,0,.117-.006l.021,0c.031,0,.061-.008.091-.014l.038-.009.07-.018.046-.016.058-.021.048-.022.051-.025.047-.027.048-.029.044-.03.045-.034.04-.033.043-.04.035-.035.041-.045.031-.037.037-.05.027-.039c.011-.018.022-.036.033-.054s.016-.028.023-.042.018-.037.027-.056.014-.03.02-.046.014-.037.021-.056.012-.033.017-.051.009-.037.014-.055.01-.037.013-.056.006-.037.009-.056.006-.038.008-.058c0,0,0-.005,0-.008l.587-6.742h6.057c3.59,0,5.21,1.86,6.924,3.83,1.415,1.625,2.994,3.438,5.678,3.881C77.027,110.6,76.475,115.224,76.229,117.251Zm1.339-12.607c-1.741-.355-2.813-1.579-4.111-3.07-1.623-1.865-3.605-4.141-7.4-4.565l.606-6.961a12.91,12.91,0,0,1,11,12.75C77.656,103.238,77.623,103.876,77.568,104.644Z" transform="translate(0 -68.867)" fill="#6ec1b6"/>
      </g>
    </g>
    <g id="Group_57652" data-name="Group 57652" transform="translate(22.423 114.126)">
      <g id="Group_57651" data-name="Group 57651">
        <path id="Path_44848" data-name="Path 44848" d="M147.8,358.524a4.3,4.3,0,1,0,4.3,4.3A4.3,4.3,0,0,0,147.8,358.524Zm0,6.25a1.953,1.953,0,1,1,1.953-1.953A1.955,1.955,0,0,1,147.8,364.774Z" transform="translate(-143.508 -358.524)" fill="#6ec1b6"/>
      </g>
    </g>
    <g id="Group_57654" data-name="Group 57654" transform="translate(58.906 114.126)">
      <g id="Group_57653" data-name="Group 57653">
        <path id="Path_44849" data-name="Path 44849" d="M381.293,358.524a4.3,4.3,0,1,0,4.3,4.3A4.3,4.3,0,0,0,381.293,358.524Zm0,6.25a1.953,1.953,0,1,1,1.953-1.953A1.955,1.955,0,0,1,381.293,364.774Z" transform="translate(-376.996 -358.524)" fill="#6ec1b6"/>
      </g>
    </g>
    <g id="Group_57656" data-name="Group 57656" transform="translate(4.193 87.564)">
      <g id="Group_57655" data-name="Group 57655" transform="translate(0 0)">
        <path id="Path_44850" data-name="Path 44850" d="M33.735,188.527H28.006a1.172,1.172,0,0,0,0,2.344h5.729a1.172,1.172,0,1,0,0-2.344Z" transform="translate(-26.834 -188.527)" fill="#6ec1b6"/>
      </g>
    </g>
  </g>
</svg>
