<svg xmlns="http://www.w3.org/2000/svg" width="79.734" height="80" viewBox="0 0 79.734 80">
  <g id="ic_wholesale" transform="translate(-0.301)">
    <path id="Path_44863" data-name="Path 44863" d="M232.3,201.6h5.316v2.658H232.3Zm0,0" transform="translate(-193.462 -168.113)" fill="#6ec1b6"/>
    <path id="Path_44864" data-name="Path 44864" d="M328.3,201.6h5.316v2.658H328.3Zm0,0" transform="translate(-273.515 -168.113)" fill="#6ec1b6"/>
    <path id="Path_44865" data-name="Path 44865" d="M328.3,265.6h5.316v2.658H328.3Zm0,0" transform="translate(-273.515 -221.482)" fill="#6ec1b6"/>
    <path id="Path_44866" data-name="Path 44866" d="M232.3,265.6h5.316v2.658H232.3Zm0,0" transform="translate(-193.462 -221.482)" fill="#6ec1b6"/>
    <path id="Path_44867" data-name="Path 44867" d="M232.3,329.6h5.316v2.658H232.3Zm0,0" transform="translate(-193.462 -274.851)" fill="#6ec1b6"/>
    <path id="Path_44868" data-name="Path 44868" d="M328.3,329.6h5.316v2.658H328.3Zm0,0" transform="translate(-273.515 -274.851)" fill="#6ec1b6"/>
    <path id="Path_44869" data-name="Path 44869" d="M320.3,433.6h2.658v2.658H320.3Zm0,0" transform="translate(-266.844 -361.575)" fill="#6ec1b6"/>
    <path id="Path_44870" data-name="Path 44870" d="M76.048,20.731,40.168,0,4.287,20.731V53.422H6.945v-31.1L40.168,3.189,73.39,22.325V77.342H60.1a5.351,5.351,0,0,0,1.2-2.658h5.449A3.916,3.916,0,0,0,70.732,70.7V64.053a3.916,3.916,0,0,0-3.987-3.987V32.16a3.973,3.973,0,0,0-3.854-3.987H36.048a3.972,3.972,0,0,0-3.854,3.987V60.067H29.536V37.475H26.879v2.658H20.5a3.83,3.83,0,0,0-3.455,2.126L7.477,60.2a3.055,3.055,0,0,0-.531,1.861V70.7a3.916,3.916,0,0,0,3.987,3.987h2.791a9.591,9.591,0,0,0,1.2,2.658H.3V80H80.035V77.342H76.048Zm-49.3,53.953H48.274a9.591,9.591,0,0,0,1.2,2.658H25.55a9.61,9.61,0,0,0,1.2-2.658ZM50.8,73.356a3.987,3.987,0,1,1,3.987,3.987A3.915,3.915,0,0,1,50.8,73.356Zm0-13.289V52.093H64.088v7.973Zm0-18.6H64.088v7.973H50.8Zm-2.658,7.973H34.852V41.462H48.141ZM64.088,32.16V38.8H50.8V30.831H62.892A1.311,1.311,0,0,1,64.088,32.16Zm-28.04-1.329H48.141V38.8H34.852V32.16A1.311,1.311,0,0,1,36.048,30.831Zm-1.2,21.262H48.141v7.973H34.852ZM19.3,43.455a1.4,1.4,0,0,1,1.2-.664h6.379V60.067H10.533ZM9.6,70.7V62.724H66.746a1.255,1.255,0,0,1,1.329,1.329V70.7a1.256,1.256,0,0,1-1.329,1.329H61.3a6.64,6.64,0,0,0-7.84-5.183,6.52,6.52,0,0,0-5.183,5.183H26.746a6.64,6.64,0,0,0-7.84-5.183,6.52,6.52,0,0,0-5.183,5.183H10.932A1.256,1.256,0,0,1,9.6,70.7Zm6.644,2.658a3.987,3.987,0,1,1,3.987,3.987A3.915,3.915,0,0,1,16.247,73.356Zm0,0" fill="#6ec1b6"/>
    <path id="Path_44871" data-name="Path 44871" d="M112.3,433.6h2.658v2.658H112.3Zm0,0" transform="translate(-93.396 -361.575)" fill="#6ec1b6"/>
    <path id="Path_44872" data-name="Path 44872" d="M208.248,52.784,200.274,48,192.3,52.784V64.213h15.947Zm-13.289,1.594,3.987-2.392v9.568h-3.987Zm10.631,7.177H201.6V51.987l3.987,2.392Zm0,0" transform="translate(-160.107 -40.027)" fill="#6ec1b6"/>
  </g>
</svg>
