<svg xmlns="http://www.w3.org/2000/svg" xmlns:xlink="http://www.w3.org/1999/xlink" width="130" height="22.08" viewBox="0 0 130 22.08">
  <defs>
    <clipPath id="clip-path">
      <rect id="Rectangle_20" data-name="Rectangle 20" width="130" height="22.08"/>
    </clipPath>
  </defs>
  <g id="boddess" transform="translate(0 0)">
    <g id="Group_15" data-name="Group 15" transform="translate(0 0)" clip-path="url(#clip-path)">
      <path id="Path_763" data-name="Path 763" d="M10.438,14.89A2.3,2.3,0,0,0,9.272,12.8a5.715,5.715,0,0,0-3.006-.717H4.218v5.607H6.486a4.766,4.766,0,0,0,2.986-.77,2.47,2.47,0,0,0,.966-2.033ZM6.054,8.824a4.441,4.441,0,0,0,2.6-.708,2.308,2.308,0,0,0,1.009-2A2.048,2.048,0,0,0,8.81,4.3a4.082,4.082,0,0,0-2.324-.586H4.218V8.824ZM14.686,15.2a4.741,4.741,0,0,1-.616,2.419,5.436,5.436,0,0,1-1.725,1.8,8.671,8.671,0,0,1-2.678,1.13,14.039,14.039,0,0,1-3.478.4H0V.45H7.021A10.636,10.636,0,0,1,9.868.805a6.988,6.988,0,0,1,2.171.984,4.555,4.555,0,0,1,1.384,1.525,4.021,4.021,0,0,1,.494,1.971,4.417,4.417,0,0,1-1.124,3.141A7,7,0,0,1,9.73,10.241a6.677,6.677,0,0,1,3.586,1.584A4.338,4.338,0,0,1,14.687,15.2Z" transform="translate(0 0.044)"/>
      <path id="Path_764" data-name="Path 764" d="M24.589,17.973a5.893,5.893,0,0,0,2.632-.55A5.33,5.33,0,0,0,29.1,15.9,6.532,6.532,0,0,0,30.222,13.6a10.541,10.541,0,0,0,.37-2.864,10.544,10.544,0,0,0-.37-2.858A6.518,6.518,0,0,0,29.1,5.589a5.31,5.31,0,0,0-1.877-1.533,6.539,6.539,0,0,0-5.265,0,5.344,5.344,0,0,0-1.881,1.525,6.569,6.569,0,0,0-1.121,2.293,10.629,10.629,0,0,0-.368,2.858,10.626,10.626,0,0,0,.368,2.864,6.58,6.58,0,0,0,1.121,2.3,5.334,5.334,0,0,0,1.879,1.524,5.893,5.893,0,0,0,2.632.55M34.9,10.732a12.042,12.042,0,0,1-.693,4.112,10.029,10.029,0,0,1-2,3.371,9.384,9.384,0,0,1-3.226,2.3,10.77,10.77,0,0,1-4.388.848,10.77,10.77,0,0,1-4.388-.848,9.538,9.538,0,0,1-3.248-2.293,9.685,9.685,0,0,1-2-3.371,12.28,12.28,0,0,1-.677-4.112,12.322,12.322,0,0,1,.673-4.094,9.678,9.678,0,0,1,2-3.387A9.556,9.556,0,0,1,20.2.961,10.81,10.81,0,0,1,24.589.114a10.809,10.809,0,0,1,4.392.848,9.406,9.406,0,0,1,3.232,2.294,10.029,10.029,0,0,1,2,3.387,12.107,12.107,0,0,1,.693,4.094" transform="translate(1.419 0.011)"/>
      <path id="Path_765" data-name="Path 765" d="M78.186.347H90.5V3.765h-8V8.721h7.635v3.418H82.5v5.3h8.1v3.418H78.186Z" transform="translate(7.77 0.034)"/>
      <path id="Path_766" data-name="Path 766" d="M105.424,15.036a5.62,5.62,0,0,1-.555,2.492,5.884,5.884,0,0,1-1.555,1.97,7.275,7.275,0,0,1-2.419,1.293,10.071,10.071,0,0,1-3.141.462,15.628,15.628,0,0,1-3.276-.354,13.135,13.135,0,0,1-3.033-1.031l.045-3.693a26.7,26.7,0,0,0,3.326,1.291,10.748,10.748,0,0,0,2.818.37,4.529,4.529,0,0,0,2.51-.631,2.052,2.052,0,0,0,.97-1.832,2.191,2.191,0,0,0-.925-1.817,12.514,12.514,0,0,0-2.832-1.478,20.509,20.509,0,0,1-2.4-1.154A7.789,7.789,0,0,1,93.2,9.586,5.424,5.424,0,0,1,92.1,7.936a5.189,5.189,0,0,1-.385-2.048A5.231,5.231,0,0,1,93.64,1.534,8.075,8.075,0,0,1,98.8.011a14.059,14.059,0,0,1,3.049.308,4.885,4.885,0,0,1,1.818.618L103.73,4.6a13.1,13.1,0,0,0-2.263-.848,9.126,9.126,0,0,0-2.419-.323,4.151,4.151,0,0,0-2.186.509,1.727,1.727,0,0,0-.83,1.586,2.472,2.472,0,0,0,.137.862,1.758,1.758,0,0,0,.509.693,5.262,5.262,0,0,0,.97.646c.4.22.908.457,1.525.722q1.23.524,2.355,1.109a9.693,9.693,0,0,1,1.985,1.354A6.184,6.184,0,0,1,104.9,12.7a5.06,5.06,0,0,1,.523,2.339" transform="translate(9.088 0)"/>
      <path id="Path_767" data-name="Path 767" d="M119.512,15.074a5.62,5.62,0,0,1-.555,2.492,5.884,5.884,0,0,1-1.555,1.97,7.275,7.275,0,0,1-2.419,1.293,10.071,10.071,0,0,1-3.141.462,15.5,15.5,0,0,1-3.278-.354,13.135,13.135,0,0,1-3.033-1.031l.045-3.693a26.7,26.7,0,0,0,3.33,1.292,10.748,10.748,0,0,0,2.818.37,4.529,4.529,0,0,0,2.51-.631,2.052,2.052,0,0,0,.97-1.832,2.191,2.191,0,0,0-.925-1.817,12.514,12.514,0,0,0-2.832-1.478,20.508,20.508,0,0,1-2.4-1.154,7.789,7.789,0,0,1-1.759-1.339,5.424,5.424,0,0,1-1.094-1.649,5.2,5.2,0,0,1-.381-2.046,5.231,5.231,0,0,1,1.924-4.355A8.076,8.076,0,0,1,112.891.049a14.059,14.059,0,0,1,3.049.308,4.885,4.885,0,0,1,1.818.618l.059,3.661a13.1,13.1,0,0,0-2.263-.848,9.126,9.126,0,0,0-2.419-.323,4.151,4.151,0,0,0-2.186.509,1.727,1.727,0,0,0-.836,1.588,2.472,2.472,0,0,0,.137.862,1.758,1.758,0,0,0,.509.693,5.263,5.263,0,0,0,.97.646c.4.22.908.457,1.525.722q1.235.523,2.356,1.109a9.693,9.693,0,0,1,1.985,1.354,6.184,6.184,0,0,1,1.386,1.788,5.06,5.06,0,0,1,.523,2.339" transform="translate(10.488 0.003)"/>
      <path id="Path_768" data-name="Path 768" d="M70.373,10.31c-.538-.019-1.078-.03-1.618-.029-.02.22-.052.431-.089.64a37.149,37.149,0,0,0,4.313.115c.035-.236.066-.473.085-.715-.77.032-1.649.024-2.69-.012" transform="translate(6.824 1.021)"/>
      <line id="Line_6" data-name="Line 6" x1="0.349" transform="translate(66.677 17.33)" fill="#fff"/>
      <line id="Line_7" data-name="Line 7" x1="0.357" transform="translate(67.069 17.33)" fill="#fff"/>
      <path id="Path_769" data-name="Path 769" d="M61,17.308h-.455V3.638h1.971a9.43,9.43,0,0,1,3.017.464A6.856,6.856,0,0,1,67.92,5.448,6.071,6.071,0,0,1,69.476,7.6a6.222,6.222,0,0,1,.3.88c1.349-.188,2.817-.4,4.2-.721a9.192,9.192,0,0,0-.479-1.373,9.49,9.49,0,0,0-2.4-3.249A11.189,11.189,0,0,0,67.334.991a14.791,14.791,0,0,0-4.911-.77H56.235V22.058s9.632-1.586,11.1-2.1a11.208,11.208,0,0,0,3.755-2.139c.11-.1.214-.211.321-.314a5.551,5.551,0,0,1-1.232-.165c-1.03-.251-2.134-.762-3.227-1.143a7.33,7.33,0,0,1-1.419.651,9.433,9.433,0,0,1-3.017.463h-.638" transform="translate(5.589 0.022)"/>
      <path id="Path_770" data-name="Path 770" d="M68.02,12.739a6.186,6.186,0,0,1-.357.55,33.8,33.8,0,0,0,4.288.826c.11-.191.208-.389.3-.588a29.678,29.678,0,0,1-4.136-.77l-.1-.018" transform="translate(6.725 1.266)"/>
      <path id="Path_771" data-name="Path 771" d="M61.017,15.893c-.026.167-.041.279-.051.358h.044c.058-.2.167-.564.268-.88,1-3.174,4.765-2.944,7.407-2.44A6.847,6.847,0,0,0,69,12.3a6.422,6.422,0,0,0,.425-1.429c-.225-.009-.452-.016-.671-.015-3.753.022-7.088.941-7.744,5.044" transform="translate(6.059 1.078)"/>
      <path id="Path_772" data-name="Path 772" d="M60.431,14.239c0,.619.035,1.159.074,1.6.026.3.055.541.077.724h.086c.45-5.167,4.594-6.02,8.905-6.027.024-.263.037-.531.037-.808a7.661,7.661,0,0,0-.256-2c-1.025.144-1.979.275-2.772.44-3.581.73-6.15,2.08-6.15,6.075" transform="translate(6.006 0.768)"/>
      <path id="Path_773" data-name="Path 773" d="M61.33,16.043h.046l.034-.048c1.376-1.979,3.188-1.71,5.035-1.065a6.384,6.384,0,0,0,.966-.695,5.95,5.95,0,0,0,.88-.964c-.307-.064-.609-.123-.906-.169-2.606-.4-5.252-.22-6.055,2.943" transform="translate(6.095 1.286)"/>
      <path id="Path_774" data-name="Path 774" d="M70.04,16.137a3.537,3.537,0,0,0,3.171-1.955c.162-.247.162-.247-.048-.22a6.662,6.662,0,0,1-1.45.03,9.434,9.434,0,0,1-1.672,2.143" transform="translate(6.961 1.386)"/>
      <path id="Path_775" data-name="Path 775" d="M77.623,4.214a3.165,3.165,0,0,1-.527.832,8.844,8.844,0,0,1-4.727,2.318,10.249,10.249,0,0,1,.367,2.721c0,.289-.02.568-.041.849,3.819-.162,4.523-1.429,4.907-6.352.04-.52.087-.515.021-.366" transform="translate(7.192 0.41)"/>
      <path id="Path_776" data-name="Path 776" d="M71.838,13.775c1.511.078,2.868-.291,3.42-1.893a5.036,5.036,0,0,0,.22-1.394c.013-.288.013-.288-.131-.214s-.431.22-.757.353a6.63,6.63,0,0,1-1.928.413,9.426,9.426,0,0,1-.721,2.529c-.032.07-.071.134-.1.2" transform="translate(7.139 1.017)"/>
      <path id="Path_777" data-name="Path 777" d="M40.672,10.31c.538-.019,1.078-.03,1.618-.029.021.22.052.431.089.64a37.149,37.149,0,0,1-4.313.115c-.035-.236-.066-.473-.084-.715.77.032,1.649.024,2.689-.012" transform="translate(3.775 1.021)"/>
      <line id="Line_8" data-name="Line 8" x2="0.349" transform="translate(54.624 17.33)" fill="#fff"/>
      <line id="Line_9" data-name="Line 9" x2="0.357" transform="translate(54.222 17.33)" fill="#fff"/>
      <path id="Path_778" data-name="Path 778" d="M51.253,17.308h.455V3.638h-1.97a9.43,9.43,0,0,0-3.017.464,6.856,6.856,0,0,0-2.387,1.346A6.055,6.055,0,0,0,42.78,7.6a6.178,6.178,0,0,0-.3.88c-1.349-.188-2.817-.4-4.2-.721a9.231,9.231,0,0,1,.479-1.376,9.469,9.469,0,0,1,2.4-3.248A11.2,11.2,0,0,1,44.919.991,14.791,14.791,0,0,1,49.83.221h6.19V22.058s-9.632-1.586-11.1-2.1A11.218,11.218,0,0,1,41.16,17.82c-.11-.1-.214-.211-.321-.314a5.56,5.56,0,0,0,1.234-.165c1.029-.251,2.133-.762,3.227-1.143a7.33,7.33,0,0,0,1.419.651,9.464,9.464,0,0,0,3.017.463h.633" transform="translate(3.805 0.022)"/>
      <path id="Path_779" data-name="Path 779" d="M43.047,12.739a6.44,6.44,0,0,0,.357.55,33.8,33.8,0,0,1-4.288.826c-.11-.191-.208-.389-.3-.588a29.678,29.678,0,0,0,4.136-.77l.1-.018" transform="translate(3.857 1.266)"/>
      <path id="Path_780" data-name="Path 780" d="M50.4,15.893c.026.167.041.279.052.358h-.044c-.058-.2-.167-.564-.269-.88-1-3.174-4.765-2.944-7.407-2.44a6.229,6.229,0,0,1-.746-2.064c.225-.009.452-.016.671-.015,3.753.022,7.088.941,7.744,5.044" transform="translate(4.173 1.078)"/>
      <path id="Path_781" data-name="Path 781" d="M51.048,14.239c0,.619-.035,1.159-.074,1.6-.026.3-.055.541-.077.724h-.085c-.451-5.167-4.6-6.02-8.905-6.027-.024-.263-.037-.531-.037-.808a7.662,7.662,0,0,1,.256-2c1.025.144,1.979.275,2.772.44,3.582.73,6.15,2.08,6.15,6.075" transform="translate(4.161 0.768)"/>
      <path id="Path_782" data-name="Path 782" d="M49.949,16.043H49.9l-.034-.048c-1.376-1.979-3.188-1.71-5.035-1.065a6.385,6.385,0,0,1-.966-.695,5.951,5.951,0,0,1-.88-.964c.307-.064.61-.123.906-.169,2.606-.4,5.252-.22,6.055,2.943" transform="translate(4.272 1.286)"/>
      <path id="Path_783" data-name="Path 783" d="M40.907,16.137a3.537,3.537,0,0,1-3.171-1.955c-.162-.247-.162-.247.048-.22a6.662,6.662,0,0,0,1.45.03,9.435,9.435,0,0,0,1.672,2.143" transform="translate(3.739 1.386)"/>
      <path id="Path_784" data-name="Path 784" d="M33.506,4.214a3.165,3.165,0,0,0,.527.832A8.844,8.844,0,0,0,38.76,7.363a10.249,10.249,0,0,0-.367,2.721c0,.289.021.568.042.849-3.819-.162-4.524-1.429-4.908-6.352-.04-.52-.087-.515-.021-.366" transform="translate(3.327 0.41)"/>
      <path id="Path_785" data-name="Path 785" d="M39.144,13.775c-1.511.078-2.869-.291-3.421-1.893a5.036,5.036,0,0,1-.22-1.394c-.013-.288-.013-.288.131-.214s.431.22.759.353a6.63,6.63,0,0,0,1.928.413,9.415,9.415,0,0,0,.721,2.529c.032.07.071.134.11.2" transform="translate(3.528 1.017)"/>
    </g>
  </g>
</svg>
