<svg xmlns="http://www.w3.org/2000/svg" width="184.5" height="2.799" viewBox="0 0 184.5 2.799">
  <path id="Path_41996" data-name="Path 41996" d="M224.788,1.606a1.25,1.25,0,0,0-.568-.315,44.025,44.025,0,0,0-9.555-.819c-.442.027-.854.313-1.327.137C210.5-.443,207.518.53,204.629.141c-1.688-.228-3.377.7-5.036.183a6.394,6.394,0,0,0-3.112-.136,27.5,27.5,0,0,1-5.816.35c-2.233-.02-4.517.077-6.77.256-.12-.111-.213-.114-.236,0-.008.038.058.087.092.131a19.639,19.639,0,0,0-4.5-.512c-4.671-.055-9.338.164-14.013.01-4.3-.142-8.594.061-12.884.319-1.379-.716-2.811-.1-4.217-.123C145.331.563,142.515.4,139.72.531c-1.758.084-3.6-.64-5.286.313-2.165-.884-4.427-.061-6.639-.278-1.933-.189-3.918.169-5.823.055-2.411-.144-4.822-.087-7.23-.2-4.833-.236-9.672.136-14.517.023-3.244-.075-6.5-.485-9.754-.064A4.017,4.017,0,0,1,88.893.246,9.682,9.682,0,0,0,85.952.01C79.1.124,72.237.2,65.385.4a123.172,123.172,0,0,0-14.436.854,13.938,13.938,0,0,1-4.521.265c-1.712-.316-3.3.37-4.962.216a.644.644,0,0,0-.736.616c0,.466.465.452.839.44a62.877,62.877,0,0,0,8.175-.352c4.416-.74,8.881-.554,13.309-.926,4.2-.355,8.469-.178,12.707-.162,9.415.036,18.826.118,28.242.3,15.394.3,30.8.072,46.2.08.811,0,1.529-.046,1.911-.78.474,1.253,1.836.894,2.725.906,2.532.037,5.07-.456,7.591.242a3.551,3.551,0,0,0,1.588.006c2.686-.557,5.432.513,8.1-.252,4.157.521,8.341.138,12.507.295a14.509,14.509,0,0,1,3.165-.009c2.145.538,4.364.107,6.508.029,1.367-.051,2.93-.292,4.216-.2,2.895.207,5.772.084,8.653.145,5.155.11,10.322-.15,15.466.394a3.6,3.6,0,0,0,2.59-.319,3.735,3.735,0,0,0-.443-.589" transform="translate(-40.731 0)" fill="#6ec1b6"/>
</svg>
