<svg id="eyebou" xmlns="http://www.w3.org/2000/svg" width="112.699" height="30" viewBox="0 0 112.699 30">
  <path id="Path_42024" data-name="Path 42024" d="M4.6,12.813h5.2V8.21H0V25.556H12.144V20.939H4.6Z" transform="translate(0 4.099)"/>
  <rect id="Rectangle_19655" data-name="Rectangle 19655" width="12.144" height="4.603" transform="translate(0 0.33)"/>
  <path id="Path_42025" data-name="Path 42025" d="M19.271,10.73,16.168.22H11.31l5.652,19.025v10.3H21.61v-10.3L27.307.22H22.449Z" transform="translate(5.647 0.11)"/>
  <path id="Path_42026" data-name="Path 42026" d="M25.53,29.545H37.674V24.928H30.133V16.8H35.32V12.2H30.133V4.838h7.541V.22H25.53Z" transform="translate(12.746 0.11)"/>
  <path id="Path_42027" data-name="Path 42027" d="M49.919,14.553A5.883,5.883,0,0,0,51.6,10.025V7.3a8.31,8.31,0,0,0-.54-3.1,5.614,5.614,0,0,0-1.589-2.339A6.963,6.963,0,0,0,44.657.22H38.33V29.53h6.957A6.861,6.861,0,0,0,50.1,27.9a5.711,5.711,0,0,0,1.589-2.339,7.753,7.753,0,0,0,.54-3.058V19.83C52.213,17.4,51.448,15.632,49.919,14.553Zm-7-9.715h1.724A2.537,2.537,0,0,1,46.4,5.3a2.8,2.8,0,0,1,.585,2.009V10.04a2.9,2.9,0,0,1-.63,2.1,2.492,2.492,0,0,1-1.724.51H42.9V4.838ZM47.61,22.5a2.627,2.627,0,0,1-.585,1.964,2.537,2.537,0,0,1-1.754.465H42.933V17.221h2.339a2.469,2.469,0,0,1,1.724.51,2.809,2.809,0,0,1,.63,2.1V22.5Z" transform="translate(19.136 0.11)"/>
  <path id="Path_42028" data-name="Path 42028" d="M58.937,0a6.8,6.8,0,0,0-4.858,1.724,7.24,7.24,0,0,0-2.1,5.487v6.027a7.24,7.24,0,0,0,2.1,5.487,6.87,6.87,0,0,0,4.858,1.724,6.8,6.8,0,0,0,4.858-1.724,7.24,7.24,0,0,0,2.1-5.487V7.2a7.24,7.24,0,0,0-2.1-5.487A6.861,6.861,0,0,0,58.937,0Zm2.339,13.238a2.74,2.74,0,0,1-.63,2.1,2.415,2.415,0,0,1-1.724.51,2.469,2.469,0,0,1-1.724-.51,2.809,2.809,0,0,1-.63-2.1V7.2a2.809,2.809,0,0,1,.63-2.1A2.493,2.493,0,0,1,58.922,4.6a2.443,2.443,0,0,1,1.724.495,2.718,2.718,0,0,1,.63,2.1Z" transform="translate(25.951)"/>
  <path id="Path_42029" data-name="Path 42029" d="M75.185.22V22.679a2.809,2.809,0,0,1-.63,2.1,3.221,3.221,0,0,1-3.478,0,2.855,2.855,0,0,1-.585-2.1V.22h-4.6V22.679a7.24,7.24,0,0,0,2.1,5.487,6.87,6.87,0,0,0,4.858,1.724A7.006,7.006,0,0,0,77.7,28.166a7.425,7.425,0,0,0,2.1-5.487V.22Z" transform="translate(32.896 0.11)"/>
  <rect id="Rectangle_19656" data-name="Rectangle 19656" width="13.898" height="4.603" transform="translate(77.931 25.037)"/>
</svg>
