<svg id="seniority" xmlns="http://www.w3.org/2000/svg" xmlns:xlink="http://www.w3.org/1999/xlink" width="128.209" height="40" viewBox="0 0 128.209 40">
  <defs>
    <clipPath id="clip-path">
      <rect id="Rectangle_18" data-name="Rectangle 18" width="128.209" height="40" fill="none"/>
    </clipPath>
  </defs>
  <g id="Group_14" data-name="Group 14" clip-path="url(#clip-path)">
    <path id="Path_738" data-name="Path 738" d="M24.412,10.778C22.579,5.266,17.52,1.691,9.38.146L9.286.128C9.216.114,9.152.1,9.1.093s-.1-.02-.145-.031h0l0,0A2.551,2.551,0,0,0,8.534.008a.391.391,0,0,1-.042,0C8.457,0,8.424,0,8.388,0A2.963,2.963,0,0,0,6.019,1.185c-.066.1-.181.235-.332.422C3.792,3.986-1.978,11.22.695,19.267c2.535,7.631,11,8.489,14.194,8.812.173.017.329.035.464.05l.079.009a4.2,4.2,0,0,0,.519.032,3.8,3.8,0,0,0,1.247-.205,3.554,3.554,0,0,0,.5-.223.178.178,0,0,0,.023-.014,3.635,3.635,0,0,0,.37-.224c.023-.016.046-.037.069-.054.1-.077.207-.154.306-.24.121-.109.238-.226.354-.352.071-.08.156-.17.25-.268l.133-.143c2.1-2.241,7.694-8.2,5.214-15.667M15.155,25.429c-2.719-.274-9.94-1.007-11.933-7C1.444,13.077,4.361,7.916,6.449,5a21.7,21.7,0,0,0,.976,3.644,22.2,22.2,0,0,0,3.769,6.23,19.916,19.916,0,0,1,3.391,5.536,14.784,14.784,0,0,1,1.027,5.067l-.457-.048" transform="translate(0)"/>
    <path id="Path_739" data-name="Path 739" d="M211,44.676a4.924,4.924,0,0,0-3.4,1.295,1.367,1.367,0,0,0-.235-.66,1.421,1.421,0,0,0-1.2-.581,1.436,1.436,0,0,0-1.219.627A2.231,2.231,0,0,0,204.7,46.7V56.55a2.43,2.43,0,0,0,.211,1.253,1.479,1.479,0,0,0,2.52,0,2.433,2.433,0,0,0,.21-1.252V50.16a2.5,2.5,0,0,1,2.623-2.8c1.616,0,2.543,1.023,2.543,2.8V56.55a2.436,2.436,0,0,0,.211,1.254,1.48,1.48,0,0,0,2.521,0,2.413,2.413,0,0,0,.21-1.252V49.767a4.954,4.954,0,0,0-1.378-3.847A4.735,4.735,0,0,0,211,44.676" transform="translate(-146.381 -31.947)"/>
    <path id="Path_740" data-name="Path 740" d="M255.036,25.86a1.747,1.747,0,1,0,1.747,1.746,1.749,1.749,0,0,0-1.747-1.746" transform="translate(-181.125 -18.492)"/>
    <path id="Path_741" data-name="Path 741" d="M255.727,44.866a1.352,1.352,0,0,0-1.26.7,2.42,2.42,0,0,0-.212,1.253v9.865a2.432,2.432,0,0,0,.212,1.254,1.478,1.478,0,0,0,2.519,0,2.391,2.391,0,0,0,.213-1.252V46.821a2.413,2.413,0,0,0-.213-1.254,1.354,1.354,0,0,0-1.259-.7" transform="translate(-181.816 -32.083)"/>
    <path id="Path_742" data-name="Path 742" d="M279.774,44.676a5.476,5.476,0,0,0-4.07,1.614c-1.332,1.372-1.6,3.056-1.6,5.327s.268,3.957,1.6,5.325a5.933,5.933,0,0,0,8.142,0c1.328-1.384,1.6-3.064,1.6-5.325s-.27-3.941-1.6-5.327a5.477,5.477,0,0,0-4.069-1.614m-1.845,3.4a2.725,2.725,0,0,1,3.693,0c.773.786.878,2.166.878,3.54s-.105,2.767-.878,3.541a2.728,2.728,0,0,1-3.695,0c-.771-.773-.878-2.159-.878-3.54s.106-2.754.88-3.54" transform="translate(-196.01 -31.947)"/>
    <path id="Path_743" data-name="Path 743" d="M332.017,45.316a4.011,4.011,0,0,0-2.409-.641,4.541,4.541,0,0,0-3.276,1.354,1.366,1.366,0,0,0-.237-.72,1.507,1.507,0,0,0-2.412.046,2.208,2.208,0,0,0-.255,1.343v9.851a2.43,2.43,0,0,0,.211,1.253,1.479,1.479,0,0,0,2.52,0,2.4,2.4,0,0,0,.209-1.252V50.2a2.6,2.6,0,0,1,2.583-2.843,2.765,2.765,0,0,1,1.376.376,2.226,2.226,0,0,0,1.105.372,1.483,1.483,0,0,0,1.012-.406,1.538,1.538,0,0,0,.431-1.066,1.6,1.6,0,0,0-.859-1.314" transform="translate(-231.281 -31.947)"/>
    <path id="Path_744" data-name="Path 744" d="M363.349,25.86a1.747,1.747,0,1,0,1.746,1.746,1.749,1.749,0,0,0-1.746-1.746" transform="translate(-258.579 -18.492)"/>
    <path id="Path_745" data-name="Path 745" d="M364.039,44.866a1.357,1.357,0,0,0-1.262.7,2.438,2.438,0,0,0-.21,1.253v9.865a2.422,2.422,0,0,0,.212,1.254,1.478,1.478,0,0,0,2.519,0,2.419,2.419,0,0,0,.21-1.252V46.821a2.415,2.415,0,0,0-.213-1.254,1.35,1.35,0,0,0-1.258-.7" transform="translate(-259.269 -32.083)"/>
    <path id="Path_746" data-name="Path 746" d="M387.105,46.651a2.3,2.3,0,0,0-1.032-.2c-.833-.022-1.222-.466-1.222-1.4V37.732h1.311a1.827,1.827,0,0,0,1-.174,1.163,1.163,0,0,0,0-1.965,1.813,1.813,0,0,0-.994-.174h-1.311V33.467a2.442,2.442,0,0,0-.211-1.256,1.482,1.482,0,0,0-2.519,0,2.418,2.418,0,0,0-.212,1.254v1.952h-.484a1.827,1.827,0,0,0-1,.173,1.166,1.166,0,0,0,0,1.965,1.818,1.818,0,0,0,1,.174h.484v7.436a3.518,3.518,0,0,0,3.74,3.818h.264a2.5,2.5,0,0,0,1.19-.224,1.159,1.159,0,0,0,.608-1.05,1.173,1.173,0,0,0-.606-1.06" transform="translate(-271.656 -22.533)"/>
    <path id="Path_747" data-name="Path 747" d="M422.9,45.758a1.464,1.464,0,0,0-1.375-.891c-.891,0-1.172.621-1.421,1.377L417.553,54l-2.5-7.757c-.253-.756-.532-1.377-1.427-1.377a1.47,1.47,0,0,0-1.374.891,2.163,2.163,0,0,0,.145,1.369l3.713,10.794-.628,1.911c-.392,1.165-1,1.326-1.594,1.326a1.385,1.385,0,0,0-.971.276,1.417,1.417,0,0,0-.035,2.055,1.975,1.975,0,0,0,1.323.35,3.673,3.673,0,0,0,2.705-1.023,4.168,4.168,0,0,0,1-1.7l4.839-13.983a2.115,2.115,0,0,0,.146-1.372" transform="translate(-294.756 -32.084)"/>
    <path id="Path_748" data-name="Path 748" d="M161.8,44.676c-3.615,0-5.775,2.6-5.775,6.942,0,5.737,3.332,6.941,6.128,6.941a6.5,6.5,0,0,0,3.549-.874c.928-.6,1.4-1.174,1.4-1.725a1.323,1.323,0,0,0-1.237-1.274,1.864,1.864,0,0,0-1.17.515,3.915,3.915,0,0,1-2.476.81c-2.011,0-3.23-1.3-3.276-3.485h6.934a1.43,1.43,0,0,0,1.682-1.67c-.081-3.752-2.346-6.179-5.759-6.179m-2.53,4.1a2.776,2.776,0,0,1,5.031,0,4.117,4.117,0,0,1,.347,1.623h-5.7a3.767,3.767,0,0,1,.325-1.623" transform="translate(-111.572 -31.947)"/>
    <path id="Path_749" data-name="Path 749" d="M110.423,34.091l-2.231-.342a3.431,3.431,0,0,1-1.98-.809,2.017,2.017,0,0,1-.637-1.629c0-1.733,1.217-2.766,3.253-2.766a5.51,5.51,0,0,1,3.235.9,2.641,2.641,0,0,0,1.211.426,1.218,1.218,0,0,0,.968-.453,1.46,1.46,0,0,0,.36-.952c0-.6-.421-1.136-1.213-1.548a8.351,8.351,0,0,0-4.456-1.117c-3.876,0-6.378,2.193-6.378,5.589a4.756,4.756,0,0,0,1.421,3.679,6.434,6.434,0,0,0,3.6,1.542l2.218.315a3.567,3.567,0,0,1,1.965.757,2.24,2.24,0,0,1,.687,1.84c0,1.774-1.325,2.753-3.723,2.753a6.177,6.177,0,0,1-3.9-1.171,2.171,2.171,0,0,0-1.283-.5,1.291,1.291,0,0,0-.922.38,1.512,1.512,0,0,0-.432,1.025c0,.8.468,1.219,1.391,1.768a9.131,9.131,0,0,0,5.092,1.278c4.163,0,6.851-2.2,6.851-5.617a5.1,5.1,0,0,0-1.567-3.929,6.237,6.237,0,0,0-3.531-1.422" transform="translate(-73.072 -18.449)"/>
    <path id="Path_750" data-name="Path 750" d="M103.021,116.1a.826.826,0,0,1-.189-.635v-5.2a1.12,1.12,0,0,1,.093-.591.7.7,0,0,1,1.172,0,1.129,1.129,0,0,1,.092.591v4.824h2.35a1.037,1.037,0,0,1,.529.078.622.622,0,0,1,0,1.046,1.043,1.043,0,0,1-.529.078h-2.883a.828.828,0,0,1-.635-.189" transform="translate(-73.534 -78.193)"/>
    <path id="Path_751" data-name="Path 751" d="M123.233,108.445a.727.727,0,1,1-.726.727.726.726,0,0,1,.726-.727m.548,6.934a.65.65,0,0,1-1.095,0,1.133,1.133,0,0,1-.083-.562V111.56a1.132,1.132,0,0,1,.083-.562.651.651,0,0,1,1.095,0,1.145,1.145,0,0,1,.082.562v3.256a1.157,1.157,0,0,1-.082.562" transform="translate(-87.604 -77.548)"/>
    <path id="Path_752" data-name="Path 752" d="M131.376,116.82a.983.983,0,0,1-.072-.587.609.609,0,0,1,.586-.391c.393,0,.5.3.606.606l.81,2.456.809-2.456c.1-.305.213-.606.6-.606a.609.609,0,0,1,.587.391.983.983,0,0,1-.073.587l-1.182,3.475a1.078,1.078,0,0,1-.286.513.648.648,0,0,1-.46.16.656.656,0,0,1-.461-.16,1.076,1.076,0,0,1-.287-.513Z" transform="translate(-93.878 -82.838)"/>
    <path id="Path_753" data-name="Path 753" d="M149.521,118.744a1.035,1.035,0,0,0,1.115,1.123,1.458,1.458,0,0,0,.872-.271.764.764,0,0,1,.47-.189.545.545,0,0,1,.508.528c0,.238-.2.456-.494.649a2.446,2.446,0,0,1-1.376.349c-1.2,0-2.336-.542-2.336-2.582,0-1.648.887-2.584,2.195-2.584a2.144,2.144,0,0,1,2.2,2.253.739.739,0,0,1-.17.562.707.707,0,0,1-.551.161h-2.428Zm1.8-1.409a.949.949,0,0,0-1.691,0,1.275,1.275,0,0,0-.111.548h1.914a1.355,1.355,0,0,0-.112-.548" transform="translate(-106.035 -82.785)"/>
    <path id="Path_754" data-name="Path 754" d="M177.648,118.744a1.035,1.035,0,0,0,1.114,1.123,1.455,1.455,0,0,0,.872-.271.765.765,0,0,1,.47-.189.546.546,0,0,1,.509.528c0,.238-.2.456-.495.649a2.444,2.444,0,0,1-1.376.349c-1.2,0-2.335-.542-2.335-2.582,0-1.648.887-2.584,2.195-2.584a2.144,2.144,0,0,1,2.2,2.253.738.738,0,0,1-.17.562.707.707,0,0,1-.551.161h-2.428Zm1.8-1.409a.949.949,0,0,0-1.691,0,1.274,1.274,0,0,0-.111.548h1.913a1.351,1.351,0,0,0-.111-.548" transform="translate(-126.148 -82.785)"/>
    <path id="Path_755" data-name="Path 755" d="M194.652,116.82a.991.991,0,0,1-.073-.587.61.61,0,0,1,.587-.391c.393,0,.5.3.606.606l.809,2.456.809-2.456c.1-.305.213-.606.606-.606a.608.608,0,0,1,.586.391.978.978,0,0,1-.073.587l-1.182,3.475a1.081,1.081,0,0,1-.286.513.743.743,0,0,1-.921,0,1.078,1.078,0,0,1-.286-.513Z" transform="translate(-139.126 -82.838)"/>
    <path id="Path_756" data-name="Path 756" d="M212.8,118.744a1.035,1.035,0,0,0,1.115,1.123,1.453,1.453,0,0,0,.872-.271.767.767,0,0,1,.47-.189.545.545,0,0,1,.508.528c0,.238-.2.456-.494.649a2.449,2.449,0,0,1-1.376.349c-1.2,0-2.335-.542-2.335-2.582,0-1.648.887-2.584,2.195-2.584a2.143,2.143,0,0,1,2.194,2.253.739.739,0,0,1-.17.562.708.708,0,0,1-.552.161H212.8Zm1.8-1.409a.949.949,0,0,0-1.692,0,1.275,1.275,0,0,0-.111.548h1.915a1.352,1.352,0,0,0-.112-.548" transform="translate(-151.285 -82.785)"/>
    <path id="Path_757" data-name="Path 757" d="M233.9,115.771a1.475,1.475,0,0,1,.872.233.619.619,0,0,1,.13.988.6.6,0,0,1-.421.175.956.956,0,0,1-.432-.131,1.04,1.04,0,0,0-.479-.131.837.837,0,0,0-.839.929v2.22a1.151,1.151,0,0,1-.082.562.649.649,0,0,1-1.095,0,1.137,1.137,0,0,1-.083-.562v-3.406a1.009,1.009,0,0,1,.093-.567.606.606,0,0,1,.542-.29.565.565,0,0,1,.4.145.585.585,0,0,1,.189.382,1.64,1.64,0,0,1,1.2-.545" transform="translate(-165.527 -82.787)"/>
    <path id="Path_758" data-name="Path 758" d="M247.254,122.507a.825.825,0,0,1-.5-.64.536.536,0,0,1,.5-.538.849.849,0,0,1,.471.16,1.38,1.38,0,0,0,.745.232.951.951,0,0,0,1.014-1.047v-.513a1.481,1.481,0,0,1-1.2.5,1.681,1.681,0,0,1-1.2-.446,2.628,2.628,0,0,1-.514-2.006,2.6,2.6,0,0,1,.514-2,1.7,1.7,0,0,1,1.21-.447,1.465,1.465,0,0,1,1.227.533.626.626,0,0,1,.188-.367.567.567,0,0,1,.4-.146.609.609,0,0,1,.542.29,1.009,1.009,0,0,1,.093.567v4.045a2.05,2.05,0,0,1-2.219,2.093,2.467,2.467,0,0,1-1.27-.28m1.4-5.592c-.747,0-.825.635-.825,1.3s.078,1.308.825,1.308.832-.644.832-1.308-.087-1.3-.832-1.3" transform="translate(-176.317 -82.787)"/>
    <path id="Path_759" data-name="Path 759" d="M268.739,115.771a1.475,1.475,0,0,1,.872.233.619.619,0,0,1,.13.988.6.6,0,0,1-.422.175.954.954,0,0,1-.431-.131,1.043,1.043,0,0,0-.48-.131.837.837,0,0,0-.838.929v2.22a1.143,1.143,0,0,1-.083.562.65.65,0,0,1-1.095,0,1.133,1.133,0,0,1-.083-.562v-3.406a1.019,1.019,0,0,1,.092-.567.609.609,0,0,1,.543-.29.564.564,0,0,1,.4.145.59.59,0,0,1,.189.382,1.642,1.642,0,0,1,1.2-.545" transform="translate(-190.437 -82.787)"/>
    <path id="Path_760" data-name="Path 760" d="M282.268,118.744a1.035,1.035,0,0,0,1.115,1.123,1.455,1.455,0,0,0,.872-.271.766.766,0,0,1,.47-.189.546.546,0,0,1,.509.528c0,.238-.2.456-.494.649a2.447,2.447,0,0,1-1.376.349c-1.2,0-2.335-.542-2.335-2.582,0-1.648.887-2.584,2.2-2.584a2.143,2.143,0,0,1,2.195,2.253.739.739,0,0,1-.171.562.707.707,0,0,1-.551.161h-2.428Zm1.8-1.409a.948.948,0,0,0-1.691,0,1.258,1.258,0,0,0-.111.548h1.914a1.337,1.337,0,0,0-.112-.548" transform="translate(-200.961 -82.785)"/>
    <path id="Path_761" data-name="Path 761" d="M300.98,118.744a1.035,1.035,0,0,0,1.115,1.123,1.46,1.46,0,0,0,.873-.271.761.761,0,0,1,.47-.189.546.546,0,0,1,.508.528c0,.238-.2.456-.494.649a2.448,2.448,0,0,1-1.376.349c-1.2,0-2.335-.542-2.335-2.582,0-1.648.886-2.584,2.194-2.584a2.143,2.143,0,0,1,2.195,2.253.74.74,0,0,1-.171.562.706.706,0,0,1-.551.161H300.98Zm1.8-1.409a.949.949,0,0,0-1.691,0,1.262,1.262,0,0,0-.11.548h1.914a1.351,1.351,0,0,0-.112-.548" transform="translate(-214.342 -82.785)"/>
    <path id="Path_762" data-name="Path 762" d="M321.462,115.771a1.637,1.637,0,0,1,1.192.447,1.871,1.871,0,0,1,.513,1.434v2.4a1.161,1.161,0,0,1-.082.562.65.65,0,0,1-1.1,0,1.142,1.142,0,0,1-.082-.562v-2.228a.841.841,0,1,0-1.676,0v2.228a1.161,1.161,0,0,1-.082.562.651.651,0,0,1-1.1,0,1.144,1.144,0,0,1-.081-.562v-3.406a1.025,1.025,0,0,1,.091-.567.611.611,0,0,1,.543-.29.564.564,0,0,1,.4.146.636.636,0,0,1,.189.367,1.719,1.719,0,0,1,1.265-.533" transform="translate(-228.094 -82.787)"/>
  </g>
</svg>
