<svg xmlns="http://www.w3.org/2000/svg" xmlns:xlink="http://www.w3.org/1999/xlink" width="108.631" height="60" viewBox="0 0 108.631 60">
  <defs>
    <clipPath id="clip-path">
      <rect id="Rectangle_19654" data-name="Rectangle 19654" width="108.631" height="60" fill="none"/>
    </clipPath>
  </defs>
  <g id="summitHut" transform="translate(0 0)">
    <g id="Group_56971" data-name="Group 56971" transform="translate(0 0)" clip-path="url(#clip-path)">
      <path id="Path_41997" data-name="Path 41997" d="M6.778,27.126,31.208,0,103.03,27.126C82.739,34.2,80.337,6.166,71.125,5.9c-2.1.543-19.86,14.417-19.86,14.417-17.12-2.268-10.712-6.182-17.252-6.182-4.272,0-3.738,6.716-27.234,12.991" transform="translate(2.977 0)" fill="#cbcbcb"/>
      <path id="Path_41998" data-name="Path 41998" d="M.5,34.093a6.172,6.172,0,0,0,2.9.25c.987-.131,2.067-.672,2.085-1.767.019-1.169-1.228-1.7-2.16-2.111C1.6,29.532.19,28.27.174,26.189A6.092,6.092,0,0,1,5.832,20.27a5.94,5.94,0,0,1,2.758.258q-.272,1.69-.547,3.381a4.021,4.021,0,0,0-2.185-.3A1.954,1.954,0,0,0,3.945,25.3c-.02,1.114,1.464,1.593,2.235,1.98,1.789.894,3.084,2.26,3.08,4.408a6.292,6.292,0,0,1-5.885,6A8.033,8.033,0,0,1,0,37.5l.5-3.41" transform="translate(0 8.883)"/>
      <path id="Path_41999" data-name="Path 41999" d="M17.348,30.754c0,1.3.046,2.6.1,3.9q-1.656.145-3.312.3c-.081-.51-.119-.766-.2-1.277l-.049.006a3.988,3.988,0,0,1-2.913,1.788c-2.863.3-3.379-2.533-3.382-4.791v-7.3q1.928-.216,3.856-.417v6.9c-.032.675.052,2.3,1.045,2.235a.947.947,0,0,0,.771-.574,2.271,2.271,0,0,0,.225-1.043V22.763q1.93-.186,3.86-.358v8.349" transform="translate(3.334 9.841)"/>
      <path id="Path_42000" data-name="Path 42000" d="M15.924,26.5c0-1.3-.046-2.6-.1-3.9q1.669-.136,3.341-.259c.079.553.119.829.2,1.38l.05,0a4.178,4.178,0,0,1,2.992-1.8,2.641,2.641,0,0,1,2.72,1.428l.049,0a4.62,4.62,0,0,1,1.274-1.242,3.59,3.59,0,0,1,1.721-.514c2.611-.124,3.319,2.537,3.27,4.685v7.627q-1.921.082-3.844.178V27.041c.029-.648.055-2.212-.9-2.2a1.114,1.114,0,0,0-1,.852,2.726,2.726,0,0,0-.1.779v7.7q-1.921.11-3.841.236V26.887c0-.7-.026-1.744-.874-1.685a1.183,1.183,0,0,0-.973.79,2.6,2.6,0,0,0-.15.884v7.676q-1.919.14-3.839.3Z" transform="translate(6.951 9.477)"/>
      <path id="Path_42001" data-name="Path 42001" d="M28.162,25.6c0-1.3-.046-2.607-.1-3.909q1.673-.06,3.346-.107c.079.556.119.835.2,1.39h.049a3.979,3.979,0,0,1,3-1.664,2.781,2.781,0,0,1,2.723,1.553h.05A4.306,4.306,0,0,1,38.7,21.683a3.474,3.474,0,0,1,1.724-.435c2.618,0,3.313,2.64,3.273,4.834v7.627q-1.924-.006-3.849,0V26.684c.029-.671.05-2.209-.9-2.238a1.052,1.052,0,0,0-1,.807,2.613,2.613,0,0,0-.1.773v7.7q-1.924.022-3.847.06V26.262c0-.7-.026-1.746-.875-1.726a1.118,1.118,0,0,0-.974.746,2.544,2.544,0,0,0-.15.877v7.676q-1.924.052-3.846.119V25.6" transform="translate(12.327 9.333)"/>
      <path id="Path_42002" data-name="Path 42002" d="M42.234,21.755a1.963,1.963,0,0,1-1.848-2.016,1.923,1.923,0,0,1,1.9-2,1.984,1.984,0,0,1,1.9,2.052,1.913,1.913,0,0,1-1.923,1.96h-.026M40.386,35.264V23q1.937.022,3.872.058V35.321q-1.934-.037-3.872-.058" transform="translate(17.74 7.793)"/>
      <path id="Path_42003" data-name="Path 42003" d="M49.291,19.266v3.315c.969.036,1.454.055,2.422.1V25.37c-.969-.042-1.454-.062-2.422-.1v4.885c0,1.346.6,1.691,1.223,1.717a5.536,5.536,0,0,0,.9-.037v3.015a12.08,12.08,0,0,1-2.248.135,4.18,4.18,0,0,1-2.572-.884,4.875,4.875,0,0,1-1.174-3.722V25.148c-.569-.016-.853-.023-1.423-.036V22.421c.57.013.855.02,1.423.036V20.263q1.934-.505,3.872-1" transform="translate(19.326 8.463)"/>
      <path id="Path_42004" data-name="Path 42004" d="M57.264,18.937v6.53q1.423.1,2.843.206v-6.53q1.932.149,3.863.314v16.8q-1.93-.164-3.863-.314V29.261q-1.421-.108-2.843-.206v6.678q-1.932-.13-3.866-.245,0-8.4,0-16.8,1.932.117,3.866.246" transform="translate(23.455 8.21)"/>
      <path id="Path_42005" data-name="Path 42005" d="M72.141,31.9c0,1.308.046,2.617.1,3.925q-1.652-.2-3.307-.377c-.079-.528-.118-.792-.2-1.318l-.049-.006a3.22,3.22,0,0,1-2.912,1.19c-2.775-.282-3.425-3.122-3.385-5.488v-7.3q1.93.181,3.859.377v6.9c0,.828.079,2.291,1.045,2.451a.742.742,0,0,0,.771-.416,2.012,2.012,0,0,0,.223-1V23.113q1.928.209,3.854.435Z" transform="translate(27.404 9.892)"/>
      <path id="Path_42006" data-name="Path 42006" d="M75.411,21.521v3.315c.963.131,1.444.2,2.406.334v2.693c-.963-.138-1.444-.2-2.406-.335v4.885c0,1.346.6,1.75,1.216,1.837a5.459,5.459,0,0,0,.892.05v3.015a11.612,11.612,0,0,1-2.232-.085,4.545,4.545,0,0,1-2.558-1.136,5.322,5.322,0,0,1-1.167-3.836V27.023l-1.415-.174V24.158l1.415.174V22.14q1.924-.317,3.849-.619" transform="translate(30.813 9.453)"/>
      <g id="Group_56973" data-name="Group 56973">
        <rect id="Rectangle_19652" data-name="Rectangle 19652" width="0.794" height="4.362" transform="translate(58.648 54.194)" fill="#535353"/>
        <rect id="Rectangle_19649" data-name="Rectangle 19649" width="0.794" height="4.362" transform="translate(22.281 54.194)" fill="#535353"/>
        <path id="Path_42007" data-name="Path 42007" d="M10.688,39.5H8.6V37.66H7.8V42.02h.8V40.257h2.085V42.02h.794V37.66h-.794Z" transform="translate(3.427 16.542)" fill="#535353"/>
        <path id="Path_42008" data-name="Path 42008" d="M15.872,37.68v-.024h-.995L13.265,39.5V37.655h-.8v4.361h.8V40.085l1.776,1.931h.989v-.049l-2.044-2.2Z" transform="translate(5.476 16.541)" fill="#535353"/>
        <path id="Path_42009" data-name="Path 42009" d="M19.578,40.361l-2.08-2.7h-.649v4.362h.8V39.077l2.232,2.948v-.006h.5V37.651h-.8Z" transform="translate(7.401 16.539)" fill="#535353"/>
        <rect id="Rectangle_19650" data-name="Rectangle 19650" width="0.794" height="4.362" transform="translate(16.03 54.194)" fill="#535353"/>
        <path id="Path_42010" data-name="Path 42010" d="M22.062,40.267h1.085v.773a1.391,1.391,0,0,1-.959.348,1.364,1.364,0,0,1-1.461-1.458,1.472,1.472,0,0,1,1.461-1.608,1.608,1.608,0,0,1,1.079.436l.5-.522a2.232,2.232,0,0,0-3.82,1.694,2.074,2.074,0,0,0,2.242,2.225,2.093,2.093,0,0,0,1.693-.786V39.531H22.062Z" transform="translate(8.762 16.502)" fill="#535353"/>
        <rect id="Rectangle_19651" data-name="Rectangle 19651" width="0.715" height="6.854" transform="translate(35.763 53.146)" fill="#535353"/>
        <path id="Path_42011" data-name="Path 42011" d="M36.082,39.535l-1.327-1.875h-.923V42.02h.8V38.85l1.353,1.9h.157l1.383-1.894V42.02h.8V37.659h-.917Z" transform="translate(14.861 16.542)" fill="#535353"/>
        <path id="Path_42012" data-name="Path 42012" d="M29.554,41.371a1.38,1.38,0,0,1-1.461-1.477,1.412,1.412,0,0,1,1.461-1.514,1.437,1.437,0,0,1,1.025.412l.534-.53A2.222,2.222,0,0,0,27.3,39.894a2.117,2.117,0,0,0,2.25,2.25,2.2,2.2,0,0,0,1.612-.648l-.545-.567a1.537,1.537,0,0,1-1.066.442" transform="translate(11.994 16.514)" fill="#535353"/>
        <path id="Path_42013" data-name="Path 42013" d="M32.021,37.655l-1.9,4.362h.866l.364-.822h2.218l.358.822H34.8l-1.9-4.362Zm-.351,2.773.789-1.857.787,1.857Z" transform="translate(13.229 16.54)" fill="#535353"/>
        <path id="Path_42014" data-name="Path 42014" d="M39.73,37.651c-.666,0-1.334.006-2,.006v4.362h.8V40.735h1.2a1.542,1.542,0,1,0,0-3.084m0,2.33h-1.2V38.435h1.2a.773.773,0,0,1,0,1.546" transform="translate(16.573 16.539)" fill="#535353"/>
        <path id="Path_42015" data-name="Path 42015" d="M47.162,40.267h1.085v.773a1.391,1.391,0,0,1-.959.348,1.363,1.363,0,0,1-1.461-1.458,1.472,1.472,0,0,1,1.461-1.608,1.608,1.608,0,0,1,1.079.436l.5-.522a2.232,2.232,0,0,0-3.82,1.694,2.234,2.234,0,0,0,3.935,1.439V39.531H47.162Z" transform="translate(19.787 16.502)" fill="#535353"/>
        <path id="Path_42016" data-name="Path 42016" d="M44.678,40.361l-2.08-2.7h-.649v4.362h.8V39.077l2.232,2.948v-.006h.5V37.651h-.8Z" transform="translate(18.427 16.539)" fill="#535353"/>
        <rect id="Rectangle_19653" data-name="Rectangle 19653" width="0.715" height="6.854" transform="translate(71.89 53.146)" fill="#535353"/>
        <path id="Path_42017" data-name="Path 42017" d="M52.316,38.4h1.346v3.614h.8V38.4h1.346v-.748H52.316Z" transform="translate(22.98 16.54)" fill="#535353"/>
        <path id="Path_42018" data-name="Path 42018" d="M58.882,39.1a1.423,1.423,0,0,0-1.527-1.445c-.674,0-1.346-.007-2.019-.007v4.368h.8V40.56h.77l1.236,1.458H59.1v-.056L57.81,40.474A1.288,1.288,0,0,0,58.882,39.1m-2.746.717v-1.4h1.219a.7.7,0,1,1,0,1.4Z" transform="translate(24.307 16.538)" fill="#535353"/>
        <path id="Path_42019" data-name="Path 42019" d="M60.028,37.655l-1.9,4.362h.866l.364-.822h2.218l.358.822h.874l-1.9-4.362Zm-.351,2.773.789-1.857.787,1.857Z" transform="translate(25.532 16.54)" fill="#535353"/>
        <path id="Path_42020" data-name="Path 42020" d="M63.372,41.051l-1.28-3.4h-.9l1.765,4.38h.83l1.763-4.38h-.9Z" transform="translate(26.881 16.541)" fill="#535353"/>
        <path id="Path_42021" data-name="Path 42021" d="M64.725,42.017H67.9v-.81H65.519v-.984h2.3v-.766h-2.3v-1H67.9v-.8H64.725Z" transform="translate(28.431 16.54)" fill="#535353"/>
        <path id="Path_42022" data-name="Path 42022" d="M68.331,41.256v-3.6h-.8v4.361h2.982v-.76Z" transform="translate(29.664 16.541)" fill="#535353"/>
      </g>
      <path id="Path_42023" data-name="Path 42023" d="M8.913,34.819c1.364.83-.059,1.9,8.366,1.364s20.649-1.6,30.617-1.364,27.355,1.356,34.891,1.508,10.681.984,11.1.331-.593-2.195-20.828-3.323-35.6-.593-38.153-.652S8.379,33.692,8.913,34.819" transform="translate(3.911 14.323)" fill="#cbcbcb"/>
    </g>
  </g>
</svg>
