<svg xmlns="http://www.w3.org/2000/svg" width="176.838" height="35" viewBox="0 0 176.838 35">
  <g id="Elasticsearch_logo" transform="translate(-86.8 -87.5)">
    <path id="Path_41955" data-name="Path 41955" d="M178,102.5H314.938v17.938H178Z" transform="translate(-51.3 -8.437)" fill="none"/>
    <g id="Group_56955" data-name="Group 56955" transform="translate(127.75 94.063)">
      <path id="Path_41956" data-name="Path 41956" d="M186.044,124.325a5.651,5.651,0,0,1-4.156-1.531,5.773,5.773,0,0,1-1.487-4.244,6.482,6.482,0,0,1,1.4-4.375,4.793,4.793,0,0,1,3.806-1.575,4.649,4.649,0,0,1,3.544,1.356,5.184,5.184,0,0,1,1.313,3.762v1.313h-7.569a4.014,4.014,0,0,0,.875,2.537,2.979,2.979,0,0,0,2.362.875,8.593,8.593,0,0,0,1.881-.175,15.459,15.459,0,0,0,1.881-.613v1.969a8.683,8.683,0,0,1-1.794.613A10.333,10.333,0,0,1,186.044,124.325Zm-.481-9.887a2.371,2.371,0,0,0-1.838.744,3.579,3.579,0,0,0-.831,2.144h5.163a3.142,3.142,0,0,0-.656-2.144A2.371,2.371,0,0,0,185.563,114.438Z" transform="translate(-180.4 -108.181)"/>
      <path id="Path_41957" data-name="Path 41957" d="M212.006,118.469H209.6V102.5h2.406Z" transform="translate(-196.825 -102.5)"/>
      <path id="Path_41958" data-name="Path 41958" d="M229.019,124.262l-.481-1.575h-.088a4.013,4.013,0,0,1-1.662,1.4,5.859,5.859,0,0,1-2.144.394,3.693,3.693,0,0,1-2.625-.919,3.244,3.244,0,0,1-.919-2.537,2.912,2.912,0,0,1,1.313-2.625,7.689,7.689,0,0,1,3.981-.963l1.969-.044v-.613a2.183,2.183,0,0,0-.525-1.619,2.139,2.139,0,0,0-1.575-.525,5.288,5.288,0,0,0-1.662.262,15.947,15.947,0,0,0-1.531.613l-.788-1.706a9.126,9.126,0,0,1,2.013-.744,8.832,8.832,0,0,1,2.056-.262,4.819,4.819,0,0,1,3.281.963,3.712,3.712,0,0,1,1.094,2.975v7.525Zm-3.587-1.663a3,3,0,0,0,2.1-.744,2.67,2.67,0,0,0,.788-2.056v-.962l-1.444.044a4.981,4.981,0,0,0-2.494.569,1.767,1.767,0,0,0-.788,1.575,1.46,1.46,0,0,0,.438,1.181A2.137,2.137,0,0,0,225.431,122.6Z" transform="translate(-203.294 -108.294)"/>
      <path id="Path_41959" data-name="Path 41959" d="M257.4,120.8a2.89,2.89,0,0,1-1.225,2.537,6.019,6.019,0,0,1-3.456.875,7.776,7.776,0,0,1-3.631-.7v-2.1a8.921,8.921,0,0,0,3.719.919c1.488,0,2.231-.437,2.231-1.356a.924.924,0,0,0-.263-.7,3.7,3.7,0,0,0-.831-.612,14.688,14.688,0,0,0-1.575-.7,7.475,7.475,0,0,1-2.669-1.531,2.787,2.787,0,0,1-.7-1.969,2.653,2.653,0,0,1,1.181-2.275,5.324,5.324,0,0,1,3.194-.787,8.589,8.589,0,0,1,3.763.831l-.788,1.794a7.914,7.914,0,0,0-3.106-.744c-1.269,0-1.925.35-1.925,1.094a1.206,1.206,0,0,0,.481.919,9.616,9.616,0,0,0,2.188,1.006,9.953,9.953,0,0,1,2.056,1.006,3.1,3.1,0,0,1,.962,1.05A2.323,2.323,0,0,1,257.4,120.8Z" transform="translate(-218.988 -108.069)"/>
      <path id="Path_41960" data-name="Path 41960" d="M276.656,119.475a6.063,6.063,0,0,0,1.75-.263v1.794a4.349,4.349,0,0,1-1.05.306,6.678,6.678,0,0,1-1.312.131c-2.275,0-3.413-1.225-3.413-3.587v-6.125H271.1v-1.05l1.663-.875.831-2.406h1.487v2.537h3.237v1.838h-3.237v6.081a1.6,1.6,0,0,0,.438,1.269A1.684,1.684,0,0,0,276.656,119.475Z" transform="translate(-231.419 -105.256)"/>
      <path id="Path_41961" data-name="Path 41961" d="M292.7,104.456a1.476,1.476,0,0,1,.35-1.006,1.235,1.235,0,0,1,1.006-.35,1.476,1.476,0,0,1,1.006.35,1.235,1.235,0,0,1,.35,1.006,1.362,1.362,0,0,1-.35.963,1.622,1.622,0,0,1-2.013,0A1.362,1.362,0,0,1,292.7,104.456Zm2.581,14.35h-2.406V107.475h2.406Z" transform="translate(-243.569 -102.837)"/>
      <path id="Path_41962" data-name="Path 41962" d="M310.15,124.269a4.891,4.891,0,0,1-3.894-1.487,7.634,7.634,0,0,1,.044-8.75,5.059,5.059,0,0,1,4.025-1.531,7.785,7.785,0,0,1,3.238.656l-.744,1.925a7.274,7.274,0,0,0-2.537-.613c-1.969,0-2.931,1.313-2.931,3.894a4.841,4.841,0,0,0,.744,2.887,2.508,2.508,0,0,0,2.144.962,6.261,6.261,0,0,0,3.063-.788v2.1a3.866,3.866,0,0,1-1.4.525A9.528,9.528,0,0,1,310.15,124.269Z" transform="translate(-250.431 -108.125)"/>
      <path id="Path_41963" data-name="Path 41963" d="M336.8,120.8a2.89,2.89,0,0,1-1.225,2.537,6.019,6.019,0,0,1-3.456.875,7.776,7.776,0,0,1-3.631-.7v-2.1a8.921,8.921,0,0,0,3.719.919c1.487,0,2.231-.437,2.231-1.356a.924.924,0,0,0-.263-.7,3.7,3.7,0,0,0-.831-.612,14.686,14.686,0,0,0-1.575-.7,7.475,7.475,0,0,1-2.669-1.531,2.787,2.787,0,0,1-.7-1.969,2.653,2.653,0,0,1,1.181-2.275,5.324,5.324,0,0,1,3.194-.787,8.588,8.588,0,0,1,3.762.831l-.787,1.794a7.914,7.914,0,0,0-3.106-.744c-1.269,0-1.925.35-1.925,1.094a1.206,1.206,0,0,0,.481.919,9.616,9.616,0,0,0,2.188,1.006,9.954,9.954,0,0,1,2.056,1.006,3.1,3.1,0,0,1,.962,1.05A2.323,2.323,0,0,1,336.8,120.8Z" transform="translate(-263.65 -108.069)"/>
      <path id="Path_41964" data-name="Path 41964" d="M357.644,124.325a5.651,5.651,0,0,1-4.156-1.531A5.773,5.773,0,0,1,352,118.55a6.482,6.482,0,0,1,1.4-4.375,4.793,4.793,0,0,1,3.806-1.575,4.649,4.649,0,0,1,3.544,1.356,5.184,5.184,0,0,1,1.313,3.762v1.313h-7.569a4.014,4.014,0,0,0,.875,2.537,2.979,2.979,0,0,0,2.363.875,8.592,8.592,0,0,0,1.881-.175,15.457,15.457,0,0,0,1.881-.613v1.969a8.683,8.683,0,0,1-1.794.613A10.177,10.177,0,0,1,357.644,124.325Zm-.437-9.887a2.371,2.371,0,0,0-1.837.744,3.579,3.579,0,0,0-.831,2.144H359.7a3.142,3.142,0,0,0-.656-2.144,2.437,2.437,0,0,0-1.838-.744Z" transform="translate(-276.925 -108.181)"/>
      <path id="Path_41965" data-name="Path 41965" d="M387.219,124.262l-.481-1.575h-.088a4.013,4.013,0,0,1-1.662,1.4,5.859,5.859,0,0,1-2.144.394,3.693,3.693,0,0,1-2.625-.919,3.244,3.244,0,0,1-.919-2.537,2.912,2.912,0,0,1,1.313-2.625,7.689,7.689,0,0,1,3.981-.963l1.969-.044v-.613a2.182,2.182,0,0,0-.525-1.619,2.139,2.139,0,0,0-1.575-.525,5.289,5.289,0,0,0-1.663.262,15.954,15.954,0,0,0-1.531.613l-.787-1.706a9.125,9.125,0,0,1,2.012-.744,8.831,8.831,0,0,1,2.056-.262,4.819,4.819,0,0,1,3.281.963,3.711,3.711,0,0,1,1.094,2.975v7.525Zm-3.588-1.663a3,3,0,0,0,2.1-.744,2.671,2.671,0,0,0,.787-2.056v-.962l-1.444.044a4.981,4.981,0,0,0-2.494.569,1.767,1.767,0,0,0-.787,1.575,1.46,1.46,0,0,0,.438,1.181A2.22,2.22,0,0,0,383.631,122.6Z" transform="translate(-292.281 -108.294)"/>
      <path id="Path_41966" data-name="Path 41966" d="M414.775,112.6a8.185,8.185,0,0,1,1.181.087l-.219,2.231a4.315,4.315,0,0,0-1.05-.131,3.07,3.07,0,0,0-2.362.962,3.4,3.4,0,0,0-.919,2.45v5.95H409V112.819h1.881l.306,2.012h.131a4.819,4.819,0,0,1,1.487-1.619A3.6,3.6,0,0,1,414.775,112.6Z" transform="translate(-308.987 -108.181)"/>
      <path id="Path_41967" data-name="Path 41967" d="M433.45,124.269a4.891,4.891,0,0,1-3.894-1.487,7.634,7.634,0,0,1,.044-8.75,5.059,5.059,0,0,1,4.025-1.531,7.785,7.785,0,0,1,3.237.656l-.744,1.925a7.274,7.274,0,0,0-2.538-.613c-1.969,0-2.931,1.313-2.931,3.894a4.841,4.841,0,0,0,.744,2.887,2.509,2.509,0,0,0,2.144.962,6.261,6.261,0,0,0,3.063-.788v2.1a3.866,3.866,0,0,1-1.4.525A9.528,9.528,0,0,1,433.45,124.269Z" transform="translate(-319.788 -108.125)"/>
      <path id="Path_41968" data-name="Path 41968" d="M463.531,118.469h-2.406v-7a3.11,3.11,0,0,0-.525-1.969,2.021,2.021,0,0,0-1.662-.656,2.663,2.663,0,0,0-2.231.919,4.951,4.951,0,0,0-.7,3.019v5.688H453.6V102.5h2.406v4.069a18.015,18.015,0,0,1-.131,2.1h.175a3.776,3.776,0,0,1,1.356-1.269,4.322,4.322,0,0,1,2.056-.437c2.756,0,4.112,1.4,4.112,4.156v7.35Z" transform="translate(-334.075 -102.5)"/>
    </g>
    <path id="Path_41969" data-name="Path 41969" d="M130.044,115.5H120.9c.044.219.131.438.175.613a16.08,16.08,0,0,1,.569,3.281c.044.438.044.919.044,1.356s0,.919-.044,1.356a16.08,16.08,0,0,1-.569,3.281c-.044.219-.131.438-.175.613h9.144a5.25,5.25,0,0,0,0-10.5Z" transform="translate(-19.181 -15.75)"/>
    <path id="Path_41970" data-name="Path 41970" d="M102.462,122.106c.044-.437.044-.919.044-1.356s0-.919-.044-1.356a16.08,16.08,0,0,0-.569-3.281c-.044-.219-.131-.437-.175-.612H87.587a17.894,17.894,0,0,0,0,10.5h14.131c.044-.219.131-.437.175-.613A16.081,16.081,0,0,0,102.462,122.106Z" transform="translate(0 -15.75)" fill="#262626"/>
    <path id="Path_41971" data-name="Path 41971" d="M122.506,143.5H111.131a17.983,17.983,0,0,1-1.181,2.231,16.983,16.983,0,0,1-2.319,2.975c-.306.306-.612.569-.919.875a17.4,17.4,0,0,1-2.013,1.531A17.314,17.314,0,0,0,114.325,154a17.537,17.537,0,0,0,14.569-7.787A8.923,8.923,0,0,0,122.506,143.5Z" transform="translate(-10.069 -31.5)"/>
    <path id="Path_41972" data-name="Path 41972" d="M101.737,145.731a17.984,17.984,0,0,0,1.181-2.231H90.1a17.3,17.3,0,0,0,6.431,7.613,22.2,22.2,0,0,0,2.013-1.531c.306-.263.612-.569.919-.875a17.244,17.244,0,0,0,2.275-2.975Z" transform="translate(-1.856 -31.5)" fill="#262626"/>
    <path id="Path_41973" data-name="Path 41973" d="M99.363,96.506c-.306-.306-.613-.569-.919-.875A17.405,17.405,0,0,0,96.431,94.1,17.885,17.885,0,0,0,90,101.712h12.819a17.984,17.984,0,0,0-1.181-2.231A13.759,13.759,0,0,0,99.363,96.506Z" transform="translate(-1.8 -3.713)" fill="#262626"/>
    <path id="Path_41974" data-name="Path 41974" d="M114.325,87.5a17.314,17.314,0,0,0-9.625,2.888,22.189,22.189,0,0,1,2.013,1.531c.306.262.612.569.919.875a16.982,16.982,0,0,1,2.319,2.975A17.983,17.983,0,0,1,111.131,98h11.375a8.923,8.923,0,0,0,6.388-2.712A17.537,17.537,0,0,0,114.325,87.5Z" transform="translate(-10.069 0)"/>
  </g>
</svg>
