<svg xmlns="http://www.w3.org/2000/svg" width="136.752" height="24" viewBox="0 0 136.752 24">
  <g id="sendgrid-vector-logo" transform="translate(-20.3 -268.9)">
    <path id="Path_41947" data-name="Path 41947" d="M28.209,268.9v7.909H20.3v15.818H36.118v-7.909h7.909V268.9Z" fill="#fff"/>
    <path id="Path_41948" data-name="Path 41948" d="M20.3,303.6v0Zm0,0h0Z" transform="translate(0 -26.791)" fill="#aee1f3"/>
    <path id="Path_41949" data-name="Path 41949" d="M20.3,303.6v7.909h7.909v7.909h7.909v-7.909H28.209V303.6Z" transform="translate(0 -26.791)" fill="#fff"/>
    <path id="Path_41950" data-name="Path 41950" d="M20.3,303.6v7.909h7.909v7.909h7.909v-7.909H28.209V303.6Z" transform="translate(0 -26.791)" fill="#3c3c3c"/>
    <g id="Group_56954" data-name="Group 56954" transform="translate(20.3 268.9)">
      <path id="Path_41951" data-name="Path 41951" d="M143.9,301.775l3.442-2.712a4.928,4.928,0,0,0,4.285,2.644,2.686,2.686,0,0,0,2.963-2.6c0-1.618-1.983-2.142-4.08-2.781-2.644-.821-5.607-1.846-5.607-5.63,0-3.168,2.758-5.7,6.587-5.7a8.428,8.428,0,0,1,6.655,2.872L155,290.242a4.043,4.043,0,0,0-3.533-1.869c-1.755,0-2.712.957-2.712,2.188,0,1.527,1.892,2.029,4.011,2.735,2.689.866,5.721,2.051,5.721,5.858,0,3.145-2.484,6.177-6.86,6.177a9.771,9.771,0,0,1-7.727-3.556m30.291-10.256h3.692v1.527a4.627,4.627,0,0,1,3.738-1.778c3.191,0,5.128,2.051,5.128,5.561v8.228h-3.761v-7.772c0-1.823-.843-2.872-2.484-2.872-1.413,0-2.576.98-2.576,3.259v7.385h-3.715V291.519Zm13.4,6.769c0-4.786,3.51-7.043,6.587-7.043a5.474,5.474,0,0,1,4.034,1.6v-7.567h3.715v19.783h-3.715V303.53a5.277,5.277,0,0,1-4.08,1.778,6.669,6.669,0,0,1-6.541-7.02m10.735-.023a3.486,3.486,0,0,0-3.464-3.624,3.635,3.635,0,0,0,0,7.271,3.506,3.506,0,0,0,3.464-3.647m4.467-3.1A9.96,9.96,0,0,1,212.891,285a10.321,10.321,0,0,1,7.179,2.735,9.893,9.893,0,0,1,1.823,2.325l-3.3,2.006a6.008,6.008,0,0,0-5.652-3.419,6.444,6.444,0,0,0-6.4,6.5,6.371,6.371,0,0,0,6.519,6.5,5.5,5.5,0,0,0,5.607-4.148h-6.2v-3.6h10.256v1.527c0,5.311-3.783,9.892-9.664,9.892a9.964,9.964,0,0,1-10.256-10.142m20.877-3.647h3.692v2.211a3.809,3.809,0,0,1,3.738-2.211h1.482l-1.345,3.6h-1c-1.983,0-2.849,1.026-2.849,3.556v6.382h-3.715Zm9.892,0h3.715v13.538h-3.715V295.12h-1.345Zm1.846-2.074a2.211,2.211,0,1,0-2.211-2.211,2.213,2.213,0,0,0,2.211,2.211m2.735,8.843c0-4.786,3.51-7.043,6.587-7.043a5.475,5.475,0,0,1,4.034,1.6v-7.567h3.715v19.783h-3.715V303.53a5.277,5.277,0,0,1-4.08,1.778,6.656,6.656,0,0,1-6.541-7.02m10.735-.023a3.486,3.486,0,0,0-3.464-3.624,3.635,3.635,0,0,0,0,7.271,3.506,3.506,0,0,0,3.464-3.647m-75.556,0a6.822,6.822,0,0,0-7-7.02,7.033,7.033,0,0,0-7.043,7.043,7.226,7.226,0,0,0,13.379,3.6l-2.94-1.755a3.55,3.55,0,0,1-3.236,1.937,3.421,3.421,0,0,1-3.6-2.462h10.439Zm-10.3-1.641a3.532,3.532,0,0,1,3.328-2.142,3.122,3.122,0,0,1,3.214,2.142Z" transform="translate(-115.729 -281.33)"/>
      <rect id="Rectangle_19636" data-name="Rectangle 19636" width="7.909" height="7.909" transform="translate(0 15.818)"/>
      <path id="Path_41952" data-name="Path 41952" d="M62.909,268.9h0Zm7.909,15.818h0v0" transform="translate(-47.091 -268.9)" fill="#00b3e3"/>
      <path id="Path_41953" data-name="Path 41953" d="M70.818,284.718H62.909v-7.909H55V268.9h7.909v7.909h7.909Z" transform="translate(-47.091 -268.9)" fill="#fff"/>
      <path id="Path_41954" data-name="Path 41954" d="M70.818,284.718H62.909v-7.909H55V268.9h7.909v7.909h7.909Z" transform="translate(-47.091 -268.9)" fill="#272727"/>
      <rect id="Rectangle_19637" data-name="Rectangle 19637" width="7.909" height="7.909" transform="translate(7.909 7.909)" fill="#fff"/>
      <rect id="Rectangle_19638" data-name="Rectangle 19638" width="7.909" height="7.909" transform="translate(7.909 7.909)" fill="#272727"/>
      <rect id="Rectangle_19639" data-name="Rectangle 19639" width="7.909" height="7.909" transform="translate(15.818)"/>
    </g>
  </g>
</svg>
