<svg id="android-logo" xmlns="http://www.w3.org/2000/svg" xmlns:xlink="http://www.w3.org/1999/xlink" width="55.536" height="65.714" viewBox="0 0 55.536 65.714">
  <defs>
    <clipPath id="clip-path">
      <rect id="Rectangle_20115" data-name="Rectangle 20115" width="55.536" height="65.714" fill="none"/>
    </clipPath>
  </defs>
  <g id="Group_57657" data-name="Group 57657" clip-path="url(#clip-path)">
    <path id="Path_44884" data-name="Path 44884" d="M4.065,93.245A4.041,4.041,0,0,0,0,97.31v16.931a4.041,4.041,0,0,0,4.065,4.065,4.041,4.041,0,0,0,4.065-4.065V97.31a4.041,4.041,0,0,0-4.065-4.065" transform="translate(0 -71.913)"/>
    <path id="Path_44885" data-name="Path 44885" d="M211.289,93.245a4.041,4.041,0,0,0-4.065,4.065v16.931a4.065,4.065,0,1,0,8.129,0V97.31a4.041,4.041,0,0,0-4.065-4.065" transform="translate(-159.817 -71.913)"/>
    <path id="Path_44886" data-name="Path 44886" d="M69.161,6.032,72.024.859A.561.561,0,0,0,71.8.075.563.563,0,0,0,71.526,0a.569.569,0,0,0-.51.3l-2.9,5.229a19.539,19.539,0,0,0-15.686,0L49.528.3a.571.571,0,0,0-.784-.224.56.56,0,0,0-.224.784l2.863,5.173A16.564,16.564,0,0,0,42.146,20.6H78.4A16.564,16.564,0,0,0,69.161,6.032m-17.255,7.93a1.513,1.513,0,1,1,1.513-1.513,1.523,1.523,0,0,1-1.513,1.513m16.732,0a1.513,1.513,0,1,1,1.513-1.513,1.523,1.523,0,0,1-1.513,1.513" transform="translate(-32.504 0)"/>
    <path id="Path_44887" data-name="Path 44887" d="M42.146,122.567a4.373,4.373,0,0,0,4.382,4.382h2.907v8.964a4.065,4.065,0,0,0,8.129,0v-8.964H62.98v8.964a4.065,4.065,0,0,0,8.129,0v-8.964h2.907a4.373,4.373,0,0,0,4.382-4.382V96.293H42.146Z" transform="translate(-32.504 -74.264)"/>
  </g>
</svg>
