<svg xmlns="http://www.w3.org/2000/svg" width="142.966" height="40" viewBox="0 0 142.966 40">
  <g id="flutter-logo" transform="translate(-4.59 -4)">
    <path id="Path_44840" data-name="Path 44840" d="M24.575,4.014,36.97,4,16.175,24.784l-5.419,5.389L4.59,24ZM24.46,22.571c.161-.212.457-.108.681-.135l11.818,0L26.189,33.2l-6.2-6.16Z"/>
    <path id="Path_44841" data-name="Path 44841" d="M332.6,61.21l13.511,0,0,2.66c-3.534,0-7.071-.011-10.607,0-.27.09-.143.428-.173.636l.011,7.156c.09.269.429.14.639.173l9.069,0V74.5q-4.23,0-8.458,0a7.237,7.237,0,0,0-1.257.044l-.032,10.1c-.909-.036-1.817,0-2.726-.023l0-22.98Zm16.788,0h2.774l0,15.9-.03,7.486c-.9-.017-1.806-.021-2.707,0a6.007,6.007,0,0,1-.041-1.12Zm27.153,1.971,2.783,0,0,4.7c1.361.033,2.73-.061,4.088.047-.038.844-.006,1.688-.021,2.531-1.354,0-2.706.014-4.058-.006l-.011,9.37a2.614,2.614,0,0,0,1.058,2.364,3.117,3.117,0,0,0,3.06-.238v2.726a5.913,5.913,0,0,1-3.229.363,4.235,4.235,0,0,1-3.437-2.776,7.481,7.481,0,0,1-.241-2.578l-.006-9.125-.068-.077c-.961-.052-1.924.008-2.886-.026.006-.859-.033-1.718.021-2.575.977-.017,1.959.044,2.935-.03Zm11.758-.009c.926.032,1.851-.011,2.776.021l.064.07c.035,1.545-.047,3.094.036,4.636,1.319-.024,2.638,0,3.955-.012l.009,2.559c-1.326.05-2.657.02-3.984.012l-.015,9.532a2.379,2.379,0,0,0,1.041,2.22,3.162,3.162,0,0,0,3.094-.288l0,2.741a5.961,5.961,0,0,1-3.129.4,4.388,4.388,0,0,1-3.348-2.207,5.467,5.467,0,0,1-.511-2.1V70.473c-.961,0-1.92,0-2.879,0l.006-2.591c.945.026,1.891-.008,2.836.024.1-1.572-.008-3.155.052-4.73Zm13.51,4.8a8.748,8.748,0,0,1,6.1-.144,7.457,7.457,0,0,1,4.624,5.011,10.821,10.821,0,0,1,.341,3.912l-13.211.014a6.393,6.393,0,0,0,1.507,3.9,5.581,5.581,0,0,0,5.8,1.584,5.8,5.8,0,0,0,3.248-2.759c.8.36,1.586.769,2.387,1.138a8.011,8.011,0,0,1-5.43,4.2,8.8,8.8,0,0,1-5.79-.581,8.3,8.3,0,0,1-4.313-5.94,10.77,10.77,0,0,1,.495-5.75,8.151,8.151,0,0,1,4.243-4.579m1.046,2.4a5.646,5.646,0,0,0-2.982,4.117l10.132-.032A5.307,5.307,0,0,0,408.63,71.4,5.224,5.224,0,0,0,402.859,70.379Zm16.035.22a5.416,5.416,0,0,1,6.876-2.842v3a5.335,5.335,0,0,0-3.428-.352,4.9,4.9,0,0,0-3.151,3.38,10.653,10.653,0,0,0-.178,3.167c-.118,1.369.059,2.739-.03,4.108.073,1.182-.064,2.364.036,3.548-.944.046-1.888,0-2.83.029-.055-3.568-.008-7.137-.023-10.707l.021-6.008c.885.024,1.771,0,2.657.018C418.926,68.825,418.747,69.716,418.894,70.6Zm-62.749-2.712c.941.039,1.889-.056,2.826.05l-.014,9.946a5.09,5.09,0,0,0,1,3.487,4.253,4.253,0,0,0,4.407.947,5.145,5.145,0,0,0,3.287-4.911l.03-9.52,2.833.006-.017,16.7c-.9-.015-1.8,0-2.692-.011l-.011-2.377A6.83,6.83,0,0,1,360,84.8a5.013,5.013,0,0,1-2.923-2.364,8.528,8.528,0,0,1-.961-4.123l.033-10.429Z" transform="translate(-278.214 -48.528)"/>
    <path id="Path_44842" data-name="Path 44842" d="M65.36,161.981l6.178-6.171,6.2,6.16.026.027-6.222,6.165-6.18-6.181Z" transform="translate(-51.547 -128.771)" fill="#3d3d3d"/>
    <path id="Path_44843" data-name="Path 44843" d="M106.08,202.745l6.222-6.165,10.749,10.76c-4.049.009-8.1,0-12.144.006-.231.052-.373-.159-.521-.29l-4.307-4.312Z" transform="translate(-86.088 -163.354)"/>
  </g>
</svg>
