<svg id="ic_Beacons" xmlns="http://www.w3.org/2000/svg" xmlns:xlink="http://www.w3.org/1999/xlink" width="72.337" height="73.483" viewBox="0 0 72.337 73.483">
  <defs>
    <clipPath id="clip-path">
      <rect id="Rectangle_20146" data-name="Rectangle 20146" width="72.337" height="73.483" fill="#6ec1b6"/>
    </clipPath>
  </defs>
  <g id="Group_57684" data-name="Group 57684" clip-path="url(#clip-path)">
    <path id="Path_44917" data-name="Path 44917" d="M44.635,162.9a.873.873,0,0,0-1.227,0,14.166,14.166,0,0,0,0,20.046.866.866,0,0,0,1.227,0,.873.873,0,0,0,0-1.227,12.434,12.434,0,0,1,0-17.592.873.873,0,0,0,0-1.227" transform="translate(-32.864 -136.176)" fill="#6ec1b6"/>
    <path id="Path_44918" data-name="Path 44918" d="M1.736,149.7a18.653,18.653,0,0,1,5.521-13.31.868.868,0,1,0-1.227-1.227,20.551,20.551,0,0,0,0,29.085.866.866,0,0,0,1.227,0,.873.873,0,0,0,0-1.227A18.7,18.7,0,0,1,1.736,149.7" transform="translate(0 -112.956)" fill="#6ec1b6"/>
    <path id="Path_44919" data-name="Path 44919" d="M85.942,193.549a.873.873,0,0,0-1.227,0,7.112,7.112,0,0,0,0,10.058.866.866,0,0,0,1.227,0,.873.873,0,0,0,0-1.227,5.386,5.386,0,0,1,0-7.6A.873.873,0,0,0,85.942,193.549Z" transform="translate(-69.182 -161.837)" fill="#6ec1b6"/>
    <path id="Path_44920" data-name="Path 44920" d="M171.264,31.331h-2.755V17.523a5.814,5.814,0,0,0-5.81-5.81h-1.134L160.234.764A.871.871,0,0,0,159.377,0H130.234a.854.854,0,0,0-.856.764l-1.331,10.949h-1.134a5.814,5.814,0,0,0-5.81,5.81V55.96a5.814,5.814,0,0,0,5.81,5.81h1.134l1.331,10.949a.871.871,0,0,0,.856.764h29.143a.854.854,0,0,0,.856-.764l1.331-10.949H162.7a5.814,5.814,0,0,0,5.81-5.81v-13.8h2.755a2.467,2.467,0,0,0,2.465-2.465V33.8a2.46,2.46,0,0,0-2.465-2.465M131,1.736h27.6l1.215,9.977H129.783Zm27.6,70.022H131l-1.215-9.977h30.034Zm8.171-15.787a4.08,4.08,0,0,1-4.074,4.074H126.9a4.08,4.08,0,0,1-4.074-4.074V17.523a4.08,4.08,0,0,1,4.074-4.074h35.81a4.08,4.08,0,0,1,4.074,4.074V55.972Zm5.22-16.273a.726.726,0,0,1-.729.729h-2.755V33.055h2.755a.726.726,0,0,1,.729.729Z" transform="translate(-101.392)" fill="#6ec1b6"/>
    <path id="Path_44921" data-name="Path 44921" d="M193.579,116.906h-27.3a3.226,3.226,0,0,0-3.218,3.218V149.14a3.226,3.226,0,0,0,3.218,3.218h27.3a3.226,3.226,0,0,0,3.218-3.218V120.124a3.233,3.233,0,0,0-3.218-3.218m1.47,32.222a1.484,1.484,0,0,1-1.481,1.481H166.276a1.484,1.484,0,0,1-1.481-1.481v-29a1.484,1.484,0,0,1,1.481-1.482h27.3a1.484,1.484,0,0,1,1.481,1.482v29Z" transform="translate(-136.519 -97.879)" fill="#6ec1b6"/>
    <path id="Path_44922" data-name="Path 44922" d="M235.541,170.565a6.065,6.065,0,1,0-6.065-6.065A6.071,6.071,0,0,0,235.541,170.565Zm0-10.4a4.329,4.329,0,1,1-4.329,4.329A4.337,4.337,0,0,1,235.541,160.16Z" transform="translate(-192.127 -132.648)" fill="#6ec1b6"/>
    <path id="Path_44923" data-name="Path 44923" d="M213.312,241.848a10.488,10.488,0,0,0-10.382,9.537.866.866,0,0,0,1.725.15,8.677,8.677,0,0,1,17.292,0,.87.87,0,0,0,.868.8h.07a.867.867,0,0,0,.787-.937A10.45,10.45,0,0,0,213.312,241.848Z" transform="translate(-169.898 -202.485)" fill="#6ec1b6"/>
  </g>
</svg>
