<svg xmlns="http://www.w3.org/2000/svg" width="80" height="80" viewBox="0 0 80 80">
  <g id="ic_construction" transform="translate(-0.326)">
    <path id="Path_44521" data-name="Path 44521" d="M373.819,66.067a6.728,6.728,0,0,0-5.147.679,6.813,6.813,0,0,0-2.5,9.27,6.713,6.713,0,0,0,4.108,3.165,6.8,6.8,0,0,0,7.648-9.948A6.715,6.715,0,0,0,373.819,66.067Zm.432,10.407a4.413,4.413,0,0,1-6.044-1.623,4.466,4.466,0,0,1,1.64-6.077,4.414,4.414,0,0,1,6.044,1.623A4.466,4.466,0,0,1,374.251,76.474Z" transform="translate(-307.852 -55.546)" fill="#6ec1b6"/>
    <path id="Path_44522" data-name="Path 44522" d="M336.878,20.652,334.7,18.775a13.121,13.121,0,0,0-.058-3.868l2.056-1.762a2.5,2.5,0,0,0,.543-3.137l-1.888-3.291a2.489,2.489,0,0,0-2.989-1.108l-2.713.958A13.037,13.037,0,0,0,326.282,4.7l-.49-2.661A2.489,2.489,0,0,0,323.345,0h-3.792A2.5,2.5,0,0,0,317.1,2.035l-.537,2.84a13.462,13.462,0,0,0-3.308,1.992l-2.541-.9a2.5,2.5,0,0,0-2.99,1.1l-1.9,3.291a2.5,2.5,0,0,0,.53,3.14l2.182,1.878a13.121,13.121,0,0,0,.058,3.868l-2.056,1.762a2.5,2.5,0,0,0-.543,3.137l1.887,3.291a2.489,2.489,0,0,0,2.989,1.108l2.713-.958a13.042,13.042,0,0,0,3.366,1.866l.49,2.661a2.489,2.489,0,0,0,2.448,2.039h3.791a2.5,2.5,0,0,0,2.452-2.034l.537-2.84a13.469,13.469,0,0,0,3.308-1.992l2.542.9a2.5,2.5,0,0,0,2.99-1.1l1.9-3.291A2.5,2.5,0,0,0,336.878,20.652Zm-1.5,1.967-1.9,3.291a.147.147,0,0,1-.175.068l-3.185-1.126a1.174,1.174,0,0,0-1.184.241,10.991,10.991,0,0,1-3.692,2.23,1.172,1.172,0,0,0-.756.885l-.657,3.478a.151.151,0,0,1-.147.125h-3.791a.144.144,0,0,1-.14-.119l-.613-3.333a1.173,1.173,0,0,0-.8-.906,10.735,10.735,0,0,1-3.759-2.08,1.183,1.183,0,0,0-1.153-.214l-3.332,1.176a.14.14,0,0,1-.17-.063l-1.887-3.291a.154.154,0,0,1,.034-.194l2.572-2.2a1.171,1.171,0,0,0,.382-1.14,10.826,10.826,0,0,1-.069-4.313,1.171,1.171,0,0,0-.388-1.1l-2.677-2.3a.152.152,0,0,1-.03-.192l1.9-3.291a.148.148,0,0,1,.175-.068L313.117,9.3a1.175,1.175,0,0,0,1.184-.241,10.978,10.978,0,0,1,3.692-2.23,1.172,1.172,0,0,0,.756-.885l.657-3.479a.151.151,0,0,1,.147-.125h3.791a.143.143,0,0,1,.14.119L324.1,5.8a1.173,1.173,0,0,0,.8.906,10.732,10.732,0,0,1,3.759,2.08A1.175,1.175,0,0,0,329.811,9l3.332-1.176a.14.14,0,0,1,.17.063l1.887,3.291a.154.154,0,0,1-.034.194l-2.572,2.2a1.171,1.171,0,0,0-.382,1.14,10.824,10.824,0,0,1,.069,4.313,1.171,1.171,0,0,0,.388,1.1l2.677,2.3a.152.152,0,0,1,.03.191Z" transform="translate(-257.417 0)" fill="#6ec1b6"/>
    <path id="Path_44523" data-name="Path 44523" d="M17.3,42.207A3.93,3.93,0,0,0,13.454,38.3l-.661,0,0-5.861c0-1.78-2.781-1.36-2.346.3l0,5.556-3.371-.009L7.06,18.194A1.171,1.171,0,0,0,6.9,17.6L4.105,12.831l0-6.295,9.277.043,0,6.219L10.59,17.593a1.17,1.17,0,0,0-.159.59l.006,7.726c-.393,1.631,2.348,1.919,2.347.276L12.778,18.5,15.57,13.7a1.171,1.171,0,0,0,.159-.59l0-11.943A1.225,1.225,0,0,0,14.549,0L2.926.034A1.184,1.184,0,0,0,1.756,1.2l0,11.946a1.171,1.171,0,0,0,.16.591l2.794,4.772.016,19.76-.661,0C-.5,38.284-1.082,45.322,3.41,46.1L3.372,69.467c-.01,7.156,10.752,7.1,10.762.028l.038-23.43A3.917,3.917,0,0,0,17.3,42.207ZM4.1,4.193V2.374l9.277-.027V4.236ZM8.767,72.631a3.185,3.185,0,0,1-3.048-3.161l.038-23.313,6.068-.018-.038,23.351a3.1,3.1,0,0,1-3.02,3.14Zm4.682-28.84-9.38.027c-1.9,0-1.881-3.2,0-3.2l9.386.025C15.338,40.639,15.351,43.786,13.449,43.792Z" transform="translate(0)" fill="#6ec1b6"/>
    <path id="Path_44524" data-name="Path 44524" d="M161.661,66.586l0-5.181a27.72,27.72,0,0,0-10.553-21.776,2.314,2.314,0,0,0-2.524-.12,26.333,26.333,0,0,0-8.365-3.754,1.691,1.691,0,0,0-.633-1.818,12.943,12.943,0,0,0-11.92.005,1.692,1.692,0,0,0-.631,1.819,26.417,26.417,0,0,0-4,1.361l.115-13.8c4.781-1.184,7.306-4.269,7.319-8.971.015-5.208-3.08-11.2-7.2-13.949q-1.494-.6-1.824.972l-.028,9.74a.849.849,0,0,1-.836.865l-4.949-.025a.86.86,0,0,1-.836-.879l.028-9.74Q114.5-.237,113,.353c-4.137,2.7-7.269,8.671-7.284,13.88-.014,4.7,2.491,7.806,7.258,9.038l-.13,19.459a27.643,27.643,0,0,0-7.237,18.7l0,5.168c-4.627,1.411-3.732,8.485,1.214,8.485a20.459,20.459,0,0,1,9.719,2.648,21.341,21.341,0,0,0,9.879,2.433h.009l14.416-.006a21.344,21.344,0,0,0,9.886-2.442,20.248,20.248,0,0,1,9.715-2.656c4.879,0,5.913-7.1,1.209-8.473ZM147.6,41.675l.006,13.743a1.173,1.173,0,0,0,1.173,1.171h0a1.173,1.173,0,0,0,1.173-1.172L149.943,41.7a25.381,25.381,0,0,1,9.369,19.7l0,5h-9.361l0-4.756a1.173,1.173,0,0,0-1.173-1.171h0a1.173,1.173,0,0,0-1.173,1.172l0,4.756H140.23l-.012-28.223a24.005,24.005,0,0,1,7.378,3.5Zm-9.726-5.96.013,30.688h-8.491l-.013-30.684a10.6,10.6,0,0,1,8.491,0ZM127.045,66.4h-7.376l-.01-24.716a24.2,24.2,0,0,1,7.375-3.5ZM108.067,14.241a16.1,16.1,0,0,1,4.4-10.4l-.021,7.232a3.209,3.209,0,0,0,3.171,3.229l4.949.025a3.281,3.281,0,0,0,3.195-3.2l.021-7.224a16.171,16.171,0,0,1,4.338,10.447c-.011,3.839-2.089,6.089-6.352,6.878a1.172,1.172,0,0,0-.96,1.142l-.133,15.915q-1.026.571-2,1.238a2.313,2.313,0,0,0-2.523.122c-.319.254-.63.516-.936.783l.12-18.08a1.172,1.172,0,0,0-.948-1.158c-4.262-.833-6.328-3.1-6.316-6.947Zm9.245,27.475.01,24.686h-9.361l0-4.975A25.382,25.382,0,0,1,117.312,41.716ZM161.9,72.1a2,2,0,0,1-1.449.613,22.8,22.8,0,0,0-10.807,2.926,18.979,18.979,0,0,1-8.793,2.172l-14.416.006h-.008a18.985,18.985,0,0,1-8.787-2.165c-3.25-1.736-7.057-3.125-10.81-2.917-2.629,0-2.578-3.99.082-3.991h53.454A2.019,2.019,0,0,1,161.9,72.1Z" transform="translate(-86.264 -0.162)" fill="#6ec1b6"/>
  </g>
</svg>
