<svg id="ic_healthcare" xmlns="http://www.w3.org/2000/svg" width="80" height="80" viewBox="0 0 80 80">
  <path id="Path_44531" data-name="Path 44531" d="M166.938,277.25h9.375a1.563,1.563,0,0,0,1.563-1.562v-7.812h7.813a1.563,1.563,0,0,0,1.563-1.562v-9.375a1.563,1.563,0,0,0-1.562-1.562h-7.812v-7.812A1.563,1.563,0,0,0,176.313,246h-9.375a1.562,1.562,0,0,0-1.562,1.563v7.813h-7.812A1.562,1.562,0,0,0,156,256.938v9.375a1.562,1.562,0,0,0,1.563,1.563h7.813v7.813A1.562,1.562,0,0,0,166.938,277.25Zm-7.812-12.5V258.5h7.813a1.562,1.562,0,0,0,1.563-1.562v-7.812h6.25v7.813a1.563,1.563,0,0,0,1.563,1.563h7.813v6.25h-7.812a1.563,1.563,0,0,0-1.562,1.563v7.813H168.5v-7.812a1.562,1.562,0,0,0-1.562-1.562Z" transform="translate(-131.625 -207.563)" fill="#6ec1b6"/>
  <circle id="Ellipse_57" data-name="Ellipse 57" cx="1.563" cy="1.563" r="1.563" transform="translate(38.438 76.875)" fill="#6ec1b6"/>
  <path id="Path_44532" data-name="Path 44532" d="M6.25,80H32.969a1.563,1.563,0,0,0,0-3.125H6.25A3.129,3.129,0,0,1,3.125,73.75V32.188h6.25V40a1.562,1.562,0,0,0,1.563,1.563h9.375A1.562,1.562,0,0,0,21.875,40V32.188h36.25V40a1.563,1.563,0,0,0,1.563,1.563h9.375A1.563,1.563,0,0,0,70.625,40V32.188h6.25V73.75a3.129,3.129,0,0,1-3.125,3.125H47.031a1.563,1.563,0,0,0,0,3.125H73.75A6.257,6.257,0,0,0,80,73.75V21.25A6.257,6.257,0,0,0,73.75,15H60.313V6.25A6.257,6.257,0,0,0,54.063,0H25.938a6.257,6.257,0,0,0-6.25,6.25V15H6.25A6.257,6.257,0,0,0,0,21.25v52.5A6.257,6.257,0,0,0,6.25,80Zm12.5-41.562H12.5v-6.25h6.25Zm48.75,0H61.25v-6.25H67.5ZM22.813,6.25a3.129,3.129,0,0,1,3.125-3.125H54.063A3.129,3.129,0,0,1,57.188,6.25V15H22.813ZM6.25,18.125h67.5a3.129,3.129,0,0,1,3.125,3.125v7.813H3.125V21.25A3.129,3.129,0,0,1,6.25,18.125Z" fill="#6ec1b6"/>
</svg>
