<svg id="ic_native-mobile-apps" xmlns="http://www.w3.org/2000/svg" xmlns:xlink="http://www.w3.org/1999/xlink" width="38.564" height="68.666" viewBox="0 0 38.564 68.666">
  <defs>
    <clipPath id="clip-path">
      <rect id="Rectangle_20132" data-name="Rectangle 20132" width="38.564" height="68.666" fill="#6ec1b6"/>
    </clipPath>
  </defs>
  <g id="Group_57673" data-name="Group 57673" clip-path="url(#clip-path)">
    <path id="Path_44888" data-name="Path 44888" d="M33.258,0H5.306A5.312,5.312,0,0,0,0,5.306V63.36a5.312,5.312,0,0,0,5.306,5.306H33.258a5.312,5.312,0,0,0,5.306-5.306V5.306A5.312,5.312,0,0,0,33.258,0m-20.5,2.012H25.8V3.156A1.146,1.146,0,0,1,24.657,4.3H13.907a1.146,1.146,0,0,1-1.144-1.144V2.012ZM36.552,63.36a3.3,3.3,0,0,1-3.295,3.294H5.306A3.3,3.3,0,0,1,2.012,63.36V5.306A3.3,3.3,0,0,1,5.306,2.012h5.445V3.156a3.16,3.16,0,0,0,3.156,3.156H24.657a3.16,3.16,0,0,0,3.156-3.156V2.012h5.445a3.3,3.3,0,0,1,3.295,3.294V63.36Z" fill="#6ec1b6"/>
    <path id="Path_44889" data-name="Path 44889" d="M107.951,464.936H97.2a1.006,1.006,0,0,0,0,2.012h10.751a1.006,1.006,0,1,0,0-2.012" transform="translate(-83.293 -402.582)" fill="#6ec1b6"/>
    <path id="Path_44890" data-name="Path 44890" d="M43.237,87.058h6.45A3.16,3.16,0,0,0,52.843,83.9V75.3a3.16,3.16,0,0,0-3.156-3.156h-6.45A3.16,3.16,0,0,0,40.081,75.3v8.6a3.16,3.16,0,0,0,3.156,3.156M42.093,75.3a1.146,1.146,0,0,1,1.144-1.144h6.45A1.146,1.146,0,0,1,50.832,75.3v8.6a1.146,1.146,0,0,1-1.144,1.144h-6.45A1.146,1.146,0,0,1,42.093,83.9Z" transform="translate(-34.706 -62.469)" fill="#6ec1b6"/>
    <path id="Path_44891" data-name="Path 44891" d="M155.462,74.157h6.45a1.146,1.146,0,0,1,1.144,1.144,1.006,1.006,0,0,0,2.012,0,3.16,3.16,0,0,0-3.156-3.156h-6.45a3.16,3.16,0,0,0-3.156,3.156v8.6a3.16,3.16,0,0,0,3.156,3.156h6.45a3.16,3.16,0,0,0,3.156-3.156V79.6a1.006,1.006,0,0,0-2.012,0v4.3a1.146,1.146,0,0,1-1.144,1.144h-6.45a1.146,1.146,0,0,1-1.144-1.144V75.3A1.146,1.146,0,0,1,155.462,74.157Z" transform="translate(-131.88 -62.469)" fill="#6ec1b6"/>
    <path id="Path_44892" data-name="Path 44892" d="M43.237,215.316h6.45a3.16,3.16,0,0,0,3.156-3.156v-8.6a3.16,3.16,0,0,0-3.156-3.156h-6.45a3.16,3.16,0,0,0-3.156,3.156v8.6a3.16,3.16,0,0,0,3.156,3.156M42.093,203.56a1.146,1.146,0,0,1,1.144-1.144h6.45a1.146,1.146,0,0,1,1.144,1.144v8.6a1.146,1.146,0,0,1-1.144,1.144h-6.45a1.146,1.146,0,0,1-1.144-1.144Z" transform="translate(-34.706 -173.527)" fill="#6ec1b6"/>
    <path id="Path_44893" data-name="Path 44893" d="M161.912,200.4h-6.45a3.16,3.16,0,0,0-3.156,3.156v8.6a3.16,3.16,0,0,0,3.156,3.156h6.45a3.16,3.16,0,0,0,3.156-3.156v-8.6a3.16,3.16,0,0,0-3.156-3.156m1.144,11.757a1.146,1.146,0,0,1-1.144,1.144h-6.45a1.146,1.146,0,0,1-1.144-1.144v-8.6a1.146,1.146,0,0,1,1.144-1.144h6.45a1.146,1.146,0,0,1,1.144,1.144Z" transform="translate(-131.88 -173.526)" fill="#6ec1b6"/>
    <path id="Path_44894" data-name="Path 44894" d="M52.843,340.419v-4.3a1.006,1.006,0,1,0-2.012,0v4.3a1.146,1.146,0,0,1-1.144,1.144h-6.45a1.146,1.146,0,0,1-1.144-1.144v-8.6a1.146,1.146,0,0,1,1.144-1.144h6.45a1.146,1.146,0,0,1,1.144,1.144,1.006,1.006,0,1,0,2.012,0,3.16,3.16,0,0,0-3.156-3.156h-6.45a3.16,3.16,0,0,0-3.156,3.156v8.6a3.16,3.16,0,0,0,3.156,3.156h6.45a3.16,3.16,0,0,0,3.156-3.156" transform="translate(-34.706 -284.584)" fill="#6ec1b6"/>
    <path id="Path_44895" data-name="Path 44895" d="M161.912,328.661h-6.45a3.16,3.16,0,0,0-3.156,3.156v8.6a3.16,3.16,0,0,0,3.156,3.156h6.45a3.16,3.16,0,0,0,3.156-3.156v-8.6a3.16,3.16,0,0,0-3.156-3.156m1.144,11.757a1.146,1.146,0,0,1-1.144,1.144h-6.45a1.146,1.146,0,0,1-1.144-1.144v-8.6a1.146,1.146,0,0,1,1.144-1.144h6.45a1.146,1.146,0,0,1,1.144,1.144Z" transform="translate(-131.88 -284.583)" fill="#6ec1b6"/>
    <path id="Path_44896" data-name="Path 44896" d="M73.151,122.254H75.3a1.006,1.006,0,0,0,0-2.012h-2.15a1.006,1.006,0,1,0,0,2.012" transform="translate(-62.469 -104.116)" fill="#6ec1b6"/>
    <path id="Path_44897" data-name="Path 44897" d="M187.527,232.468h-2.15a1.006,1.006,0,0,0,0,2.012h2.15a1.006,1.006,0,0,0,0-2.012" transform="translate(-159.644 -201.291)" fill="#6ec1b6"/>
    <path id="Path_44898" data-name="Path 44898" d="M73.151,376.758a1.006,1.006,0,1,0,0,2.012H75.3a1.006,1.006,0,1,0,0-2.012Z" transform="translate(-62.469 -326.23)" fill="#6ec1b6"/>
    <path id="Path_44899" data-name="Path 44899" d="M187.527,264.532h-2.15a1.006,1.006,0,1,0,0,2.012h2.15a1.006,1.006,0,1,0,0-2.012" transform="translate(-159.644 -229.055)" fill="#6ec1b6"/>
  </g>
</svg>
