<svg xmlns="http://www.w3.org/2000/svg" width="80" height="73.75" viewBox="0 0 80 73.75">
  <g id="ic_printing" transform="translate(0 -20)">
    <g id="Group_57464" data-name="Group 57464" transform="translate(0 20)">
      <g id="Group_57463" data-name="Group 57463">
        <path id="Path_44525" data-name="Path 44525" d="M73.565,49.063a12.315,12.315,0,0,0,3.207-3.108A18.167,18.167,0,0,0,80,35.313a18.167,18.167,0,0,0-3.228-10.642A10.337,10.337,0,0,0,68.438,20H11.563a10.337,10.337,0,0,0-8.335,4.671A18.167,18.167,0,0,0,0,35.313,18.167,18.167,0,0,0,3.228,45.954a12.313,12.313,0,0,0,3.207,3.108,12.315,12.315,0,0,0-3.207,3.108,19.156,19.156,0,0,0,0,21.283,10.337,10.337,0,0,0,8.335,4.671H20V92.188a1.562,1.562,0,0,0,1.563,1.563H37.837a1.563,1.563,0,0,0,0-3.125H23.125V62.813A18.167,18.167,0,0,0,19.9,52.171a13.567,13.567,0,0,0-1.306-1.546H68.438a7.31,7.31,0,0,1,5.807,3.384,15.032,15.032,0,0,1,2.63,8.8V90.625H53.164a1.563,1.563,0,0,0,0,3.125H78.438A1.562,1.562,0,0,0,80,92.188V62.813a18.167,18.167,0,0,0-3.228-10.642A12.31,12.31,0,0,0,73.565,49.063ZM20,75H18.591A13.551,13.551,0,0,0,19.9,73.454c.035-.048.068-.1.1-.148Zm0-12.187a15.032,15.032,0,0,1-2.63,8.8A7.31,7.31,0,0,1,11.563,75a7.31,7.31,0,0,1-5.807-3.384,16.049,16.049,0,0,1,0-17.607,7.31,7.31,0,0,1,5.807-3.384,7.31,7.31,0,0,1,5.807,3.384A15.032,15.032,0,0,1,20,62.813Zm-2.63-18.7A7.31,7.31,0,0,1,11.563,47.5a7.31,7.31,0,0,1-5.807-3.384,15.032,15.032,0,0,1-2.63-8.8,15.032,15.032,0,0,1,2.63-8.8,7.31,7.31,0,0,1,5.807-3.384,7.31,7.31,0,0,1,5.807,3.384,15.032,15.032,0,0,1,2.63,8.8A15.032,15.032,0,0,1,17.37,44.116ZM68.438,47.5H18.591A13.551,13.551,0,0,0,19.9,45.954a18.167,18.167,0,0,0,3.228-10.642A18.167,18.167,0,0,0,19.9,24.671a13.567,13.567,0,0,0-1.306-1.546H68.438a7.31,7.31,0,0,1,5.807,3.384,15.032,15.032,0,0,1,2.63,8.8,15.032,15.032,0,0,1-2.63,8.8A7.31,7.31,0,0,1,68.438,47.5Z" transform="translate(0 -20)" fill="#6ec1b6"/>
      </g>
    </g>
    <g id="Group_57466" data-name="Group 57466" transform="translate(43.464 90.625)">
      <g id="Group_57465" data-name="Group 57465">
        <path id="Path_44526" data-name="Path 44526" d="M280.837,472.458a1.562,1.562,0,1,0,.458,1.1A1.574,1.574,0,0,0,280.837,472.458Z" transform="translate(-278.17 -472)" fill="#6ec1b6"/>
      </g>
    </g>
    <g id="Group_57468" data-name="Group 57468" transform="translate(10 61.25)">
      <g id="Group_57467" data-name="Group 57467">
        <path id="Path_44527" data-name="Path 44527" d="M66.667,284.458a1.562,1.562,0,1,0,.458,1.1A1.574,1.574,0,0,0,66.667,284.458Z" transform="translate(-64 -284)" fill="#6ec1b6"/>
      </g>
    </g>
    <g id="Group_57470" data-name="Group 57470" transform="translate(10 33.75)">
      <g id="Group_57469" data-name="Group 57469">
        <path id="Path_44528" data-name="Path 44528" d="M66.667,108.458a1.562,1.562,0,1,0,.458,1.1A1.574,1.574,0,0,0,66.667,108.458Z" transform="translate(-64 -108)" fill="#6ec1b6"/>
      </g>
    </g>
    <g id="Group_57472" data-name="Group 57472" transform="translate(45.469 26.563)">
      <g id="Group_57471" data-name="Group 57471">
        <path id="Path_44529" data-name="Path 44529" d="M304.828,62H292.563a1.563,1.563,0,0,0,0,3.125h12.266a1.563,1.563,0,0,0,0-3.125Z" transform="translate(-291 -62)" fill="#6ec1b6"/>
      </g>
    </g>
    <g id="Group_57474" data-name="Group 57474" transform="translate(38.458 26.563)">
      <g id="Group_57473" data-name="Group 57473">
        <path id="Path_44530" data-name="Path 44530" d="M248.8,62.458a1.562,1.562,0,1,0,.458,1.1A1.574,1.574,0,0,0,248.8,62.458Z" transform="translate(-246.13 -62)" fill="#6ec1b6"/>
      </g>
    </g>
  </g>
</svg>
