<svg xmlns="http://www.w3.org/2000/svg" xmlns:xlink="http://www.w3.org/1999/xlink" width="68" height="70" viewBox="0 0 68 70">
  <defs>
    <clipPath id="clip-path">
      <rect id="Rectangle_20147" data-name="Rectangle 20147" width="68" height="70" transform="translate(-0.166 0.001)" fill="#6ec1b6"/>
    </clipPath>
  </defs>
  <g id="ic_PWA" transform="translate(-0.222 -0.001)">
    <g id="Group_57686" data-name="Group 57686" transform="translate(0.389 0.001)" clip-path="url(#clip-path)">
      <path id="Path_44924" data-name="Path 44924" d="M126.152,70H96.707A6.714,6.714,0,0,1,90,63.3V6.707A6.714,6.714,0,0,1,96.707,0h29.446a6.714,6.714,0,0,1,6.706,6.707V63.3A6.714,6.714,0,0,1,126.152,70M96.707,2.857a3.854,3.854,0,0,0-3.849,3.849V63.3a3.854,3.854,0,0,0,3.849,3.849h29.446A3.854,3.854,0,0,0,130,63.3V6.707a3.854,3.854,0,0,0-3.849-3.849Z" transform="translate(-77.596 -0.001)" fill="#6ec1b6"/>
      <path id="Path_44925" data-name="Path 44925" d="M131.43,62.857h-40a1.429,1.429,0,1,1,0-2.857h40a1.429,1.429,0,0,1,0,2.857" transform="translate(-77.596 -51.429)" fill="#6ec1b6"/>
      <path id="Path_44926" data-name="Path 44926" d="M131.43,412.857h-40a1.429,1.429,0,0,1,0-2.857h40a1.429,1.429,0,0,1,0,2.857" transform="translate(-77.596 -351.427)" fill="#6ec1b6"/>
      <path id="Path_44927" data-name="Path 44927" d="M134.286,118.571a1.424,1.424,0,0,1-1.01-.418l-2.857-2.857a1.429,1.429,0,0,1,0-2.021l2.857-2.857a1.429,1.429,0,0,1,2.021,2.02l-1.847,1.847,1.847,1.847a1.429,1.429,0,0,1-1.01,2.439" transform="translate(-111.881 -94.285)" fill="#6ec1b6"/>
      <path id="Path_44928" data-name="Path 44928" d="M241.428,118.571a1.429,1.429,0,0,1-1.01-2.439l1.847-1.847-1.847-1.847a1.429,1.429,0,0,1,2.021-2.02l2.857,2.857a1.429,1.429,0,0,1,0,2.021l-2.857,2.857A1.424,1.424,0,0,1,241.428,118.571Z" transform="translate(-206.166 -94.285)" fill="#6ec1b6"/>
      <path id="Path_44929" data-name="Path 44929" d="M181.426,111.427a1.429,1.429,0,0,1-1.277-2.068l4.286-8.572a1.429,1.429,0,1,1,2.556,1.278l-4.286,8.572A1.429,1.429,0,0,1,181.426,111.427Z" transform="translate(-154.736 -85.712)" fill="#6ec1b6"/>
      <path id="Path_44930" data-name="Path 44930" d="M158.572,222.857H141.429a1.429,1.429,0,0,1,0-2.857h17.143a1.429,1.429,0,0,1,0,2.857" transform="translate(-120.453 -188.571)" fill="#6ec1b6"/>
      <path id="Path_44931" data-name="Path 44931" d="M158.572,262.857H141.429a1.429,1.429,0,1,1,0-2.857h17.143a1.429,1.429,0,1,1,0,2.857" transform="translate(-120.453 -222.857)" fill="#6ec1b6"/>
      <path id="Path_44932" data-name="Path 44932" d="M167.144,302.857H141.429a1.429,1.429,0,1,1,0-2.857h25.715a1.429,1.429,0,1,1,0,2.857" transform="translate(-120.453 -257.142)" fill="#6ec1b6"/>
      <path id="Path_44933" data-name="Path 44933" d="M167.144,342.857H141.429a1.429,1.429,0,1,1,0-2.857h25.715a1.429,1.429,0,1,1,0,2.857" transform="translate(-120.453 -291.428)" fill="#6ec1b6"/>
      <path id="Path_44934" data-name="Path 44934" d="M452.143,50A2.143,2.143,0,1,1,450,52.143,2.143,2.143,0,0,1,452.143,50" transform="translate(-386.165 -42.858)" fill="#6ec1b6"/>
      <path id="Path_44935" data-name="Path 44935" d="M22.143,370A2.143,2.143,0,1,1,20,372.143,2.143,2.143,0,0,1,22.143,370" transform="translate(-17.596 -317.142)" fill="#6ec1b6"/>
      <path id="Path_44936" data-name="Path 44936" d="M1.429,180A1.429,1.429,0,1,1,0,181.429,1.429,1.429,0,0,1,1.429,180" transform="translate(-0.453 -154.286)" fill="#6ec1b6"/>
      <path id="Path_44937" data-name="Path 44937" d="M431.429,190A1.429,1.429,0,1,1,430,191.429,1.429,1.429,0,0,1,431.429,190" transform="translate(-369.023 -162.857)" fill="#6ec1b6"/>
      <path id="Path_44938" data-name="Path 44938" d="M51.429,70A1.429,1.429,0,1,1,50,71.429,1.429,1.429,0,0,1,51.429,70" transform="translate(-43.31 -60.001)" fill="#6ec1b6"/>
      <path id="Path_44939" data-name="Path 44939" d="M441.429,400A1.429,1.429,0,1,1,440,401.429,1.429,1.429,0,0,1,441.429,400" transform="translate(-377.594 -342.856)" fill="#6ec1b6"/>
    </g>
  </g>
</svg>
