<svg id="ic_VC" xmlns="http://www.w3.org/2000/svg" xmlns:xlink="http://www.w3.org/1999/xlink" width="74" height="73.728" viewBox="0 0 74 73.728">
  <defs>
    <clipPath id="clip-path">
      <rect id="Rectangle_20157" data-name="Rectangle 20157" width="74" height="73.728" fill="#6ec1b6"/>
    </clipPath>
  </defs>
  <g id="Group_57692" data-name="Group 57692" clip-path="url(#clip-path)">
    <path id="Path_44948" data-name="Path 44948" d="M19.733,300.978a2.467,2.467,0,0,1,2.467,2.467v12.333h2.467V303.445a4.933,4.933,0,0,0-4.933-4.933H16.221a6.783,6.783,0,1,0-7.77,0H4.933A4.933,4.933,0,0,0,0,303.445v12.333H2.467V303.445a2.467,2.467,0,0,1,2.467-2.467ZM8.017,292.962a4.317,4.317,0,1,1,4.317,4.317,4.317,4.317,0,0,1-4.317-4.317" transform="translate(0 -242.05)" fill="#6ec1b6"/>
    <path id="Path_44949" data-name="Path 44949" d="M365.233,30.24A1.233,1.233,0,1,1,364,31.473a1.233,1.233,0,0,1,1.233-1.233" transform="translate(-307.884 -25.578)" fill="#6ec1b6"/>
    <path id="Path_44950" data-name="Path 44950" d="M332.949,17.024a6.154,6.154,0,0,0,0,6.537l2.089-1.312a3.685,3.685,0,0,1,0-3.917Z" transform="translate(-280.825 -14.399)" fill="#6ec1b6"/>
    <path id="Path_44951" data-name="Path 44951" d="M394.433,23.593a6.154,6.154,0,0,0,0-6.537l-2.089,1.307a3.685,3.685,0,0,1,0,3.917Z" transform="translate(-331.858 -14.427)" fill="#6ec1b6"/>
    <path id="Path_44952" data-name="Path 44952" d="M301.693,0a11.108,11.108,0,0,0,0,11.791l2.1-1.307a8.649,8.649,0,0,1,0-9.176Z" transform="translate(-253.75)" fill="#6ec1b6"/>
    <path id="Path_44953" data-name="Path 44953" d="M421.513,11.791a11.108,11.108,0,0,0,0-11.791l-2.1,1.307a8.65,8.65,0,0,1,0,9.176Z" transform="translate(-354.756)" fill="#6ec1b6"/>
    <path id="Path_44954" data-name="Path 44954" d="M245,67.173H234.515V62.24h-2.467v4.933H221.565a4.933,4.933,0,0,0-4.933,4.933V85.673H219.1v-11.1h28.367v38.233h-3.7V102.94a6.174,6.174,0,0,0-6.167-6.167h-2.279a6.783,6.783,0,1,0-7.77,0h-3.223l-4.44-2.252-6.012-7.174a1.243,1.243,0,0,0-.888-.44,1.223,1.223,0,0,0-.926.36l-3.7,3.7a1.233,1.233,0,0,0-.075,1.663l6.167,7.4a1.214,1.214,0,0,0,.231.212l8.117,5.8v6.765h-3.7V106.64h-2.467v8.633a4.933,4.933,0,0,0,4.933,4.933H245a4.933,4.933,0,0,0,4.933-4.933V72.107A4.933,4.933,0,0,0,245,67.173Zm-17.883,24.05a4.317,4.317,0,1,1,4.317,4.317,4.317,4.317,0,0,1-4.317-4.317m-10.871,7.105L210.9,91.915l1.951-1.952,5.309,6.334a1.216,1.216,0,0,0,.387.307l4.925,2.5a1.233,1.233,0,0,0,.559.134H237.6a3.7,3.7,0,0,1,3.7,3.7v9.867h-2.467V102.94h-2.467v9.867h-11.1v-7.4a1.233,1.233,0,0,0-.517-1ZM245,117.74H221.565a2.467,2.467,0,0,1-2.467-2.467h28.367A2.467,2.467,0,0,1,245,117.74M219.1,72.107a2.467,2.467,0,0,1,2.467-2.467H245a2.467,2.467,0,0,1,2.467,2.467Z" transform="translate(-175.932 -52.645)" fill="#6ec1b6"/>
    <rect id="Rectangle_20154" data-name="Rectangle 20154" width="7.399" height="2.466" transform="translate(19.642 41.233) rotate(-45)" fill="#6ec1b6"/>
    <rect id="Rectangle_20155" data-name="Rectangle 20155" width="7.403" height="2.468" transform="translate(23.354 46.575) rotate(-11.299)" fill="#6ec1b6"/>
    <rect id="Rectangle_20156" data-name="Rectangle 20156" width="7.403" height="2.468" transform="matrix(0.196, -0.981, 0.981, 0.196, 13.658, 38.791)" fill="#6ec1b6"/>
    <path id="Path_44955" data-name="Path 44955" d="M63.243,40.168a.826.826,0,0,0-.77-.083l-7.715,3.086V40.852a2.6,2.6,0,0,0-2.6-2.6H38.006a2.6,2.6,0,0,0-2.6,2.6V53.239a2.6,2.6,0,0,0,2.6,2.6H52.162a2.6,2.6,0,0,0,2.6-2.6V50.92l7.715,3.086a.826.826,0,0,0,1.133-.767V40.852A.826.826,0,0,0,63.243,40.168ZM53.106,53.239a.945.945,0,0,1-.944.943H38.006a.945.945,0,0,1-.944-.943V40.852a.945.945,0,0,1,.944-.944H52.162a.945.945,0,0,1,.944.944Zm8.848-1.22-7.2-2.878V44.95l7.2-2.878Z" transform="translate(-29.951 -32.358)" fill="#6ec1b6"/>
    <path id="Path_44956" data-name="Path 44956" d="M89.294,75.43l-4.181-3.039a.5.5,0,0,0-.8.407v6.076a.5.5,0,0,0,.8.406l4.181-3.036a.5.5,0,0,0,0-.813" transform="translate(-71.315 -61.149)" fill="#6ec1b6"/>
  </g>
</svg>
