<svg id="ic_voice" xmlns="http://www.w3.org/2000/svg" xmlns:xlink="http://www.w3.org/1999/xlink" width="81.233" height="70.001" viewBox="0 0 81.233 70.001">
  <defs>
    <clipPath id="clip-path">
      <rect id="Rectangle_20141" data-name="Rectangle 20141" width="81.233" height="70.001" fill="#6ec1b6"/>
    </clipPath>
  </defs>
  <g id="Group_57677" data-name="Group 57677" clip-path="url(#clip-path)">
    <path id="Path_44907" data-name="Path 44907" d="M85.7,88.62c-.215,5.481.224,11.416-.263,17.341-.112,1.366.427,2.45,1.915,2.606,1.623.17,2.125-.963,2.13-2.308.023-5.3-.009-10.591-.021-15.886-.006-2.616-.048-5.232-.006-7.847.047-2.891,1.915-4.855,4.554-4.889a4.776,4.776,0,0,1,4.682,4.85c.071,4.338.01,8.677.006,13.015,0,.7,0,1.4.007,2.105.015,1.309.519,2.353,1.948,2.331,1.339-.021,1.728-1.111,1.839-2.281a2.52,2.52,0,0,0,.019-.573c-.659-4.749,2.5-6.684,6.777-6.46,2.8.147,5.616.008,8.425.038,1.095.012,2.48-.313,2.438,1.538s-1.467,1.433-2.528,1.447c-3.255.044-6.512-.006-9.767.028-2.118.022-2.564.5-2.643,2.61a19.018,19.018,0,0,1-.109,2.291,4.338,4.338,0,0,1-4.97,3.941,4.159,4.159,0,0,1-4.092-4.422c-.1-4.464-.053-8.932-.081-13.4a15.373,15.373,0,0,0-.133-2.288c-.166-1.052-.713-1.8-1.919-1.691a1.733,1.733,0,0,0-1.678,1.95c-.033,3.636.018,7.274-.062,10.91-.1,4.522.343,9.061-.322,13.567a4.384,4.384,0,0,1-4.5,4.088,4.741,4.741,0,0,1-4.307-4.588c-.1-2.485-.038-4.976-.068-7.464q-.159-13.3-.334-26.591c-.015-1.189-.051-2.484-1.64-2.533-1.717-.053-1.8,1.283-1.807,2.557-.02,8.231-.009,16.461-.063,24.691-.022,3.428-1.9,5.326-4.983,5.214a4.2,4.2,0,0,1-4.171-3.936c-.071-.825-.018-1.66-.087-2.485a2.327,2.327,0,0,0-2.6-2.431c-1.02.011-2.044-.007-3.059-.088-.761-.061-1.08-.6-1.094-1.328-.014-.687.135-1.39.916-1.461,2.152-.195,4.348-.507,6.328.755a4.851,4.851,0,0,1,2.2,3.842,21.016,21.016,0,0,1,.048,2.1c0,1.288.415,2.4,1.839,2.446,1.462.05,1.937-1.114,1.942-2.354.017-3.954.112-7.918-.108-11.862-.254-4.53-.208-9.056-.117-13.579.065-3.278,2.138-5.3,4.934-5.227,2.683.07,4.563,2.327,4.575,5.565.019,5.232,0,10.463,0,16.142" transform="translate(-38.921 -41.247)" fill="#6ec1b6"/>
    <path id="Path_44908" data-name="Path 44908" d="M11.847,47.072c-.009-2.683.035-2.718,2.815-2.74,1.531-.012,3.071.04,4.59-.109,2.223-.219,2.579-.891,1.645-2.87-2.2-4.673-4.376-9.363-6.679-13.987A15.494,15.494,0,0,1,12.672,21.7C11.979,13.875,8.44,7.778,1.638,3.684a5.978,5.978,0,0,1-.81-.506A2.022,2.022,0,0,1,.343.425c.574-.9,1.41-.139,2.014.2,8.405,4.67,12.589,12.006,13.369,21.423a9.63,9.63,0,0,0,.891,3.477q3.563,7.417,7.048,14.872c1.787,3.817.012,6.629-4.195,6.691-1.149.017-2.3.013-3.447.021-.8,0-1.375.3-1.425,1.191-.058,1.025-.56,1.515-1.6,1.4-1.182-.13-1.115-1.024-1.143-1.859-.008-.255,0-.511,0-.766" transform="translate(0 0)" fill="#6ec1b6"/>
    <path id="Path_44909" data-name="Path 44909" d="M1.083,148.385c-.024-5.294-.024-5.3,5.226-5.3,1.53,0,3.086.137,4.433-.83,1.591-1.143,1.851-2.8,1.8-4.595-.031-.99.159-1.811,1.427-1.769,1.179.039,1.223.864,1.268,1.741.253,4.96-2.558,8.034-7.527,8.109-4.247.064-3.981-.413-3.991,4.092,0,.7,0,1.4-.007,2.106-.008.942-.059,1.861-1.367,1.828-1.181-.03-1.249-.876-1.255-1.748-.008-1.212,0-2.425,0-3.638" transform="translate(-0.666 -83.771)" fill="#6ec1b6"/>
  </g>
</svg>
