<svg xmlns="http://www.w3.org/2000/svg" width="62.858" height="40" viewBox="0 0 62.858 40">
  <g id="ios" transform="translate(-0.565 -0.075)">
    <path id="Path_44844" data-name="Path 44844" d="M2.762,9.592a1.1,1.1,0,1,1-2.2,0,1.152,1.152,0,0,1,1.113-1.2,1.11,1.11,0,0,1,1.083,1.2ZM1.1,45.759V18.093H2.231V45.759Z" transform="translate(0 -6.261)"/>
    <path id="Path_44845" data-name="Path 44845" d="M62.818,19.787c0,13.948-7.743,20.288-16.219,20.288-8.658,0-15.67-6.858-15.67-19.712,0-13.2,7.256-20.288,16.28-20.288,8.841,0,15.609,6.974,15.609,19.712Zm-30.739.288c0,10.576,5.126,18.792,14.574,18.792,9.514,0,14.971-8.469,14.971-18.912,0-9.685-4.372-18.523-14.35-18.523s-15.2,8.322-15.2,18.643Z" transform="translate(-22.868)"/>
    <path id="Path_44846" data-name="Path 44846" d="M175.388,36.675a16.05,16.05,0,0,0,8.011,2.493c5.36,0,10.127-3.75,10.127-9.27,0-5.122-3.176-7.795-8.567-10.091-4.825-2.055-9.164-4.285-9.164-9.76,0-5.706,4.5-9.741,10.6-9.741a12.79,12.79,0,0,1,6.917,1.729l-.459.995a13.114,13.114,0,0,0-6.509-1.572c-6.457,0-9.27,4.879-9.27,8.471,0,4.961,3.846,6.62,8.8,8.983,5.764,2.824,8.818,5.314,8.818,10.732,0,5.821-4.149,10.547-11.527,10.547a15.368,15.368,0,0,1-8.3-2.363l.515-1.153Z" transform="translate(-131.276 -0.174)"/>
  </g>
</svg>
