<svg xmlns="http://www.w3.org/2000/svg" width="137.32" height="34" viewBox="0 0 137.32 34">
  <g id="Algolia" transform="translate(-18.4 -15.4)">
    <path id="Path_44411" data-name="Path 44411" d="M22.876,15.4H47.914a4.478,4.478,0,0,1,4.476,4.476V44.924A4.478,4.478,0,0,1,47.914,49.4H22.876A4.478,4.478,0,0,1,18.4,44.924V19.865A4.469,4.469,0,0,1,22.876,15.4Z"/>
    <path id="Path_44412" data-name="Path 44412" d="M99.375,67.04a9.606,9.606,0,1,0,9.6,9.6A9.605,9.605,0,0,0,99.375,67.04Zm0,16.376a6.765,6.765,0,1,1,6.765-6.765A6.769,6.769,0,0,1,99.375,83.416Zm0-12.148v5.043a.2.2,0,0,0,.289.175l4.476-2.32a.2.2,0,0,0,.083-.278,5.569,5.569,0,0,0-4.641-2.815A.2.2,0,0,0,99.375,71.268Zm-6.27-3.7-.588-.588a1.469,1.469,0,0,0-2.083,0l-.7.7a1.469,1.469,0,0,0,0,2.083l.577.577a.207.207,0,0,0,.309-.021A11.35,11.35,0,0,1,91.744,69a10.6,10.6,0,0,1,1.33-1.134A.2.2,0,0,0,93.105,67.566Zm9.415-1.526V64.875a1.474,1.474,0,0,0-1.475-1.475H97.612a1.474,1.474,0,0,0-1.475,1.475v1.2a.2.2,0,0,0,.258.2,10.747,10.747,0,0,1,2.991-.423,10.892,10.892,0,0,1,2.887.392A.2.2,0,0,0,102.521,66.04Z" transform="translate(-63.589 -43.05)" fill="#fff"/>
    <g id="Group_57418" data-name="Group 57418" transform="translate(62.351 16.472)">
      <path id="Path_44413" data-name="Path 44413" d="M364.633,48.735q0,4.13-2.114,6.043T356.043,56.7a27.665,27.665,0,0,1-5.032-.6l.65-3.2a24.622,24.622,0,0,0,4.445.392,4.933,4.933,0,0,0,3.465-.99,3.878,3.878,0,0,0,1.031-2.939V48.7a12.036,12.036,0,0,1-1.578.6,7.808,7.808,0,0,1-2.248.3,8.448,8.448,0,0,1-3.042-.526,6.359,6.359,0,0,1-2.362-1.547,7.071,7.071,0,0,1-1.526-2.557,14.925,14.925,0,0,1-.547-4.187,12.7,12.7,0,0,1,.577-3.888,7.44,7.44,0,0,1,1.7-2.712,7.8,7.8,0,0,1,2.712-1.753,9.936,9.936,0,0,1,3.661-.691,22.073,22.073,0,0,1,3.692.361,29.576,29.576,0,0,1,2.991.629Zm-11.21-7.961c0,1.691.371,3.568,1.114,4.352a3.785,3.785,0,0,0,2.877,1.176,6.131,6.131,0,0,0,1.815-.268,5.082,5.082,0,0,0,1.382-.629V35.391a15.941,15.941,0,0,0-2.661-.34,4.022,4.022,0,0,0-3.362,1.516A7.141,7.141,0,0,0,353.424,40.774Zm30.349,0a9.792,9.792,0,0,1-.6,3.517,8.319,8.319,0,0,1-1.7,2.877,7.491,7.491,0,0,1-2.64,1.846,10.694,10.694,0,0,1-3.413.681,10.527,10.527,0,0,1-3.393-.681,7.682,7.682,0,0,1-2.63-1.846,8.5,8.5,0,0,1-1.712-2.877,9.572,9.572,0,0,1-.619-3.517,11.041,11.041,0,0,1,.6-3.785,8.386,8.386,0,0,1,1.732-2.857,7.753,7.753,0,0,1,2.64-1.836,8.529,8.529,0,0,1,3.362-.639,8.806,8.806,0,0,1,3.372.639,7.374,7.374,0,0,1,2.64,1.836,8.506,8.506,0,0,1,1.712,2.857A10.562,10.562,0,0,1,383.773,40.774Zm-4.125.01a7.093,7.093,0,0,0-1.124-4.207,3.941,3.941,0,0,0-6.229,0,7.115,7.115,0,0,0-1.1,4.207,6.312,6.312,0,0,0,1.114,3.97,3.924,3.924,0,0,0,6.229,0A6.332,6.332,0,0,0,379.648,40.785Zm13.107,8.91c-6.61.031-6.61-5.342-6.61-6.2l-.01-19.057,4.032-.639V42.734c0,.485,0,3.558,2.588,3.568v3.393Zm7.105,0h-4.053V32.287l4.053-.639ZM397.829,29.74a2.444,2.444,0,1,0-2.454-2.444A2.451,2.451,0,0,0,397.829,29.74Zm12.107,1.918a9.926,9.926,0,0,1,3.362.495,4.84,4.84,0,0,1,3.321,3.62,10.315,10.315,0,0,1,.351,2.795V48.942c-.619.134-1.557.289-2.815.474a29.222,29.222,0,0,1-4.238.278,12.854,12.854,0,0,1-2.857-.3,6.03,6.03,0,0,1-2.217-.959,4.643,4.643,0,0,1-1.433-1.712A6.509,6.509,0,0,1,402.892,44a4.274,4.274,0,0,1,.577-2.3,4.892,4.892,0,0,1,1.578-1.671,6.79,6.79,0,0,1,2.31-.928,13.234,13.234,0,0,1,2.743-.278,13.579,13.579,0,0,1,1.4.083,12,12,0,0,1,1.567.278v-.66a4.979,4.979,0,0,0-.165-1.32,2.831,2.831,0,0,0-.577-1.1,2.708,2.708,0,0,0-1.093-.742,4.763,4.763,0,0,0-1.722-.309,14.715,14.715,0,0,0-2.547.247,11.6,11.6,0,0,0-1.9.464l-.485-3.31a16.036,16.036,0,0,1,2.228-.526A17.549,17.549,0,0,1,409.935,31.658Zm.34,14.633a15.469,15.469,0,0,0,2.795-.2v-4.1a8.226,8.226,0,0,0-.969-.2,9.613,9.613,0,0,0-1.4-.1,8.607,8.607,0,0,0-1.351.1,4.061,4.061,0,0,0-1.227.361,2.2,2.2,0,0,0-.877.742,1.4,1.4,0,0,0-.33.99,1.936,1.936,0,0,0,.928,1.856A4.626,4.626,0,0,0,410.276,46.291Zm-79.632-14.53a9.926,9.926,0,0,1,3.362.495,4.84,4.84,0,0,1,3.321,3.62,10.317,10.317,0,0,1,.351,2.795V49.045c-.619.134-1.557.289-2.815.474a29.222,29.222,0,0,1-4.238.278,12.854,12.854,0,0,1-2.857-.3,6.029,6.029,0,0,1-2.217-.959,4.643,4.643,0,0,1-1.433-1.712,6.509,6.509,0,0,1-.516-2.722,4.273,4.273,0,0,1,.577-2.3,4.893,4.893,0,0,1,1.578-1.671,6.791,6.791,0,0,1,2.31-.928,13.234,13.234,0,0,1,2.743-.278,13.578,13.578,0,0,1,1.4.083,12.308,12.308,0,0,1,1.568.278v-.66a4.979,4.979,0,0,0-.165-1.32,2.831,2.831,0,0,0-.577-1.1,2.708,2.708,0,0,0-1.093-.742,4.763,4.763,0,0,0-1.722-.309,14.714,14.714,0,0,0-2.547.248,11.6,11.6,0,0,0-1.9.464l-.485-3.31a16.037,16.037,0,0,1,2.227-.526A16.639,16.639,0,0,1,330.643,31.761Zm.351,14.644a15.47,15.47,0,0,0,2.795-.2V42.1a8.229,8.229,0,0,0-.969-.2,9.613,9.613,0,0,0-1.4-.1,8.607,8.607,0,0,0-1.351.1,4.061,4.061,0,0,0-1.227.361,2.2,2.2,0,0,0-.877.742,1.4,1.4,0,0,0-.33.99,1.936,1.936,0,0,0,.928,1.856A4.7,4.7,0,0,0,330.994,46.4Zm16.345,3.29c-6.61.031-6.61-5.342-6.61-6.2l-.01-19.057,4.032-.639V42.734c0,.485,0,3.558,2.588,3.568Z" transform="translate(-323.6 -23.8)"/>
    </g>
  </g>
</svg>
