<svg xmlns="http://www.w3.org/2000/svg" width="60" height="60" viewBox="0 0 60 60">
  <g id="ic_api" transform="translate(0)">
    <path id="Path_44226" data-name="Path 44226" d="M159.069,167.273l.674-1.769h4.523l.667,1.766a.876.876,0,1,0,1.639-.619l-3.535-9.367-.009-.024a1.088,1.088,0,0,0-1.009-.676h0a1.088,1.088,0,0,0-1.009.678l-.008.02-3.568,9.367a.876.876,0,1,0,1.637.623Zm2.945-7.733,1.59,4.212H160.41Z" transform="translate(-138.932 -138.234)" fill="#6ec1b6"/>
    <path id="Path_44227" data-name="Path 44227" d="M329.463,165.761v-9.5a.876.876,0,1,0-1.752,0v9.5a.876.876,0,0,0,1.752,0Z" transform="translate(-289.307 -137.175)" fill="#6ec1b6"/>
    <path id="Path_44228" data-name="Path 44228" d="M252.759,167.835a.876.876,0,0,0,.876-.876V163.7c.6,0,1.365-.007,1.769-.007a3.558,3.558,0,1,0,0-7.114h-2.645a.886.886,0,0,0-.876.876v9.5A.876.876,0,0,0,252.759,167.835Zm2.645-9.5a1.806,1.806,0,1,1,0,3.61c-.4,0-1.157,0-1.756.007,0-.616-.007-1.4-.007-1.812,0-.348,0-1.164,0-1.805Z" transform="translate(-222.365 -138.232)" fill="#6ec1b6"/>
    <path id="Path_44229" data-name="Path 44229" d="M35.611,51.933a.876.876,0,0,0-.876.876v4.525a.914.914,0,0,1-.913.913H26.178a.914.914,0,0,1-.913-.913V52.613a1.228,1.228,0,0,0-.916-1.186,22.025,22.025,0,0,1-5.5-2.281,1.227,1.227,0,0,0-1.486.191l-3.34,3.34a.913.913,0,0,1-1.291,0L7.323,47.271a.913.913,0,0,1,0-1.291l3.339-3.339a1.227,1.227,0,0,0,.191-1.486,22.032,22.032,0,0,1-2.281-5.5,1.227,1.227,0,0,0-1.185-.916H2.665a.914.914,0,0,1-.913-.913V26.178a.914.914,0,0,1,.913-.913H7.387a1.227,1.227,0,0,0,1.185-.916,22.034,22.034,0,0,1,2.281-5.5,1.227,1.227,0,0,0-.191-1.486l-3.34-3.34a.913.913,0,0,1,0-1.291l5.406-5.406a.913.913,0,0,1,1.291,0l3.34,3.34a1.228,1.228,0,0,0,1.486.191,22.03,22.03,0,0,1,5.5-2.281,1.228,1.228,0,0,0,.916-1.186V2.665a.914.914,0,0,1,.913-.913h7.645a.914.914,0,0,1,.913.913V7.387a1.228,1.228,0,0,0,.916,1.186,22.025,22.025,0,0,1,5.5,2.281,1.227,1.227,0,0,0,1.486-.191l3.34-3.34a.913.913,0,0,1,1.291,0l.534.534a.876.876,0,1,0,1.239-1.239l-.534-.534a2.665,2.665,0,0,0-3.769,0L41.686,9.139a23.777,23.777,0,0,0-5.2-2.155V2.665A2.668,2.668,0,0,0,33.822,0H26.178a2.668,2.668,0,0,0-2.665,2.665V6.984a23.778,23.778,0,0,0-5.2,2.155L15.259,6.084a2.665,2.665,0,0,0-3.769,0L6.084,11.49a2.665,2.665,0,0,0,0,3.769l3.055,3.055a23.785,23.785,0,0,0-2.155,5.2H2.665A2.668,2.668,0,0,0,0,26.177v7.645a2.668,2.668,0,0,0,2.665,2.665H6.984a23.788,23.788,0,0,0,2.155,5.2L6.084,44.741a2.665,2.665,0,0,0,0,3.769l5.406,5.406a2.665,2.665,0,0,0,3.769,0l3.055-3.055a23.777,23.777,0,0,0,5.2,2.155v4.319A2.668,2.668,0,0,0,26.178,60h7.645a2.668,2.668,0,0,0,2.665-2.665V52.809a.876.876,0,0,0-.876-.876Z" fill="#6ec1b6"/>
    <path id="Path_44230" data-name="Path 44230" d="M97.218,116.83a.876.876,0,1,0-1.725.309,18.886,18.886,0,1,0-.257-4.567.876.876,0,1,0,1.748.112,17.125,17.125,0,1,1,29.216,13.19v-5.541a1.727,1.727,0,1,0-1.752,0v7.077a17.158,17.158,0,0,1-2.848,1.764V126.29a1.727,1.727,0,1,0-1.752-.013v3.638a16.965,16.965,0,0,1-2.7.727V123.4l2.312-2.312a1.45,1.45,0,0,0,.428-1.033v-3.938a1.727,1.727,0,1,0-1.752,0v3.817l-2.312,2.312a1.45,1.45,0,0,0-.427,1.032v7.591q-.653.05-1.319.05c-.439,0-.875-.018-1.307-.05v-7.434a1.727,1.727,0,1,0-1.752,0v7.211a17.074,17.074,0,0,1-2.386-.611V127.28a1.451,1.451,0,0,0-.428-1.033l-2.312-2.312v-3.817a1.727,1.727,0,1,0-1.752,0v3.938a1.451,1.451,0,0,0,.428,1.033l2.312,2.312v1.939a17.078,17.078,0,0,1-9.659-12.51Z" transform="translate(-84.074 -83.794)" fill="#6ec1b6"/>
    <path id="Path_44231" data-name="Path 44231" d="M350.73,94.247h-4.319a23.78,23.78,0,0,0-2.155-5.2l3.055-3.055a2.665,2.665,0,0,0,0-3.769l-1.844-1.844a.876.876,0,1,0-1.239,1.239l1.844,1.844a.913.913,0,0,1,0,1.291l-3.339,3.34a1.227,1.227,0,0,0-.191,1.486,22.033,22.033,0,0,1,2.281,5.5,1.228,1.228,0,0,0,1.185.916h4.722a.914.914,0,0,1,.913.913v7.645a.914.914,0,0,1-.913.913h-4.722a1.227,1.227,0,0,0-1.185.916,22.028,22.028,0,0,1-2.281,5.5,1.227,1.227,0,0,0,.191,1.486l3.34,3.34a.913.913,0,0,1,0,1.291l-5.406,5.406a.913.913,0,0,1-1.291,0l-3.34-3.339a1.228,1.228,0,0,0-1.487-.191c-.552.323-1.126.625-1.705.9a.876.876,0,1,0,.748,1.584c.5-.238,1-.5,1.489-.768l3.055,3.055a2.665,2.665,0,0,0,3.769,0l5.406-5.406a2.665,2.665,0,0,0,0-3.769l-3.055-3.055a23.783,23.783,0,0,0,2.155-5.2h4.319a2.668,2.668,0,0,0,2.665-2.665V96.912a2.668,2.668,0,0,0-2.665-2.665Z" transform="translate(-293.395 -70.735)" fill="#6ec1b6"/>
  </g>
</svg>
