<svg xmlns="http://www.w3.org/2000/svg" width="156.923" height="34" viewBox="0 0 156.923 34">
  <g id="bloomreach" transform="translate(-22.4 -256.6)">
    <circle id="Ellipse_55" data-name="Ellipse 55" cx="17" cy="17" r="17" transform="translate(22.4 256.6)"/>
    <path id="Path_44501" data-name="Path 44501" d="M78.52,293.109l-.837,2.118a3.135,3.135,0,0,1,1.438,2.668,3.022,3.022,0,1,1-3.165-3.112l.785-2.171a5.215,5.215,0,0,0-6.042,5.126h0V303.2h2.38v-.863a5.585,5.585,0,0,0,3.008.863,5.326,5.326,0,0,0,2.432-10.1Zm-7.82-.262a7.842,7.842,0,0,1,2.38-1.622V287.8H70.7Z" transform="translate(-35.668 -23.04)" fill="#fff"/>
    <path id="Path_44502" data-name="Path 44502" d="M114.743,287.826v15.4h-2.458v-15.4Zm44.383,9.023V303.2h-2.458v-5.937a2.473,2.473,0,1,0-4.943-.157V303.2h-2.458v-5.937a2.4,2.4,0,0,0-2.485-2.563,2.451,2.451,0,0,0-2.458,2.511v6.015h-2.458V292.638h2.458v1.229a4.136,4.136,0,0,1,3.138-1.438,4.18,4.18,0,0,1,3.531,1.8,4.534,4.534,0,0,1,3.688-1.8A4.261,4.261,0,0,1,159.126,296.849Zm8.108-4.42v2.615c-2.38-.157-3.583,1.072-3.583,2.694v5.492h-2.458V292.638h2.458v1.491A4.424,4.424,0,0,1,167.234,292.429Zm11.168,6.382h-8.343a3.106,3.106,0,0,0,3.165,2.432,3.222,3.222,0,0,0,2.955-1.7l2.066.863a5.344,5.344,0,0,1-4.891,3.034,5.446,5.446,0,0,1-5.7-5.492,5.343,5.343,0,0,1,5.257-5.492h.209A5.276,5.276,0,0,1,178.4,298.811Zm-8.317-1.883h6.094A3.079,3.079,0,0,0,173.2,294.6,3.15,3.15,0,0,0,170.085,296.928Zm20.792-4.315V303.2h-2.458v-1.412a4.494,4.494,0,0,1-3.557,1.622,5.5,5.5,0,0,1,0-10.985,4.57,4.57,0,0,1,3.557,1.622v-1.412Zm-2.458,5.309a3.1,3.1,0,1,0-3.112,3.269A3.14,3.14,0,0,0,188.418,297.922Zm4.185,0a5.521,5.521,0,0,1,10.618-2.092l-2.275.785a3.157,3.157,0,0,0-2.825-1.883,3.038,3.038,0,0,0-3.06,3.217,3.073,3.073,0,0,0,2.929,3.217,3.115,3.115,0,0,0,3.034-2.014l2.223.863a5.535,5.535,0,0,1-10.645-1.8Zm22.388-.837v6.146h-2.458v-5.754a2.608,2.608,0,0,0-2.72-2.772,2.691,2.691,0,0,0-2.746,2.642v5.885h-2.458v-15.4h2.458V294a4.508,4.508,0,0,1,7.925,3.086Zm-113.272-3.714h0V287.8H99.26v15.4h2.458v-.758h0a5.658,5.658,0,0,0,5.074.471,5.495,5.495,0,0,0-.026-10.017,5.074,5.074,0,0,0-2.066-.366,5.375,5.375,0,0,0-2.982.837h0m2.72,7.768a3.016,3.016,0,0,1-2.72-1.622,3.44,3.44,0,0,1,0-3.191,3,3,0,0,1,2.72-1.622,3.219,3.219,0,0,1,0,6.434Zm12.135-3.217a5.585,5.585,0,1,1,5.675,5.492h-.078a5.449,5.449,0,0,1-5.6-5.257Q116.574,298.039,116.574,297.922Zm5.571,3.217a3.219,3.219,0,1,0-3.112-3.322v.1a3.127,3.127,0,0,0,3.034,3.217Zm6.826-3.217a5.585,5.585,0,1,1,5.675,5.492h-.078A5.427,5.427,0,0,1,129,298.157.724.724,0,0,1,128.971,297.922Zm5.571,3.217a3.219,3.219,0,1,0-3.112-3.322v.1a3.127,3.127,0,0,0,3.034,3.217Z" transform="translate(-35.667 -23.04)"/>
  </g>
</svg>
