<svg xmlns="http://www.w3.org/2000/svg" width="60" height="60" viewBox="0 0 60 60">
  <g id="ic_cloud" transform="translate(-26 -26)">
    <g id="Group_56986" data-name="Group 56986" transform="translate(26 26)">
      <path id="Path_44221" data-name="Path 44221" d="M80.783,61.217a3.919,3.919,0,0,0-3.689,2.609H74.261V57.3H76.87a9.13,9.13,0,0,0,1.971-18.045A9.48,9.48,0,0,0,65.3,31.45a13.042,13.042,0,0,0-21.267.083A9.133,9.133,0,0,0,32.57,39.408,9.131,9.131,0,0,0,35.13,57.3h3.913v6.522H36.21a3.913,3.913,0,1,0,0,2.609h4.137a1.3,1.3,0,0,0,1.3-1.3V57.3H46.87V74.261H42.732a3.913,3.913,0,1,0,0,2.609h5.442a1.3,1.3,0,0,0,1.3-1.3V57.3H54.7V78.4a3.913,3.913,0,1,0,2.609,0V57.3h5.217V75.565a1.3,1.3,0,0,0,1.3,1.3h6.746a3.913,3.913,0,1,0,0-2.609H65.13V57.3h6.522V65.13a1.3,1.3,0,0,0,1.3,1.3h4.137a3.913,3.913,0,1,0,3.689-5.217ZM32.522,66.435a1.3,1.3,0,1,1,1.3-1.3A1.306,1.306,0,0,1,32.522,66.435ZM39.043,76.87a1.3,1.3,0,1,1,1.3-1.3A1.306,1.306,0,0,1,39.043,76.87ZM56,83.391a1.3,1.3,0,1,1,1.3-1.3A1.306,1.306,0,0,1,56,83.391Zm18.261-9.13a1.3,1.3,0,1,1-1.3,1.3A1.306,1.306,0,0,1,74.261,74.261ZM28.609,48.174a6.5,6.5,0,0,1,5.436-6.43,1.3,1.3,0,0,0,1.089-1.3A6.52,6.52,0,0,1,44.089,34.3a1.3,1.3,0,0,0,1.612-.547,10.436,10.436,0,0,1,18.041.09,1.3,1.3,0,0,0,1.852.435A6.868,6.868,0,0,1,76.253,40.32a1.3,1.3,0,0,0,1.19,1.359A6.521,6.521,0,0,1,76.87,54.7H35.13A6.529,6.529,0,0,1,28.609,48.174ZM80.783,66.435a1.3,1.3,0,1,1,1.3-1.3A1.306,1.306,0,0,1,80.783,66.435Z" transform="translate(-26 -26)" fill="#6ec1b6"/>
      <path id="Path_44222" data-name="Path 44222" d="M400.1,158.559a6.861,6.861,0,0,1,4.024,2.993,1.3,1.3,0,0,0,2.214-1.38,9.461,9.461,0,0,0-5.549-4.13,1.3,1.3,0,1,0-.689,2.516Z" transform="translate(-350.472 -139.041)" fill="#6ec1b6"/>
    </g>
  </g>
</svg>
