<svg id="Shopify" xmlns="http://www.w3.org/2000/svg" width="119.352" height="34" viewBox="0 0 119.352 34">
  <path id="Path_44241" data-name="Path 44241" d="M25.849,6.44a.324.324,0,0,0-.293-.273c-.122-.01-2.5-.046-2.5-.046s-1.991-1.934-2.188-2.13a.813.813,0,0,0-.73-.093l-1,.31a7.013,7.013,0,0,0-.479-1.176,3.372,3.372,0,0,0-3-2.07h0c-.087,0-.174.008-.261.016-.037-.045-.074-.088-.113-.131A2.628,2.628,0,0,0,13.19,0C11.57.048,9.956,1.218,8.648,3.3A13.046,13.046,0,0,0,6.829,8.018l-3.19.988c-.939.3-.969.324-1.091,1.209C2.457,10.884,0,29.882,0,29.882l20.589,3.561,8.924-2.218S25.872,6.608,25.849,6.44ZM18.1,4.526l-1.6.495a8.847,8.847,0,0,0-.492-2.948C17.244,2.306,17.849,3.7,18.1,4.526Zm-2.675.829L11.992,6.419A8.148,8.148,0,0,1,13.728,3.05,3.468,3.468,0,0,1,14.9,2.2,7.726,7.726,0,0,1,15.429,5.355ZM13.222,1.08a1.652,1.652,0,0,1,.974.255,4.689,4.689,0,0,0-1.258.98,9.439,9.439,0,0,0-2.132,4.471L7.983,7.66C8.541,5.057,10.722,1.152,13.222,1.08Z"/>
  <path id="Path_44242" data-name="Path 44242" d="M41.907,9.236c-.122-.01-2.5-.046-2.5-.046s-1.991-1.934-2.188-2.13a.487.487,0,0,0-.277-.127V36.51l8.923-2.217S42.224,9.678,42.2,9.509A.325.325,0,0,0,41.907,9.236Z" transform="translate(-16.351 -3.068)" fill="#3d3d3d"/>
  <path id="Path_44243" data-name="Path 44243" d="M20,19.018,18.963,22.9a5.887,5.887,0,0,0-2.526-.44c-2.01.127-2.031,1.395-2.011,1.713.109,1.734,4.671,2.113,4.928,6.175.2,3.2-1.7,5.381-4.428,5.554a6.635,6.635,0,0,1-5.085-1.728l.695-2.956a6.291,6.291,0,0,0,3.272,1.279,1.286,1.286,0,0,0,1.255-1.38c-.143-2.262-3.858-2.128-4.093-5.845-.2-3.128,1.857-6.3,6.389-6.583A5.572,5.572,0,0,1,20,19.018Z" transform="translate(-4.356 -8.262)" fill="#fff"/>
  <path id="Path_44244" data-name="Path 44244" d="M68.214,29.091c-1.026-.557-1.553-1.026-1.553-1.671,0-.821.733-1.348,1.876-1.348a6.7,6.7,0,0,1,2.521.557l.938-2.873s-.862-.675-3.4-.675c-3.532,0-5.98,2.023-5.98,4.866,0,1.612,1.143,2.844,2.668,3.722,1.231.7,1.671,1.2,1.671,1.934,0,.762-.616,1.378-1.759,1.378a7.9,7.9,0,0,1-3.312-.88l-1,2.873a7.63,7.63,0,0,0,3.986,1c3.635,0,6.244-1.788,6.244-5.013C71.116,31.23,69.8,30,68.214,29.091Z" transform="translate(-26.95 -10.216)"/>
  <path id="Path_44245" data-name="Path 44245" d="M91.47,18.258a5.472,5.472,0,0,0-4.279,2.14l-.059-.029,1.553-8.119H84.64L80.712,32.913h4.045l1.348-7.064c.527-2.668,1.9-4.309,3.2-4.309.908,0,1.261.616,1.261,1.5a9.272,9.272,0,0,1-.176,1.788l-1.524,8.09h4.046L94.49,24.56a15.08,15.08,0,0,0,.294-2.638C94.782,19.635,93.58,18.258,91.47,18.258Z" transform="translate(-35.725 -5.421)"/>
  <path id="Path_44246" data-name="Path 44246" d="M115.939,23.03c-4.866,0-8.09,4.4-8.09,9.292,0,3.136,1.934,5.657,5.569,5.657,4.778,0,8-4.279,8-9.292C121.421,25.785,119.72,23.03,115.939,23.03Zm-1.993,11.843c-1.378,0-1.964-1.172-1.964-2.638,0-2.315,1.2-6.1,3.4-6.1,1.436,0,1.9,1.231,1.9,2.433C117.286,31.062,116.086,34.872,113.946,34.872Z" transform="translate(-47.736 -10.193)"/>
  <path id="Path_44247" data-name="Path 44247" d="M141.777,23.03a5.536,5.536,0,0,0-4.28,2.4h-.058l.235-2.169H134.1c-.176,1.466-.5,3.693-.82,5.364l-2.814,14.8h4.045l1.113-5.98h.089a4.713,4.713,0,0,0,2.374.527c4.748,0,7.855-4.865,7.855-9.79C145.94,25.463,144.737,23.03,141.777,23.03Zm-3.869,11.9a2.572,2.572,0,0,1-1.672-.586l.674-3.781c.469-2.521,1.788-4.192,3.2-4.192,1.231,0,1.612,1.143,1.612,2.228C141.718,31.208,140.165,34.93,137.908,34.93Z" transform="translate(-57.746 -10.193)"/>
  <path id="Path_44248" data-name="Path 44248" d="M166.751,12.617a2.309,2.309,0,0,0-2.315,2.345,1.864,1.864,0,0,0,1.905,2.023h.059a2.284,2.284,0,0,0,2.374-2.345A1.923,1.923,0,0,0,166.751,12.617Z" transform="translate(-72.783 -5.584)"/>
  <path id="Path_44249" data-name="Path 44249" d="M158.441,37.942h4.044l2.756-14.333h-4.075Z" transform="translate(-70.13 -10.45)"/>
  <path id="Path_44250" data-name="Path 44250" d="M181.536,18.319h-2.814l.146-.675c.235-1.378,1.056-2.609,2.4-2.609a4.214,4.214,0,0,1,1.289.205l.791-3.166a5.342,5.342,0,0,0-2.2-.352,6.007,6.007,0,0,0-3.957,1.348,7.679,7.679,0,0,0-2.345,4.573l-.116.675h-1.877l-.586,3.049h1.877l-2.14,11.314h4.045l2.14-11.314h2.785Z" transform="translate(-76.135 -5.189)"/>
  <path id="Path_44251" data-name="Path 44251" d="M197.738,23.608s-2.529,6.371-3.664,9.848h-.059c-.077-1.12-1-9.848-1-9.848h-4.251l2.434,13.16a.858.858,0,0,1-.088.675,6.937,6.937,0,0,1-2.2,2.433,8.764,8.764,0,0,1-2.286,1.143l1.114,3.43a9.236,9.236,0,0,0,3.957-2.2A27.291,27.291,0,0,0,197,34.219l4.954-10.611h-4.22Z" transform="translate(-82.606 -10.449)"/>
</svg>
