<svg id="Adobe_Logo" xmlns="http://www.w3.org/2000/svg" width="124.609" height="34" viewBox="0 0 124.609 34">
  <path id="Path_44252" data-name="Path 44252" d="M37.737,22.755l-1.587,4.76a.242.242,0,0,1-.242.242H32.977c-.227,0-.227,0-.227-.242l5.939-16.622a5.243,5.243,0,0,0,.242-1.511.242.242,0,0,1,.242-.181h4.035c.242,0,.242,0,.242.242L50.1,27.756c0,.227,0,.227-.227.227H46.728c-.242,0-.242,0-.242-.227L44.824,23H37.737Zm5.954-3.022A75.387,75.387,0,0,1,41.3,11.89h0c-.468,1.889-1.662,5.228-2.372,7.843Z" transform="translate(14.805 -1.116)"/>
  <path id="Path_44253" data-name="Path 44253" d="M44.71,21.413c0-4.035,3.022-7.359,8.084-7.359h1.179V8.342c0-.242,0-.242.242-.242h3.022c.242,0,.242,0,.242.242V27.367c0,.242,0,.242-.242.242a15.111,15.111,0,0,1-5.455,1.179C47.793,28.545,44.71,26.173,44.71,21.413Zm9.263-4.533a2.66,2.66,0,0,0-1.42-.227,4.186,4.186,0,0,0-4.533,4.276,3.808,3.808,0,0,0,4.035,4.276,3.944,3.944,0,0,0,1.662-.242V16.895Z" transform="translate(20.918 -1.678)"/>
  <path id="Path_44254" data-name="Path 44254" d="M68.561,19.254a6.876,6.876,0,0,1-6.891,7.359c-4.76,0-6.891-3.566-6.891-7.359,0-4.05,2.614-7.374,6.891-7.374a7,7,0,0,1,6.891,7.374Zm-10.215,0c0,2.614,1.179,4.533,3.324,4.533C63.333,23.788,65,22.352,65,19.5c0-2.372-.952-4.533-3.324-4.533C59.767,14.963,58.346,16.595,58.346,19.254Z" transform="translate(26.064 0.254)"/>
  <path id="Path_44255" data-name="Path 44255" d="M68.954,8.177c.242,0,.242,0,.242.242V14.6a8.4,8.4,0,0,1,2.614-.529,6.362,6.362,0,0,1,6.664,6.649c0,5.228-4.05,7.843-8.326,7.843a13.224,13.224,0,0,1-4.278-.711l-.241-.181V8.177c0-.227,0-.227.242-.227h3.022ZM71.1,16.971c-.952,0-1.42.242-1.9.242v8.326c.484,0,.71.242,1.194.242a4.246,4.246,0,0,0,4.533-4.533C74.908,18.407,73.473,16.971,71.1,16.971Z" transform="translate(31.61 -1.754)"/>
  <path id="Path_44256" data-name="Path 44256" d="M78.88,20.048c0,1.9,1.42,3.566,4.276,3.566a9.671,9.671,0,0,0,3.566-.71h.242v2.372c0,.242,0,.242-.242.242a10.82,10.82,0,0,1-4.276.71c-5.228,0-6.906-3.566-6.906-7.132,0-4.05,2.388-7.374,6.664-7.374a5.516,5.516,0,0,1,5.712,5.954v1.662a.227.227,0,0,1-.242.227H78.88Zm4.276-2.372h1.662v-.242a2.569,2.569,0,0,0-2.539-2.614,3.113,3.113,0,0,0-3.022,2.856Z" transform="translate(36.675 0.171)"/>
  <path id="Path_44257" data-name="Path 44257" d="M20.063,16.166l8.795,21.458H23.146L20.5,30.718H14.124ZM15.3,3.85,1.28,37.85v-34Zm23.785,0v34l-14.053-34Z" transform="translate(-1.28 -3.85)" fill-rule="evenodd"/>
</svg>
