<svg xmlns="http://www.w3.org/2000/svg" width="97.334" height="35" viewBox="0 0 97.334 35">
  <g id="vtex" transform="translate(-48.186 -47.32)">
    <path id="Shape" d="M197.1,35.174h-3.489V47.119a.412.412,0,0,1-.409.409h-2.687a.412.412,0,0,1-.409-.409V35.174h-3.515a.393.393,0,0,1-.409-.39V32.669a.393.393,0,0,1,.409-.39h10.5a.412.412,0,0,1,.431.39v2.115A.412.412,0,0,1,197.1,35.174Z" transform="translate(-78.561 25.253)"/>
    <path id="Shape-2" data-name="Shape" d="M235.9,47.056a26.866,26.866,0,0,1-4.154.268c-2.649,0-4.988-.677-4.988-4.413V36.1c0-3.735,2.361-4.391,5.007-4.391a26.523,26.523,0,0,1,4.122.265c.288.042.409.144.409.409V34.3a.412.412,0,0,1-.409.409h-4.314c-.959,0-1.313.32-1.313,1.4v1.866h5.477a.412.412,0,0,1,.409.409v1.949a.412.412,0,0,1-.409.409h-5.477v2.176c0,1.067.348,1.4,1.313,1.4H235.9a.412.412,0,0,1,.409.409v1.917C236.314,46.889,236.19,47.014,235.9,47.056Z" transform="translate(-106.174 25.645)"/>
    <path id="Shape-3" data-name="Shape" d="M275.958,47.52H272.7a.54.54,0,0,1-.534-.32l-2.831-4.474-2.556,4.391c-.144.246-.288.409-.514.409h-3.029a.271.271,0,0,1-.32-.268.378.378,0,0,1,.042-.144L267.4,39.7l-4.493-7.043a.288.288,0,0,1-.042-.125.3.3,0,0,1,.32-.268h3.3c.227,0,.39.2.514.39l2.627,4.154,2.556-4.154a.665.665,0,0,1,.514-.39h3.039a.3.3,0,0,1,.32.268.289.289,0,0,1-.042.125l-4.474,7.084,4.656,7.349a.457.457,0,0,1,.061.2A.289.289,0,0,1,275.958,47.52Z" transform="translate(-130.745 25.261)"/>
    <path id="Shape-4" data-name="Shape" d="M148.594,32.41a.32.32,0,0,0-.32.252l-2.981,11.031c-.042.227-.1.32-.288.32s-.246-.083-.288-.32l-2.972-11.031a.32.32,0,0,0-.32-.252h-2.933a.32.32,0,0,0-.32.39s3.64,12.644,3.678,12.782a3.1,3.1,0,0,0,3.163,2.237,3.2,3.2,0,0,0,3.163-2.237c.058-.173,3.617-12.782,3.617-12.782a.32.32,0,0,0-.32-.387Z" transform="translate(-45.889 25.164)"/>
    <path id="Shape-5" data-name="Shape" d="M38.079.32H7.492A3.176,3.176,0,0,0,4.709,4.972L7.77,10.8H2.223a2,2,0,0,0-1.8,2.94l9.842,18.6a2.039,2.039,0,0,0,3.6,0L16.538,27.3l3.355,6.346a3.147,3.147,0,0,0,5.563,0L40.795,4.806A3.048,3.048,0,0,0,38.079.32ZM24.412,12.5,17.7,25.087a1.329,1.329,0,0,1-2.349,0L8.729,12.625a1.237,1.237,0,0,1,1.093-1.818H23.377a1.154,1.154,0,0,1,1.035,1.7Z" transform="translate(48 47)"/>
  </g>
</svg>
