<svg xmlns="http://www.w3.org/2000/svg" width="200" height="39.399" viewBox="0 0 200 39.399">
  <g id="commercetools" transform="translate(132.3 -216.1)">
    <path id="Path_44083" data-name="Path 44083" d="M-31,252.3a12.58,12.58,0,0,0,3.133-.367l.333,2.333A13,13,0,0,1-31,254.7c-5.367,0-6.9-3.367-6.9-7.266.033-3.833,2.333-7.033,6.866-7.033a12.572,12.572,0,0,1,3.467.467l-.467,2.333a11.852,11.852,0,0,0-2.933-.333c-2.833.033-4.233,2.167-4.3,4.6.033,2.433.933,4.833,4.267,4.833Z" transform="translate(-62.934 -16.2)"/>
    <path id="Path_44084" data-name="Path 44084" d="M2.9,252.4c2.8-.033,3.733-2.3,3.733-4.767-.033-2.267-.967-4.8-3.733-4.8-2.7.033-3.733,2.533-3.733,4.8C-.867,250.2.267,252.4,2.9,252.4Zm0-11.9c4.4.033,6.367,3.3,6.367,7.133,0,3.733-1.7,7.1-6.4,7.133-4.6-.033-6.367-3.367-6.367-7.133,0-3.833,2-7.1,6.4-7.133Z" transform="translate(-85.868 -16.267)"/>
    <path id="Path_44085" data-name="Path 44085" d="M57.833,254.5v-8.8c0-2.233-.833-2.833-2.233-2.833a5.026,5.026,0,0,0-3,1.333c.033.3.067.867.067,1.067v9.266H49.933v-8.9c0-2.233-.667-2.767-2.067-2.767a6.4,6.4,0,0,0-3.167,1.367v10.3H42V240.764h2.7v1.167a6.086,6.086,0,0,1,3.6-1.433,3.784,3.784,0,0,1,3.633,1.667A6.571,6.571,0,0,1,56,240.5c4.467-.067,4.567,3.533,4.567,5.033v9H57.833Z" transform="translate(-116.201 -16.264)"/>
    <path id="Path_44086" data-name="Path 44086" d="M122.433,254.5v-8.8c0-2.233-.833-2.833-2.233-2.833a5.026,5.026,0,0,0-3,1.333c.033.3.067.867.067,1.067v9.266h-2.733v-8.9c0-2.233-.667-2.767-2.067-2.767a6.4,6.4,0,0,0-3.167,1.367v10.3h-2.7V240.764h2.7v1.167a6.086,6.086,0,0,1,3.6-1.433,3.784,3.784,0,0,1,3.633,1.667A6.571,6.571,0,0,1,120.6,240.5c4.467-.067,4.567,3.533,4.567,5.033v9h-2.733Z" transform="translate(-159.269 -16.264)"/>
    <path id="Path_44087" data-name="Path 44087" d="M171.3,246.033h6.033c-.1-2.8-1.5-3.367-2.8-3.367C172.5,242.633,171.533,244.033,171.3,246.033ZM179.1,252l.4,2.233a14.936,14.936,0,0,1-4.233.6c-5.433,0-6.767-3.633-6.767-7.3,0-3.633,1.6-7.033,6.167-7.033,2.8,0,5.167,1.733,5.2,6.167l-.033,1.433h-8.666c.033,2.7,1.5,4.333,4.2,4.333A14.748,14.748,0,0,0,179.1,252Z" transform="translate(-200.536 -16.267)"/>
    <path id="Path_44088" data-name="Path 44088" d="M217.266,243.454a7.684,7.684,0,0,0-1.767-.2,3.953,3.953,0,0,0-3.2,1.467v10h-2.7V240.954h2.7v1.233a4.542,4.542,0,0,1,3.167-1.4,5.932,5.932,0,0,1,2.267.367C217.733,241.121,217.266,243.454,217.266,243.454Z" transform="translate(-227.936 -16.455)"/>
    <path id="Path_44089" data-name="Path 44089" d="M242.6,252.3a12.58,12.58,0,0,0,3.133-.367l.333,2.333a13,13,0,0,1-3.467.433c-5.367,0-6.9-3.367-6.9-7.266.033-3.833,2.367-7.033,6.867-7.033a12.572,12.572,0,0,1,3.467.467l-.467,2.333a11.852,11.852,0,0,0-2.933-.333c-2.833.033-4.233,2.167-4.3,4.6C238.367,249.9,239.267,252.3,242.6,252.3Z" transform="translate(-245.336 -16.2)"/>
    <path id="Path_44090" data-name="Path 44090" d="M272.9,246.033h6.033c-.1-2.8-1.5-3.367-2.8-3.367C274.1,242.633,273.133,244.033,272.9,246.033ZM280.7,252l.4,2.233a14.936,14.936,0,0,1-4.233.6c-5.433,0-6.766-3.633-6.766-7.3,0-3.633,1.6-7.033,6.167-7.033,2.8,0,5.167,1.733,5.2,6.167l-.033,1.433h-8.666c.033,2.7,1.5,4.333,4.2,4.333A14.748,14.748,0,0,0,280.7,252Z" transform="translate(-268.27 -16.267)"/>
    <path id="Path_44091" data-name="Path 44091" d="M315,237.3h-3.733v6.667c0,1.4.167,2.367,1.6,2.567a11.169,11.169,0,0,0,2.367-.1l.167,2.333a17.811,17.811,0,0,1-2.433.167c-3.2-.133-4.4-1.767-4.4-4.333v-7.333H306.6v-1.9l1.967-.233V232h2.7v3.067H315Z" transform="translate(-292.604 -10.6)"/>
    <path id="Path_44092" data-name="Path 44092" d="M342.7,252.4c2.8-.033,3.733-2.3,3.733-4.767-.033-2.267-.967-4.8-3.733-4.8-2.7.033-3.733,2.533-3.733,4.8-.033,2.567,1.1,4.767,3.733,4.767Zm0-11.9c4.4.033,6.367,3.3,6.367,7.133,0,3.733-1.7,7.1-6.4,7.133-4.6-.033-6.367-3.367-6.367-7.133.033-3.833,2-7.1,6.4-7.133Z" transform="translate(-312.404 -16.267)"/>
    <path id="Path_44093" data-name="Path 44093" d="M386.6,252.4c2.8-.033,3.733-2.3,3.733-4.767-.033-2.267-.967-4.8-3.733-4.8-2.7.033-3.733,2.533-3.733,4.8-.033,2.567,1.1,4.767,3.733,4.767Zm0-11.9c4.4.033,6.367,3.3,6.367,7.133,0,3.733-1.7,7.1-6.4,7.133-4.6-.033-6.367-3.367-6.367-7.133.033-3.833,2-7.1,6.4-7.133Z" transform="translate(-341.671 -16.267)"/>
    <rect id="Rectangle_19745" data-name="Rectangle 19745" width="2.633" height="18.7" transform="translate(53.462 219.533)"/>
    <path id="Path_44094" data-name="Path 44094" d="M439.963,251.756a17.117,17.117,0,0,0,3.9.6c1.067,0,2.167-.233,2.267-1.533.067-1.367-1.333-1.8-2.967-2.467-1.833-.767-3.833-1.8-3.767-4.333.033-1.267.8-3.767,4.867-3.633a19.269,19.269,0,0,1,3.9.533l-.467,2.267a15.666,15.666,0,0,0-3.567-.5c-1.167,0-2.067.367-2.133,1.467-.033.933.7,1.433,2.533,2.167,1.833.767,4.433,1.733,4.3,4.633-.067,1.833-1.267,3.833-4.967,3.8a15.959,15.959,0,0,1-4.467-.667Z" transform="translate(-381.135 -16.19)"/>
    <path id="Path_44095" data-name="Path 44095" d="M123.433,305.533a2.455,2.455,0,0,1-.867,2,3.956,3.956,0,0,1-2.533.7h-.7l-.633,3.033h-.9l1.633-7.666h1.733a2.525,2.525,0,0,1,1.7.5,1.784,1.784,0,0,1,.567,1.433Zm-3.933,1.933h.7a2.827,2.827,0,0,0,1.733-.467,1.722,1.722,0,0,0,.6-1.4,1.11,1.11,0,0,0-.367-.933,1.772,1.772,0,0,0-1.133-.3h-.867l-.667,3.1Z" transform="translate(-166.735 -58.334)"/>
    <path id="Path_44096" data-name="Path 44096" d="M136.467,310.266H135.6l1.733-8.166h.867Z" transform="translate(-178.602 -57.334)"/>
    <path id="Path_44097" data-name="Path 44097" d="M147.467,309a1.565,1.565,0,0,1,.867.267,1.878,1.878,0,0,1,.6.733H149l.367-.9h.667l-1.233,5.767h-.7l.133-1.1H148.2a2.621,2.621,0,0,1-1.967,1.2,1.293,1.293,0,0,1-1.133-.533,2.29,2.29,0,0,1-.4-1.433,5.8,5.8,0,0,1,.367-2.033A3.437,3.437,0,0,1,146.1,309.5,1.975,1.975,0,0,1,147.467,309Zm-1,5.233a1.441,1.441,0,0,0,1-.5,3.985,3.985,0,0,0,.833-1.267,4.353,4.353,0,0,0,.3-1.567,1.246,1.246,0,0,0-.3-.867,1.085,1.085,0,0,0-.767-.333,1.541,1.541,0,0,0-1.033.467,2.965,2.965,0,0,0-.733,1.233,5.241,5.241,0,0,0-.267,1.633,1.383,1.383,0,0,0,.233.9.98.98,0,0,0,.733.3Z" transform="translate(-184.669 -61.934)"/>
    <path id="Path_44098" data-name="Path 44098" d="M164.267,311.767a2.627,2.627,0,0,0,.767-.133v.667c-.133.033-.267.1-.433.133a2.3,2.3,0,0,1-.433.067,1.493,1.493,0,0,1-1-.3,1.187,1.187,0,0,1-.333-.933,3.736,3.736,0,0,1,.1-.8l.667-3.167h-.9l.067-.4.967-.4.667-1.2h.5l-.3,1.333h1.433l-.133.667h-1.433l-.667,3.167a3.465,3.465,0,0,0-.1.7.722.722,0,0,0,.167.467C163.933,311.733,164.067,311.767,164.267,311.767Z" transform="translate(-196.669 -59.467)"/>
    <path id="Path_44099" data-name="Path 44099" d="M168.667,312.566a2.149,2.149,0,0,1-.667-.1v-.733a2.24,2.24,0,0,0,.6.1.635.635,0,0,0,.6-.333,2.749,2.749,0,0,0,.333-.933l1.2-5.7h-1l.067-.367,1.067-.333.133-.533a3.51,3.51,0,0,1,.667-1.5,1.672,1.672,0,0,1,1.267-.433,3.464,3.464,0,0,1,.5.067,2.8,2.8,0,0,1,.467.133l-.233.667a2.1,2.1,0,0,0-.733-.167.955.955,0,0,0-.7.267,1.886,1.886,0,0,0-.4.933l-.133.567h1.267l-.133.667H171.6l-1.233,5.767a3,3,0,0,1-.633,1.467,1.188,1.188,0,0,1-1.067.5Z" transform="translate(-200.202 -57.067)"/>
    <path id="Path_44100" data-name="Path 44100" d="M186.067,309.1a2.034,2.034,0,0,1,1.567.6,2.173,2.173,0,0,1,.567,1.633,5.034,5.034,0,0,1-.367,1.867,3.378,3.378,0,0,1-1.033,1.367,2.334,2.334,0,0,1-1.467.467,2.034,2.034,0,0,1-1.567-.6,2.313,2.313,0,0,1-.567-1.633,4.364,4.364,0,0,1,.4-1.867,3.378,3.378,0,0,1,1.033-1.367,2.306,2.306,0,0,1,1.433-.467Zm1.267,2.067A1.315,1.315,0,0,0,187,310.2a1.073,1.073,0,0,0-.9-.367,1.551,1.551,0,0,0-1.033.4,2.708,2.708,0,0,0-.7,1.067,4.487,4.487,0,0,0-.233,1.533,1.518,1.518,0,0,0,.333,1.067,1.168,1.168,0,0,0,.967.367,1.335,1.335,0,0,0,.967-.4,2.281,2.281,0,0,0,.667-1.1,4.456,4.456,0,0,0,.267-1.6Z" transform="translate(-210.336 -62.001)"/>
    <path id="Path_44101" data-name="Path 44101" d="M204.367,309a3.356,3.356,0,0,1,.633.067l-.2.8a3.285,3.285,0,0,0-.567-.067,1.462,1.462,0,0,0-.9.3,2.731,2.731,0,0,0-.733.867,4.969,4.969,0,0,0-.467,1.233l-.567,2.633H200.7l1.233-5.767h.733l-.1,1.067h.067a9.21,9.21,0,0,1,.633-.733,1.79,1.79,0,0,1,.533-.333,2.392,2.392,0,0,1,.567-.067Z" transform="translate(-222.003 -61.934)"/>
    <path id="Path_44102" data-name="Path 44102" d="M216.867,314.867l.767-3.633a4.214,4.214,0,0,0,.1-.7.953.953,0,0,0-.167-.567.686.686,0,0,0-.567-.2,1.515,1.515,0,0,0-.867.3,2.544,2.544,0,0,0-.733.9,6.847,6.847,0,0,0-.5,1.4l-.533,2.5H213.5l1.233-5.767h.733l-.1,1.067h.067a3.273,3.273,0,0,1,.9-.9,1.886,1.886,0,0,1,.933-.267,1.113,1.113,0,0,1,.9.333,1.6,1.6,0,0,1,.367.967h.033a3.32,3.32,0,0,1,.967-.967,2,2,0,0,1,1.033-.333,1.275,1.275,0,0,1,1.4,1.4,5.944,5.944,0,0,1-.1.933l-.767,3.533h-.9l.767-3.633a5.254,5.254,0,0,0,.1-.767.848.848,0,0,0-.167-.533.733.733,0,0,0-.567-.2,1.347,1.347,0,0,0-.833.3,2.731,2.731,0,0,0-.733.867,4.46,4.46,0,0,0-.467,1.333l-.567,2.633Z" transform="translate(-230.536 -61.934)"/>
    <path id="Path_44103" data-name="Path 44103" d="M256.867,306.633a5.24,5.24,0,0,1-.567,2.433,4.1,4.1,0,0,1-1.567,1.633,5.006,5.006,0,0,1-2.4.567H250.5l1.633-7.666h1.8a2.871,2.871,0,0,1,2.2.8,3.061,3.061,0,0,1,.733,2.233Zm-4.467,3.833a3.781,3.781,0,0,0,1.867-.467,3.275,3.275,0,0,0,1.233-1.367,4.4,4.4,0,0,0,.433-2,2.367,2.367,0,0,0-.533-1.7,2.047,2.047,0,0,0-1.6-.567h-.933l-1.3,6.133h.833Z" transform="translate(-255.203 -58.334)"/>
    <path id="Path_44104" data-name="Path 44104" d="M275.067,309.1a2.035,2.035,0,0,1,1.567.6,2.173,2.173,0,0,1,.567,1.633,5.034,5.034,0,0,1-.367,1.867,3.378,3.378,0,0,1-1.033,1.367,2.334,2.334,0,0,1-1.467.467,2.035,2.035,0,0,1-1.567-.6,2.313,2.313,0,0,1-.567-1.633,4.364,4.364,0,0,1,.4-1.867,3.378,3.378,0,0,1,1.033-1.367,2.242,2.242,0,0,1,1.433-.467Zm1.233,2.067a1.315,1.315,0,0,0-.333-.967,1.073,1.073,0,0,0-.9-.367,1.551,1.551,0,0,0-1.033.4,2.708,2.708,0,0,0-.7,1.067,4.487,4.487,0,0,0-.233,1.533,1.518,1.518,0,0,0,.333,1.067,1.168,1.168,0,0,0,.967.367,1.335,1.335,0,0,0,.967-.4,2.281,2.281,0,0,0,.667-1.1,3.832,3.832,0,0,0,.267-1.6Z" transform="translate(-269.67 -62.001)"/>
    <path id="Path_44105" data-name="Path 44105" d="M292.433,314.9a2.145,2.145,0,0,1-1.567-.567,2.174,2.174,0,0,1-.567-1.6,4.669,4.669,0,0,1,.4-1.933,3.558,3.558,0,0,1,1.067-1.4,2.557,2.557,0,0,1,1.533-.5,4.165,4.165,0,0,1,1.4.267l-.233.733a3.249,3.249,0,0,0-1.167-.267,1.572,1.572,0,0,0-1.067.4,2.622,2.622,0,0,0-.767,1.133,3.971,3.971,0,0,0-.267,1.567,1.431,1.431,0,0,0,.333,1.033,1.334,1.334,0,0,0,.967.367,2.217,2.217,0,0,0,.7-.1c.2-.067.433-.167.667-.233v.767a3.245,3.245,0,0,1-1.433.333Z" transform="translate(-281.737 -61.867)"/>
    <path id="Path_44106" data-name="Path 44106" d="M306.8,309.3l-.8,3.667a3.733,3.733,0,0,0-.1.733.687.687,0,0,0,.767.767,1.613,1.613,0,0,0,.9-.3,2.668,2.668,0,0,0,.8-.9,5.144,5.144,0,0,0,.533-1.433l.533-2.5h.867l-1.2,5.767h-.733l.1-1.067H308.4a3.359,3.359,0,0,1-.967.9,2.008,2.008,0,0,1-.967.267,1.59,1.59,0,0,1-1.067-.367,1.331,1.331,0,0,1-.4-1.033,5.244,5.244,0,0,1,.1-.9l.767-3.567h.933Z" transform="translate(-291.537 -62.134)"/>
    <path id="Path_44107" data-name="Path 44107" d="M326.167,314.867l.767-3.633a4.212,4.212,0,0,0,.1-.7.953.953,0,0,0-.167-.567.686.686,0,0,0-.567-.2,1.515,1.515,0,0,0-.867.3,2.544,2.544,0,0,0-.733.9,6.846,6.846,0,0,0-.5,1.4l-.533,2.5H322.8l1.233-5.767h.733l-.1,1.067h.067a3.273,3.273,0,0,1,.9-.9,1.885,1.885,0,0,1,.933-.267,1.113,1.113,0,0,1,.9.333,1.6,1.6,0,0,1,.367.967h.033a3.32,3.32,0,0,1,.967-.967,2,2,0,0,1,1.033-.333,1.275,1.275,0,0,1,1.4,1.4,5.948,5.948,0,0,1-.1.933l-.767,3.533h-.867l.767-3.633a5.252,5.252,0,0,0,.1-.767.848.848,0,0,0-.167-.533.733.733,0,0,0-.567-.2,1.347,1.347,0,0,0-.833.3,2.732,2.732,0,0,0-.733.867,4.46,4.46,0,0,0-.467,1.333l-.567,2.633Z" transform="translate(-303.404 -61.934)"/>
    <path id="Path_44108" data-name="Path 44108" d="M353.6,314.966a2.117,2.117,0,0,1-1.533-.567,2.173,2.173,0,0,1-.567-1.6,4.626,4.626,0,0,1,.4-1.9,3.5,3.5,0,0,1,1.033-1.4,2.274,2.274,0,0,1,1.433-.5,1.779,1.779,0,0,1,1.2.333,1.233,1.233,0,0,1,.4.967,1.719,1.719,0,0,1-.867,1.5,4.647,4.647,0,0,1-2.5.533h-.167l-.033.433a1.465,1.465,0,0,0,.333,1.067,1.17,1.17,0,0,0,1,.4,2.309,2.309,0,0,0,.667-.1,4.959,4.959,0,0,0,.867-.333v.767a4.962,4.962,0,0,1-.867.333,4.788,4.788,0,0,1-.8.067Zm.733-5.233a1.448,1.448,0,0,0-1.033.5,3.155,3.155,0,0,0-.733,1.367h.067a4.453,4.453,0,0,0,1.833-.3.945.945,0,0,0,.633-.9.605.605,0,0,0-.2-.467c-.067-.133-.267-.2-.567-.2Z" transform="translate(-322.537 -61.934)"/>
    <path id="Path_44109" data-name="Path 44109" d="M370.5,314.8l.767-3.633a4.759,4.759,0,0,0,.1-.767.7.7,0,0,0-.2-.533.815.815,0,0,0-.6-.2,1.613,1.613,0,0,0-.9.3,2.3,2.3,0,0,0-.767.9,4.347,4.347,0,0,0-.5,1.4l-.533,2.5H367L368.233,309h.733l-.1,1.067h.067a3.358,3.358,0,0,1,.967-.9,2.009,2.009,0,0,1,.967-.267,1.59,1.59,0,0,1,1.067.367,1.331,1.331,0,0,1,.4,1.033,3.311,3.311,0,0,1-.133.933l-.767,3.533H370.5Z" transform="translate(-332.871 -61.867)"/>
    <path id="Path_44110" data-name="Path 44110" d="M387.767,311.767a2.627,2.627,0,0,0,.767-.133v.667c-.133.033-.267.1-.433.133a2.3,2.3,0,0,1-.433.067,1.493,1.493,0,0,1-1-.3,1.187,1.187,0,0,1-.333-.933,3.737,3.737,0,0,1,.1-.8l.667-3.167h-.9l.067-.4.967-.4.667-1.2h.5l-.3,1.333h1.433l-.133.667h-1.433l-.667,3.167a3.464,3.464,0,0,0-.1.7.723.723,0,0,0,.167.467c.067.1.2.133.4.133Z" transform="translate(-345.671 -59.467)"/>
    <path id="Path_44111" data-name="Path 44111" d="M399.6,309a1.565,1.565,0,0,1,.867.267,1.877,1.877,0,0,1,.6.733h.067l.367-.9h.667l-1.233,5.767H400.2l.133-1.1H400.3a2.621,2.621,0,0,1-1.967,1.2,1.293,1.293,0,0,1-1.133-.533,2.29,2.29,0,0,1-.4-1.433,5.8,5.8,0,0,1,.367-2.033A3.437,3.437,0,0,1,398.2,309.5a2.12,2.12,0,0,1,1.4-.5Zm-1,5.233a1.441,1.441,0,0,0,1-.5,3.985,3.985,0,0,0,.833-1.267,4.353,4.353,0,0,0,.3-1.567,1.246,1.246,0,0,0-.3-.867,1.085,1.085,0,0,0-.767-.333,1.541,1.541,0,0,0-1.033.467,2.965,2.965,0,0,0-.733,1.233,5.24,5.24,0,0,0-.267,1.633,1.383,1.383,0,0,0,.233.9.98.98,0,0,0,.733.3Z" transform="translate(-352.738 -61.934)"/>
    <path id="Path_44112" data-name="Path 44112" d="M416.467,311.767a2.627,2.627,0,0,0,.767-.133v.667c-.133.033-.267.1-.433.133a2.3,2.3,0,0,1-.433.067,1.493,1.493,0,0,1-1-.3,1.187,1.187,0,0,1-.333-.933,3.737,3.737,0,0,1,.1-.8l.667-3.167h-.9l.067-.4.967-.4.667-1.2h.5l-.3,1.333h1.433l-.133.667h-1.433L416,310.467a3.462,3.462,0,0,0-.1.7.723.723,0,0,0,.167.467c.067.1.2.133.4.133Z" transform="translate(-364.805 -59.467)"/>
    <path id="Path_44113" data-name="Path 44113" d="M425.667,310.8H424.8l1.233-5.767h.867Zm.6-7.233a.66.66,0,0,1,.167-.467.538.538,0,0,1,.433-.2.422.422,0,0,1,.467.467.819.819,0,0,1-.167.5.576.576,0,0,1-.4.2.386.386,0,0,1-.333-.133A.425.425,0,0,1,426.267,303.567Z" transform="translate(-371.405 -57.867)"/>
    <path id="Path_44114" data-name="Path 44114" d="M436.467,309.1a2.035,2.035,0,0,1,1.567.6,2.173,2.173,0,0,1,.567,1.633,5.034,5.034,0,0,1-.367,1.867,3.378,3.378,0,0,1-1.033,1.367,2.335,2.335,0,0,1-1.467.467,2.034,2.034,0,0,1-1.567-.6,2.313,2.313,0,0,1-.567-1.633,4.364,4.364,0,0,1,.4-1.867,3.378,3.378,0,0,1,1.033-1.367,2.181,2.181,0,0,1,1.433-.467Zm1.233,2.067a1.315,1.315,0,0,0-.333-.967,1.073,1.073,0,0,0-.9-.367,1.551,1.551,0,0,0-1.033.4,2.708,2.708,0,0,0-.7,1.067,4.487,4.487,0,0,0-.233,1.533,1.518,1.518,0,0,0,.333,1.067,1.168,1.168,0,0,0,.967.367,1.335,1.335,0,0,0,.967-.4,2.566,2.566,0,0,0,.667-1.1,4.455,4.455,0,0,0,.267-1.6Z" transform="translate(-377.271 -62.001)"/>
    <path id="Path_44115" data-name="Path 44115" d="M454.6,314.8l.767-3.633a4.756,4.756,0,0,0,.1-.767.7.7,0,0,0-.2-.533.815.815,0,0,0-.6-.2,1.613,1.613,0,0,0-.9.3,2.3,2.3,0,0,0-.767.9,4.347,4.347,0,0,0-.5,1.4l-.533,2.5H451.1L452.333,309h.733l-.1,1.067h.067a3.358,3.358,0,0,1,.967-.9,2.009,2.009,0,0,1,.967-.267,1.59,1.59,0,0,1,1.067.367,1.331,1.331,0,0,1,.4,1.033,3.312,3.312,0,0,1-.133.933l-.767,3.533H454.6Z" transform="translate(-388.938 -61.867)"/>
    <g id="Layer-1" transform="translate(-132.3 216.1)">
      <path id="Path_44116" data-name="Path 44116" d="M-131.867,271.033a.594.594,0,0,0-.333.533.594.594,0,0,0,.333.533l11.666,5.467a1.338,1.338,0,0,0,.5.1V265.5a1.338,1.338,0,0,0-.5.1l-11.666,5.433Z" transform="translate(132.233 -249.034)"/>
      <path id="Path_44117" data-name="Path 44117" d="M-94.8,265.5v12.166a1.51,1.51,0,0,0,.533-.1l11.633-5.433a.594.594,0,0,0,.333-.533.594.594,0,0,0-.333-.533l-11.633-5.433a1.143,1.143,0,0,0-.533-.133" transform="translate(107.3 -249.034)"/>
      <path id="Path_44118" data-name="Path 44118" d="M-132.3,222.167a.594.594,0,0,0,.333.533l11.666,5.467a1.338,1.338,0,0,0,.5.1,1.951,1.951,0,0,0,.433-.067c.1-.067.1-.033.333-.167,1.2-.567.4-.2,11.4-5.333a.594.594,0,0,0,.333-.533.594.594,0,0,0-.333-.533l-11.633-5.433a1.3,1.3,0,0,0-1,0l-11.633,5.4a.6.6,0,0,0-.4.567" transform="translate(132.3 -216.1)"/>
      <path id="Path_44119" data-name="Path 44119" d="M-119.734,241.1v3.633a1.338,1.338,0,0,0-.5.1l-11.633,5.4a.594.594,0,0,0-.333.533V234.3a.594.594,0,0,0,.333.533L-120.2,240.3a1.337,1.337,0,0,0,.5.1,1.951,1.951,0,0,0,.433-.067h-.033c-.367.167-.433.333-.433.767" transform="translate(132.233 -228.233)" fill="#3d3d3d"/>
    </g>
  </g>
</svg>
