<svg xmlns="http://www.w3.org/2000/svg" width="166.667" height="34" viewBox="0 0 166.667 34">
  <g id="contentful" transform="translate(-21.3 -259.8)">
    <path id="Path_44497" data-name="Path 44497" d="M31.633,293.5a9.054,9.054,0,0,1-2.889-6.694,9.282,9.282,0,0,1,2.778-6.694,3.771,3.771,0,0,0-5.333-5.333A17.345,17.345,0,0,0,21.3,286.8a16.964,16.964,0,0,0,5,12.028,3.723,3.723,0,0,0,5.333,0A3.993,3.993,0,0,0,31.633,293.5Z" transform="translate(0 -10.003)"/>
    <path id="Path_44498" data-name="Path 44498" d="M41.708,270.106a9.076,9.076,0,0,1,6.694-2.861,9.33,9.33,0,0,1,6.694,2.778,3.771,3.771,0,1,0,5.333-5.333A17.345,17.345,0,0,0,48.4,259.8a16.964,16.964,0,0,0-12.028,5,3.723,3.723,0,0,0,0,5.333A4.024,4.024,0,0,0,41.708,270.106Z" transform="translate(-10.075)"/>
    <path id="Path_44499" data-name="Path 44499" d="M55.1,342.392a9.076,9.076,0,0,1-6.694,2.861,9.33,9.33,0,0,1-6.694-2.778,3.771,3.771,0,0,0-5.333,5.333A17.345,17.345,0,0,0,48.4,352.7a16.964,16.964,0,0,0,12.028-5,3.723,3.723,0,0,0,0-5.333A4.024,4.024,0,0,0,55.1,342.392Z" transform="translate(-10.075 -58.897)"/>
    <circle id="Ellipse_53" data-name="Ellipse 53" cx="3.722" cy="3.722" r="3.722" transform="translate(25.244 263.717)" fill="#3d3d3d"/>
    <circle id="Ellipse_54" data-name="Ellipse 54" cx="3.722" cy="3.722" r="3.722" transform="translate(25.244 282.439)" fill="#3d3d3d"/>
    <path id="Path_44500" data-name="Path 44500" d="M158.485,287.45c1.056-.861,1.278-.306,2.139.528.417.417,1.694,1.278.861,1.917a7.784,7.784,0,0,1-5.417,2.028,7.961,7.961,0,0,1-8.194-8.528,7.494,7.494,0,0,1,2.667-5.639,8,8,0,0,1,5.528-1.806,8.858,8.858,0,0,1,2.861.528,6.226,6.226,0,0,1,1.806.944c1.056.861.528,1.278-.222,2.139-.222.222-.306.417-.528.528-.417.417-.75.75-1.278.306a4.973,4.973,0,0,0-3.833-.861c-4.25,1.056-4.056,8.611,1.167,8.611A3.018,3.018,0,0,0,158.485,287.45Zm118.222,4.167a1.225,1.225,0,0,1-1.278-1.278V273.617a1.225,1.225,0,0,1,1.278-1.278H278.1a1.225,1.225,0,0,1,1.278,1.278v16.722a1.225,1.225,0,0,1-1.278,1.278Zm-7.333-1.917a6.984,6.984,0,0,1-5.111,2.139c-4.361,0-6.389-3.611-6.389-7.556v-6.806a1.225,1.225,0,0,1,1.278-1.278h1.389a1.225,1.225,0,0,1,1.278,1.278v6.806c0,2.222,1.167,3.944,3.611,3.944a3.961,3.961,0,0,0,3.833-4.139v-6.611a1.225,1.225,0,0,1,1.278-1.278h1.389a1.225,1.225,0,0,1,1.278,1.278v12.861a1.225,1.225,0,0,1-1.278,1.278h-1.167a1.374,1.374,0,0,1-1.278-1.278l-.111-.639Zm-16.611-13.417h2.667a1.292,1.292,0,0,1,1.278,1.278v.861a1.225,1.225,0,0,1-1.278,1.278h-2.667v10.639a1.225,1.225,0,0,1-1.278,1.278H250.1a1.225,1.225,0,0,1-1.278-1.278V275.756c0-3.194,1.806-5.75,5.111-6.056h2.028a1.292,1.292,0,0,1,1.278,1.278v.861a1.225,1.225,0,0,1-1.278,1.278H254.9c-1.583,0-2.222,1.167-2.222,2.667v.528h.083Zm-9.694,0h2.972a1.225,1.225,0,0,1,1.278,1.278v.861a1.225,1.225,0,0,1-1.278,1.278h-2.972v6.472a1.694,1.694,0,0,0,1.917,1.917h.639a1.225,1.225,0,0,1,1.278,1.278v.944a1.225,1.225,0,0,1-1.278,1.278h-1.806c-3.194-.222-4.583-2.222-4.583-5.417V273.617a1.225,1.225,0,0,1,1.278-1.278H241.9a1.225,1.225,0,0,1,1.278,1.278v2.667Zm-42.667,0h2.972a1.225,1.225,0,0,1,1.278,1.278v.861a1.225,1.225,0,0,1-1.278,1.278H200.4v6.472a1.775,1.775,0,0,0,1.917,2.028h.639a1.225,1.225,0,0,1,1.278,1.278v.861a1.225,1.225,0,0,1-1.278,1.278H202.1c-3.5,0-5.528-1.5-5.528-5.417V273.644a1.225,1.225,0,0,1,1.278-1.278h1.389a1.225,1.225,0,0,1,1.278,1.278v2.667C200.513,276.283,200.4,276.283,200.4,276.283Zm-17.333,1.806a6.674,6.674,0,0,1,4.889-2.139c4.361,0,6.611,3.5,6.611,7.556v6.833a1.225,1.225,0,0,1-1.278,1.278H191.9a1.225,1.225,0,0,1-1.278-1.278v-6.806c0-2.222-1.167-3.944-3.611-3.944a3.9,3.9,0,0,0-3.833,4.139v6.611a1.225,1.225,0,0,1-1.278,1.278h-1.389a1.225,1.225,0,0,1-1.278-1.278V277.45a1.225,1.225,0,0,1,1.278-1.278h1.167a1.374,1.374,0,0,1,1.278,1.278Zm42.778,0a6.674,6.674,0,0,1,4.889-2.139c4.361,0,6.611,3.5,6.611,7.556v6.833a1.225,1.225,0,0,1-1.278,1.278H234.68a1.225,1.225,0,0,1-1.278-1.278v-6.806c0-2.222-1.167-3.944-3.611-3.944a3.9,3.9,0,0,0-3.833,4.139v6.611a1.225,1.225,0,0,1-1.278,1.278h-1.389a1.225,1.225,0,0,1-1.278-1.278V277.45a1.225,1.225,0,0,1,1.278-1.278h1.167a1.374,1.374,0,0,1,1.278,1.278Zm-55.889-2.222a8.083,8.083,0,1,0,8.083,8.083A7.732,7.732,0,0,0,169.957,275.867Zm38.972,9.472c.306,2.139,2.444,3.083,4.472,3.083a6.73,6.73,0,0,0,2.861-.639c.111-.111.306-.111.417-.222.528-.306.944-.417,1.389,0l.75.75.639.639c.639.861.222,1.056-.528,1.5a10.167,10.167,0,0,1-5.528,1.583c-5.111,0-8.528-3.083-8.528-8.194,0-4.889,3.417-8.083,8.194-8.083,5,0,7.778,2.861,7.889,7.889,0,1.389.111,1.806-1.278,1.806H208.93Zm-38.972-5.861a4.23,4.23,0,0,1,4.056,4.472c0,2.444-1.5,4.361-4.056,4.361s-4.056-1.917-4.056-4.361S167.513,279.478,169.957,279.478Zm39.056,2.556h7.972c-.306-2.028-1.917-2.778-3.833-2.778A4.024,4.024,0,0,0,209.013,282.033Z" transform="translate(-91.408 -7.15)"/>
  </g>
</svg>
