<svg xmlns="http://www.w3.org/2000/svg" width="101.641" height="100" viewBox="0 0 101.641 100">
  <g id="ic_customer" transform="translate(-107.122 -204.199)">
    <path id="Path_44469" data-name="Path 44469" d="M189.067,261.928a18.944,18.944,0,0,0-3.144-.262H175.859v-6.42a21.552,21.552,0,0,0,9.623-17.941V225.757a21.516,21.516,0,0,0-3.159-11.241l-3.939,2.412a16.9,16.9,0,0,1,2.48,8.829v2.422l-.607-1.121a10.549,10.549,0,0,0-9.287-5.535H156.881a10.549,10.549,0,0,0-9.287,5.535l-.606,1.121v-2.422a16.937,16.937,0,0,1,28.879-12.012l3.257-3.276a21.557,21.557,0,0,0-36.755,15.288V237.3a21.551,21.551,0,0,0,9.624,17.941v6.42H141.928a18.828,18.828,0,0,0-18.807,18.808V298.9h4.62V280.474a14.2,14.2,0,0,1,14.187-14.188H152.17a11.93,11.93,0,0,0,23.512,0h10.242a14.26,14.26,0,0,1,2.377.2Zm-17.827,2.323a7.314,7.314,0,0,1-14.628,0v-6.669a21.557,21.557,0,0,0,14.628,0Zm-7.314-10.008A16.954,16.954,0,0,1,147,237.864l4.656-8.608a5.933,5.933,0,0,1,5.223-3.114h14.089a5.933,5.933,0,0,1,5.224,3.114l4.656,8.607a16.956,16.956,0,0,1-16.923,16.38Zm0,0" transform="translate(-5.899)" fill="#3d3d3d"/>
    <path id="Path_44470" data-name="Path 44470" d="M349.226,397.012l-2,4.162a14.275,14.275,0,0,1,8.042,12.793v18.422h4.62V413.967A18.919,18.919,0,0,0,349.226,397.012Zm0,0" transform="translate(-161.054 -133.493)" fill="#3d3d3d"/>
    <path id="Path_44471" data-name="Path 44471" d="M328.32,475.965h4.62v11.086h-4.62Zm0,0" transform="translate(-147.967 -188.155)" fill="#3d3d3d"/>
    <path id="Path_44472" data-name="Path 44472" d="M168.164,475.965h4.62v11.086h-4.62Zm0,0" transform="translate(-37.084 -188.155)" fill="#3d3d3d"/>
    <path id="Path_44478" data-name="Path 44478" d="M153.148,430.588h4.62a4.955,4.955,0,0,1,4.949-4.95v-4.618a9.58,9.58,0,0,0-9.569,9.569Zm0,0" transform="translate(-26.687 -150.114)" fill="#3d3d3d"/>
    <path id="Path_44481" data-name="Path 44481" d="M218.215,478.469h4.618v4.618h-4.618Zm0,0" transform="translate(-71.736 -189.889)" fill="#3d3d3d"/>
    <path id="Path_44482" data-name="Path 44482" d="M248.242,478.469h4.62v4.618h-4.62Zm0,0" transform="translate(-92.525 -189.889)" fill="#3d3d3d"/>
    <path id="Path_44483" data-name="Path 44483" d="M278.273,478.469h4.618v4.618h-4.618Zm0,0" transform="translate(-113.317 -189.889)" fill="#3d3d3d"/>
    <rect id="Rectangle_20021" data-name="Rectangle 20021" width="101.641" height="8" rx="4" transform="translate(107.122 296.199)" fill="#3d3d3d"/>
  </g>
</svg>
