<svg xmlns="http://www.w3.org/2000/svg" width="169.238" height="34" viewBox="0 0 169.238 34">
  <path id="dotdigital" d="M253.366,290.639a8.885,8.885,0,1,0,8.885,8.885h0a8.906,8.906,0,0,0-8.885-8.885m0,14.842a5.957,5.957,0,1,1,5.957-5.957h0a5.988,5.988,0,0,1-5.957,5.957m-11.474-20.867h-2.166a.394.394,0,0,0-.389.389v7.819a6.083,6.083,0,0,0-4.874-2.166c-4.485,0-7.616,3.639-7.616,8.8,0,5.3,2.962,8.851,7.4,8.851a6.426,6.426,0,0,0,5.162-2.285v1.523a.394.394,0,0,0,.389.389h2.1a.38.38,0,0,0,.389-.372V285a.38.38,0,0,0-.372-.389h-.017M239.4,299.439c0,4.519-2.5,6.126-4.857,6.126-2.877,0-4.7-2.4-4.7-6.126,0-3.588,1.98-6.093,4.823-6.093,3.283,0,4.739,3.08,4.739,6.093m49.5-14.825H286.74a.394.394,0,0,0-.389.389v7.819a6.083,6.083,0,0,0-4.874-2.166c-4.485,0-7.616,3.639-7.616,8.8,0,5.3,2.962,8.851,7.4,8.851a6.426,6.426,0,0,0,5.162-2.285v1.523a.394.394,0,0,0,.389.389h2.115a.38.38,0,0,0,.389-.372V285a.449.449,0,0,0-.406-.389m-2.5,14.825c0,4.519-2.5,6.126-4.857,6.126-2.877,0-4.7-2.4-4.7-6.126,0-3.588,1.98-6.093,4.823-6.093,3.266,0,4.739,3.08,4.739,6.093m-14.284,5.889a.424.424,0,0,1,.135.3v1.946a.382.382,0,0,1-.3.372,6.4,6.4,0,0,1-.982.085c-5.416,0-5.974-4.451-5.974-6.38v-7.87h-1.726a.38.38,0,0,1-.389-.372V291.57a.38.38,0,0,1,.372-.389h1.794v-4.265a.38.38,0,0,1,.372-.389h2.166a.379.379,0,0,1,.389.372v4.282h3.672a.38.38,0,0,1,.389.372V293.4a.38.38,0,0,1-.372.389h-3.689v7.667c0,3.385,2.031,3.892,3.249,3.892a3.961,3.961,0,0,0,.643-.051c.068-.068.169-.051.254.034m58.861,0a.424.424,0,0,1,.135.3v1.946a.382.382,0,0,1-.3.372,6.4,6.4,0,0,1-.982.085c-5.416,0-5.974-4.451-5.974-6.38v-7.87h-1.726a.38.38,0,0,1-.389-.372V291.57a.379.379,0,0,1,.372-.389H323.9v-4.265a.38.38,0,0,1,.372-.389h2.166a.394.394,0,0,1,.389.389v4.265h3.672a.379.379,0,0,1,.389.372V293.4a.38.38,0,0,1-.372.389h-3.689v7.667c0,3.385,2.031,3.892,3.249,3.892a3.961,3.961,0,0,0,.643-.051c.051-.068.169-.051.254.034m9.19-14.69a9.469,9.469,0,0,0-5.974,1.912.389.389,0,0,0-.085.474l1.015,1.659a.333.333,0,0,0,.254.169.284.284,0,0,0,.3-.085A7.706,7.706,0,0,1,340,293.33c2.454,0,3.639,1.235,3.639,3.774v.034h-.508c-2.539,0-10.273,0-10.273,5.957,0,3.385,2.962,5.162,5.873,5.162a6.048,6.048,0,0,0,4.993-2.488v1.726a.38.38,0,0,0,.372.389h2.1a.38.38,0,0,0,.389-.372v-10.34c0-4.214-2.285-6.533-6.414-6.533m2.911,9.088h.542v.3c0,2.708-1.828,5.619-4.536,5.619-2.2,0-3.216-1.388-3.216-2.657-.017-2.894,3.859-3.266,7.21-3.266m-47.742-8.513a.38.38,0,0,1,.389.372v15.942a.394.394,0,0,1-.389.389h-2.166a.379.379,0,0,1-.389-.372V291.6a.38.38,0,0,1,.372-.389h2.183m23.913,0a.38.38,0,0,1,.389.372v15.942a.394.394,0,0,1-.389.389h-2.166a.38.38,0,0,1-.389-.372V291.6a.38.38,0,0,1,.372-.389h2.183m.846-4.857a1.912,1.912,0,1,1-1.912-1.912h0a1.91,1.91,0,0,1,1.912,1.912m-23.913,0a1.912,1.912,0,1,1-1.912-1.912,1.91,1.91,0,0,1,1.912,1.912m55.866-1.743c.2,0,.389.22.389.542V307.41c0,.288-.169.542-.389.542h-2.166c-.2,0-.389-.22-.389-.542V285.139c0-.288.169-.542.389-.542h2.166m-46.761,27.738c2.877,0,5.213-1.269,5.213-4.654v-1.219c0-.508.034-1.049.034-1.049h-.051A5.231,5.231,0,0,1,305.576,308c-4.6,0-7.4-3.689-7.4-8.462,0-4.739,2.657-8.259,7.226-8.259,3.977,0,5.2,2.454,5.2,2.454h.051c-.017-.169-.034-.338-.034-.508v-1.523a.419.419,0,0,1,.423-.423h2.166a.419.419,0,0,1,.423.423v15.824c0,5.466-4.146,7.565-8.327,7.565a12.818,12.818,0,0,1-5.246-1.185.453.453,0,0,1-.22-.592l.677-1.642a.5.5,0,0,1,.626-.254,10.92,10.92,0,0,0,4.146.914m5.3-12.744c0-4.316-2.082-5.551-4.688-5.551-2.877,0-4.519,2.082-4.519,5.466,0,3.436,1.828,5.788,4.789,5.788,2.335-.017,4.417-1.4,4.417-5.7m-116.081,5.94a8.121,8.121,0,0,1-2.5-5.619,1.865,1.865,0,0,0-.034-.3.937.937,0,0,1,.034-.3,8.193,8.193,0,0,1,2.5-5.619,8.3,8.3,0,0,1,5.7-2.319h0a8.205,8.205,0,0,1,8.208,8.208h0a8.2,8.2,0,0,1-8.208,8.208h0a8.075,8.075,0,0,1-5.7-2.251m-2.031-13.979a11.16,11.16,0,0,0-3.419,7.616,4.11,4.11,0,0,1-.034.423,1.786,1.786,0,0,0,.034.423,11.191,11.191,0,0,0,11.17,10.747h0a11.152,11.152,0,0,0,11.17-11.17h0a11.152,11.152,0,0,0-11.136-11.17h-.051a11.124,11.124,0,0,0-7.734,3.131m6.126,9.833a2.4,2.4,0,0,1-.8-1.557v-.457a2.366,2.366,0,0,1,.8-1.557,2.543,2.543,0,0,1,1.608-.626h0a2.369,2.369,0,0,1,1.692.711,2.517,2.517,0,0,1,.711,1.692h0a2.369,2.369,0,0,1-.711,1.692,2.517,2.517,0,0,1-1.692.711h0a2.276,2.276,0,0,1-1.608-.609m1.608-7.125h0a5.377,5.377,0,0,0-5.331,4.84c0,.135-.034.3-.034.457v.051c.034.338.034.508.034.508a5.377,5.377,0,0,0,5.314,4.84h0a5.273,5.273,0,0,0,3.774-1.574,5.373,5.373,0,0,0,1.574-3.774h0a5.273,5.273,0,0,0-1.574-3.774,5.149,5.149,0,0,0-3.757-1.574h0m-5.3,18.345a14.326,14.326,0,0,1-4.519-2.962,14.474,14.474,0,0,1-3.08-4.451,13.837,13.837,0,0,1-1.151-5.28,1.152,1.152,0,0,0-.034-.338,1.152,1.152,0,0,1,.034-.338,13.93,13.93,0,0,1,4.231-9.731,14.16,14.16,0,0,1,9.816-4.011h0a14.078,14.078,0,0,1,9.951,4.112,14.078,14.078,0,0,1,4.112,9.951h0a14.078,14.078,0,0,1-4.112,9.951,14.078,14.078,0,0,1-9.951,4.112h0a13.239,13.239,0,0,1-5.3-1.015m5.3-30.006a16.592,16.592,0,0,0-6.4,1.269,17.154,17.154,0,0,0-9.19,8.953,16.565,16.565,0,0,0-1.388,6.38,3.3,3.3,0,0,1-.034.389c0,.135.034.288.034.389a16.881,16.881,0,0,0,1.388,6.38,17.093,17.093,0,0,0,15.6,10.239h0a16.9,16.9,0,0,0,6.516-1.3,16.563,16.563,0,0,0,5.5-3.689,16.97,16.97,0,0,0,4.993-12.016h0a16.9,16.9,0,0,0-1.3-6.516,16.562,16.562,0,0,0-3.689-5.5,17.465,17.465,0,0,0-5.5-3.689,17.684,17.684,0,0,0-6.533-1.286Z" transform="translate(-183.2 -282.6)"/>
</svg>
