<svg xmlns="http://www.w3.org/2000/svg" width="59.992" height="58" viewBox="0 0 59.992 58">
  <g id="fast" transform="translate(-2.008 -3)">
    <path id="Path_44183" data-name="Path 44183" d="M37,23V21a1,1,0,0,0-2,0v2A1,1,0,0,0,37,23Z" fill="#3d3d3d"/>
    <path id="Path_44184" data-name="Path 44184" d="M35,47v2a1,1,0,0,0,2,0V47A1,1,0,0,0,35,47Z" fill="#3d3d3d"/>
    <path id="Path_44185" data-name="Path 44185" d="M30.366,23.242l-.5-.866a1,1,0,0,0-1.732,1l.5.866A1,1,0,0,0,30.366,23.242Z" fill="#3d3d3d"/>
    <path id="Path_44186" data-name="Path 44186" d="M25.242,27.634l-.866-.5a1,1,0,0,0-1,1.732l.866.5A1,1,0,0,0,25.242,27.634Z" fill="#3d3d3d"/>
    <path id="Path_44187" data-name="Path 44187" d="M24.242,40.634l-.866.5a1,1,0,0,0,1,1.732l.866-.5A1,1,0,0,0,24.242,40.634Z" fill="#3d3d3d"/>
    <path id="Path_44188" data-name="Path 44188" d="M48.624,28.866a1,1,0,0,0-1-1.731l-.865.5a1,1,0,0,0,1,1.731Z" fill="#3d3d3d"/>
    <path id="Path_44189" data-name="Path 44189" d="M28.634,45.758l-.5.866a1,1,0,0,0,1.732,1l.5-.866A1,1,0,0,0,28.634,45.758Z" fill="#3d3d3d"/>
    <path id="Path_44190" data-name="Path 44190" d="M43.366,24.242l.5-.866a1,1,0,0,0-1.732-1l-.5.866A1,1,0,0,0,43.366,24.242Z" fill="#3d3d3d"/>
    <path id="Path_44191" data-name="Path 44191" d="M24,36a1,1,0,0,0,0-2H22a1,1,0,0,0,0,2Z" fill="#3d3d3d"/>
    <path id="Path_44192" data-name="Path 44192" d="M48,36h2a1,1,0,0,0,0-2H48A1,1,0,0,0,48,36Z" fill="#3d3d3d"/>
    <path id="Path_44193" data-name="Path 44193" d="M51,39A11,11,0,1,0,62,50,11.013,11.013,0,0,0,51,39Zm0,20a9,9,0,1,1,9-9A9.01,9.01,0,0,1,51,59Z" fill="#3d3d3d"/>
    <path id="Path_44194" data-name="Path 44194" d="M55.2,45.4l-5.309,7.078-3.185-3.185a1,1,0,0,0-1.414,1.414l4,4A1,1,0,0,0,50.8,54.6l6-8a1,1,0,0,0-1.6-1.2Z" fill="#3d3d3d"/>
    <path id="Path_44195" data-name="Path 44195" d="M40.394,30.193,37,33.586V26a1,1,0,0,0-2,0V36a1,1,0,0,0,1.707.707l5.1-5.1a1,1,0,0,0-1.414-1.414Z" fill="#3d3d3d"/>
    <path id="Path_44196" data-name="Path 44196" d="M37.346,51.948C36.9,51.982,36.453,52,36,52a17.011,17.011,0,0,1-12.929-5.958,1,1,0,0,0-1.519,1.3A19.008,19.008,0,0,0,36,54c.506,0,1.008-.02,1.5-.058A1,1,0,0,0,37.346,51.948Z" fill="#3d3d3d"/>
    <path id="Path_44197" data-name="Path 44197" d="M13,28h6.87a1,1,0,0,0,.9-.555A17,17,0,0,1,53,35q0,.63-.044,1.248a1,1,0,0,0,1.994.144Q55,35.7,55,35a18.9,18.9,0,0,0-4.9-12.687l1.567-1.562,1.956,1.956a1,1,0,0,0,1.414,0l2.667-2.667a1,1,0,0,0,0-1.414l-5.333-5.334a1,1,0,0,0-1.414,0l-2.667,2.667a1,1,0,0,0,0,1.414l1.963,1.964L48.689,20.9A18.9,18.9,0,0,0,37,16.05V14.91a6,6,0,1,0-2,0v1.124a18.874,18.874,0,0,0-11.72,4.835l-1.537-1.532,1.963-1.964a1,1,0,0,0,0-1.414l-2.667-2.667a1.029,1.029,0,0,0-1.414,0l-5.333,5.334a1,1,0,0,0,0,1.414l2.667,2.667a1,1,0,0,0,1.414,0l1.956-1.956,1.545,1.54A19.19,19.19,0,0,0,19.261,26H13a1,1,0,0,0,0,2ZM51.667,15.414l3.919,3.92-1.253,1.253-3.919-3.92ZM32,9a4,4,0,1,1,5,3.858V11h1a1,1,0,0,0,0-2H34a1,1,0,0,0,0,2h1v1.858A4,4,0,0,1,32,9ZM17.667,20.586l-1.253-1.253,3.919-3.92,1.253,1.253Z" fill="#3d3d3d"/>
    <path id="Path_44198" data-name="Path 44198" d="M13,36h5a1,1,0,0,0,1-1,17.1,17.1,0,0,1,.493-4.082,1,1,0,0,0-1.942-.478A19.1,19.1,0,0,0,17.026,34H13a1,1,0,0,0,0,2Z" fill="#3d3d3d"/>
    <path id="Path_44199" data-name="Path 44199" d="M19.341,38.409a1,1,0,0,0-1.96.4A18.873,18.873,0,0,0,18.331,42H13a1,1,0,0,0,0,2h6.87a1,1,0,0,0,.9-1.445A16.94,16.94,0,0,1,19.341,38.409Z" fill="#3d3d3d"/>
    <path id="Path_44200" data-name="Path 44200" d="M9.031,26H7.969a1,1,0,0,0,0,2H9.032a1,1,0,0,0,0-2Z" fill="#3d3d3d"/>
    <path id="Path_44201" data-name="Path 44201" d="M9,34H8a1,1,0,0,0,0,2H9A1,1,0,0,0,9,34Z" fill="#3d3d3d"/>
    <path id="Path_44202" data-name="Path 44202" d="M9,42H8a1,1,0,0,0,0,2H9A1,1,0,0,0,9,42Z" fill="#3d3d3d"/>
    <path id="Path_44203" data-name="Path 44203" d="M4,34H3a1,1,0,0,0,0,2H4A1,1,0,0,0,4,34Z" fill="#3d3d3d"/>
  </g>
</svg>
