<svg xmlns="http://www.w3.org/2000/svg" width="62.046" height="58" viewBox="0 0 62.046 58">
  <g id="flexible" transform="translate(-1 -3.02)">
    <path id="Path_44213" data-name="Path 44213" d="M60.041,31a1,1,0,0,0-1,1A27.012,27.012,0,0,1,5.934,38.989l3.6,1.9a1,1,0,0,0,.935-1.771l-5.419-2.86a1.057,1.057,0,0,0-1.516.436l-2.461,5.93a1,1,0,0,0,1.849.767l1.29-3.108A29.02,29.02,0,0,0,61.042,32a1,1,0,0,0-1-1Z" transform="translate(0 0.019)" fill="#3d3d3d"/>
    <path id="Path_44214" data-name="Path 44214" d="M62.424,20.088a1,1,0,0,0-1.308.541l-1.29,3.108A29.02,29.02,0,0,0,3,32.02a1,1,0,0,0,2,0,27.012,27.012,0,0,1,53.106-6.988l-3.6-1.9A1,1,0,1,0,53.57,24.9l5.423,2.863a1.036,1.036,0,0,0,1.514-.437l2.461-5.93a1,1,0,0,0-.543-1.31Z" transform="translate(0.001)" fill="#3d3d3d"/>
    <path id="Path_44215" data-name="Path 44215" d="M32.009,45.018A13.009,13.009,0,1,0,19,32.009,13.009,13.009,0,0,0,32.009,45.018Zm0-24.017A11.008,11.008,0,1,1,21,32.009,11.008,11.008,0,0,1,32.009,21Z" transform="translate(0.012 0.011)" fill="#3d3d3d"/>
    <path id="Path_44216" data-name="Path 44216" d="M39,33h1a1,1,0,0,0,0-2H39a1,1,0,0,0,0,2Z" transform="translate(0.026 0.019)" fill="#3d3d3d"/>
    <path id="Path_44217" data-name="Path 44217" d="M26,32a1,1,0,0,0-1-1H24a1,1,0,0,0,0,2h1A1,1,0,0,0,26,32Z" transform="translate(0.015 0.019)" fill="#3d3d3d"/>
    <path id="Path_44218" data-name="Path 44218" d="M32,41a1,1,0,0,0,1-1V39a1,1,0,0,0-2,0v1A1,1,0,0,0,32,41Z" transform="translate(0.021 0.024)" fill="#3d3d3d"/>
    <path id="Path_44219" data-name="Path 44219" d="M32.516,32.864l5-3a1,1,0,1,0-1.031-1.715L33,30.238V24a1,1,0,0,0-2,0v8.006a1,1,0,0,0,1.516.858Z" transform="translate(0.021 0.014)" fill="#3d3d3d"/>
    <path id="Path_44220" data-name="Path 44220" d="M10.8,28.033a1,1,0,0,0-.8.981v6a1,1,0,0,0,.8.981l3.832.766a17.559,17.559,0,0,0,1.734,4.178L14.2,44.2a1,1,0,0,0,.125,1.263L18.571,49.7a1,1,0,0,0,1.263.125l3.256-2.171a17.569,17.569,0,0,0,4.177,1.734l.768,3.833a1,1,0,0,0,.979.8h6a1,1,0,0,0,.981-.8l.767-3.832a17.569,17.569,0,0,0,4.177-1.734L44.2,49.828a1,1,0,0,0,1.263-.125L49.7,45.461A1,1,0,0,0,49.83,44.2L47.659,40.94a17.559,17.559,0,0,0,1.734-4.178L53.226,36a1,1,0,0,0,.8-.979v-6a1,1,0,0,0-.8-.981L49.4,27.266a17.559,17.559,0,0,0-1.734-4.178l2.165-3.257a1,1,0,0,0-.125-1.263L45.46,14.326A1,1,0,0,0,44.2,14.2L40.94,16.371a17.569,17.569,0,0,0-4.177-1.734L36,10.8a1,1,0,0,0-.981-.8h-6a1,1,0,0,0-.981.8l-.767,3.832a17.569,17.569,0,0,0-4.177,1.734L19.832,14.2a1,1,0,0,0-1.263.125L14.326,18.57a1,1,0,0,0-.125,1.263l2.18,3.27a17.624,17.624,0,0,0-1.727,4.162Zm8.6-11.708,3.1,2.066a1,1,0,0,0,1.085.016,15.617,15.617,0,0,1,4.758-1.974,1,1,0,0,0,.757-.78L29.834,12H34.2l.731,3.649a1,1,0,0,0,.757.78,15.617,15.617,0,0,1,4.758,1.976,1,1,0,0,0,1.085-.016l3.1-2.066,3.083,3.082-2.067,3.1a1,1,0,0,0-.016,1.085A15.623,15.623,0,0,1,47.6,28.352a1,1,0,0,0,.78.757l3.647.726V34.2l-3.649.73a1,1,0,0,0-.78.757,15.623,15.623,0,0,1-1.976,4.759,1,1,0,0,0,.016,1.085l2.067,3.1-3.084,3.08-3.1-2.066a1,1,0,0,0-1.085-.016A15.617,15.617,0,0,1,35.679,47.6a1,1,0,0,0-.757.78L34.2,52.029H29.834L29.1,48.381a1,1,0,0,0-.757-.78,15.617,15.617,0,0,1-4.758-1.976,1,1,0,0,0-1.085.016l-3.1,2.066L16.32,44.624l2.067-3.1a1,1,0,0,0,.016-1.085,15.623,15.623,0,0,1-1.974-4.759,1,1,0,0,0-.78-.757L12,34.2V29.834l3.649-.73a1.03,1.03,0,0,0,.78-.757,15.623,15.623,0,0,1,1.976-4.759A1.063,1.063,0,0,0,18.39,22.5l-2.067-3.1Z" transform="translate(0.006 0.005)" fill="#3d3d3d"/>
  </g>
</svg>
