<svg xmlns="http://www.w3.org/2000/svg" width="45.476" height="58" viewBox="0 0 45.476 58">
  <g id="Medal" transform="translate(-6.91 0)">
    <path id="Path_44210" data-name="Path 44210" d="M52.327,52.259,45.776,35.035a5.609,5.609,0,0,0,1.654-1.51,5.515,5.515,0,0,0,.884-4.609,3.748,3.748,0,0,1,1.262-3.8,5.529,5.529,0,0,0-.011-8.561,3.747,3.747,0,0,1-1.248-3.8,5.511,5.511,0,0,0-.887-4.6,5.652,5.652,0,0,0-4.213-2.317,3.854,3.854,0,0,1-3.295-2.354A5.609,5.609,0,0,0,36.455.283,5.7,5.7,0,0,0,31.69.85a3.917,3.917,0,0,1-4.084,0A5.7,5.7,0,0,0,22.84.283a5.61,5.61,0,0,0-3.467,3.208,3.857,3.857,0,0,1-3.3,2.354,5.646,5.646,0,0,0-4.2,2.317,5.515,5.515,0,0,0-.884,4.609,3.748,3.748,0,0,1-1.262,3.8,5.529,5.529,0,0,0,.011,8.561,3.747,3.747,0,0,1,1.248,3.8,5.511,5.511,0,0,0,.887,4.6,5.609,5.609,0,0,0,1.654,1.509L6.969,52.259a.906.906,0,0,0,1.153,1.175l7.135-2.565,3.626,6.658a.906.906,0,0,0,.8.473l.061,0a.906.906,0,0,0,.786-.582L26.659,41.3a5.706,5.706,0,0,0,.947-.462,3.917,3.917,0,0,1,4.083,0h0a5.7,5.7,0,0,0,.944.455L38.77,57.416a.906.906,0,0,0,.786.582l.061,0a.906.906,0,0,0,.8-.473l3.626-6.658,7.135,2.565a.906.906,0,0,0,1.153-1.175ZM19.533,54.93l-3.055-5.61a.907.907,0,0,0-1.1-.42L9.363,51.062,15.2,35.708a5.782,5.782,0,0,0,.875.135A3.854,3.854,0,0,1,19.374,38.2a5.609,5.609,0,0,0,3.468,3.208,5.729,5.729,0,0,0,1.733.277ZM26.653,39.3a3.884,3.884,0,0,1-3.251.386,3.8,3.8,0,0,1-2.351-2.171,5.681,5.681,0,0,0-4.859-3.476,3.84,3.84,0,0,1-2.86-1.573,3.706,3.706,0,0,1-.594-3.1,5.57,5.57,0,0,0-1.866-5.639,3.717,3.717,0,0,1,.011-5.766,5.57,5.57,0,0,0,1.852-5.641,3.7,3.7,0,0,1,.6-3.09A3.846,3.846,0,0,1,16.2,7.653a5.678,5.678,0,0,0,4.849-3.476A3.8,3.8,0,0,1,23.4,2.007a3.889,3.889,0,0,1,3.252.386,5.746,5.746,0,0,0,5.989,0,3.888,3.888,0,0,1,3.251-.386,3.8,3.8,0,0,1,2.351,2.171A5.681,5.681,0,0,0,43.1,7.654a3.84,3.84,0,0,1,2.86,1.573,3.706,3.706,0,0,1,.594,3.1,5.57,5.57,0,0,0,1.866,5.639,3.717,3.717,0,0,1-.011,5.766,5.57,5.57,0,0,0-1.853,5.64,3.7,3.7,0,0,1-.6,3.09,3.846,3.846,0,0,1-2.869,1.574,5.678,5.678,0,0,0-4.849,3.476,3.8,3.8,0,0,1-2.351,2.17,3.881,3.881,0,0,1-3.252-.386,5.746,5.746,0,0,0-5.989,0ZM43.92,48.9a.906.906,0,0,0-1.1.42l-3.055,5.61L34.722,41.684a5.732,5.732,0,0,0,1.732-.279A5.612,5.612,0,0,0,39.923,38.2a3.854,3.854,0,0,1,3.3-2.354,5.731,5.731,0,0,0,.867-.134l5.84,15.353Z" transform="translate(0)" fill="#3d3d3d"/>
    <path id="Path_44211" data-name="Path 44211" d="M44.188,21.594A13.594,13.594,0,1,0,30.594,35.188,13.594,13.594,0,0,0,44.188,21.594ZM30.594,33.375A11.781,11.781,0,1,1,42.375,21.594,11.781,11.781,0,0,1,30.594,33.375Z" transform="translate(-0.946 -0.75)" fill="#3d3d3d"/>
    <path id="Path_44212" data-name="Path 44212" d="M38.382,19.156l-4.419-.642-1.976-4a.943.943,0,0,0-1.625,0l-1.976,4-4.419.642a.906.906,0,0,0-.5,1.546l3.2,3.117-.755,4.4a.906.906,0,0,0,1.314.955L31.174,27.1l3.952,2.078a.906.906,0,0,0,1.314-.955l-.755-4.4,3.2-3.117a.906.906,0,0,0-.5-1.546Zm-4.3,3.7a.907.907,0,0,0-.26.8l.525,3.06L31.6,25.271a.905.905,0,0,0-.843,0L28,26.715l.525-3.06a.907.907,0,0,0-.26-.8l-2.224-2.167,3.073-.447a.905.905,0,0,0,.682-.5l1.374-2.784,1.374,2.784a.905.905,0,0,0,.682.5l3.073.447Z" transform="translate(-1.526 -1.317)" fill="#3d3d3d"/>
  </g>
</svg>
