<svg xmlns="http://www.w3.org/2000/svg" width="59.998" height="59.998" viewBox="0 0 59.998 59.998">
  <g id="ic_microservice" transform="translate(-0.001 -0.001)">
    <path id="Path_44223" data-name="Path 44223" d="M55,25a5.009,5.009,0,0,0-4.9,4H41V24.188a1.836,1.836,0,0,0-.9-1.588l-.809-.472,5.635-5.635a5,5,0,1,0-1.414-1.414L37.5,21.088,31,17.3V9.9a5,5,0,1,0-2,0v7.4l-6.5,3.784-6.009-6.009a5,5,0,1,0-1.414,1.414l5.635,5.635-.806.47A1.838,1.838,0,0,0,19,24.188V29H9.9a5,5,0,1,0,0,2H19v4.812a1.836,1.836,0,0,0,.9,1.588l.809.472-5.635,5.635a5,5,0,1,0,1.414,1.414L22.5,38.912,29,42.7v7.4a5,5,0,1,0,2,0V42.7l6.5-3.784,6.009,6.009a5,5,0,1,0,1.414-1.414l-5.635-5.635.806-.47A1.838,1.838,0,0,0,41,35.812V31h9.1A5,5,0,1,0,55,25ZM45.557,10.2A3,3,0,1,1,49.8,14.443a3.072,3.072,0,0,1-4.242,0,3,3,0,0,1,0-4.242ZM10.2,14.443a3,3,0,1,1,4.242,0,3.072,3.072,0,0,1-4.242,0ZM5,33a3,3,0,1,1,3-3A3,3,0,0,1,5,33Zm9.443,16.8a3.072,3.072,0,0,1-4.242,0,3,3,0,1,1,4.242,0ZM49.8,45.557a3,3,0,0,1,0,4.242,3.072,3.072,0,0,1-4.242,0A3,3,0,1,1,49.8,45.557ZM30,28.831l-8.244-5L30,19.035l8.251,4.805Zm-9-3.114,8,4.847v9.819l-8-4.659Zm10,4.847,8-4.839v10l-8,4.659ZM27,5a3,3,0,1,1,3,3A3,3,0,0,1,27,5Zm6,50a3,3,0,1,1-3-3A3,3,0,0,1,33,55ZM55,33a3,3,0,1,1,3-3A3,3,0,0,1,55,33Z" fill="#6ec1b6"/>
    <path id="Path_44224" data-name="Path 44224" d="M30.444,22.453a1,1,0,0,0-1.374-.335l-1.69,1.028a1,1,0,1,0,1.039,1.708l1.69-1.027a1,1,0,0,0,.335-1.374Z" fill="#6ec1b6"/>
    <path id="Path_44225" data-name="Path 44225" d="M24,30a1,1,0,0,0-1,1v3a1,1,0,0,0,2,0V31A1,1,0,0,0,24,30Z" fill="#6ec1b6"/>
  </g>
</svg>
