<svg xmlns="http://www.w3.org/2000/svg" width="51.099" height="58" viewBox="0 0 51.099 58">
  <g id="save-money" transform="translate(-0.36)">
    <path id="Path_44204" data-name="Path 44204" d="M190.18,161.173a.906.906,0,0,0-.326-.011,2.163,2.163,0,0,1-1.913-2.145.951.951,0,0,0-1.9,0,4.07,4.07,0,0,0,2.993,3.919v.951a.951.951,0,1,0,1.9,0v-.894a4.063,4.063,0,0,0-.832-8.039,2.16,2.16,0,1,1,2.16-2.16.951.951,0,1,0,1.9,0,4.07,4.07,0,0,0-3.23-3.977v-.866a.951.951,0,1,0-1.9,0v.924a4.062,4.062,0,0,0,1.07,7.981,2.159,2.159,0,0,1,.079,4.316Zm0,0" transform="translate(-163.597 -129.519)" fill="#3d3d3d"/>
    <path id="Path_44205" data-name="Path 44205" d="M104.195,120.288a13.8,13.8,0,1,0,13.8-13.8A13.8,13.8,0,0,0,104.195,120.288Zm13.8-11.893A11.893,11.893,0,1,1,106.1,120.288,11.893,11.893,0,0,1,117.991,108.395Zm0,0" transform="translate(-91.487 -93.828)" fill="#3d3d3d"/>
    <path id="Path_44206" data-name="Path 44206" d="M44.989,330.146l-7.453,3.521a6.07,6.07,0,0,0-5.175-3.193l-6.88-.189a7.266,7.266,0,0,1-3.127-.807l-.7-.363a12.348,12.348,0,0,0-11.437.012l.044-1.586a.951.951,0,0,0-.925-.977l-7.544-.208a.951.951,0,0,0-.977.925L.36,343.836a.951.951,0,0,0,.925.977l7.544.208h.026a.951.951,0,0,0,.951-.925l.022-.792,1.96-1.049a3.362,3.362,0,0,1,2.509-.275L26,345.265l.062.015a12.528,12.528,0,0,0,2.572.265,12.694,12.694,0,0,0,5.3-1.157.883.883,0,0,0,.118-.065l16.969-10.976a.952.952,0,0,0,.312-1.267,4.806,4.806,0,0,0-6.346-1.933Zm-42.7,12.792.4-14.653,5.642.155-.4,14.654Zm30.792-.249a10.786,10.786,0,0,1-6.6.736l-11.672-3.276a5.261,5.261,0,0,0-3.922.429l-1,.537.268-9.743a10.458,10.458,0,0,1,10.624-.567l.7.363a9.189,9.189,0,0,0,3.949,1.02l6.88.189a4.173,4.173,0,0,1,3.966,3.325l-10.248-.283a.952.952,0,0,0-.052,1.9l11.31.311h.026a.951.951,0,0,0,.95-.925,6.038,6.038,0,0,0-.092-1.234l7.644-3.612.022-.011a2.907,2.907,0,0,1,3.287.46Zm0,0" transform="translate(0 -287.545)" fill="#3d3d3d"/>
    <path id="Path_44207" data-name="Path 44207" d="M214.106,9.989V.951a.951.951,0,0,0-1.9,0V9.989a.951.951,0,0,0,1.9,0Zm0,0" transform="translate(-186.651)" fill="#3d3d3d"/>
    <path id="Path_44208" data-name="Path 44208" d="M274.106,45.233V40.951a.951.951,0,1,0-1.9,0v4.281a.951.951,0,0,0,1.9,0Zm0,0" transform="translate(-239.515 -35.243)" fill="#3d3d3d"/>
    <path id="Path_44209" data-name="Path 44209" d="M154.106,45.233V40.951a.951.951,0,1,0-1.9,0v4.281a.951.951,0,0,0,1.9,0Zm0,0" transform="translate(-133.786 -35.243)" fill="#3d3d3d"/>
  </g>
</svg>
