<svg id="shogun" xmlns="http://www.w3.org/2000/svg" xmlns:xlink="http://www.w3.org/1999/xlink" width="96.139" height="34" viewBox="0 0 96.139 34">
  <defs>
    <clipPath id="clip-path">
      <rect id="Rectangle_19837" data-name="Rectangle 19837" width="96.139" height="34" fill="none"/>
    </clipPath>
  </defs>
  <g id="Group_57186" data-name="Group 57186" clip-path="url(#clip-path)">
    <path id="Path_43606" data-name="Path 43606" d="M29,24.284H25.891a1.111,1.111,0,0,1-1.127-1.245V15.13a2.752,2.752,0,0,0-2.893-3.02,3.824,3.824,0,0,0-3.383,2.115v9.529a.456.456,0,0,1-.365.5.181.181,0,0,1-.122.031H14.556a.368.368,0,0,1-.274-.093.527.527,0,0,1-.183-.436V3.333a9.694,9.694,0,0,0-.2-2.038,4.088,4.088,0,0,1-.1-.765A.463.463,0,0,1,14.282,0h2.833c.914,0,1.371.436,1.371,1.4v9.4a6.257,6.257,0,0,1,5.058-2.616c3.108,0,5.607,2.024,5.607,5.916v7.285a16.581,16.581,0,0,0,.117,1.9c.012.117.024.23.035.342.091.342-.031.654-.305.654M1.218,19.989a.54.54,0,0,1,.793-.218A10.353,10.353,0,0,0,6.4,20.985c1.249,0,1.95-.561,1.95-1.245,0-.983-1.037-1.3-3.023-1.9l-.085-.026C2.254,16.874.4,15.473.365,12.92c0-2.678,1.981-4.732,5.972-4.732a9.217,9.217,0,0,1,5.21,1.588c.335.187.426.436.3.686L10.511,12.64a.535.535,0,0,1-.731.187,7.366,7.366,0,0,0-3.534-1c-1.584,0-1.95.717-1.95,1.214,0,.9,1.158,1.245,2.59,1.65,3.687,1.025,5.636,2.366,5.636,5.043,0,3.237-2.8,4.794-6.217,4.794A10.973,10.973,0,0,1,.184,22.666a.513.513,0,0,1-.123-.655Zm77.574,3.8V8.935a.479.479,0,0,0-.488-.529H74.891a.513.513,0,0,0-.488.529v9.524a3.858,3.858,0,0,1-3.382,2.115,2.752,2.752,0,0,1-2.894-3.021v-7.9a1.118,1.118,0,0,0-1.158-1.245H63.894c-.274,0-.4.311-.335.654a14.044,14.044,0,0,1,.183,2.243v7.284c0,3.891,2.5,5.916,5.606,5.916A6.211,6.211,0,0,0,74.4,21.887v1.9a.454.454,0,0,0,.488.5h3.442a.463.463,0,0,0,.457-.5m17.025.5H92.71a1.111,1.111,0,0,1-1.127-1.245V15.13a2.76,2.76,0,0,0-2.925-3.02,3.9,3.9,0,0,0-3.383,2.115v9.529a.49.49,0,0,1-.456.529H81.376a.477.477,0,0,1-.487-.529V8.9a.481.481,0,0,1,.456-.5h3.474c.3,0,.456.187.456.5v1.9a6.272,6.272,0,0,1,5.088-2.616c3.076,0,5.606,2.024,5.606,5.916v7.285a14.555,14.555,0,0,0,.152,2.243c.061.342-.061.654-.3.654M47.574,27.031a.8.8,0,0,1,.788-.205l1.775.5a.85.85,0,0,1,.6.838v.007c0,1.62,1.767,2.115,4.113,2.115,1.736,0,3.412-.592,3.412-1.93,0-.592-.305-1.154-1.554-1.37l-1.964-.341h-.006l-.372-.064c-1.768-.312-3.721-.735-4.751-.961a7.7,7.7,0,0,1-.862-.269A2.841,2.841,0,0,1,46.6,22.665a2.737,2.737,0,0,1,3.141-2.739,6.4,6.4,0,0,1-2.1-4.7c-.064-3.954,2.834-7,7.282-7a15.42,15.42,0,0,1,2.034.164,19.818,19.818,0,0,0,4.761.116A.44.44,0,0,1,62.2,9l-.122,1.868a3.973,3.973,0,0,1-2.163.436,5.448,5.448,0,0,1,2.041,4.483c0,3.954-3.141,6.537-7.007,6.507a7.25,7.25,0,0,1-2.831-.6h0q-.158-.062-.306-.117c-1.218-.342-1.645.125-1.645.623,0,.693.916.833,2.3,1.04l.135.021,4.661.685c3.625.56,5.636,1.588,5.636,4.422,0,4.141-4.053,5.7-8.5,5.635-4.272-.033-7.744-1.591-7.744-4.643a3.186,3.186,0,0,1,.917-2.328m7.187-15.046a3.1,3.1,0,0,1,3.168,3.269,3.017,3.017,0,0,1-3.108,3.2,3.129,3.129,0,0,1-3.229-3.269,3.076,3.076,0,0,1,3.168-3.2M38.449,8.036a7.983,7.983,0,0,0-8.26,8.222,7.975,7.975,0,0,0,8.26,8.191,7.968,7.968,0,0,0,8.23-8.191,7.976,7.976,0,0,0-8.23-8.222m4.191,8.222a4.211,4.211,0,1,0-8.413,0,4.21,4.21,0,1,0,8.413,0m3.333-12.9a1.782,1.782,0,0,1-1.41,2.073,33.182,33.182,0,0,1-5.975.517,36.548,36.548,0,0,1-6.3-.519,1.783,1.783,0,0,1-1.4-2.082,1.749,1.749,0,0,1,2.043-1.429,34.074,34.074,0,0,0,11.011,0,1.75,1.75,0,0,1,2.03,1.438" transform="translate(0.002)" fill-rule="evenodd"/>
  </g>
</svg>
