<svg xmlns="http://www.w3.org/2000/svg" width="57.134" height="40" viewBox="0 0 57.134 40">
  <g id="Salesforce" transform="translate(0.24 -0.552)">
    <path id="Path_44416" data-name="Path 44416" d="M23.534,4.908A10.014,10.014,0,0,1,30.777,1.8a10.115,10.115,0,0,1,8.818,5.228,12.177,12.177,0,0,1,4.976-1.06,12.429,12.429,0,1,1-2.435,24.616,9,9,0,0,1-11.8,3.712,10.266,10.266,0,0,1-19.084-.462,9.468,9.468,0,0,1-1.961.2A9.587,9.587,0,0,1-.24,24.4a9.684,9.684,0,0,1,4.766-8.356A11.1,11.1,0,0,1,23.536,4.919" transform="translate(0 0)" fill-rule="evenodd"/>
    <path id="Path_44417" data-name="Path 44417" d="M39.351,81.734c-.036.094.013.113.024.13a3.607,3.607,0,0,0,.325.2,3.49,3.49,0,0,0,1.709.4c1.171,0,1.9-.624,1.9-1.627v-.02c0-.928-.823-1.266-1.591-1.507l-.1-.033c-.582-.189-1.083-.353-1.083-.735v-.02c0-.328.294-.569.747-.569a3.385,3.385,0,0,1,1.488.38s.114.073.155-.036c.022-.059.218-.584.239-.642a.109.109,0,0,0-.057-.132,3.318,3.318,0,0,0-1.68-.451h-.117a1.638,1.638,0,0,0-1.822,1.577v.02c0,.978.827,1.3,1.6,1.518l.124.039c.563.173,1.05.323,1.05.718v.02c0,.363-.317.634-.825.634a2.767,2.767,0,0,1-1.509-.435c-.083-.048-.13-.083-.193-.122a.094.094,0,0,0-.154.053l-.231.642m17.152,0c-.036.094.013.113.025.13a3.552,3.552,0,0,0,.325.2,3.49,3.49,0,0,0,1.709.4c1.171,0,1.9-.624,1.9-1.627v-.02c0-.928-.821-1.266-1.591-1.507l-.1-.033c-.582-.189-1.083-.353-1.083-.735v-.02c0-.328.294-.569.747-.569a3.392,3.392,0,0,1,1.488.38s.114.073.155-.036c.022-.059.218-.584.237-.642a.109.109,0,0,0-.057-.132,3.318,3.318,0,0,0-1.68-.451h-.117a1.638,1.638,0,0,0-1.822,1.577v.02c0,.978.827,1.3,1.6,1.518l.124.039c.565.173,1.05.323,1.05.718v.02c0,.363-.317.634-.825.634a2.762,2.762,0,0,1-1.509-.435c-.083-.048-.131-.081-.193-.122a.1.1,0,0,0-.154.053l-.231.642m11.715-1.965A2.431,2.431,0,0,1,67.9,81.1a1.205,1.205,0,0,1-1.9,0,3.011,3.011,0,0,1,0-2.656,1.041,1.041,0,0,1,.949-.46,1.054,1.054,0,0,1,.953.46,2.387,2.387,0,0,1,.313,1.325m.978-1.052a2.363,2.363,0,0,0-.445-.85A2.131,2.131,0,0,0,68,77.294a2.729,2.729,0,0,0-2.1,0,2.158,2.158,0,0,0-.752.571,2.372,2.372,0,0,0-.445.85,3.913,3.913,0,0,0,0,2.1,2.356,2.356,0,0,0,.445.85,2.115,2.115,0,0,0,.752.567,2.781,2.781,0,0,0,2.1,0,2.108,2.108,0,0,0,.752-.567,2.369,2.369,0,0,0,.445-.85,3.918,3.918,0,0,0,0-2.1M77.232,81.4a.093.093,0,0,0-.125-.059,2.244,2.244,0,0,1-.456.13,3.484,3.484,0,0,1-.535.038A1.489,1.489,0,0,1,75,81.092a1.865,1.865,0,0,1-.42-1.337,2.076,2.076,0,0,1,.376-1.289,1.28,1.28,0,0,1,1.085-.479,3.283,3.283,0,0,1,1.035.148s.077.033.113-.068c.086-.237.149-.407.241-.668a.088.088,0,0,0-.061-.115,3.809,3.809,0,0,0-.653-.165,4.926,4.926,0,0,0-.735-.049,2.662,2.662,0,0,0-1.09.21,2.254,2.254,0,0,0-.787.571,2.426,2.426,0,0,0-.477.85,3.38,3.38,0,0,0-.16,1.054,2.819,2.819,0,0,0,.651,1.948,2.471,2.471,0,0,0,1.931.726,3.967,3.967,0,0,0,1.386-.248.089.089,0,0,0,.04-.116l-.241-.663m1.711-2.183a1.906,1.906,0,0,1,.269-.781,1.054,1.054,0,0,1,.947-.481,1.027,1.027,0,0,1,.928.481,1.622,1.622,0,0,1,.218.781H78.933Zm3.3-.693a2.075,2.075,0,0,0-.424-.775,1.935,1.935,0,0,0-.63-.479,2.415,2.415,0,0,0-.949-.193,2.6,2.6,0,0,0-1.094.212,2.181,2.181,0,0,0-.762.582,2.392,2.392,0,0,0-.449.861,3.721,3.721,0,0,0-.145,1.056,3.572,3.572,0,0,0,.15,1.058,2.128,2.128,0,0,0,1.314,1.394,3.321,3.321,0,0,0,1.2.195,3.434,3.434,0,0,0,1.667-.332c.037-.021.071-.056.028-.158l-.216-.607a.1.1,0,0,0-.125-.058,3.172,3.172,0,0,1-1.36.246,1.355,1.355,0,0,1-1.518-1.493l3.317,0a.1.1,0,0,0,.1-.086,3.543,3.543,0,0,0-.1-1.426Zm-29.812.693a1.909,1.909,0,0,1,.269-.781,1.054,1.054,0,0,1,.947-.481,1.027,1.027,0,0,1,.928.481,1.627,1.627,0,0,1,.218.781H52.418Zm3.3-.693a2.072,2.072,0,0,0-.424-.775,1.935,1.935,0,0,0-.63-.479,2.414,2.414,0,0,0-.949-.193,2.6,2.6,0,0,0-1.094.212,2.18,2.18,0,0,0-.762.582,2.4,2.4,0,0,0-.449.861,3.729,3.729,0,0,0-.145,1.056,3.551,3.551,0,0,0,.15,1.058,2.119,2.119,0,0,0,1.312,1.394,3.313,3.313,0,0,0,1.2.195,3.434,3.434,0,0,0,1.667-.332c.037-.021.071-.056.028-.158l-.216-.607a.1.1,0,0,0-.125-.058,3.172,3.172,0,0,1-1.36.246,1.355,1.355,0,0,1-1.518-1.493l3.317,0a.1.1,0,0,0,.1-.086,3.541,3.541,0,0,0-.1-1.426ZM45.269,81.382a.646.646,0,0,1-.191-.2.792.792,0,0,1-.1-.43.725.725,0,0,1,.3-.64,1.49,1.49,0,0,1,.962-.239,6.717,6.717,0,0,1,.9.077v1.505h0a6.692,6.692,0,0,1-.894.119,1.486,1.486,0,0,1-.97-.193Zm1.318-2.33c-.134-.01-.309-.015-.516-.015a3.127,3.127,0,0,0-.815.1,2.123,2.123,0,0,0-.691.321,1.545,1.545,0,0,0-.658,1.31,1.726,1.726,0,0,0,.152.756,1.373,1.373,0,0,0,.432.519,1.812,1.812,0,0,0,.674.292,3.964,3.964,0,0,0,.878.089,6.064,6.064,0,0,0,1.006-.084q.418-.072.833-.162c.11-.025.233-.059.233-.059a.1.1,0,0,0,.076-.108l0-3.023a1.85,1.85,0,0,0-.527-1.461,2.252,2.252,0,0,0-1.52-.458,5.459,5.459,0,0,0-.888.082,3.189,3.189,0,0,0-1.02.374.1.1,0,0,0-.03.132l.235.63a.084.084,0,0,0,.109.054.426.426,0,0,0,.054-.027,3.359,3.359,0,0,1,1.442-.336,1.339,1.339,0,0,1,.819.214c.181.139.273.349.273.789v.14c-.283-.041-.546-.065-.546-.065ZM73.25,77.345a.09.09,0,0,0-.05-.119,2.916,2.916,0,0,0-.554-.094,1.643,1.643,0,0,0-.854.137,1.468,1.468,0,0,0-.558.414v-.4a.1.1,0,0,0-.1-.1H70.29a.1.1,0,0,0-.095.1v4.934a.1.1,0,0,0,.1.1h.869a.1.1,0,0,0,.1-.1V79.735a2.9,2.9,0,0,1,.109-.869,1.246,1.246,0,0,1,.29-.487,1.006,1.006,0,0,1,.409-.246,1.613,1.613,0,0,1,.445-.063,1.861,1.861,0,0,1,.363.045c.064.007.1-.032.121-.089.057-.151.218-.6.25-.695" transform="translate(-31.269 -60.45)" fill="#fffffe" fill-rule="evenodd"/>
    <path id="Path_44418" data-name="Path 44418" d="M102.5,67.124a2.783,2.783,0,0,0-.327-.078,2.565,2.565,0,0,0-.45-.035,1.9,1.9,0,0,0-1.4.5,2.737,2.737,0,0,0-.666,1.5l-.041.224h-.752a.111.111,0,0,0-.111.1l-.123.689c-.009.066.02.107.108.107h.732l-.743,4.145a5.2,5.2,0,0,1-.2.816,1.675,1.675,0,0,1-.231.471.614.614,0,0,1-.3.234,1.227,1.227,0,0,1-.39.056,1.508,1.508,0,0,1-.266-.029.79.79,0,0,1-.179-.058.091.091,0,0,0-.12.053c-.028.07-.223.607-.246.673a.1.1,0,0,0,.051.132,2.474,2.474,0,0,0,.3.088,2,2,0,0,0,.485.046,2.421,2.421,0,0,0,.813-.126,1.522,1.522,0,0,0,.612-.427,2.2,2.2,0,0,0,.43-.741,6.322,6.322,0,0,0,.291-1.113l.746-4.222h1.091a.112.112,0,0,0,.111-.1l.123-.689c.009-.066-.02-.107-.108-.107h-1.059a4.494,4.494,0,0,1,.175-.747.961.961,0,0,1,.232-.353.687.687,0,0,1,.277-.173,1.15,1.15,0,0,1,.355-.051,1.384,1.384,0,0,1,.272.028c.1.022.143.033.169.041.108.033.122,0,.144-.051l.253-.7a.088.088,0,0,0-.061-.115m-14.8,7.163a.1.1,0,0,1-.095.1h-.878a.1.1,0,0,1-.1-.1V67.218a.1.1,0,0,1,.1-.1h.878a.1.1,0,0,1,.095.1v7.068" transform="translate(-68.639 -52.507)" fill="#fffffe" fill-rule="evenodd"/>
  </g>
</svg>
