<svg xmlns="http://www.w3.org/2000/svg" width="107.204" height="24" viewBox="0 0 107.204 24">
  <g id="SAP_Business_One" data-name="SAP Business One" transform="translate(-78.6 -157.84)">
    <path id="Path_44484" data-name="Path 44484" d="M122.99,169.129h-1.645v-6.012h1.645c2.189,0,3.941.73,3.941,2.982,0,2.306-1.747,3.03-3.941,3.03m-17.684,4.308a6.69,6.69,0,0,1-2.4-.431l2.364-7.466h.053l2.322,7.492A7,7,0,0,1,105.305,173.437Zm17.243-15.2h-7.466v17.743l-6.523-17.743H102.1l-5.57,14.836c-.586-3.738-4.462-5.027-7.508-6-2.018-.639-4.148-1.6-4.127-2.647.016-.857,1.15-1.656,3.381-1.539a12.3,12.3,0,0,1,5.464,1.475l2.593-4.516a20.317,20.317,0,0,0-8.456-2.008h-.021a10.278,10.278,0,0,0-7.466,2.732,6.33,6.33,0,0,0-1.784,4.351,5.844,5.844,0,0,0,2.561,5.219,17.538,17.538,0,0,0,5.075,2.322c2.071.639,3.765,1.2,3.744,2.4a1.708,1.708,0,0,1-.49,1.161,3.275,3.275,0,0,1-2.4.756,10.435,10.435,0,0,1-6.188-1.763L78.6,179.587a17.273,17.273,0,0,0,8.451,2.253h.383a10.194,10.194,0,0,0,6.427-2.162l.272-.229-.746,2h6.779l1.14-3.461a12.627,12.627,0,0,0,3.988.634,12.467,12.467,0,0,0,3.882-.6l1.1,3.429h11.055v-7.173h2.412c5.836,0,9.287-2.961,9.287-7.94C133.038,160.774,129.694,158.239,122.548,158.239Z" transform="translate(0)" fill-rule="evenodd"/>
    <path id="Path_44485" data-name="Path 44485" d="M201.976,160.663a1.932,1.932,0,0,1-1.161,1.826,2,2,0,0,1,1.619,1.986c0,1.464-1.2,2.242-3.014,2.242h-3.77V158.57H199.3c1.645.011,2.673.809,2.673,2.093m-1.427.234c0-.671-.511-1.049-1.427-1.049h-2.061v2.167h1.954C199.931,162.015,200.549,161.648,200.549,160.9Zm.453,3.429c0-.7-.548-1.108-1.677-1.108h-2.268v2.237h2.37C200.411,165.455,201,165.077,201,164.326Z" transform="translate(-54.72 -0.341)"/>
    <path id="Path_44486" data-name="Path 44486" d="M213.786,162.34h1.406v6.145h-1.406v-.953a2.223,2.223,0,0,1-1.922,1.081,2.114,2.114,0,0,1-2.194-2.359V162.34h1.411v3.493c0,.948.479,1.5,1.315,1.5a1.37,1.37,0,0,0,1.385-1.528V162.34" transform="translate(-61.275 -2.104)"/>
    <path id="Path_44487" data-name="Path 44487" d="M223.939,168.514a4.344,4.344,0,0,1-2.609-.921l.628-.959a3.4,3.4,0,0,0,2.013.756c.607,0,.953-.25.953-.66v-.021c0-.479-.655-.639-1.374-.868-.905-.25-1.922-.623-1.922-1.8v-.027a1.964,1.964,0,0,1,2.189-1.874,4.228,4.228,0,0,1,2.263.7l-.559,1a3.513,3.513,0,0,0-1.736-.58c-.548,0-.863.25-.863.618v.021c0,.447.66.623,1.385.863.895.277,1.906.687,1.906,1.789v.021c.005,1.294-1,1.938-2.274,1.938" transform="translate(-66.726 -2.01)"/>
    <path id="Path_44488" data-name="Path 44488" d="M233.662,159.4H232.15V158.06h1.512Zm-.048,7.088H232.2v-6.145h1.411Z" transform="translate(-71.784 -0.103)"/>
    <path id="Path_44489" data-name="Path 44489" d="M238.671,168.383H237.26v-6.145h1.411v.953a2.207,2.207,0,0,1,1.917-1.081,2.112,2.112,0,0,1,2.189,2.364v3.909h-1.411V164.89c0-.953-.479-1.5-1.315-1.5a1.368,1.368,0,0,0-1.385,1.528v3.467" transform="translate(-74.173 -1.996)"/>
    <path id="Path_44490" data-name="Path 44490" d="M252.269,167.356a2.235,2.235,0,0,0,1.661-.73l.825.73a3.113,3.113,0,0,1-2.513,1.15,3.212,3.212,0,0,1-.149-6.417c1.954,0,2.945,1.539,2.945,3.318l-.021.389H250.5a1.719,1.719,0,0,0,1.768,1.56m1.369-2.492a1.6,1.6,0,0,0-1.56-1.619,1.666,1.666,0,0,0-1.6,1.619Z" transform="translate(-79.703 -1.987)"/>
    <path id="Path_44491" data-name="Path 44491" d="M263.489,168.514a4.356,4.356,0,0,1-2.609-.921l.634-.959a3.416,3.416,0,0,0,2.013.756c.607,0,.959-.25.959-.66v-.021c0-.479-.655-.639-1.374-.868-.911-.25-1.922-.623-1.922-1.8v-.027a1.961,1.961,0,0,1,2.189-1.874,4.228,4.228,0,0,1,2.263.7l-.559,1a3.513,3.513,0,0,0-1.736-.58c-.548,0-.863.25-.863.618v.021c0,.447.666.623,1.385.863.9.277,1.917.687,1.917,1.789v.021c-.005,1.294-1.012,1.938-2.3,1.938" transform="translate(-85.215 -2.01)"/>
    <path id="Path_44492" data-name="Path 44492" d="M273.334,168.514a4.329,4.329,0,0,1-2.6-.921l.623-.959a3.43,3.43,0,0,0,2.018.756c.6,0,.953-.25.953-.66v-.021c0-.479-.65-.639-1.369-.868-.911-.25-1.922-.623-1.922-1.8v-.027a1.961,1.961,0,0,1,2.189-1.874,4.211,4.211,0,0,1,2.258.7l-.559,1a3.512,3.512,0,0,0-1.731-.58c-.548,0-.863.25-.863.618v.021c0,.447.666.623,1.385.863.9.277,1.912.687,1.912,1.789v.021c-.005,1.294-1.006,1.938-2.29,1.938" transform="translate(-89.82 -2.01)"/>
    <path id="Path_44493" data-name="Path 44493" d="M200.468,190.509a6.852,6.852,0,0,1-7.088-6.875V183.6a7.11,7.11,0,0,1,14.213-.037v.037a6.917,6.917,0,0,1-7.125,6.912m4.047-6.917a4.06,4.06,0,0,0-4.047-4.2,4,4,0,0,0-4.01,4.164v.037a4.06,4.06,0,0,0,4.047,4.2,4,4,0,0,0,4.01-4.164Z" transform="translate(-53.659 -8.812)"/>
    <path id="Path_44494" data-name="Path 44494" d="M228.725,193.046v-5.708c0-1.374-.65-2.082-1.757-2.082s-1.816.708-1.816,2.082v5.708h-2.9V182.812h2.9v1.454a3.641,3.641,0,0,1,3-1.645c2.2,0,3.472,1.454,3.472,3.8v6.624h-2.9" transform="translate(-67.156 -11.585)"/>
    <path id="Path_44495" data-name="Path 44495" d="M252.236,188.951h-7.125a2.375,2.375,0,0,0,2.5,2A3.358,3.358,0,0,0,250.1,189.9l1.661,1.47A5.4,5.4,0,0,1,242.23,188v-.032a5.1,5.1,0,0,1,5.059-5.336c3.419,0,4.984,2.657,4.984,5.559v.032a6.556,6.556,0,0,1-.037.73m-4.947-3.994a2.279,2.279,0,0,0-2.215,2.173h4.372A2.187,2.187,0,0,0,247.289,184.957Z" transform="translate(-76.496 -11.589)"/>
    <path id="Path_44496" data-name="Path 44496" d="M187.306,161.29a2.713,2.713,0,1,1-2.668-2.71,2.719,2.719,0,0,1,2.668,2.71m-4.809,0a2.093,2.093,0,1,0,2.119-2.109A2.1,2.1,0,0,0,182.5,161.29Zm.863-1.491h1.4c.868,0,1.257.234,1.257.767a.626.626,0,0,1-.533.671c.341.107.463.25.463.511v.341c0,.426.016.511.138.6H185.2l-.091-.351v-.426c0-.288-.085-.357-.426-.357h-.5v1.134h-.836V159.8Zm1.539,1.172.282-.282-.282-.3h-.708v.58Z" transform="translate(-48.283 -0.346)"/>
  </g>
</svg>
