<svg xmlns="http://www.w3.org/2000/svg" width="150" height="32.549" viewBox="0 0 150 32.549">
  <g id="akeneo-logo" transform="translate(-20.7 -256.8)">
    <path id="Path_44012" data-name="Path 44012" d="M184.143,305.575a3.413,3.413,0,0,0-1.05-2.875,4.873,4.873,0,0,0-3.05-.8,11.749,11.749,0,0,0-2.3.2,21.3,21.3,0,0,0-2.1.5,5.372,5.372,0,0,1-.675-2.775,15.666,15.666,0,0,1,2.65-.6,20.759,20.759,0,0,1,2.775-.225,7.863,7.863,0,0,1,5.35,1.6c1.225,1.075,1.825,2.775,1.825,5.125V317c-.825.2-1.825.375-3,.575a21.408,21.408,0,0,1-3.6.3,14.345,14.345,0,0,1-3.1-.325,6.189,6.189,0,0,1-2.35-1.025,4.682,4.682,0,0,1-1.5-1.775,5.985,5.985,0,0,1-.525-2.65,5.363,5.363,0,0,1,2.275-4.55,7.168,7.168,0,0,1,2.425-1.125,11.2,11.2,0,0,1,2.875-.375c.75,0,1.375.025,1.85.05a11.924,11.924,0,0,1,1.2.125l.025-.65Zm0,3.4c-.35-.05-.8-.1-1.325-.15s-1-.075-1.375-.075a5.882,5.882,0,0,0-3.325.8,2.864,2.864,0,0,0-1.15,2.45,3.145,3.145,0,0,0,.375,1.65,2.852,2.852,0,0,0,2.25,1.3,12.838,12.838,0,0,0,1.325.075,12.557,12.557,0,0,0,1.675-.1,10.226,10.226,0,0,0,1.525-.25l.025-5.7Z" transform="translate(-114.595 -31.65)"/>
    <path id="Path_44013" data-name="Path 44013" d="M250.1,269.325c.275-.05.575-.075.85-.1.325-.025.6-.025.85-.025s.55,0,.875.025c.3.025.6.05.875.1V295.1c-.3.05-.6.075-.875.1-.325.025-.625.025-.875.025-.275,0-.55,0-.85-.025s-.575-.05-.85-.1Zm3.55,16.424,6.625-8.675c.3-.05.6-.075.925-.1s.625-.025.95-.025c.35,0,.675,0,1,.025s.65.05.975.1L257.5,285.5l7.6,9.6c-.325.05-.65.075-.95.1s-.625.025-.95.025-.65,0-.975-.025l-.975-.075Z" transform="translate(-172.052 -9.3)"/>
    <path id="Path_44014" data-name="Path 44014" d="M319.493,309.357a5.9,5.9,0,0,0,1.525,4.325,6.007,6.007,0,0,0,4.3,1.375,13.433,13.433,0,0,0,4.75-.875,5.51,5.51,0,0,1,.45,1.275,10.35,10.35,0,0,1,.225,1.5,11.468,11.468,0,0,1-2.55.75,18.215,18.215,0,0,1-3.075.25,12.164,12.164,0,0,1-4.225-.675,7.474,7.474,0,0,1-4.575-4.875,11.934,11.934,0,0,1-.525-3.75,13.559,13.559,0,0,1,.5-3.75,8.349,8.349,0,0,1,1.575-3.025,7.578,7.578,0,0,1,2.65-2.05,8.572,8.572,0,0,1,3.775-.75,8.21,8.21,0,0,1,3.275.625,6.736,6.736,0,0,1,2.35,1.75,7.623,7.623,0,0,1,1.45,2.65,11.522,11.522,0,0,1,.5,3.325c0,.325,0,.675-.025,1.05s-.05.675-.075.925l-12.274-.05Zm8.925-2.6a6.782,6.782,0,0,0-.25-1.875,4.634,4.634,0,0,0-.775-1.575,3.846,3.846,0,0,0-1.3-1.075,4.023,4.023,0,0,0-1.875-.4,4.08,4.08,0,0,0-3.275,1.3,6.383,6.383,0,0,0-1.4,3.625Z" transform="translate(-221.321 -31.708)"/>
    <path id="Path_44015" data-name="Path 44015" d="M398.3,299.425c.25-.05.5-.075.75-.1s.5-.025.75-.025a7.027,7.027,0,0,1,.725.025c.225.025.45.05.725.1q.113.525.225,1.425a10.088,10.088,0,0,1,.1,1.5,8.189,8.189,0,0,1,.875-1.2,7.284,7.284,0,0,1,1.25-1.075A6.62,6.62,0,0,1,407.325,299a5.615,5.615,0,0,1,4.575,1.775,8.066,8.066,0,0,1,1.475,5.25v11.449c-.3.05-.6.075-.875.1-.325.025-.625.025-.875.025-.275,0-.55,0-.85-.025s-.575-.05-.85-.1V307a6.7,6.7,0,0,0-.775-3.675,2.739,2.739,0,0,0-2.45-1.175,5.306,5.306,0,0,0-1.875.35,4.281,4.281,0,0,0-1.55,1.1,5.394,5.394,0,0,0-1.075,1.925,8.4,8.4,0,0,0-.4,2.825v9.125c-.275.05-.575.075-.85.1-.325.025-.6.025-.85.025s-.55,0-.875-.025c-.3-.025-.6-.05-.875-.1V299.425Z" transform="translate(-283.204 -31.65)"/>
    <path id="Path_44016" data-name="Path 44016" d="M478.818,309.369a5.9,5.9,0,0,0,1.525,4.325,6.006,6.006,0,0,0,4.3,1.375,13.433,13.433,0,0,0,4.75-.875,5.511,5.511,0,0,1,.45,1.275,7.71,7.71,0,0,1,.2,1.5,10.893,10.893,0,0,1-2.525.75,18.221,18.221,0,0,1-3.075.25,12.163,12.163,0,0,1-4.225-.675,7.453,7.453,0,0,1-4.6-4.875,11.93,11.93,0,0,1-.525-3.75,13.561,13.561,0,0,1,.5-3.75,8.348,8.348,0,0,1,1.575-3.025,7.578,7.578,0,0,1,2.65-2.05,8.864,8.864,0,0,1,3.775-.75,8.21,8.21,0,0,1,3.275.625,6.735,6.735,0,0,1,2.35,1.75,7.622,7.622,0,0,1,1.45,2.65,11.522,11.522,0,0,1,.5,3.325c0,.325,0,.675-.025,1.05s-.05.675-.075.925l-12.25-.05Zm8.95-2.6a6.778,6.778,0,0,0-.25-1.875,4.634,4.634,0,0,0-.775-1.575,3.844,3.844,0,0,0-1.3-1.075,4.023,4.023,0,0,0-1.875-.4,4.08,4.08,0,0,0-3.275,1.3,6.383,6.383,0,0,0-1.4,3.625Z" transform="translate(-340.798 -31.72)"/>
    <path id="Path_44017" data-name="Path 44017" d="M561.806,317.855a8.965,8.965,0,0,1-3.7-.725,7.374,7.374,0,0,1-2.65-1.975,8.426,8.426,0,0,1-1.575-3,13.957,13.957,0,0,1,0-7.45,8.243,8.243,0,0,1,1.575-3,7.442,7.442,0,0,1,2.65-2,9.663,9.663,0,0,1,7.375,0,7.743,7.743,0,0,1,2.65,2,8.424,8.424,0,0,1,1.575,3,13.954,13.954,0,0,1,0,7.45,8.242,8.242,0,0,1-1.575,3,7.374,7.374,0,0,1-2.65,1.975A8.772,8.772,0,0,1,561.806,317.855Zm0-2.775a4.017,4.017,0,0,0,3.6-1.775,10.908,10.908,0,0,0,0-9.75,4,4,0,0,0-3.6-1.75,3.886,3.886,0,0,0-3.55,1.75,9.174,9.174,0,0,0-1.15,4.875,8.734,8.734,0,0,0,1.15,4.875,4.013,4.013,0,0,0,3.55,1.775Z" transform="translate(-399.512 -31.632)"/>
    <path id="Path_44018" data-name="Path 44018" d="M45.4,288.674c.125.4.225.65.25.75h0c-.6-8.5,4.325-11.874,6.05-17.449.025-.1.025-.175.05-.275.025-.125.075-.25.1-.375.275-1.55-.3-3.375-1.45-5.325v-.025c-.1-.15-.2-.325-.3-.475h0c-.2-.3-.4-.6-.6-.875l-.075-.1-.175-.25-.175-.25-.2-.25-.2-.25-.15-.175A42.1,42.1,0,0,0,41.8,256.9h0a40.968,40.968,0,0,1-.225,8.925,33.892,33.892,0,0,1-3.325,9.8,34.589,34.589,0,0,1-10-2.65A43.2,43.2,0,0,1,20.7,268.2c0,.275.05.525.075.8a.692.692,0,0,0,.025.225,4.464,4.464,0,0,0,.05.575.77.77,0,0,0,.025.25,4.523,4.523,0,0,0,.075.575.692.692,0,0,0,.025.225,7.214,7.214,0,0,0,.1.725v.075c.05.275.075.55.125.825v.05c.05.25.075.5.125.725l.025.15c.05.225.075.45.125.65a.225.225,0,0,0,.025.125c.05.25.1.5.175.75h0c.175.8.4,1.575.625,2.325v.025a23.361,23.361,0,0,0,1.325,3.4l.225.45h0c.075.125.125.25.2.375h0l.225.375h0l.025.05h0c.1.15.225.325.325.45l.05.075v.025c.125.175.25.325.375.475h0c.1.1.175.2.275.3l.125.125.175.175.125.125.175.15.15.1.175.125.15.1.2.125.125.075.3.075.1.05a1.96,1.96,0,0,0,.35.125l.2.075c5.6,1.675,11.175-.5,17.924,4.675" transform="translate(0 -0.075)" fill="#3d3d3d"/>
    <g id="Group_56975" data-name="Group 56975" transform="translate(20.725 256.8)">
      <path id="Path_44019" data-name="Path 44019" d="M94.225,265.725a33.893,33.893,0,0,1-3.325,9.8c6.325.725,12.449-.225,13.5-3.9,1.15-4.025-4.075-10.2-9.975-14.824A39.457,39.457,0,0,1,94.225,265.725Z" transform="translate(-73.376 -256.8)" fill="#cecece"/>
      <path id="Path_44020" data-name="Path 44020" d="M28.35,306.675A43.193,43.193,0,0,1,20.8,301.9c.55,7.475,2.8,15.249,6.8,16.524,3.65,1.175,7.85-3.4,10.75-9.075A33.85,33.85,0,0,1,28.35,306.675Z" transform="translate(-20.8 -290.625)" fill="#cecece"/>
    </g>
    <g id="Group_56976" data-name="Group 56976" transform="translate(20.725 256.8)">
      <path id="Path_44021" data-name="Path 44021" d="M33.374,313.749A22.669,22.669,0,0,1,20.8,301.9h0c.35,4.575,1.325,9.275,2.95,12.5.075.125.15.275.225.4v.025l.225.375.025.05c.075.125.15.25.225.35l.025.05.225.325.15.2.025.05.1.125c.075.1.175.225.25.325a5.1,5.1,0,0,0,2.35,1.675l.2.075c5.6,1.675,11.175-.5,17.924,4.675C45.2,322.474,40.424,316.374,33.374,313.749Z" transform="translate(-20.8 -290.625)"/>
      <path id="Path_44022" data-name="Path 44022" d="M115.075,271.624c1.15-4.025-4.075-10.2-9.975-14.824h0a22.822,22.822,0,0,1,2.85,17.049c-1.775,7.45.8,14.924,1,15.474h0c-.6-8.5,4.325-11.874,6.05-17.449C115.025,271.8,115.05,271.7,115.075,271.624Z" transform="translate(-84.026 -256.8)"/>
    </g>
  </g>
</svg>
