<svg id="fluent" xmlns="http://www.w3.org/2000/svg" width="177.637" height="34" viewBox="0 0 177.637 34">
  <path id="Path_44038" data-name="Path 44038" d="M2.023,8.832H0V6.52H2.023V4.037C2.023,1.793,2.652,0,5.772,0A7.837,7.837,0,0,1,7.735.289V2.482a15.75,15.75,0,0,0-1.7-.059C5.1,2.422,4.9,2.89,4.9,3.808V6.52h2.55V8.832H4.9V23.494H2.023Z"/>
  <path id="Path_44039" data-name="Path 44039" d="M11.608,23.545H14.49V.34H11.6Z" transform="translate(-1.74 -0.051)"/>
  <path id="Path_44040" data-name="Path 44040" d="M18.34,21.255V7.4h2.882V19.989c0,.637,0,2.55,2.142,2.55,1.556,0,2.3-1.7,2.3-3.119V7.4H28.5V24.6H25.7V22.581h0a4.012,4.012,0,0,1-3.749,2.431,3.5,3.5,0,0,1-3.578-3.757" transform="translate(-2.751 -1.925)"/>
  <path id="Path_44041" data-name="Path 44041" d="M40.986,14.262v-2.55a2.258,2.258,0,0,0-2.312-2.55,2.3,2.3,0,0,0-2.363,2.593v2.422h4.675ZM33.48,19.923v-7.65c0-3.3,2.023-5.313,5.431-5.313s4.845,2.193,4.845,5.253v4.131H36.37v3.349c0,1.7.578,2.771,2.363,2.771a2.193,2.193,0,0,0,2.312-2.431V18.826H43.7v.918c0,3.009-1.615,5.142-4.964,5.142s-5.253-1.615-5.253-4.964Z" transform="translate(-5.022 -1.824)"/>
  <path id="Path_44042" data-name="Path 44042" d="M48.62,7.329h2.771V9.292h.093a4.046,4.046,0,0,1,3.655-2.363,3.485,3.485,0,0,1,3.638,3.749V24.533h-2.89V11.893a2.118,2.118,0,0,0-2.133-2.482c-1.5,0-2.312,1.7-2.312,3.06v12H48.56Z" transform="translate(-10.204 -1.801)"/>
  <path id="Path_44043" data-name="Path 44043" d="M64.784,20.29V9.155H62.82V6.843l1.964-.119V2.686l2.89-1.326V6.673h3.06V9.1h-3.06V19.542c0,.808.11,1.7,1.556,1.7a6.511,6.511,0,0,0,1.445-.17v2.363a7.208,7.208,0,0,1-2.482.408c-2.66.051-3.349-1.385-3.4-3.587" transform="translate(-13.153 -0.204)"/>
  <path id="Path_44044" data-name="Path 44044" d="M75.386,20.115v-7.9c0-3.528,2.244-5.1,4.964-5.1s4.615,1.275,4.615,4.564v1.292h-1.9V11.921c0-1.615-.7-3.12-2.771-3.12a2.881,2.881,0,0,0-2.89,3.06v8.253c0,1.275.408,3.06,2.95,3.06a2.678,2.678,0,0,0,2.711-2.55V19.078h1.9V20.4a4.239,4.239,0,0,1-4.5,4.616c-3.4,0-5.1-1.437-5.1-4.9" transform="translate(-15.82 -1.862)"/>
  <path id="Path_44045" data-name="Path 44045" d="M96.85,20.048V11.914a2.669,2.669,0,0,0-2.882-3c-1.9,0-2.771,1.326-2.771,3.111v8.083c0,1.794.926,3.06,2.771,3.06S96.85,21.961,96.85,20.048Zm-7.65.119V12.024A4.621,4.621,0,0,1,94.164,7.06c3.264,0,4.794,2.082,4.794,4.624v8.024c0,3.111-1.615,5.3-4.9,5.3S89.2,23.456,89.2,20.167Z" transform="translate(-18.73 -1.851)"/>
  <path id="Path_44046" data-name="Path 44046" d="M103.29,7.466h2.023V9.429h.051a4.165,4.165,0,0,1,3.816-2.371,3.154,3.154,0,0,1,3.4,2.6c1.1-1.793,2.253-2.6,3.986-2.6,2.882,0,3.519,2.252,3.519,3.7V24.61h-2.074V11.792c0-.748.11-2.941-2.482-2.941-1.793,0-2.83,2.074-2.83,3.748V24.61h-2.083V11.444a2.281,2.281,0,0,0-2.482-2.592c-1.785,0-2.822,2.074-2.822,3.748V24.61H103.23Z" transform="translate(-21.929 -1.83)"/>
  <path id="Path_44047" data-name="Path 44047" d="M125.506,7.466h2.015V9.429h.1a4.156,4.156,0,0,1,3.808-2.372,3.162,3.162,0,0,1,3.4,2.6c1.1-1.794,2.252-2.6,3.927-2.6a3.409,3.409,0,0,1,3.579,3.7V24.61h-2.083V11.792c0-.748.119-2.941-2.482-2.941-1.7,0-2.822,2.074-2.822,3.748V24.61h-2.083V11.444a2.281,2.281,0,0,0-2.482-2.592c-1.785,0-2.83,2.074-2.83,3.748V24.61H125.48Z" transform="translate(-26.656 -1.831)"/>
  <path id="Path_44048" data-name="Path 44048" d="M155.454,14.659V11.854c0-1.7-.927-3.06-2.771-3.06a2.875,2.875,0,0,0-2.89,3.179v2.686Zm-7.743,5.6V12.313c0-3.349,1.853-5.253,5.2-5.253s4.556,2.253,4.556,5.253V16.3h-7.65v3.519c0,1.963.688,3.4,2.89,3.4a2.63,2.63,0,0,0,2.771-2.941V19.071h1.9v.748c0,3.06-1.385,5.253-4.675,5.253s-4.973-1.556-4.973-4.845Z" transform="translate(-31.016 -1.853)"/>
  <path id="Path_44049" data-name="Path 44049" d="M162,7.5h2.014v3.06h.119c.977-2.253,2.253-3.29,3.749-3.29a6.392,6.392,0,0,1,.986.051v2.2a3.018,3.018,0,0,0-1.275-.119c-2.423,0-3.519,3.927-3.519,6.061v9.18H162Z" transform="translate(-33.864 -1.881)"/>
  <path id="Path_44050" data-name="Path 44050" d="M171.887,20.115v-7.9c0-3.528,2.252-5.1,4.964-5.1s4.624,1.275,4.624,4.564v1.292h-1.913V11.921c0-1.615-.629-3.12-2.762-3.12a2.839,2.839,0,0,0-2.89,3.06v8.254c0,1.275.4,3.06,2.941,3.06a2.669,2.669,0,0,0,2.712-2.55V19.078h1.913V20.4a4.243,4.243,0,0,1-4.505,4.616c-3.4,0-5.1-1.437-5.1-4.9" transform="translate(-36.08 -1.862)"/>
  <path id="Path_44051" data-name="Path 44051" d="M193.353,14.659V11.854c0-1.7-.918-3.06-2.771-3.06a2.864,2.864,0,0,0-2.882,3.179v2.686Zm-7.65,5.6V12.313c0-3.349,1.844-5.253,5.193-5.253s4.564,2.253,4.564,5.253V16.3h-7.65v3.519c0,1.963.637,3.4,2.89,3.4a2.626,2.626,0,0,0,2.771-2.941V19.071H195.3v.748c0,3.06-1.386,5.253-4.616,5.253s-5.023-1.556-5.023-4.845Z" transform="translate(-40.595 -1.853)"/>
  <path id="Path_44052" data-name="Path 44052" d="M201.683,25.812a1.9,1.9,0,0,1,.977-2.482,1.836,1.836,0,0,1,.748-.17,1.9,1.9,0,0,1,0,3.808,1.819,1.819,0,0,1-1.326-.519,3.747,3.747,0,0,1-.4-.637" transform="translate(-42.975 -4.946)"/>
  <path id="Path_44053" data-name="Path 44053" d="M218.7,11.328H203.4a1.9,1.9,0,1,1,0-3.808h15.3a1.9,1.9,0,1,1,0,3.808" transform="translate(-42.971 -1.606)"/>
  <path id="Path_44054" data-name="Path 44054" d="M203.4,15.28h7.65a1.9,1.9,0,1,1,0,3.808H203.4a1.9,1.9,0,1,1,0-3.808" transform="translate(-42.971 -3.263)"/>
  <path id="Path_44055" data-name="Path 44055" d="M3.013,32.669a2.771,2.771,0,0,1,1.25.23,1.981,1.981,0,0,1,.85.637,2.8,2.8,0,0,1,.578,1.037A4.326,4.326,0,0,1,5.784,37.2a2.958,2.958,0,0,1-.578,1.037,2.023,2.023,0,0,1-.944.663,2.966,2.966,0,0,1-1.215.23A3,3,0,0,1,1.806,38.9a2.55,2.55,0,0,1-.944-.637A2.269,2.269,0,0,1,.3,37.2a4.165,4.165,0,0,1,0-2.652,4.684,4.684,0,0,1,.561-1.012,2.363,2.363,0,0,1,.926-.637,2.55,2.55,0,0,1,1.224-.23Zm0,5.593A1.521,1.521,0,0,0,4.4,37.633a2.6,2.6,0,0,0,.459-1.7,2.6,2.6,0,0,0-.459-1.7A1.861,1.861,0,0,0,3.013,33.6a1.785,1.785,0,0,0-.807.17,2.55,2.55,0,0,0-.578.459,1.87,1.87,0,0,0-.348.756,2.933,2.933,0,0,0-.111.978,5.534,5.534,0,0,0,.111.978,1.87,1.87,0,0,0,.349.757,2.338,2.338,0,0,0,.578.459,1.785,1.785,0,0,0,.807.1Z" transform="translate(-0.013 -7.339)"/>
  <path id="Path_44056" data-name="Path 44056" d="M8.56,39.018V32.779h.629c.119,0,.179,0,.238.059s.051.17.11.229l.059.986a2.754,2.754,0,0,1,.85-1.045,1.479,1.479,0,0,1,1.1-.34A1.411,1.411,0,0,1,12,32.72l.408.179-.119.85a.179.179,0,0,1-.17.17.578.578,0,0,1-.289-.051,2.082,2.082,0,0,0-.578-.059,1.555,1.555,0,0,0-.977.34,2.253,2.253,0,0,0-.637.986V39.12H8.56Z" transform="translate(-1.284 -7.339)"/>
  <path id="Path_44057" data-name="Path 44057" d="M18.636,38.53c-.11,0-.289-.119-.289-.229l-.128-.739a3.094,3.094,0,0,1-.926.757,2.669,2.669,0,0,1-1.156.289,1.836,1.836,0,0,1-.977-.238,2.3,2.3,0,0,1-.757-.578,2.159,2.159,0,0,1-.434-.995,5.525,5.525,0,0,1-.17-1.385,4.344,4.344,0,0,1,.17-1.25,4.6,4.6,0,0,1,.518-1.046,2.932,2.932,0,0,1,.85-.688,1.947,1.947,0,0,1,1.156-.229,2.643,2.643,0,0,1,.986.17,2.329,2.329,0,0,1,.748.519V29.41h1.1v9.061h-.637Zm-2.133-.85a1.7,1.7,0,0,0,.927-.23,3.034,3.034,0,0,0,.79-.654v-3a2.142,2.142,0,0,0-.638-.578,1.785,1.785,0,0,0-.807-.17,1.522,1.522,0,0,0-1.385.629,2.771,2.771,0,0,0-.459,1.793,6.137,6.137,0,0,0,.111,1.037,2.856,2.856,0,0,0,.289.7,1.267,1.267,0,0,0,.519.4,1.462,1.462,0,0,0,.672.119Z" transform="translate(-2.07 -6.851)"/>
  <path id="Path_44058" data-name="Path 44058" d="M24.741,32.67a3.2,3.2,0,0,1,1.046.17,2.474,2.474,0,0,1,.85.519,2.737,2.737,0,0,1,.519.85,4.607,4.607,0,0,1,.17,1.215.689.689,0,0,1-.06.34.28.28,0,0,1-.229.119H22.9a3.4,3.4,0,0,0,.17,1.037,2.048,2.048,0,0,0,.408.757,2.712,2.712,0,0,0,.638.459,1.284,1.284,0,0,0,.807.111,1.5,1.5,0,0,0,.688-.111,2.15,2.15,0,0,0,.519-.23.969.969,0,0,0,.348-.229.459.459,0,0,1,.229-.119.451.451,0,0,1,.238.119l.28.4a1.521,1.521,0,0,1-.459.408,1.938,1.938,0,0,1-.578.289l-.688.17a2.762,2.762,0,0,1-.7.06,3.043,3.043,0,0,1-1.207-.229,2.686,2.686,0,0,1-.927-.638,2.474,2.474,0,0,1-.638-1.037,4.089,4.089,0,0,1-.229-1.445,4.607,4.607,0,0,1,.17-1.215,3.451,3.451,0,0,1,.578-.978,3.511,3.511,0,0,1,.85-.7,10.081,10.081,0,0,1,1.343-.094Zm0,.808a1.7,1.7,0,0,0-1.267.459,2.15,2.15,0,0,0-.578,1.275h3.4a2.788,2.788,0,0,0-.119-.7,1.76,1.76,0,0,0-.289-.578.85.85,0,0,0-.518-.348,2.711,2.711,0,0,0-.637-.111Z" transform="translate(-3.27 -7.34)"/>
  <path id="Path_44059" data-name="Path 44059" d="M29.88,39.019V32.78h.578c.059,0,.178,0,.23.06a.425.425,0,0,1,.119.229l.025.986a2.754,2.754,0,0,1,.85-1.046,1.776,1.776,0,0,1,1.1-.34,1.411,1.411,0,0,1,.459.051l.408.178-.119.85a.179.179,0,0,1-.17.17.561.561,0,0,1-.289-.051,1.777,1.777,0,0,0-1.5.281,2.252,2.252,0,0,0-.638.986v3.986Z" transform="translate(-4.482 -7.34)"/>
  <path id="Path_44060" data-name="Path 44060" d="M38.37,39.019V32.78h.638c.111,0,.289.06.289.229l.059.637a2.72,2.72,0,0,1,.748-.688,1.9,1.9,0,0,1,.978-.289,1.742,1.742,0,0,1,1.045.34,1.912,1.912,0,0,1,.578.986,1.156,1.156,0,0,1,.34-.578,1.7,1.7,0,0,1,.467-.408,1.785,1.785,0,0,1,.578-.229,1.862,1.862,0,0,1,.569-.059,2.261,2.261,0,0,1,.85.179,1.59,1.59,0,0,1,.637.459,2.015,2.015,0,0,1,.408.748,2.049,2.049,0,0,1,.11.986v3.986h-1.08V35.092a1.7,1.7,0,0,0-.348-1.1,1.148,1.148,0,0,0-.918-.408,1.59,1.59,0,0,0-.518.119,1.02,1.02,0,0,0-.408.289,1.207,1.207,0,0,0-.289.459,2.388,2.388,0,0,0-.111.638v3.986H41.949V35.092A1.436,1.436,0,0,0,41.66,34a.986.986,0,0,0-.85-.348,1.165,1.165,0,0,0-.748.229,3.4,3.4,0,0,0-.637.578V39.13Z" transform="translate(-8.039 -7.34)"/>
  <path id="Path_44061" data-name="Path 44061" d="M54.7,39.019h-.467c-.111,0-.17,0-.229-.06a.306.306,0,0,1-.119-.229l-.111-.578c-.178.111-.289.289-.467.4a1.7,1.7,0,0,1-.459.289,2.066,2.066,0,0,1-.578.178,2.287,2.287,0,0,1-.638.059,2.788,2.788,0,0,1-.688-.119,1.759,1.759,0,0,1-.578-.289.85.85,0,0,1-.348-.519,1.114,1.114,0,0,1-.111-.748,1.411,1.411,0,0,1,.17-.7,3.485,3.485,0,0,1,.637-.637,6.392,6.392,0,0,1,1.207-.459,9.155,9.155,0,0,1,1.794-.17v-.468a1.454,1.454,0,0,0-.289-1.1,1.36,1.36,0,0,0-.892-.4,3.23,3.23,0,0,0-.688.11,1.071,1.071,0,0,0-.459.238l-.348.23a.493.493,0,0,1-.289.111.221.221,0,0,1-.179-.059L50.459,34l-.178-.349a4.522,4.522,0,0,1,1.1-.748,3.255,3.255,0,0,1,1.326-.229,2.32,2.32,0,0,1,.918.17,2.915,2.915,0,0,1,.7.459,1.913,1.913,0,0,1,.4.757,2.6,2.6,0,0,1,.119.978Zm-2.822-.7a1.573,1.573,0,0,0,.518-.06c.17-.051.289-.111.459-.17a1.08,1.08,0,0,0,.408-.289,2.856,2.856,0,0,1,.4-.349V36.189a4.573,4.573,0,0,0-1.267.119,4.089,4.089,0,0,0-.85.229,1.437,1.437,0,0,0-.459.34.654.654,0,0,0-.178.468.85.85,0,0,0,.06.4.569.569,0,0,0,.229.289l.349.179C51.589,38.322,51.683,38.322,51.878,38.322Z" transform="translate(-10.397 -7.34)"/>
  <path id="Path_44062" data-name="Path 44062" d="M57.46,39.028V32.79h.629c.119,0,.289.06.289.229l.119.7a3.748,3.748,0,0,1,.918-.7,2.7,2.7,0,0,1,1.156-.289,2.55,2.55,0,0,1,.926.178,2.652,2.652,0,0,1,.637.459,3.145,3.145,0,0,1,.4.748,2.643,2.643,0,0,1,.119.986v3.986h-1.1V35.1a1.777,1.777,0,0,0-.348-1.1,1.266,1.266,0,0,0-.978-.408,1.7,1.7,0,0,0-.927.238,2.627,2.627,0,0,0-.748.629v4.624Z" transform="translate(-11.981 -7.349)"/>
  <path id="Path_44063" data-name="Path 44063" d="M69.99,39.019h-.468c-.11,0-.17,0-.229-.06a.306.306,0,0,1-.119-.229l-.11-.578c-.178.111-.289.289-.459.4a1.751,1.751,0,0,1-.467.289,2.066,2.066,0,0,1-.578.178,2.261,2.261,0,0,1-.629.06,2.788,2.788,0,0,1-.7-.119,1.844,1.844,0,0,1-.578-.289.85.85,0,0,1-.348-.519,1.113,1.113,0,0,1-.11-.748,1.411,1.411,0,0,1,.17-.7A3.774,3.774,0,0,1,66,36.07a7.445,7.445,0,0,1,1.156-.459,9.069,9.069,0,0,1,1.785-.17v-.468a1.454,1.454,0,0,0-.289-1.1,1.36,1.36,0,0,0-.918-.4,3.222,3.222,0,0,0-.7.111,1.122,1.122,0,0,0-.459.238l-.349.23a.476.476,0,0,1-.289.111.2.2,0,0,1-.17-.06L65.655,34l-.17-.348a4.48,4.48,0,0,1,1.1-.748,3.281,3.281,0,0,1,1.326-.229,2.338,2.338,0,0,1,.926.17,3.035,3.035,0,0,1,.688.459,1.93,1.93,0,0,1,.408.756,2.788,2.788,0,0,1,.11.978Zm-2.89-.7a1.547,1.547,0,0,0,.519-.06c.17-.051.289-.111.459-.17a1.7,1.7,0,0,0,.408-.289c.119-.111.289-.229.4-.349V36.189a4.607,4.607,0,0,0-1.267.119,4.089,4.089,0,0,0-.85.229,1.437,1.437,0,0,0-.459.34.655.655,0,0,0-.178.467.85.85,0,0,0,.06.4.569.569,0,0,0,.229.289,2.185,2.185,0,0,0,.349.179.442.442,0,0,0,.332.11Z" transform="translate(-13.582 -7.34)"/>
  <path id="Path_44064" data-name="Path 44064" d="M74.719,32.669a3.248,3.248,0,0,1,.748.111,1.292,1.292,0,0,1,.637.289h1.7v.408a.306.306,0,0,1-.23.289l-.7.111a2.372,2.372,0,0,1,.238.85,1.9,1.9,0,0,1-.637,1.445,1.955,1.955,0,0,1-.748.408,2.669,2.669,0,0,1-.926.111,3.782,3.782,0,0,1-.85-.111.654.654,0,0,0-.289.281.45.45,0,0,0-.119.289.408.408,0,0,0,.178.349.638.638,0,0,0,.459.178,3.17,3.17,0,0,0,.7.051h.748a3.179,3.179,0,0,1,.748.059,3.927,3.927,0,0,1,.74.263,1.224,1.224,0,0,1,.629,1.156,1.972,1.972,0,0,1-.17.808,1.785,1.785,0,0,1-.578.7,2.864,2.864,0,0,1-.926.459,4.25,4.25,0,0,1-1.207.17,8.39,8.39,0,0,1-1.215-.111,2.856,2.856,0,0,1-.85-.348,1.139,1.139,0,0,1-.519-.518,1.207,1.207,0,0,1-.17-.638,1.335,1.335,0,0,1,.289-.85,2.473,2.473,0,0,1,.808-.519.765.765,0,0,1-.408-.348.986.986,0,0,1-.17-.578.518.518,0,0,1,.059-.289c.051-.111.051-.23.17-.289a.573.573,0,0,0,.229-.281,1.215,1.215,0,0,1,.349-.238,2.72,2.72,0,0,1-.748-.689,1.436,1.436,0,0,1-.272-.994,1.785,1.785,0,0,1,.17-.807,2.448,2.448,0,0,1,.459-.629,1.879,1.879,0,0,1,.757-.408A2.27,2.27,0,0,1,74.719,32.669Zm1.963,6.7a1.062,1.062,0,0,0-.119-.408,1.139,1.139,0,0,0-.34-.229,1.7,1.7,0,0,0-.518-.119c-.238,0-.408-.06-.638-.06H74.43a1.267,1.267,0,0,1-.629-.111,1.9,1.9,0,0,0-.578.4.739.739,0,0,0-.238.578,1.062,1.062,0,0,0,.119.408.612.612,0,0,0,.348.289,1.87,1.87,0,0,0,.578.229,5.508,5.508,0,0,0,1.615,0,1.955,1.955,0,0,0,.578-.229.926.926,0,0,0,.34-.348,1.071,1.071,0,0,0,.119-.4Zm-1.963-3.4a1.946,1.946,0,0,0,.578-.119.961.961,0,0,0,.408-.229,1.028,1.028,0,0,0,.229-.4,1.6,1.6,0,0,0,.06-.527,1.317,1.317,0,0,0-.348-.892,1.632,1.632,0,0,0-2.023,0,1.317,1.317,0,0,0-.349.85.85.85,0,0,0,.119.527,1.054,1.054,0,0,0,.289.4,1.5,1.5,0,0,0,.4.229,1.233,1.233,0,0,0,.638.153Z" transform="translate(-15.046 -7.339)"/>
  <path id="Path_44065" data-name="Path 44065" d="M82.407,32.67a3.2,3.2,0,0,1,1.046.17,2.473,2.473,0,0,1,.807.519,2.737,2.737,0,0,1,.519.85,2.873,2.873,0,0,1,.17,1.156.74.74,0,0,1-.06.348.3.3,0,0,1-.229.111H80.622a3.4,3.4,0,0,0,.17,1.037,3.069,3.069,0,0,0,.408.757,2.448,2.448,0,0,0,.629.459,1.326,1.326,0,0,0,.85.119,1.411,1.411,0,0,0,.689-.119,1.981,1.981,0,0,0,.518-.229,1.369,1.369,0,0,0,.349-.229c.06-.06.17-.06.229-.119a.425.425,0,0,1,.229.119l.289.4a1.513,1.513,0,0,1-.459.408,2.312,2.312,0,0,1-.637.289l-.688.17a2.762,2.762,0,0,1-.7.059,3.043,3.043,0,0,1-1.207-.229,2.074,2.074,0,0,1-.926-.638,2.473,2.473,0,0,1-.638-1.037,4.054,4.054,0,0,1-.229-1.445,4.658,4.658,0,0,1,.17-1.215,3.57,3.57,0,0,1,.578-.978,2.831,2.831,0,0,1,.926-.7C81.625,32.721,82.007,32.67,82.407,32.67Zm0,.808a1.7,1.7,0,0,0-1.267.459,2.151,2.151,0,0,0-.578,1.275h3.4a2.788,2.788,0,0,0-.119-.7,1.759,1.759,0,0,0-.289-.578.85.85,0,0,0-.519-.348,1.963,1.963,0,0,0-.638-.111Z" transform="translate(-16.583 -7.34)"/>
  <path id="Path_44066" data-name="Path 44066" d="M87.54,39.019V32.78h.637c.119,0,.289.06.289.229l.059.637a2.72,2.72,0,0,1,.748-.688,1.9,1.9,0,0,1,.978-.289,1.742,1.742,0,0,1,1.045.34,1.912,1.912,0,0,1,.578.986,1.156,1.156,0,0,1,.34-.578,1.7,1.7,0,0,1,.467-.408,1.785,1.785,0,0,1,.578-.229,1.862,1.862,0,0,1,.569-.059,2.261,2.261,0,0,1,.85.179,1.539,1.539,0,0,1,.637.459,2.014,2.014,0,0,1,.408.748,3.187,3.187,0,0,1,.111.986v3.986h-1.1V35.092a1.7,1.7,0,0,0-.349-1.1,1.147,1.147,0,0,0-.918-.408,1.589,1.589,0,0,0-.519.119,1.02,1.02,0,0,0-.408.289,1.207,1.207,0,0,0-.289.459,2.389,2.389,0,0,0-.111.637v3.987H91.033V35.092a1.436,1.436,0,0,0-.281-1.1,1.011,1.011,0,0,0-.85-.348,1.207,1.207,0,0,0-.757.23,3.137,3.137,0,0,0-.629.578V39.13Z" transform="translate(-18.34 -7.34)"/>
  <path id="Path_44067" data-name="Path 44067" d="M101.747,32.67a3.154,3.154,0,0,1,1.037.17,2.474,2.474,0,0,1,.85.518,2.55,2.55,0,0,1,.519.85,2.746,2.746,0,0,1,.178,1.156.74.74,0,0,1-.059.348.332.332,0,0,1-.229.111H99.809a3.4,3.4,0,0,0,.17,1.037,1.879,1.879,0,0,0,.408.757,2.448,2.448,0,0,0,.629.459,1.326,1.326,0,0,0,.85.119,1.411,1.411,0,0,0,.689-.119,1.981,1.981,0,0,0,.518-.229,1.368,1.368,0,0,0,.349-.229.28.28,0,0,1,.459,0l.289.4a1.513,1.513,0,0,1-.459.408,3.332,3.332,0,0,1-.578.289l-.7.17a2.694,2.694,0,0,1-.688.059,3.085,3.085,0,0,1-1.216-.229,2.694,2.694,0,0,1-.978-.638,2.363,2.363,0,0,1-.595-1.02,4.055,4.055,0,0,1-.229-1.445,3.111,3.111,0,0,1,.229-1.216,3.57,3.57,0,0,1,.578-.978,2.074,2.074,0,0,1,.926-.637C100.94,32.78,101.339,32.67,101.747,32.67Zm0,.808a1.7,1.7,0,0,0-1.267.459,2.1,2.1,0,0,0-.578,1.275h3.4a2.771,2.771,0,0,0-.11-.7,1.938,1.938,0,0,0-.289-.578.85.85,0,0,0-.519-.348,2.372,2.372,0,0,0-.637-.111Z" transform="translate(-20.598 -7.34)"/>
  <path id="Path_44068" data-name="Path 44068" d="M106.9,39.028V32.79h.629c.119,0,.289.059.289.229l.06.7a2.83,2.83,0,0,1,.926-.7,2.669,2.669,0,0,1,1.156-.289,2.55,2.55,0,0,1,.918.179,2.354,2.354,0,0,1,.637.459,3.511,3.511,0,0,1,.408.748,2.839,2.839,0,0,1,.111.986v3.986h-1.1V35.1a1.7,1.7,0,0,0-.349-1.1,1.258,1.258,0,0,0-.977-.408,1.7,1.7,0,0,0-.926.212,4.2,4.2,0,0,0-.85.629v4.624Z" transform="translate(-22.287 -7.349)"/>
  <path id="Path_44069" data-name="Path 44069" d="M116.7,38.794a1.437,1.437,0,0,1-1.156-.4,1.853,1.853,0,0,1-.4-1.216V33.371H114.4a.221.221,0,0,1-.178-.06.2.2,0,0,1-.059-.17v-.468l1.046-.111.229-1.9c0-.059.06-.119.06-.178a.213.213,0,0,1,.17-.051h.578v2.133h1.794v.85h-1.794v3.706a.986.986,0,0,0,.17.578.7.7,0,0,0,.519.179c.119,0,.238,0,.289-.06a.451.451,0,0,0,.2-.1l.17-.111c.06,0,.06-.06.119-.06s.111.06.17.119l.349.519a1.453,1.453,0,0,1-.7.4A1.7,1.7,0,0,1,116.7,38.794Z" transform="translate(-23.762 -7.004)"/>
  <path id="Path_44070" data-name="Path 44070" d="M119.8,39.188a.434.434,0,0,1,.059-.289,1.148,1.148,0,0,1,.17-.23c.06-.059.179-.11.23-.17a.518.518,0,0,1,.289-.059c.119,0,.238,0,.289.059a.85.85,0,0,1,.238.17,2.287,2.287,0,0,0,.17.229.96.96,0,0,1,0,.578.8.8,0,0,1-.17.229c-.06.06-.179.119-.238.179a.493.493,0,0,1-.289.06.434.434,0,0,1-.289-.06.892.892,0,0,1-.23-.178c-.051-.051-.11-.17-.17-.23a2.374,2.374,0,0,1-.06-.289Z" transform="translate(-24.84 -8.205)"/>
  <path id="Path_44071" data-name="Path 44071" d="M130.49,39.019h-.518c-.119,0-.179,0-.238-.06a.332.332,0,0,1-.11-.229l-.119-.578c-.17.17-.34.289-.459.4a1.989,1.989,0,0,1-.518.289,2.253,2.253,0,0,1-.578.179,2.55,2.55,0,0,1-.637.06,2.788,2.788,0,0,1-.688-.119,1.394,1.394,0,0,1-.518-.289.85.85,0,0,1-.349-.519,1.062,1.062,0,0,1-.119-.748,1.02,1.02,0,0,1,.229-.7,3.774,3.774,0,0,1,.637-.638,6.264,6.264,0,0,1,1.216-.459,9.07,9.07,0,0,1,1.785-.17v-.468a1.454,1.454,0,0,0-.289-1.1,1.36,1.36,0,0,0-.918-.4,3.221,3.221,0,0,0-.7.111,1.122,1.122,0,0,0-.459.238,1.368,1.368,0,0,1-.349.229.476.476,0,0,1-.289.111.2.2,0,0,1-.17-.06L126.214,34l-.229-.348a4.48,4.48,0,0,1,1.1-.748,3.306,3.306,0,0,1,1.326-.229,2.338,2.338,0,0,1,.926.17,2.116,2.116,0,0,1,.688.459,1.93,1.93,0,0,1,.408.757,1.87,1.87,0,0,1,.119.978Zm-2.848-.7a1.547,1.547,0,0,0,.519-.06c.17-.051.289-.111.459-.17a1.7,1.7,0,0,0,.408-.289c.119-.11.289-.229.4-.348V36.189a4.607,4.607,0,0,0-1.267.119,4.088,4.088,0,0,0-.85.229,1.436,1.436,0,0,0-.459.34.654.654,0,0,0-.178.467.85.85,0,0,0,.06.4.569.569,0,0,0,.229.289,2.184,2.184,0,0,0,.349.179c.059.11.178.11.348.11Z" transform="translate(-26.181 -7.34)"/>
  <path id="Path_44072" data-name="Path 44072" d="M137.439,33.877c0,.059-.051.059-.111.119a.2.2,0,0,0-.119.06c-.06,0-.111-.06-.23-.06a1,1,0,0,0-.289-.17c-.111-.06-.289-.119-.4-.179a1.963,1.963,0,0,0-1.385.119,2.057,2.057,0,0,0-.578.459,1.7,1.7,0,0,0-.349.748,5.577,5.577,0,0,0-.119.986A6.153,6.153,0,0,0,133.979,37a1.7,1.7,0,0,0,.349.748,2.082,2.082,0,0,0,.578.468,1.836,1.836,0,0,0,.748.17,1.13,1.13,0,0,0,.638-.119,1.454,1.454,0,0,0,.459-.23,1.037,1.037,0,0,0,.289-.229.289.289,0,0,1,.23-.11.408.408,0,0,1,.23.111l.289.408a2.729,2.729,0,0,1-1.037.748,3.4,3.4,0,0,1-1.266.229,2.55,2.55,0,0,1-1.1-.229,1.9,1.9,0,0,1-.85-.638,2.805,2.805,0,0,1-.578-1.037,3.766,3.766,0,0,1-.23-1.386,4.344,4.344,0,0,1,.17-1.266,4.929,4.929,0,0,1,.578-1.046,2.694,2.694,0,0,1,.927-.688,3,3,0,0,1,1.266-.23,2.55,2.55,0,0,1,1.156.23,3.094,3.094,0,0,1,.918.578Z" transform="translate(-27.668 -7.34)"/>
  <path id="Path_44073" data-name="Path 44073" d="M144.1,33.877c0,.06-.06.06-.119.119a.2.2,0,0,0-.11.06c-.06,0-.119-.06-.23-.06a1.13,1.13,0,0,0-.289-.17l-.408-.178a1.972,1.972,0,0,0-1.386.119,2.337,2.337,0,0,0-.578.459,1.7,1.7,0,0,0-.34.748,5.577,5.577,0,0,0-.119.986A6.153,6.153,0,0,0,140.638,37a1.7,1.7,0,0,0,.34.748,2.363,2.363,0,0,0,.578.468,1.836,1.836,0,0,0,.748.17,1.1,1.1,0,0,0,.637-.119,1.487,1.487,0,0,0,.468-.229,1,1,0,0,0,.281-.23.306.306,0,0,1,.238-.11.442.442,0,0,1,.23.11l.289.408a2.729,2.729,0,0,1-1.037.748,3.4,3.4,0,0,1-1.275.229,2.55,2.55,0,0,1-1.1-.229,1.9,1.9,0,0,1-.85-.638,3.069,3.069,0,0,1-.578-1.037,3.953,3.953,0,0,1-.23-1.386,4.657,4.657,0,0,1,.17-1.266,4.929,4.929,0,0,1,.578-1.046,2.779,2.779,0,0,1,.926-.688,3.026,3.026,0,0,1,1.266-.229,2.491,2.491,0,0,1,1.156.23,3.026,3.026,0,0,1,.926.578Z" transform="translate(-29.055 -7.34)"/>
  <path id="Path_44074" data-name="Path 44074" d="M149.029,32.67a3.153,3.153,0,0,1,1.037.17,2.473,2.473,0,0,1,.807.519,2.55,2.55,0,0,1,.519.85,4.25,4.25,0,0,1,.178,1.156.739.739,0,0,1-.06.348.331.331,0,0,1-.23.111h-4.1a3.12,3.12,0,0,0,.17,1.037,1.963,1.963,0,0,0,.4.757,2.652,2.652,0,0,0,.637.459,1.283,1.283,0,0,0,.807.119,1.445,1.445,0,0,0,.7-.119,2.107,2.107,0,0,0,.518-.229.943.943,0,0,0,.349-.23.4.4,0,0,1,.23-.119.425.425,0,0,1,.229.119l.289.4a1.615,1.615,0,0,1-.459.408,3.485,3.485,0,0,1-1.275.459,2.694,2.694,0,0,1-.688.059,3.085,3.085,0,0,1-1.216-.229,2.771,2.771,0,0,1-.926-.638,3.111,3.111,0,0,1-.629-1.037,3.885,3.885,0,0,1-.238-1.445,2.975,2.975,0,0,1,.238-1.215,3.2,3.2,0,0,1,.578-.978,2.048,2.048,0,0,1,.918-.638C148.162,32.78,148.621,32.67,149.029,32.67Zm0,.808a1.7,1.7,0,0,0-1.275.459,2.142,2.142,0,0,0-.57,1.275h3.46a2.788,2.788,0,0,0-.119-.7,1.607,1.607,0,0,0-.289-.578.85.85,0,0,0-.519-.349,3.23,3.23,0,0,0-.688-.111Z" transform="translate(-30.471 -7.34)"/>
  <path id="Path_44075" data-name="Path 44075" d="M155.4,29.47v9.069h-1.1V29.47Z" transform="translate(-31.976 -6.86)"/>
  <path id="Path_44076" data-name="Path 44076" d="M160.157,32.67a3.2,3.2,0,0,1,1.037.17,2.474,2.474,0,0,1,.85.518,2.55,2.55,0,0,1,.519.85,4.182,4.182,0,0,1,.17,1.156.85.85,0,0,1-.051.348.331.331,0,0,1-.23.111H158.3a3.12,3.12,0,0,0,.17,1.037,1.963,1.963,0,0,0,.4.757,2.651,2.651,0,0,0,.638.459,1.283,1.283,0,0,0,.807.119,1.445,1.445,0,0,0,.7-.119,2.108,2.108,0,0,0,.518-.229.943.943,0,0,0,.349-.229.4.4,0,0,1,.23-.119.425.425,0,0,1,.229.119l.289.4a1.275,1.275,0,0,1-.518.408,2.431,2.431,0,0,1-.638.289l-.688.17a2.8,2.8,0,0,1-.7.059,3.111,3.111,0,0,1-1.215-.23,2.737,2.737,0,0,1-.918-.637,3.009,3.009,0,0,1-.578-1.037,3.876,3.876,0,0,1-.229-1.445,4.326,4.326,0,0,1,.17-1.215,3.57,3.57,0,0,1,.578-.978,2.074,2.074,0,0,1,.926-.638C159.35,32.78,159.749,32.67,160.157,32.67Zm0,.807a1.7,1.7,0,0,0-1.275.459,2.15,2.15,0,0,0-.578,1.275h3.4a2.788,2.788,0,0,0-.119-.7,1.606,1.606,0,0,0-.289-.578.85.85,0,0,0-.518-.348,2.253,2.253,0,0,0-.629-.111Z" transform="translate(-32.783 -7.34)"/>
  <path id="Path_44077" data-name="Path 44077" d="M165.3,39.018V32.779h.637c.119,0,.179,0,.23.06a.332.332,0,0,1,.06.229l.06.986a2.754,2.754,0,0,1,.807-1.046,1.471,1.471,0,0,1,1.1-.34,1.411,1.411,0,0,1,.459.051l.408.179-.119.85a.179.179,0,0,1-.17.17.578.578,0,0,1-.323-.119,1.547,1.547,0,0,0-.519-.06,1.581,1.581,0,0,0-.986.34,2.168,2.168,0,0,0-.629.986v3.986H165.3Z" transform="translate(-34.391 -7.339)"/>
  <path id="Path_44078" data-name="Path 44078" d="M175.32,39.019h-.459a.493.493,0,0,1-.289-.059.306.306,0,0,1-.119-.23l-.111-.578c-.179.111-.289.289-.468.4a1.861,1.861,0,0,1-.519.289,1.793,1.793,0,0,1-.518.179,2.55,2.55,0,0,1-.637.06,2.788,2.788,0,0,1-.688-.119,1.394,1.394,0,0,1-.519-.289.85.85,0,0,1-.348-.519,1.114,1.114,0,0,1-.119-.748.986.986,0,0,1,.238-.7,3.4,3.4,0,0,1,.629-.638,6.486,6.486,0,0,1,1.215-.459,9.129,9.129,0,0,1,1.785-.17v-.468a1.42,1.42,0,0,0-.289-1.1,1.343,1.343,0,0,0-.918-.4,3.307,3.307,0,0,0-.7.111,1.182,1.182,0,0,0-.459.238l-.348.229a.476.476,0,0,1-.289.111.2.2,0,0,1-.17-.06c-.06-.051-.119-.051-.119-.111l-.17-.348a4.479,4.479,0,0,1,1.1-.748,3.306,3.306,0,0,1,1.326-.229,2.338,2.338,0,0,1,.926.17,2.117,2.117,0,0,1,.688.459,1.929,1.929,0,0,1,.408.756,1.87,1.87,0,0,1,.11.978v3.986Zm-2.831-.7a1.522,1.522,0,0,0,.518-.06c.179-.051.289-.111.468-.17a1,1,0,0,0,.4-.289l.349-.349V36.189a4.573,4.573,0,0,0-1.267.119,4.088,4.088,0,0,0-.85.229,1.47,1.47,0,0,0-.467.34.689.689,0,0,0-.17.467.85.85,0,0,0,.059.4c.06.119.111.238.23.289a1.871,1.871,0,0,0,.348.178.553.553,0,0,0,.4.111Z" transform="translate(-35.541 -7.34)"/>
  <path id="Path_44079" data-name="Path 44079" d="M179.869,38.794a1.4,1.4,0,0,1-1.113-.4,1.819,1.819,0,0,1-.408-1.215V33.371H177.6a.2.2,0,0,1-.229-.229v-.467l1.037-.111.23-1.9c0-.059.06-.119.06-.178a.221.221,0,0,1,.17-.051h.578v2.133h1.794v.85h-1.794v3.706a.986.986,0,0,0,.17.578.705.705,0,0,0,.527.178.484.484,0,0,0,.28-.06.45.45,0,0,0,.238-.119l.17-.111c.059,0,.059-.059.119-.059s.111.059.17.119l.289.519a1.411,1.411,0,0,1-.7.4,1.283,1.283,0,0,1-.841.23Z" transform="translate(-36.917 -7.004)"/>
  <path id="Path_44080" data-name="Path 44080" d="M185.838,32.67a3.153,3.153,0,0,1,1.037.17,2.473,2.473,0,0,1,.807.519,2.55,2.55,0,0,1,.519.85,2.89,2.89,0,0,1,.178,1.156.74.74,0,0,1-.059.348.331.331,0,0,1-.23.111h-4.156a3.12,3.12,0,0,0,.17,1.037,3.069,3.069,0,0,0,.408.757,2.448,2.448,0,0,0,.629.459,1.284,1.284,0,0,0,.85.119,1.428,1.428,0,0,0,.7-.119,1.98,1.98,0,0,0,.518-.229c.119-.06.289-.119.348-.23s.17-.06.23-.119a.425.425,0,0,1,.23.119l.289.4a1.615,1.615,0,0,1-.459.408,3.333,3.333,0,0,1-.578.289l-.7.17a2.694,2.694,0,0,1-.689.059,3.085,3.085,0,0,1-1.215-.229,2.652,2.652,0,0,1-.918-.638,3.128,3.128,0,0,1-.637-1.037,3.876,3.876,0,0,1-.229-1.445,2.966,2.966,0,0,1,.229-1.215,3.4,3.4,0,0,1,.578-.978,2.091,2.091,0,0,1,.918-.638C184.971,32.78,185.37,32.67,185.838,32.67Zm0,.808a1.7,1.7,0,0,0-1.275.459,2.2,2.2,0,0,0-.578,1.275h3.4a3.221,3.221,0,0,0-.111-.7,1.938,1.938,0,0,0-.289-.578.85.85,0,0,0-.519-.348,2.865,2.865,0,0,0-.637-.111Z" transform="translate(-40.177 -7.34)"/>
  <path id="Path_44081" data-name="Path 44081" d="M195.283,38.53c-.119,0-.289-.119-.289-.229l-.119-.757a3.06,3.06,0,0,1-.918.757,2.7,2.7,0,0,1-1.156.289,1.861,1.861,0,0,1-.986-.238,1.751,1.751,0,0,1-.748-.578,2.074,2.074,0,0,1-.459-.978,5.535,5.535,0,0,1-.179-1.385,4.344,4.344,0,0,1,.179-1.267,3.4,3.4,0,0,1,.518-1.045,2.474,2.474,0,0,1,.85-.689,1.913,1.913,0,0,1,1.148-.229,2.644,2.644,0,0,1,.986.17,1.581,1.581,0,0,1,.689.519V29.41h1.1v9.061h-.629Zm-2.133-.85a1.7,1.7,0,0,0,.918-.229,2.89,2.89,0,0,0,.748-.7V33.8a2.023,2.023,0,0,0-.629-.578,1.785,1.785,0,0,0-.807-.17,1.513,1.513,0,0,0-1.335.629,2.822,2.822,0,0,0-.459,1.793,6.153,6.153,0,0,0,.119,1.037,2.549,2.549,0,0,0,.289.7,1.207,1.207,0,0,0,.518.4,1.981,1.981,0,0,0,.637.119Z" transform="translate(-41.31 -6.851)"/>
  <path id="Path_44082" data-name="Path 44082" d="M198.576,39.187a.434.434,0,0,1,.06-.289,1.148,1.148,0,0,1,.17-.229c.06-.06.179-.111.238-.17a.493.493,0,0,1,.289-.059.434.434,0,0,1,.289.06.85.85,0,0,1,.23.17,2.283,2.283,0,0,0,.17.23.961.961,0,0,1,0,.578.8.8,0,0,1-.17.229c-.06.059-.179.119-.23.178a.518.518,0,0,1-.289.06c-.119,0-.238,0-.289-.06a.85.85,0,0,1-.238-.178c-.051-.051-.111-.17-.17-.229a.247.247,0,0,1-.059-.289Z" transform="translate(-42.529 -8.205)"/>
</svg>
