<svg xmlns="http://www.w3.org/2000/svg" width="75.999" height="40" viewBox="0 0 75.999 40">
  <g id="vertex" transform="translate(-90.23 -194.082)">
    <g id="g11938" transform="translate(116.357 194.082)">
      <path id="path11940" d="M11.3,9.38-.318-9.909-11.933,9.38Z" transform="translate(11.933 9.909)"/>
    </g>
    <g id="g11942" transform="translate(103.887 230.336)">
      <path id="path11944" d="M1.1,0-1.159,3.745H47.012L44.756,0Z" transform="translate(1.159)"/>
    </g>
    <g id="g11946" transform="translate(90.23 216.043)">
      <path id="path11948" d="M6.554.083C5.57.083,4.51,3.263,3,6.632c-1,2.215-1.818,4.335-2.139,4.978A11.459,11.459,0,0,0-.3,11.534c-.455,0-.928.038-1.4.076-.284-.795-1.136-3.161-2.1-5.546C-4.954,3.225-5.976.121-6.923.083v-.17c.966.038,1.912.076,2.858.076.682,0,1.363-.038,2.026-.076v.17c-.247.076-.511.095-.511.682,0,1.5,2.9,8.082,3.2,8.972C1.065,8.7,3.468,3.263,3.468.954,3.468.31,3.2.159,2.806.083v-.17c.643.038,1.306.076,1.968.076.586,0,1.192-.038,1.779-.076Z" transform="translate(6.923 0.087)"/>
    </g>
    <g id="g11950" transform="translate(104.788 215.874)">
      <path id="path11952" d="M4.695,4.372A11.25,11.25,0,0,0,3.71,7.419a3.613,3.613,0,0,0-1.438-.208C1.59,7.173.814,7.173.189,7.173H-2.044c-1.514,0-2.726.057-2.915.076v-.17c.928,0,.928-1.608.928-5.679,0-4.372-.019-5.584-.928-5.679v-.17c.4,0,.871.019,1.439.038.586.019,1.268.038,2.082.038H.189a19.666,19.666,0,0,0,3.9-.246,9.612,9.612,0,0,0-.322,2.555v.378h-.4c0-1.742-1.438-2.006-3.388-2.006a4.452,4.452,0,0,0-1.06.113C-1.23-2.367-1.23.151-1.23.625-.983.643-.7.681-.151.681,1.912.681,2.158.227,2.234-.7h.4A20.722,20.722,0,0,0,2.5,1.476c0,1.249,0,.473.019,1.457H2.1c0-1-.4-1.552-2.253-1.552-.454,0-.832,0-1.079.019,0,.606,0,3.6.057,4.846.416.019.832.076,1.268.076,3.01,0,3.634-.946,4.259-2.12Z" transform="translate(4.959 4.619)"/>
    </g>
    <g id="g11954" transform="translate(116.06 215.873)">
      <path id="path11956" d="M0,5.689C.928,5.67.928,4.023.928.01S.928-5.631,0-5.669v-.17c.36.019.776.038,1.174.056.4,0,.795.019,1.1.019.568,0,1.231-.057,1.987-.133C5-5.952,5.83-6.009,6.682-6.009c.53,0,3.615,0,3.615,2.8,0,2.233-2.253,2.991-3.313,3.18.4.455,1.515,2.158,2.745,3.71,1.079,1.363,1.571,1.969,2.1,2.007v.17c-.19-.019-.436-.038-.663-.057-.247-.019-.492-.019-.738-.019a16.587,16.587,0,0,0-2.366.151c-.227-.359-.946-1.571-1.817-2.877C5.432,1.846,4.789.635,4.05.635a.787.787,0,0,0-.321.038c0,3.142,0,5.016.965,5.016v.17c-.757-.057-1.609-.076-2.347-.076-.8,0-1.609.019-2.347.076ZM4.278-.028c1.685,0,2.991-.4,2.991-2.461,0-1.722-1.022-2.669-2.234-2.669a6.641,6.641,0,0,0-1.23.151c-.076,1.363-.076,4.372-.076,4.96.151,0,.247.019.549.019" transform="translate(0 6.009)"/>
    </g>
    <g id="g11958" transform="translate(127.68 215.873)">
      <path id="path11960" d="M5.136,1.363c0-1.325-.757-1.685-2.8-1.685a5.455,5.455,0,0,0-.549.038c-.1.473-.1,2.385-.1,4.864,0,4.013,0,5.66.966,5.679v.17c-.738-.057-1.552-.076-2.347-.076s-1.608.019-2.347.076v-.17c.966-.019.966-1.666.966-5.679,0-2.479,0-4.391-.095-4.864a5.468,5.468,0,0,0-.549-.038c-2.214,0-2.953,1-3.237,2.253l-.473-.114a11.989,11.989,0,0,0,.473-3.256A6.174,6.174,0,0,0-3.4-1.307c.814.038,1.816.038,2.649.038H1.313A32.9,32.9,0,0,0,5.95-1.439a12.439,12.439,0,0,0-.3,2.953v.36H5.136Z" transform="translate(5.426 1.439)"/>
    </g>
    <g id="g11962" transform="translate(140.4 215.874)">
      <path id="path11964" d="M4.695,4.372A11.3,11.3,0,0,0,3.71,7.419a3.607,3.607,0,0,0-1.439-.208C1.59,7.173.814,7.173.189,7.173H-2.044c-1.514,0-2.726.057-2.915.076v-.17c.927,0,.927-1.608.927-5.679,0-4.372-.019-5.584-.927-5.679v-.17c.4,0,.871.019,1.438.038.586.019,1.268.038,2.083.038H.189a19.666,19.666,0,0,0,3.9-.246,9.612,9.612,0,0,0-.322,2.555v.378h-.4c0-1.742-1.439-2.006-3.388-2.006a4.452,4.452,0,0,0-1.06.113C-1.23-2.367-1.23.151-1.23.625-.984.643-.7.681-.151.681,1.912.681,2.158.227,2.234-.7h.4A20.538,20.538,0,0,0,2.5,1.476c0,1.249,0,.473.019,1.457H2.1c0-1-.4-1.552-2.252-1.552-.455,0-.833,0-1.079.019,0,.606,0,3.6.056,4.846.417.019.833.076,1.268.076,3.009,0,3.634-.946,4.258-2.12Z" transform="translate(4.959 4.619)"/>
    </g>
    <g id="g11966" transform="translate(150.717 216.044)">
      <path id="path11968" d="M0,5.606c.378,0,.511-.151.814-.415C1.419,4.641,5.376.419,5.451.344c-.36-.435-1.836-2.366-3.634-4.675C.776-5.657.7-5.619.189-5.752v-.17c.966.038,1.931.076,2.9.076.814,0,1.685-.038,2.481-.076v.17c-.228.038-.493.095-.493.379,0,.795,2.064,3.312,2.461,3.862.549-.643,2.328-3.1,2.328-3.691,0-.511-.341-.511-.624-.549v-.17c.681.019,1.362.076,2.063.076.624,0,1.287-.038,1.893-.076v.17a2.45,2.45,0,0,0-.681.209c-.455.189-2.934,3.161-4.486,4.618.378.454,2.29,2.859,4.239,5.186,1.023,1.231,1.136,1.288,1.609,1.344v.171C12.852,5.7,11.811,5.7,10.789,5.7c-.775,0-1.57.038-2.347.076V5.606c.264,0,.492-.038.492-.358,0-.606-2.575-3.6-3.029-4.317-.492.606-2.536,3.218-2.536,4.241,0,.435.378.435.624.435v.171C3.35,5.738,2.725,5.7,2.082,5.7c-.7,0-1.4.038-2.082.076Z" transform="translate(0 5.921)"/>
    </g>
    <g id="g11970" transform="translate(164.812 215.883)">
      <path id="path11972" d="M.346.7A.7.7,0,0,1-.365-.019.7.7,0,0,1,.346-.743a.7.7,0,0,1,.707.723A.7.7,0,0,1,.346.7m0-1.32a.561.561,0,0,0-.556.6.556.556,0,0,0,.556.6A.559.559,0,0,0,.9-.019a.561.561,0,0,0-.553-.6M.2.394H.071v-.8h.3c.194,0,.292.067.292.23A.2.2,0,0,1,.458.042L.682.394H.533L.326.052H.2ZM.35-.06c.1,0,.185-.01.185-.126,0-.1-.095-.108-.174-.108H.2V-.06Z" transform="translate(0.365 0.743)"/>
    </g>
  </g>
</svg>
