<svg xmlns="http://www.w3.org/2000/svg" width="96.519" height="34" viewBox="0 0 96.519 34">
  <g id="vuejs" transform="translate(-8.989 -11.945)">
    <path id="path893" d="M40.759,11.952h7.812L28.845,45.945,8.989,11.952h7.99L28.845,32.417Z" transform="translate(0 -0.001)" fill-rule="evenodd"/>
    <path id="path895" d="M34.059,11.945h7.43L29.518,32.452,17.642,11.945h7.314l4.561,7.895Z" transform="translate(-0.683)" fill="#3d3d3d" fill-rule="evenodd"/>
    <path id="path897" d="M57.026,19.156a.728.728,0,0,1,.418-.627,1.672,1.672,0,0,1,.873-.251.72.72,0,0,1,.785.476l4.455,14.9,4.429-14.9a.725.725,0,0,1,.759-.476,1.6,1.6,0,0,1,.9.276.77.77,0,0,1,.418.627.336.336,0,0,1-.013.075.407.407,0,0,0-.013.1L64.9,36.033a1.264,1.264,0,0,1-1.341.727q-1.063,0-1.291-.727L57.077,19.357a.815.815,0,0,1-.051-.2ZM70.26,32v-6.52a.644.644,0,0,1,.316-.527,1.252,1.252,0,0,1,.747-.226,1.168,1.168,0,0,1,.721.238.659.659,0,0,1,.316.514V32a2.872,2.872,0,0,0,.861,2.031,2.764,2.764,0,0,0,4.075.013A2.857,2.857,0,0,0,78.157,32V25.45a.628.628,0,0,1,.316-.5,1.252,1.252,0,0,1,.747-.226,1.232,1.232,0,0,1,.747.213.624.624,0,0,1,.291.514V32a4.563,4.563,0,0,1-1.481,3.373,5.013,5.013,0,0,1-7.036,0A4.563,4.563,0,0,1,70.26,32Zm11.715-.05V29.312a4.444,4.444,0,0,1,1.481-3.335,4.984,4.984,0,0,1,3.556-1.4,4.9,4.9,0,0,1,3.417,1.317,4.277,4.277,0,0,1,1.443,3.3,3.173,3.173,0,0,1-.177,1.166,1.157,1.157,0,0,1-.544.627,2.311,2.311,0,0,1-.683.238,5.666,5.666,0,0,1-.848.05H84.076v.752a2.72,2.72,0,0,0,1,2.207,3.935,3.935,0,0,0,2.594.828,3.867,3.867,0,0,0,1.455-.251,6.51,6.51,0,0,0,1-.489,1.263,1.263,0,0,1,.607-.238.758.758,0,0,1,.607.313,1.012,1.012,0,0,1,.253.639q0,.577-1.152,1.179a6.1,6.1,0,0,1-2.847.6,6.013,6.013,0,0,1-4.05-1.342,4.411,4.411,0,0,1-1.569-3.523Zm2.1-2.081h4.682a1.655,1.655,0,0,0,.886-.163.744.744,0,0,0,.228-.639,2.882,2.882,0,0,0-2.885-2.834,2.928,2.928,0,0,0-2.05.79,2.535,2.535,0,0,0-.861,1.943Zm8.856,5.592a1.3,1.3,0,0,1,.38-.94,1.257,1.257,0,0,1,.936-.389,1.228,1.228,0,0,1,.911.389,1.3,1.3,0,0,1,.38.94,1.267,1.267,0,0,1-.38.915,1.228,1.228,0,0,1-.911.389,1.312,1.312,0,0,1-1.316-1.3Zm1.87,5.994a.92.92,0,0,1,.253-.665.813.813,0,0,1,.607-.263,1.248,1.248,0,0,0,1.291-.727,5.957,5.957,0,0,0,.3-2.182V25.45a.613.613,0,0,1,.291-.527,1.288,1.288,0,0,1,.747-.2,1.349,1.349,0,0,1,.759.2.607.607,0,0,1,.3.527V37.613a6.119,6.119,0,0,1-.861,3.461,2.929,2.929,0,0,1-2.607,1.279q-1.088,0-1.088-.9Zm2.177-21.19a1.092,1.092,0,0,1,.38-.828,1.328,1.328,0,0,1,.936-.351,1.3,1.3,0,0,1,.911.351,1.092,1.092,0,0,1,.38.828,1.131,1.131,0,0,1-.38.84,1.271,1.271,0,0,1-.911.364,1.315,1.315,0,0,1-.924-.364,1.115,1.115,0,0,1-.392-.84ZM100.924,34.9a1.118,1.118,0,0,1,.215-.639.622.622,0,0,1,.519-.313,1.122,1.122,0,0,1,.582.3,4.528,4.528,0,0,0,1.088.589,4.416,4.416,0,0,0,1.67.288,2.965,2.965,0,0,0,1.835-.451,1.385,1.385,0,0,0,.569-1.128,1.578,1.578,0,0,0-.633-1.317,4.406,4.406,0,0,0-1.544-.74q-.911-.251-1.822-.552a3.533,3.533,0,0,1-1.544-1,2.667,2.667,0,0,1-.633-1.856,3.4,3.4,0,0,1,1.025-2.47,4.213,4.213,0,0,1,3.126-1.041,7,7,0,0,1,2.455.414q1.114.414,1.114.94a1.293,1.293,0,0,1-.24.677.7.7,0,0,1-.595.376,6.375,6.375,0,0,1-.974-.364,4.483,4.483,0,0,0-1.734-.364,2.442,2.442,0,0,0-1.734.539,1.64,1.64,0,0,0-.569,1.216,1.245,1.245,0,0,0,.633,1.1,5.2,5.2,0,0,0,1.557.627,18.419,18.419,0,0,1,1.835.552,3.433,3.433,0,0,1,1.544,1.116,3.168,3.168,0,0,1,.633,2.044,3,3,0,0,1-1.114,2.458,4.818,4.818,0,0,1-3.113.9,6.445,6.445,0,0,1-2.936-.614q-1.215-.614-1.215-1.291Z" transform="translate(-3.794 -0.5)" fill-rule="evenodd"/>
  </g>
</svg>
