<svg xmlns="http://www.w3.org/2000/svg" width="220" height="28.569" viewBox="0 0 220 28.569">
  <g id="VUEstorefront" transform="translate(-80 -67.5)">
    <path id="Path_44120" data-name="Path 44120" d="M1021.288,106.833h-2.848v3.315h2.848v9.674h3.978v-9.674h3.411v-3.315h-3.411v-.712a1.288,1.288,0,0,1,.467-1.093,2.24,2.24,0,0,1,1.374-.356,7.285,7.285,0,0,1,.749.037,8.16,8.16,0,0,1,.822.135v-3.29a8.4,8.4,0,0,0-.994-.172,9.21,9.21,0,0,0-1.117-.074,5.655,5.655,0,0,0-3.915,1.228,4.479,4.479,0,0,0-1.362,3.511Z" transform="translate(-779.799 -28.094)"/>
    <path id="Path_44121" data-name="Path 44121" d="M625.832,122.506l2.357-3.069a12.214,12.214,0,0,0,2.9,1.817,7.242,7.242,0,0,0,2.824.565,4.845,4.845,0,0,0,2.271-.442,1.354,1.354,0,0,0,.822-1.228,1.278,1.278,0,0,0-.552-1.1,4.667,4.667,0,0,0-1.829-.614l-3.781-.663a5.519,5.519,0,0,1-3.217-1.6,4.425,4.425,0,0,1-1.13-3.119,4.666,4.666,0,0,1,1.878-3.916,8.323,8.323,0,0,1,5.169-1.436,11.972,11.972,0,0,1,3.867.663,10.828,10.828,0,0,1,3.352,1.793l-2.234,3.118a10.305,10.305,0,0,0-2.64-1.547,7.361,7.361,0,0,0-2.639-.491,4.278,4.278,0,0,0-2.026.405,1.22,1.22,0,0,0-.749,1.093,1.168,1.168,0,0,0,.479.994,3.644,3.644,0,0,0,1.559.528l3.56.589a6.8,6.8,0,0,1,3.769,1.645,4.318,4.318,0,0,1,1.289,3.241,4.888,4.888,0,0,1-2.026,4.125,8.972,8.972,0,0,1-5.512,1.522,11.734,11.734,0,0,1-4.113-.761A12.106,12.106,0,0,1,625.832,122.506Z" transform="translate(-453.56 -33.404)"/>
    <path id="Path_44122" data-name="Path 44122" d="M326.166,126.34l-6.949-17.188h4.567l4.886,12.792,4.984-12.792h4.4L331,126.34Z" transform="translate(-198.778 -34.611)"/>
    <path id="Path_44123" data-name="Path 44123" d="M433,133.989v7.464a2.234,2.234,0,0,0,2.357,2.357,3.205,3.205,0,0,0,1.351-.27,2.649,2.649,0,0,0,.982-.761v-8.79h3.978v12.989h-3.978v-.884a5.463,5.463,0,0,1-1.608.835,5.976,5.976,0,0,1-1.878.295,5.006,5.006,0,0,1-3.732-1.473,5.134,5.134,0,0,1-1.449-3.757v-8Z" transform="translate(-290.022 -55.249)"/>
    <path id="Path_44124" data-name="Path 44124" d="M524.845,145.67a8.351,8.351,0,0,0,2.517-1.5l-2.627-2.333a3.228,3.228,0,0,1-1.13.724,4.028,4.028,0,0,1-1.473.258,3.367,3.367,0,0,1-1.964-.577,3.43,3.43,0,0,1-1.228-1.486H528.2v-.982a8.036,8.036,0,0,0-.491-2.836,6.676,6.676,0,0,0-1.363-2.247,6.348,6.348,0,0,0-4.7-2.014,6.869,6.869,0,0,0-2.664.516,6.57,6.57,0,0,0-2.148,1.424,6.73,6.73,0,0,0-1.436,2.149,6.661,6.661,0,0,0-.528,2.64,6.412,6.412,0,0,0,.552,2.64,6.693,6.693,0,0,0,3.745,3.572,7.459,7.459,0,0,0,2.775.516A8.513,8.513,0,0,0,524.845,145.67Zm-4.972-9.208a2.722,2.722,0,0,1,1.694-.54,2.658,2.658,0,0,1,1.682.565,3.141,3.141,0,0,1,1.044,1.5h-5.427A2.886,2.886,0,0,1,519.872,136.462Z" transform="translate(-361.351 -54.162)" fill-rule="evenodd"/>
    <path id="Path_44125" data-name="Path 44125" d="M721.709,116.665v5.721a3.877,3.877,0,0,0,1.191,3.082,5.205,5.205,0,0,0,3.524,1.044,10.989,10.989,0,0,0,1.4-.11,8.2,8.2,0,0,0,1.375-.282V122.9a6.429,6.429,0,0,1-.908.209,6.066,6.066,0,0,1-.884.061,1.954,1.954,0,0,1-1.338-.356,1.613,1.613,0,0,1-.38-1.215v-4.935h3.634v-3.315h-3.634v-4.2l-3.978.859v3.339h-2.627v3.315Z" transform="translate(-531.047 -34.611)"/>
    <path id="Path_44126" data-name="Path 44126" d="M785.314,139.29a6.414,6.414,0,0,1,.553-2.64,6.766,6.766,0,0,1,1.5-2.149,7.036,7.036,0,0,1,2.234-1.436,7.492,7.492,0,0,1,5.525,0,7.041,7.041,0,0,1,2.234,1.436,6.775,6.775,0,0,1,1.5,2.149,6.58,6.58,0,0,1,0,5.279,6.761,6.761,0,0,1-1.5,2.148,6.864,6.864,0,0,1-2.234,1.424,7.657,7.657,0,0,1-5.525,0,6.858,6.858,0,0,1-2.234-1.424,6.756,6.756,0,0,1-1.5-2.148A6.415,6.415,0,0,1,785.314,139.29Zm7.047,3.29a3,3,0,0,0,2.247-.958,3.446,3.446,0,0,0,0-4.69,3.115,3.115,0,0,0-4.493,0,3.446,3.446,0,0,0,0,4.69,3,3,0,0,0,2.247.958Z" transform="translate(-586.082 -54.043)" fill-rule="evenodd"/>
    <path id="Path_44127" data-name="Path 44127" d="M879.726,132.539v12.989H883.7v-8.25a3.568,3.568,0,0,1,1.289-1.2,3.511,3.511,0,0,1,1.731-.442,4.579,4.579,0,0,1,1.007.11,4.9,4.9,0,0,1,.884.282v-3.462a1.473,1.473,0,0,0-.589-.233,7.239,7.239,0,0,0-.909-.086,4.325,4.325,0,0,0-1.915.417,4.52,4.52,0,0,0-1.5,1.178v-1.3Z" transform="translate(-664.534 -53.8)"/>
    <path id="Path_44128" data-name="Path 44128" d="M948.58,144.172a8.349,8.349,0,0,1-2.516,1.5,8.515,8.515,0,0,1-2.91.466,7.457,7.457,0,0,1-2.774-.516,6.831,6.831,0,0,1-2.247-1.424,6.758,6.758,0,0,1-1.5-2.148,6.411,6.411,0,0,1-.552-2.64,6.657,6.657,0,0,1,.528-2.639,6.738,6.738,0,0,1,1.436-2.149,6.574,6.574,0,0,1,2.148-1.424,6.872,6.872,0,0,1,2.664-.516,6.351,6.351,0,0,1,4.7,2.014,6.678,6.678,0,0,1,1.363,2.247,8.033,8.033,0,0,1,.49,2.836v.982h-9.257a3.433,3.433,0,0,0,1.228,1.486,3.368,3.368,0,0,0,1.964.577,4.026,4.026,0,0,0,1.473-.258,3.227,3.227,0,0,0,1.13-.724Zm-5.794-8.25a2.723,2.723,0,0,0-1.694.54,2.884,2.884,0,0,0-1.007,1.522h5.427a3.142,3.142,0,0,0-1.044-1.5A2.657,2.657,0,0,0,942.785,135.922Z" transform="translate(-711.364 -54.162)" fill-rule="evenodd"/>
    <path id="Path_44129" data-name="Path 44129" d="M1088.88,145.528V132.539h3.978v1.3a4.541,4.541,0,0,1,1.5-1.178,4.33,4.33,0,0,1,1.915-.417,7.26,7.26,0,0,1,.91.086,1.481,1.481,0,0,1,.588.233v3.462a4.924,4.924,0,0,0-.884-.282,4.571,4.571,0,0,0-1.006-.11,3.511,3.511,0,0,0-1.731.442,3.572,3.572,0,0,0-1.29,1.2v8.25Z" transform="translate(-838.331 -53.8)"/>
    <path id="Path_44130" data-name="Path 44130" d="M1145.791,136.65a6.6,6.6,0,0,0,0,5.279,6.756,6.756,0,0,0,1.5,2.148,6.847,6.847,0,0,0,2.233,1.424,7.656,7.656,0,0,0,5.524,0,6.839,6.839,0,0,0,2.235-1.424,6.753,6.753,0,0,0,1.5-2.148,6.578,6.578,0,0,0,0-5.279,6.785,6.785,0,0,0-1.5-2.149,7.023,7.023,0,0,0-2.235-1.436,7.492,7.492,0,0,0-5.524,0,7.032,7.032,0,0,0-2.233,1.436A6.761,6.761,0,0,0,1145.791,136.65Zm7.72,5.69a3.085,3.085,0,0,1-3.472-.718,3.449,3.449,0,0,1,0-4.69,3.113,3.113,0,0,1,4.493,0,3.444,3.444,0,0,1,0,4.69A2.988,2.988,0,0,1,1153.511,142.341Z" transform="translate(-885.163 -54.043)" fill-rule="evenodd"/>
    <path id="Path_44131" data-name="Path 44131" d="M1239.65,132.783h3.978v.884a5.459,5.459,0,0,1,1.608-.835,5.979,5.979,0,0,1,1.878-.294,5,5,0,0,1,3.733,1.473,5.137,5.137,0,0,1,1.449,3.757v8h-3.978v-7.464a2.233,2.233,0,0,0-2.357-2.357,3.206,3.206,0,0,0-1.351.27,2.645,2.645,0,0,0-.982.761v8.79h-3.978Z" transform="translate(-963.614 -54.043)"/>
    <path id="Path_44132" data-name="Path 44132" d="M1323.469,116.665v5.721a3.87,3.87,0,0,0,1.19,3.082,5.2,5.2,0,0,0,3.523,1.044,10.982,10.982,0,0,0,1.4-.11,8.16,8.16,0,0,0,1.374-.282V122.9a6.366,6.366,0,0,1-.908.209,6.065,6.065,0,0,1-.884.061,1.963,1.963,0,0,1-1.339-.356,1.613,1.613,0,0,1-.38-1.215v-4.935h3.635v-3.315h-3.635v-4.2l-3.976.859v3.339h-2.629v3.315Z" transform="translate(-1031.079 -34.611)"/>
    <path id="Path_44133" data-name="Path 44133" d="M147.4,67.91A14.019,14.019,0,0,0,145.41,69.9a2.717,2.717,0,0,0,0,2.87,6.814,6.814,0,0,0,.946,1.047h0a6.816,6.816,0,0,0,1.047.947,2.717,2.717,0,0,0,2.87,0,14.011,14.011,0,0,0,1.994-1.993,2.717,2.717,0,0,0,0-2.87,14.021,14.021,0,0,0-1.994-1.993A2.717,2.717,0,0,0,147.4,67.91Z" transform="translate(-54.012)"/>
    <path id="Path_44134" data-name="Path 44134" d="M96.819,132.493l6.062-6.062a2.7,2.7,0,0,1,3.825,0l3.046,3.046L94.876,144.353,80,129.477l3.078-3.078a2.7,2.7,0,0,1,3.823,0L93,132.493a2.7,2.7,0,0,0,3.824,0Z" transform="translate(0 -48.284)"/>
  </g>
</svg>
